M48
; DRILL file {KiCad 8.0.7-8.0.7-0~ubuntu24.04.1} date 2025-01-10T11:12:58+0000
; FORMAT={-:-/ absolute / metric / decimal}
; #@! TF.CreationDate,2025-01-10T11:12:58+00:00
; #@! TF.GenerationSoftware,Kicad,Pcbnew,8.0.7-8.0.7-0~ubuntu24.04.1
; #@! TF.FileFunction,Plated,1,2,PTH
FMAT,2
METRIC
; #@! TA.AperFunction,Plated,PTH,ComponentDrill
T1C0.750
; #@! TA.AperFunction,Plated,PTH,ComponentDrill
T2C0.800
; #@! TA.AperFunction,Plated,PTH,ComponentDrill
T3C1.000
; #@! TA.AperFunction,Plated,PTH,ComponentDrill
T4C2.500
%
G90
G05
T1
X164.0Y-135.46
X164.0Y-136.73
X164.0Y-138.0
T2
X112.46Y-101.37
X112.46Y-111.53
X116.5Y-101.375
X116.5Y-111.535
X120.5Y-101.375
X120.5Y-111.535
X124.5Y-101.375
X124.5Y-111.535
X128.5Y-101.375
X128.5Y-111.535
X132.5Y-101.42
X132.5Y-111.58
X136.5Y-101.375
X136.5Y-111.535
X140.5Y-101.375
X140.5Y-111.535
X144.5Y-101.375
X144.5Y-111.535
X148.5Y-101.375
X148.5Y-111.535
X152.5Y-101.375
X152.5Y-111.535
X156.5Y-101.375
X156.5Y-111.535
X160.5Y-101.375
X160.5Y-111.535
X164.46Y-101.375
X164.46Y-111.535
X167.92Y-127.46
X167.92Y-130.46
X168.5Y-101.42
X168.5Y-111.58
X172.5Y-101.42
X172.5Y-111.58
X178.08Y-127.46
X178.08Y-130.46
T3
X111.0Y-133.0
X112.5Y-95.0
X112.5Y-97.54
X113.5Y-138.0
X116.0Y-133.0
X116.46Y-118.0
X116.46Y-120.54
X116.46Y-95.0
X116.46Y-97.54
X119.0Y-118.0
X119.0Y-120.54
X119.6Y-131.0
X120.5Y-95.0
X120.5Y-97.54
X121.54Y-118.0
X121.54Y-120.54
X122.14Y-131.0
X124.08Y-118.0
X124.08Y-120.54
X124.407Y-95.0
X124.407Y-97.54
X124.68Y-131.0
X126.62Y-118.0
X126.62Y-120.54
X127.22Y-131.0
X128.5Y-95.0
X128.5Y-97.54
X129.16Y-118.0
X129.16Y-120.54
X129.76Y-131.0
X131.7Y-118.0
X131.7Y-120.54
X132.3Y-131.0
X132.5Y-95.0
X132.5Y-97.54
X134.24Y-118.0
X134.24Y-120.54
X134.84Y-131.0
X136.5Y-95.0
X136.5Y-97.54
X136.78Y-118.0
X136.78Y-120.54
X137.38Y-131.0
X139.32Y-118.0
X139.32Y-120.54
X139.92Y-131.0
X140.5Y-95.0
X140.5Y-97.54
X141.86Y-118.0
X141.86Y-120.54
X142.46Y-131.0
X144.4Y-118.0
X144.4Y-120.54
X144.5Y-95.0
X144.5Y-97.54
X145.0Y-131.0
X146.94Y-118.0
X146.94Y-120.54
X147.54Y-131.0
X148.5Y-95.0
X148.5Y-97.54
X149.48Y-118.0
X149.48Y-120.54
X150.08Y-131.0
X152.02Y-118.0
X152.02Y-120.54
X152.5Y-95.0
X152.5Y-97.54
X152.62Y-131.0
X154.46Y-126.5
X154.56Y-118.0
X154.56Y-120.54
X155.16Y-131.0
X156.5Y-95.0
X156.5Y-97.54
X157.0Y-126.5
X157.1Y-118.0
X157.1Y-120.54
X157.7Y-131.0
X159.54Y-126.5
X159.64Y-118.0
X159.64Y-120.54
X160.5Y-95.0
X160.5Y-97.54
X162.18Y-118.0
X162.18Y-120.54
X164.455Y-95.0
X164.455Y-97.54
X164.72Y-118.0
X164.72Y-120.54
X168.5Y-95.0
X168.5Y-97.54
X170.0Y-133.5
X170.0Y-138.5
X172.5Y-95.0
X172.5Y-97.54
X175.0Y-136.0
T4
X109.75Y-89.5
X109.75Y-122.25
X176.25Y-89.5
X176.25Y-122.25
M30
