%TF.GenerationSoftware,KiCad,Pcbnew,8.0.7-8.0.7-0~ubuntu24.04.1*%
%TF.CreationDate,2025-01-10T11:12:07+00:00*%
%TF.ProjectId,whenisbins,7768656e-6973-4626-996e-732e6b696361,rev?*%
%TF.SameCoordinates,Original*%
%TF.FileFunction,Legend,Bot*%
%TF.FilePolarity,Positive*%
%FSLAX46Y46*%
G04 Gerber Fmt 4.6, Leading zero omitted, Abs format (unit mm)*
G04 Created by KiCad (PCBNEW 8.0.7-8.0.7-0~ubuntu24.04.1) date 2025-01-10 11:12:07*
%MOMM*%
%LPD*%
G01*
G04 APERTURE LIST*
%ADD10C,0.100000*%
%ADD11C,2.900000*%
%ADD12C,5.000000*%
%ADD13O,1.600000X1.600000*%
%ADD14C,1.600000*%
%ADD15O,1.700000X1.700000*%
%ADD16R,1.700000X1.700000*%
%ADD17R,1.560000X1.560000*%
%ADD18C,1.560000*%
%ADD19R,1.500000X1.050000*%
%ADD20O,1.500000X1.050000*%
G04 APERTURE END LIST*
D10*
X115922306Y-123372419D02*
X116493734Y-123372419D01*
X116208020Y-123372419D02*
X116208020Y-122372419D01*
X116208020Y-122372419D02*
X116303258Y-122515276D01*
X116303258Y-122515276D02*
X116398496Y-122610514D01*
X116398496Y-122610514D02*
X116493734Y-122658133D01*
X116267544Y-115455752D02*
X116267544Y-116122419D01*
X116505639Y-115074800D02*
X116743734Y-115789085D01*
X116743734Y-115789085D02*
X116124687Y-115789085D01*
X115553258Y-115122419D02*
X115458020Y-115122419D01*
X115458020Y-115122419D02*
X115362782Y-115170038D01*
X115362782Y-115170038D02*
X115315163Y-115217657D01*
X115315163Y-115217657D02*
X115267544Y-115312895D01*
X115267544Y-115312895D02*
X115219925Y-115503371D01*
X115219925Y-115503371D02*
X115219925Y-115741466D01*
X115219925Y-115741466D02*
X115267544Y-115931942D01*
X115267544Y-115931942D02*
X115315163Y-116027180D01*
X115315163Y-116027180D02*
X115362782Y-116074800D01*
X115362782Y-116074800D02*
X115458020Y-116122419D01*
X115458020Y-116122419D02*
X115553258Y-116122419D01*
X115553258Y-116122419D02*
X115648496Y-116074800D01*
X115648496Y-116074800D02*
X115696115Y-116027180D01*
X115696115Y-116027180D02*
X115743734Y-115931942D01*
X115743734Y-115931942D02*
X115791353Y-115741466D01*
X115791353Y-115741466D02*
X115791353Y-115503371D01*
X115791353Y-115503371D02*
X115743734Y-115312895D01*
X115743734Y-115312895D02*
X115696115Y-115217657D01*
X115696115Y-115217657D02*
X115648496Y-115170038D01*
X115648496Y-115170038D02*
X115553258Y-115122419D01*
%LPC*%
D11*
X109750000Y-89500000D03*
D12*
X109750000Y-89500000D03*
D11*
X176250000Y-89500000D03*
D12*
X176250000Y-89500000D03*
D11*
X109750000Y-122250000D03*
D12*
X109750000Y-122250000D03*
D11*
X176250000Y-122250000D03*
D12*
X176250000Y-122250000D03*
D13*
X152500000Y-111534545D03*
D14*
X152500000Y-101374545D03*
D13*
X156500000Y-111534545D03*
D14*
X156500000Y-101374545D03*
D13*
X160500000Y-111534545D03*
D14*
X160500000Y-101374545D03*
D13*
X164460500Y-101374545D03*
D14*
X164460500Y-111534545D03*
D13*
X168500000Y-101420000D03*
D14*
X168500000Y-111580000D03*
D13*
X172500000Y-101420000D03*
D14*
X172500000Y-111580000D03*
D15*
X152500000Y-97540000D03*
D16*
X152500000Y-95000000D03*
X156500000Y-95000000D03*
D15*
X156500000Y-97540000D03*
X160500000Y-97540000D03*
D16*
X160500000Y-95000000D03*
D15*
X164454762Y-97540000D03*
D16*
X164454762Y-95000000D03*
D15*
X168500000Y-97540000D03*
D16*
X168500000Y-95000000D03*
D15*
X172500000Y-97540000D03*
D16*
X172500000Y-95000000D03*
D13*
X128500000Y-101374545D03*
D14*
X128500000Y-111534545D03*
D16*
X112500000Y-95000000D03*
D15*
X112500000Y-97540000D03*
D14*
X136500000Y-111534545D03*
D13*
X136500000Y-101374545D03*
D17*
X170000000Y-138500000D03*
D18*
X175000000Y-136000000D03*
X170000000Y-133500000D03*
D13*
X167920000Y-127460500D03*
D14*
X178080000Y-127460500D03*
D15*
X132500000Y-97540000D03*
D16*
X132500000Y-95000000D03*
D15*
X116460000Y-118000000D03*
X119000000Y-118000000D03*
X121540000Y-118000000D03*
X124080000Y-118000000D03*
X126620000Y-118000000D03*
X129160000Y-118000000D03*
X131700000Y-118000000D03*
X134240000Y-118000000D03*
X136780000Y-118000000D03*
X139320000Y-118000000D03*
X141860000Y-118000000D03*
X144400000Y-118000000D03*
X146940000Y-118000000D03*
X149480000Y-118000000D03*
X152020000Y-118000000D03*
X154560000Y-118000000D03*
X157100000Y-118000000D03*
X159640000Y-118000000D03*
X162180000Y-118000000D03*
X164720000Y-118000000D03*
X164720000Y-120540000D03*
X162180000Y-120540000D03*
X159640000Y-120540000D03*
X157100000Y-120540000D03*
X154560000Y-120540000D03*
X152020000Y-120540000D03*
X149480000Y-120540000D03*
X146940000Y-120540000D03*
X144400000Y-120540000D03*
X141860000Y-120540000D03*
X139320000Y-120540000D03*
X136780000Y-120540000D03*
X134240000Y-120540000D03*
X131700000Y-120540000D03*
X129160000Y-120540000D03*
X126620000Y-120540000D03*
X124080000Y-120540000D03*
X121540000Y-120540000D03*
X119000000Y-120540000D03*
D16*
X116460000Y-120540000D03*
X120500000Y-95000000D03*
D15*
X120500000Y-97540000D03*
D14*
X132500000Y-111580000D03*
D13*
X132500000Y-101420000D03*
D15*
X128500000Y-97540000D03*
D16*
X128500000Y-95000000D03*
D17*
X111000000Y-133000000D03*
D18*
X113500000Y-138000000D03*
X116000000Y-133000000D03*
D15*
X148500000Y-97540000D03*
D16*
X148500000Y-95000000D03*
X116460500Y-95000000D03*
D15*
X116460500Y-97540000D03*
D16*
X124407143Y-95000000D03*
D15*
X124407143Y-97540000D03*
D16*
X154460000Y-126500000D03*
D15*
X157000000Y-126500000D03*
X159540000Y-126500000D03*
D13*
X124500000Y-101374545D03*
D14*
X124500000Y-111534545D03*
X148500000Y-111534545D03*
D13*
X148500000Y-101374545D03*
X116500000Y-101374545D03*
D14*
X116500000Y-111534545D03*
X112460500Y-111530000D03*
D13*
X112460500Y-101370000D03*
D15*
X140500000Y-97540000D03*
D16*
X140500000Y-95000000D03*
D14*
X120500000Y-111534545D03*
D13*
X120500000Y-101374545D03*
D14*
X144500000Y-111534545D03*
D13*
X144500000Y-101374545D03*
D15*
X144500000Y-97540000D03*
D16*
X144500000Y-95000000D03*
D14*
X140500000Y-111534545D03*
D13*
X140500000Y-101374545D03*
D19*
X164000000Y-138000000D03*
D20*
X164000000Y-136730000D03*
X164000000Y-135460000D03*
D15*
X136500000Y-97540000D03*
D16*
X136500000Y-95000000D03*
D14*
X178080000Y-130460500D03*
D13*
X167920000Y-130460500D03*
D15*
X157700000Y-131000000D03*
X155160000Y-131000000D03*
X152620000Y-131000000D03*
X150080000Y-131000000D03*
X147540000Y-131000000D03*
X145000000Y-131000000D03*
X142460000Y-131000000D03*
X139920000Y-131000000D03*
X137380000Y-131000000D03*
X134840000Y-131000000D03*
X132300000Y-131000000D03*
X129760000Y-131000000D03*
X127220000Y-131000000D03*
X124680000Y-131000000D03*
X122140000Y-131000000D03*
D16*
X119600000Y-131000000D03*
%LPD*%
M02*
