%TF.GenerationSoftware,KiCad,Pcbnew,8.0.7-8.0.7-0~ubuntu24.04.1*%
%TF.CreationDate,2025-01-10T11:12:07+00:00*%
%TF.ProjectId,whenisbins,7768656e-6973-4626-996e-732e6b696361,rev?*%
%TF.SameCoordinates,Original*%
%TF.FileFunction,Copper,L1,Top*%
%TF.FilePolarity,Positive*%
%FSLAX46Y46*%
G04 Gerber Fmt 4.6, Leading zero omitted, Abs format (unit mm)*
G04 Created by KiCad (PCBNEW 8.0.7-8.0.7-0~ubuntu24.04.1) date 2025-01-10 11:12:07*
%MOMM*%
%LPD*%
G01*
G04 APERTURE LIST*
%TA.AperFunction,ComponentPad*%
%ADD10C,2.900000*%
%TD*%
%TA.AperFunction,ConnectorPad*%
%ADD11C,5.000000*%
%TD*%
%TA.AperFunction,ComponentPad*%
%ADD12O,1.600000X1.600000*%
%TD*%
%TA.AperFunction,ComponentPad*%
%ADD13C,1.600000*%
%TD*%
%TA.AperFunction,ComponentPad*%
%ADD14O,1.700000X1.700000*%
%TD*%
%TA.AperFunction,ComponentPad*%
%ADD15R,1.700000X1.700000*%
%TD*%
%TA.AperFunction,ComponentPad*%
%ADD16R,1.560000X1.560000*%
%TD*%
%TA.AperFunction,ComponentPad*%
%ADD17C,1.560000*%
%TD*%
%TA.AperFunction,ComponentPad*%
%ADD18R,1.500000X1.050000*%
%TD*%
%TA.AperFunction,ComponentPad*%
%ADD19O,1.500000X1.050000*%
%TD*%
%TA.AperFunction,Conductor*%
%ADD20C,0.200000*%
%TD*%
G04 APERTURE END LIST*
D10*
X109750000Y-89500000D03*
D11*
X109750000Y-89500000D03*
D10*
X176250000Y-89500000D03*
D11*
X176250000Y-89500000D03*
D10*
X109750000Y-122250000D03*
D11*
X109750000Y-122250000D03*
D10*
X176250000Y-122250000D03*
D11*
X176250000Y-122250000D03*
D12*
X152500000Y-111534545D03*
D13*
X152500000Y-101374545D03*
D12*
X156500000Y-111534545D03*
D13*
X156500000Y-101374545D03*
D12*
X160500000Y-111534545D03*
D13*
X160500000Y-101374545D03*
D12*
X164460500Y-101374545D03*
D13*
X164460500Y-111534545D03*
D12*
X168500000Y-101420000D03*
D13*
X168500000Y-111580000D03*
D12*
X172500000Y-101420000D03*
D13*
X172500000Y-111580000D03*
D14*
X152500000Y-97540000D03*
D15*
X152500000Y-95000000D03*
X156500000Y-95000000D03*
D14*
X156500000Y-97540000D03*
X160500000Y-97540000D03*
D15*
X160500000Y-95000000D03*
D14*
X164454762Y-97540000D03*
D15*
X164454762Y-95000000D03*
D14*
X168500000Y-97540000D03*
D15*
X168500000Y-95000000D03*
D14*
X172500000Y-97540000D03*
D15*
X172500000Y-95000000D03*
D12*
X128500000Y-101374545D03*
D13*
X128500000Y-111534545D03*
D15*
X112500000Y-95000000D03*
D14*
X112500000Y-97540000D03*
D13*
X136500000Y-111534545D03*
D12*
X136500000Y-101374545D03*
D16*
X170000000Y-138500000D03*
D17*
X175000000Y-136000000D03*
X170000000Y-133500000D03*
D12*
X167920000Y-127460500D03*
D13*
X178080000Y-127460500D03*
D14*
X132500000Y-97540000D03*
D15*
X132500000Y-95000000D03*
D14*
X116460000Y-118000000D03*
X119000000Y-118000000D03*
X121540000Y-118000000D03*
X124080000Y-118000000D03*
X126620000Y-118000000D03*
X129160000Y-118000000D03*
X131700000Y-118000000D03*
X134240000Y-118000000D03*
X136780000Y-118000000D03*
X139320000Y-118000000D03*
X141860000Y-118000000D03*
X144400000Y-118000000D03*
X146940000Y-118000000D03*
X149480000Y-118000000D03*
X152020000Y-118000000D03*
X154560000Y-118000000D03*
X157100000Y-118000000D03*
X159640000Y-118000000D03*
X162180000Y-118000000D03*
X164720000Y-118000000D03*
X164720000Y-120540000D03*
X162180000Y-120540000D03*
X159640000Y-120540000D03*
X157100000Y-120540000D03*
X154560000Y-120540000D03*
X152020000Y-120540000D03*
X149480000Y-120540000D03*
X146940000Y-120540000D03*
X144400000Y-120540000D03*
X141860000Y-120540000D03*
X139320000Y-120540000D03*
X136780000Y-120540000D03*
X134240000Y-120540000D03*
X131700000Y-120540000D03*
X129160000Y-120540000D03*
X126620000Y-120540000D03*
X124080000Y-120540000D03*
X121540000Y-120540000D03*
X119000000Y-120540000D03*
D15*
X116460000Y-120540000D03*
X120500000Y-95000000D03*
D14*
X120500000Y-97540000D03*
D13*
X132500000Y-111580000D03*
D12*
X132500000Y-101420000D03*
D14*
X128500000Y-97540000D03*
D15*
X128500000Y-95000000D03*
D16*
X111000000Y-133000000D03*
D17*
X113500000Y-138000000D03*
X116000000Y-133000000D03*
D14*
X148500000Y-97540000D03*
D15*
X148500000Y-95000000D03*
X116460500Y-95000000D03*
D14*
X116460500Y-97540000D03*
D15*
X124407143Y-95000000D03*
D14*
X124407143Y-97540000D03*
D15*
X154460000Y-126500000D03*
D14*
X157000000Y-126500000D03*
X159540000Y-126500000D03*
D12*
X124500000Y-101374545D03*
D13*
X124500000Y-111534545D03*
X148500000Y-111534545D03*
D12*
X148500000Y-101374545D03*
X116500000Y-101374545D03*
D13*
X116500000Y-111534545D03*
X112460500Y-111530000D03*
D12*
X112460500Y-101370000D03*
D14*
X140500000Y-97540000D03*
D15*
X140500000Y-95000000D03*
D13*
X120500000Y-111534545D03*
D12*
X120500000Y-101374545D03*
D13*
X144500000Y-111534545D03*
D12*
X144500000Y-101374545D03*
D14*
X144500000Y-97540000D03*
D15*
X144500000Y-95000000D03*
D13*
X140500000Y-111534545D03*
D12*
X140500000Y-101374545D03*
D18*
X164000000Y-138000000D03*
D19*
X164000000Y-136730000D03*
X164000000Y-135460000D03*
D14*
X136500000Y-97540000D03*
D15*
X136500000Y-95000000D03*
D13*
X178080000Y-130460500D03*
D12*
X167920000Y-130460500D03*
D14*
X157700000Y-131000000D03*
X155160000Y-131000000D03*
X152620000Y-131000000D03*
X150080000Y-131000000D03*
X147540000Y-131000000D03*
X145000000Y-131000000D03*
X142460000Y-131000000D03*
X139920000Y-131000000D03*
X137380000Y-131000000D03*
X134840000Y-131000000D03*
X132300000Y-131000000D03*
X129760000Y-131000000D03*
X127220000Y-131000000D03*
X124680000Y-131000000D03*
X122140000Y-131000000D03*
D15*
X119600000Y-131000000D03*
D20*
X160500000Y-97540000D02*
X160500000Y-101374545D01*
X152500000Y-97540000D02*
X152500000Y-101374545D01*
X152500000Y-95000000D02*
X160500000Y-95000000D01*
X116460000Y-120540000D02*
X117610000Y-119390000D01*
X117610000Y-119390000D02*
X135630000Y-119390000D01*
X135630000Y-119390000D02*
X136780000Y-120540000D01*
X129760000Y-131000000D02*
X122760000Y-138000000D01*
X122760000Y-138000000D02*
X113500000Y-138000000D01*
X156500000Y-101374545D02*
X156500000Y-97540000D01*
X164000000Y-136730000D02*
X168810500Y-136730000D01*
X168810500Y-136730000D02*
X178080000Y-127460500D01*
X157700000Y-131000000D02*
X157700000Y-136200000D01*
X157700000Y-136200000D02*
X159500000Y-138000000D01*
X159500000Y-138000000D02*
X164000000Y-138000000D01*
X170000000Y-138500000D02*
X168000000Y-138500000D01*
X168000000Y-138500000D02*
X166500000Y-140000000D01*
X166500000Y-140000000D02*
X158500000Y-140000000D01*
X158500000Y-140000000D02*
X155160000Y-136660000D01*
X155160000Y-136660000D02*
X155160000Y-131000000D01*
X175000000Y-136000000D02*
X175000000Y-132000000D01*
X175000000Y-132000000D02*
X176539500Y-130460500D01*
X176539500Y-130460500D02*
X178080000Y-130460500D01*
X113000000Y-135500000D02*
X124500000Y-135500000D01*
X111000000Y-133000000D02*
X113000000Y-135000000D01*
X124680000Y-135320000D02*
X124680000Y-131000000D01*
X113000000Y-135000000D02*
X113000000Y-135500000D01*
X124500000Y-135500000D02*
X124680000Y-135320000D01*
X167920000Y-127460500D02*
X163039500Y-127460500D01*
X163039500Y-127460500D02*
X161500000Y-129000000D01*
X161500000Y-129000000D02*
X151185686Y-129000000D01*
X139320000Y-124820000D02*
X139320000Y-120540000D01*
X151185686Y-129000000D02*
X147685686Y-125500000D01*
X147685686Y-125500000D02*
X140000000Y-125500000D01*
X140000000Y-125500000D02*
X139320000Y-124820000D01*
X145334314Y-123400000D02*
X145100000Y-123165685D01*
X145100000Y-123165685D02*
X144485685Y-123165685D01*
X145500000Y-123500000D02*
X145400000Y-123400000D01*
X157000000Y-125000000D02*
X155500000Y-123500000D01*
X145400000Y-123400000D02*
X145334314Y-123400000D01*
X157000000Y-126500000D02*
X157000000Y-125000000D01*
X155500000Y-123500000D02*
X145500000Y-123500000D01*
X144485685Y-123165685D02*
X141860000Y-120540000D01*
X172500000Y-111580000D02*
X169500000Y-114580000D01*
X169199999Y-121500001D02*
X169199999Y-121865687D01*
X169500000Y-114580000D02*
X169500000Y-115500000D01*
X169500000Y-115500000D02*
X169200000Y-115800000D01*
X144400000Y-121900000D02*
X144400000Y-120540000D01*
X169200000Y-115800000D02*
X169200000Y-121300000D01*
X169200000Y-121300000D02*
X169199999Y-121500001D01*
X169199999Y-121865687D02*
X166565686Y-124500000D01*
X157388628Y-124500000D02*
X155888628Y-123000000D01*
X166565686Y-124500000D02*
X157388628Y-124500000D01*
X155888628Y-123000000D02*
X145500000Y-123000000D01*
X145500000Y-123000000D02*
X144400000Y-121900000D01*
X168500000Y-111580000D02*
X168500000Y-116237257D01*
X157454314Y-124000000D02*
X155954314Y-122500000D01*
X168500000Y-116237257D02*
X168800000Y-116537257D01*
X168565685Y-121934315D02*
X166500000Y-124000000D01*
X168800000Y-116537257D02*
X168800000Y-121462742D01*
X168565685Y-121697056D02*
X168565685Y-121934315D01*
X168800000Y-121462742D02*
X168565685Y-121697056D01*
X166500000Y-124000000D02*
X157454314Y-124000000D01*
X155954314Y-122500000D02*
X153000000Y-122500000D01*
X153000000Y-122500000D02*
X152020000Y-121520000D01*
X152020000Y-121520000D02*
X152020000Y-120540000D01*
X172500000Y-101420000D02*
X172500000Y-97540000D01*
X168500000Y-101420000D02*
X168500000Y-97540000D01*
X164460500Y-111534545D02*
X164460500Y-114260500D01*
X164460500Y-114260500D02*
X165000000Y-114800000D01*
X166297056Y-123400000D02*
X157420000Y-123400000D01*
X165000000Y-114800000D02*
X166497057Y-114800000D01*
X166497057Y-114800000D02*
X168400000Y-116702943D01*
X168400000Y-116702943D02*
X168400000Y-121297056D01*
X168400000Y-121297056D02*
X166297056Y-123400000D01*
X157420000Y-123400000D02*
X154560000Y-120540000D01*
X164454762Y-97540000D02*
X164454762Y-101368807D01*
X164454762Y-101368807D02*
X164460500Y-101374545D01*
X161365686Y-114800000D02*
X163600000Y-114800000D01*
X166565686Y-115434315D02*
X168000000Y-116868629D01*
X160500000Y-113934314D02*
X161365686Y-114800000D01*
X166331372Y-115200000D02*
X166565686Y-115434315D01*
X163600000Y-114800000D02*
X164000000Y-115200000D01*
X164000000Y-115200000D02*
X166331372Y-115200000D01*
X168000000Y-116868629D02*
X168000000Y-121131370D01*
X168000000Y-121131370D02*
X166131370Y-123000000D01*
X166131370Y-123000000D02*
X159560000Y-123000000D01*
X159560000Y-123000000D02*
X157100000Y-120540000D01*
X156500000Y-111534545D02*
X156500000Y-113900000D01*
X160400000Y-114400000D02*
X161200000Y-115200000D01*
X156500000Y-113900000D02*
X157000000Y-114400000D01*
X157000000Y-114400000D02*
X160400000Y-114400000D01*
X163600000Y-115600000D02*
X166165686Y-115600000D01*
X166165685Y-122400000D02*
X161500000Y-122400000D01*
X161200000Y-115200000D02*
X163200000Y-115200000D01*
X163200000Y-115200000D02*
X163600000Y-115600000D01*
X166165686Y-115600000D02*
X167400000Y-116834314D01*
X161500000Y-122400000D02*
X159640000Y-120540000D01*
X167400000Y-116834314D02*
X167400000Y-121165685D01*
X167400000Y-121165685D02*
X166165685Y-122400000D01*
X162000000Y-122000000D02*
X162000000Y-120720000D01*
X152500000Y-113700000D02*
X153000000Y-114200000D01*
X160580000Y-115268630D02*
X160911370Y-115600000D01*
X153000000Y-114200000D02*
X153022743Y-114200000D01*
X153022743Y-114200000D02*
X153622743Y-114800000D01*
X163285686Y-116000000D02*
X166000000Y-116000000D01*
X153622743Y-114800000D02*
X160111371Y-114800000D01*
X160111371Y-114800000D02*
X160345686Y-115034315D01*
X167000000Y-121000000D02*
X166000000Y-122000000D01*
X160345686Y-115034315D02*
X160580000Y-115268630D01*
X162000000Y-120720000D02*
X162180000Y-120540000D01*
X160911370Y-115600000D02*
X162885686Y-115600000D01*
X162885686Y-115600000D02*
X163285686Y-116000000D01*
X166000000Y-116000000D02*
X167000000Y-117000000D01*
X167000000Y-117000000D02*
X167000000Y-121000000D01*
X166000000Y-122000000D02*
X162000000Y-122000000D01*
X148500000Y-111534545D02*
X148500000Y-114100000D01*
X162720000Y-116000000D02*
X164720000Y-118000000D01*
X148500000Y-114100000D02*
X149000000Y-114600000D01*
X149000000Y-114600000D02*
X152857057Y-114600000D01*
X159945686Y-115200000D02*
X160180000Y-115434315D01*
X152857057Y-114600000D02*
X153457057Y-115200000D01*
X160180000Y-115434315D02*
X160745685Y-116000000D01*
X160745685Y-116000000D02*
X162720000Y-116000000D01*
X153457057Y-115200000D02*
X159945686Y-115200000D01*
X144500000Y-111534545D02*
X144500000Y-114300000D01*
X148131371Y-115000000D02*
X152691371Y-115000000D01*
X152691371Y-115000000D02*
X153291371Y-115600000D01*
X144500000Y-114300000D02*
X145000000Y-114800000D01*
X145000000Y-114800000D02*
X147931371Y-114800000D01*
X147931371Y-114800000D02*
X148131371Y-115000000D01*
X153291371Y-115600000D02*
X159780000Y-115600000D01*
X159780000Y-115600000D02*
X162180000Y-118000000D01*
X140500000Y-111534545D02*
X140500000Y-113300000D01*
X159000000Y-116000000D02*
X159000000Y-117360000D01*
X140500000Y-113300000D02*
X141000000Y-113800000D01*
X141000000Y-113800000D02*
X141931372Y-113800000D01*
X147765686Y-115200000D02*
X148000000Y-115434315D01*
X141931372Y-113800000D02*
X143331372Y-115200000D01*
X143331372Y-115200000D02*
X147765686Y-115200000D01*
X148000000Y-115434315D02*
X152560001Y-115434315D01*
X152560001Y-115434315D02*
X153125686Y-116000000D01*
X159000000Y-117360000D02*
X159640000Y-118000000D01*
X153125686Y-116000000D02*
X159000000Y-116000000D01*
X136500000Y-111534545D02*
X136500000Y-112700000D01*
X152560000Y-116000000D02*
X154560000Y-118000000D01*
X136500000Y-112700000D02*
X137000000Y-113200000D01*
X139565686Y-113434316D02*
X140331370Y-114200000D01*
X137000000Y-113200000D02*
X139331371Y-113200000D01*
X140331370Y-114200000D02*
X141765686Y-114200000D01*
X139331371Y-113200000D02*
X139565686Y-113434316D01*
X141765686Y-114200000D02*
X143165686Y-115600000D01*
X143165686Y-115600000D02*
X147600000Y-115600000D01*
X147600000Y-115600000D02*
X148000000Y-116000000D01*
X148000000Y-116000000D02*
X152560000Y-116000000D01*
X132500000Y-111580000D02*
X132500000Y-113100000D01*
X133000000Y-113600000D02*
X139165686Y-113600000D01*
X139165686Y-113600000D02*
X139400000Y-113834315D01*
X132500000Y-113100000D02*
X133000000Y-113600000D01*
X139400000Y-113834315D02*
X140165685Y-114600000D01*
X140165685Y-114600000D02*
X141600000Y-114600000D01*
X141600000Y-114600000D02*
X143000000Y-116000000D01*
X143000000Y-116000000D02*
X147000000Y-116000000D01*
X147000000Y-116000000D02*
X147000000Y-117940000D01*
X147000000Y-117940000D02*
X146940000Y-118000000D01*
X139000000Y-114000000D02*
X140000000Y-115000000D01*
X129000000Y-114000000D02*
X139000000Y-114000000D01*
X128500000Y-111534545D02*
X128500000Y-113500000D01*
X128500000Y-113500000D02*
X129000000Y-114000000D01*
X140000000Y-115000000D02*
X141400000Y-115000000D01*
X141400000Y-115000000D02*
X144400000Y-118000000D01*
X124500000Y-111534545D02*
X124500000Y-114100000D01*
X124500000Y-114100000D02*
X125000000Y-114600000D01*
X125000000Y-114600000D02*
X138600000Y-114600000D01*
X138600000Y-114600000D02*
X140000000Y-116000000D01*
X140000000Y-116000000D02*
X140000000Y-116140000D01*
X140000000Y-116140000D02*
X141860000Y-118000000D01*
X120500000Y-111534545D02*
X120500000Y-114500000D01*
X120500000Y-114500000D02*
X121000000Y-115000000D01*
X121000000Y-115000000D02*
X133780000Y-115000000D01*
X133780000Y-115000000D02*
X136780000Y-118000000D01*
X116500000Y-111534545D02*
X116500000Y-114500000D01*
X116500000Y-114500000D02*
X117600000Y-115600000D01*
X117600000Y-115600000D02*
X131840000Y-115600000D01*
X131840000Y-115600000D02*
X134240000Y-118000000D01*
X113000000Y-116000000D02*
X129000000Y-116000000D01*
X112460500Y-111530000D02*
X112460500Y-115460500D01*
X112460500Y-115460500D02*
X113000000Y-116000000D01*
X129000000Y-116000000D02*
X129160000Y-116160000D01*
X129160000Y-116160000D02*
X129160000Y-118000000D01*
X127220000Y-131000000D02*
X127220000Y-128760000D01*
X127220000Y-128760000D02*
X119000000Y-120540000D01*
X121540000Y-120540000D02*
X132000000Y-131000000D01*
X132000000Y-131000000D02*
X132300000Y-131000000D01*
X124080000Y-120540000D02*
X124540000Y-120540000D01*
X124540000Y-120540000D02*
X131100000Y-127100000D01*
X131100000Y-127100000D02*
X141100000Y-127100000D01*
X141100000Y-127100000D02*
X145000000Y-131000000D01*
X135320000Y-126700000D02*
X145000000Y-126700000D01*
X129160000Y-120540000D02*
X135320000Y-126700000D01*
X147540000Y-129240000D02*
X147540000Y-131000000D01*
X145000000Y-126700000D02*
X147540000Y-129240000D01*
X131700000Y-120540000D02*
X137460000Y-126300000D01*
X137460000Y-126300000D02*
X145380000Y-126300000D01*
X145380000Y-126300000D02*
X150080000Y-131000000D01*
X134240000Y-120540000D02*
X139600000Y-125900000D01*
X139600000Y-125900000D02*
X147520000Y-125900000D01*
X147520000Y-125900000D02*
X152620000Y-131000000D01*
X148500000Y-101374545D02*
X148500000Y-97540000D01*
X144500000Y-101374545D02*
X144500000Y-97540000D01*
X140500000Y-101374545D02*
X140500000Y-97540000D01*
X136500000Y-101374545D02*
X136500000Y-97540000D01*
X132500000Y-101420000D02*
X132500000Y-97540000D01*
X128500000Y-101374545D02*
X128500000Y-97540000D01*
X124500000Y-101374545D02*
X124500000Y-97632857D01*
X124500000Y-97632857D02*
X124407143Y-97540000D01*
X120500000Y-101374545D02*
X120500000Y-97540000D01*
X116500000Y-101374545D02*
X116500000Y-97579500D01*
X116500000Y-97579500D02*
X116460500Y-97540000D01*
X112460500Y-101370000D02*
X112460500Y-97579500D01*
X112460500Y-97579500D02*
X112500000Y-97540000D01*
X160500000Y-111534545D02*
X160500000Y-113934314D01*
X152500000Y-111534545D02*
X152500000Y-113700000D01*
%TA.AperFunction,Conductor*%
G36*
X174623842Y-86770185D02*
G01*
X174669597Y-86822989D01*
X174679541Y-86892147D01*
X174650516Y-86955703D01*
X174624942Y-86978100D01*
X174455494Y-87089547D01*
X174455487Y-87089552D01*
X174312817Y-87209264D01*
X175559874Y-88456320D01*
X175435680Y-88546554D01*
X175296554Y-88685680D01*
X175206320Y-88809873D01*
X173956148Y-87559701D01*
X173956146Y-87559701D01*
X173947973Y-87568366D01*
X173739289Y-87848677D01*
X173564561Y-88151316D01*
X173564555Y-88151329D01*
X173426145Y-88472199D01*
X173325916Y-88806988D01*
X173325914Y-88806997D01*
X173265236Y-89151119D01*
X173265235Y-89151130D01*
X173244916Y-89499996D01*
X173244916Y-89500003D01*
X173265235Y-89848869D01*
X173265236Y-89848880D01*
X173325914Y-90193002D01*
X173325916Y-90193011D01*
X173426145Y-90527800D01*
X173564555Y-90848670D01*
X173564561Y-90848683D01*
X173739289Y-91151322D01*
X173947972Y-91431631D01*
X173947976Y-91431636D01*
X173956147Y-91440297D01*
X173956148Y-91440298D01*
X175206320Y-90190125D01*
X175296554Y-90314320D01*
X175435680Y-90453446D01*
X175559873Y-90543678D01*
X174312817Y-91790733D01*
X174312818Y-91790734D01*
X174455480Y-91910442D01*
X174747461Y-92102480D01*
X175059739Y-92259314D01*
X175059745Y-92259316D01*
X175388130Y-92378838D01*
X175388133Y-92378839D01*
X175728171Y-92459429D01*
X176075276Y-92499999D01*
X176075277Y-92500000D01*
X176424723Y-92500000D01*
X176424723Y-92499999D01*
X176771827Y-92459429D01*
X176771829Y-92459429D01*
X177111866Y-92378839D01*
X177111869Y-92378838D01*
X177440254Y-92259316D01*
X177440260Y-92259314D01*
X177752538Y-92102480D01*
X178044515Y-91910445D01*
X178187180Y-91790734D01*
X178187181Y-91790733D01*
X176940126Y-90543678D01*
X177064320Y-90453446D01*
X177203446Y-90314320D01*
X177293679Y-90190126D01*
X178543850Y-91440297D01*
X178552032Y-91431625D01*
X178760710Y-91151322D01*
X178768112Y-91138502D01*
X178818678Y-91090286D01*
X178887284Y-91077061D01*
X178952150Y-91103028D01*
X178992679Y-91159941D01*
X178999500Y-91200500D01*
X178999500Y-120549499D01*
X178979815Y-120616538D01*
X178927011Y-120662293D01*
X178857853Y-120672237D01*
X178794297Y-120643212D01*
X178768113Y-120611500D01*
X178760707Y-120598674D01*
X178552029Y-120318371D01*
X178543850Y-120309701D01*
X178543850Y-120309700D01*
X177293678Y-121559872D01*
X177203446Y-121435680D01*
X177064320Y-121296554D01*
X176940125Y-121206320D01*
X178187181Y-119959265D01*
X178187180Y-119959264D01*
X178044519Y-119839557D01*
X177752538Y-119647519D01*
X177440260Y-119490685D01*
X177440254Y-119490683D01*
X177111869Y-119371161D01*
X177111866Y-119371160D01*
X176771828Y-119290570D01*
X176424723Y-119250000D01*
X176075277Y-119250000D01*
X175728172Y-119290570D01*
X175728170Y-119290570D01*
X175388133Y-119371160D01*
X175388130Y-119371161D01*
X175059745Y-119490683D01*
X175059739Y-119490685D01*
X174747461Y-119647519D01*
X174455485Y-119839554D01*
X174312817Y-119959264D01*
X175559874Y-121206320D01*
X175435680Y-121296554D01*
X175296554Y-121435680D01*
X175206320Y-121559873D01*
X173956148Y-120309701D01*
X173956146Y-120309701D01*
X173947973Y-120318366D01*
X173739289Y-120598677D01*
X173564561Y-120901316D01*
X173564555Y-120901329D01*
X173426145Y-121222199D01*
X173325916Y-121556988D01*
X173325914Y-121556997D01*
X173265236Y-121901119D01*
X173265235Y-121901130D01*
X173244916Y-122249996D01*
X173244916Y-122250003D01*
X173265235Y-122598869D01*
X173265236Y-122598880D01*
X173325914Y-122943002D01*
X173325916Y-122943011D01*
X173426145Y-123277800D01*
X173564555Y-123598670D01*
X173564561Y-123598683D01*
X173739289Y-123901322D01*
X173947972Y-124181631D01*
X173947976Y-124181636D01*
X173956147Y-124190297D01*
X173956148Y-124190298D01*
X175206320Y-122940125D01*
X175296554Y-123064320D01*
X175435680Y-123203446D01*
X175559873Y-123293678D01*
X174312817Y-124540733D01*
X174312818Y-124540734D01*
X174455480Y-124660442D01*
X174747461Y-124852480D01*
X175059739Y-125009314D01*
X175059745Y-125009316D01*
X175388130Y-125128838D01*
X175388133Y-125128839D01*
X175728171Y-125209429D01*
X176075276Y-125249999D01*
X176075277Y-125250000D01*
X176424723Y-125250000D01*
X176424723Y-125249999D01*
X176771827Y-125209429D01*
X176771829Y-125209429D01*
X177111866Y-125128839D01*
X177111869Y-125128838D01*
X177440254Y-125009316D01*
X177440260Y-125009314D01*
X177752538Y-124852480D01*
X178044515Y-124660445D01*
X178187180Y-124540734D01*
X178187181Y-124540733D01*
X176940126Y-123293678D01*
X177064320Y-123203446D01*
X177203446Y-123064320D01*
X177293679Y-122940126D01*
X178543850Y-124190297D01*
X178552032Y-124181625D01*
X178760710Y-123901322D01*
X178768112Y-123888502D01*
X178818678Y-123840286D01*
X178887284Y-123827061D01*
X178952150Y-123853028D01*
X178992679Y-123909941D01*
X178999500Y-123950500D01*
X178999500Y-126278521D01*
X178979815Y-126345560D01*
X178927011Y-126391315D01*
X178857853Y-126401259D01*
X178804378Y-126380097D01*
X178755053Y-126345560D01*
X178732734Y-126329932D01*
X178683572Y-126307007D01*
X178526497Y-126233761D01*
X178526488Y-126233758D01*
X178306697Y-126174866D01*
X178306693Y-126174865D01*
X178306692Y-126174865D01*
X178306691Y-126174864D01*
X178306686Y-126174864D01*
X178080002Y-126155032D01*
X178079998Y-126155032D01*
X177853313Y-126174864D01*
X177853302Y-126174866D01*
X177633511Y-126233758D01*
X177633502Y-126233761D01*
X177427267Y-126329931D01*
X177427265Y-126329932D01*
X177240858Y-126460454D01*
X177079954Y-126621358D01*
X176949432Y-126807765D01*
X176949431Y-126807767D01*
X176853261Y-127014002D01*
X176853258Y-127014011D01*
X176794366Y-127233802D01*
X176794364Y-127233813D01*
X176774532Y-127460498D01*
X176774532Y-127460501D01*
X176794364Y-127687186D01*
X176794365Y-127687194D01*
X176820152Y-127783429D01*
X176818489Y-127853279D01*
X176788058Y-127903204D01*
X171449135Y-133242128D01*
X171387812Y-133275613D01*
X171318120Y-133270629D01*
X171262187Y-133228757D01*
X171241679Y-133186540D01*
X171207874Y-133060377D01*
X171207873Y-133060374D01*
X171207872Y-133060370D01*
X171113181Y-132857305D01*
X170984667Y-132673767D01*
X170826233Y-132515333D01*
X170826229Y-132515330D01*
X170826228Y-132515329D01*
X170642700Y-132386821D01*
X170642696Y-132386819D01*
X170579403Y-132357305D01*
X170439630Y-132292128D01*
X170439627Y-132292127D01*
X170439625Y-132292126D01*
X170223208Y-132234137D01*
X170223200Y-132234136D01*
X170000002Y-132214609D01*
X169999998Y-132214609D01*
X169776799Y-132234136D01*
X169776791Y-132234137D01*
X169560374Y-132292126D01*
X169560370Y-132292128D01*
X169537604Y-132302743D01*
X169357306Y-132386818D01*
X169357304Y-132386819D01*
X169173764Y-132515334D01*
X169015334Y-132673764D01*
X168886819Y-132857304D01*
X168886818Y-132857306D01*
X168792129Y-133060368D01*
X168792126Y-133060374D01*
X168734137Y-133276791D01*
X168734136Y-133276799D01*
X168714609Y-133499998D01*
X168714609Y-133500001D01*
X168734136Y-133723200D01*
X168734137Y-133723208D01*
X168792126Y-133939625D01*
X168792127Y-133939627D01*
X168792128Y-133939630D01*
X168873056Y-134113181D01*
X168886819Y-134142696D01*
X168886821Y-134142700D01*
X169015329Y-134326228D01*
X169015334Y-134326234D01*
X169173765Y-134484665D01*
X169173771Y-134484670D01*
X169357299Y-134613178D01*
X169357301Y-134613179D01*
X169357304Y-134613181D01*
X169560370Y-134707872D01*
X169686541Y-134741679D01*
X169746201Y-134778044D01*
X169776730Y-134840891D01*
X169768435Y-134910266D01*
X169742128Y-134949135D01*
X168598084Y-136093181D01*
X168536761Y-136126666D01*
X168510403Y-136129500D01*
X165241886Y-136129500D01*
X165174847Y-136109815D01*
X165129092Y-136057011D01*
X165119148Y-135987853D01*
X165131162Y-135951211D01*
X165131013Y-135951149D01*
X165131830Y-135949175D01*
X165132530Y-135947042D01*
X165133347Y-135945512D01*
X165210609Y-135758983D01*
X165210612Y-135758974D01*
X165220353Y-135710000D01*
X164365866Y-135710000D01*
X164341674Y-135707617D01*
X164326004Y-135704500D01*
X164326003Y-135704500D01*
X164285830Y-135704500D01*
X164300075Y-135690255D01*
X164349444Y-135604745D01*
X164375000Y-135509370D01*
X164375000Y-135410630D01*
X164349444Y-135315255D01*
X164300075Y-135229745D01*
X164280330Y-135210000D01*
X165220353Y-135210000D01*
X165210612Y-135161025D01*
X165210609Y-135161016D01*
X165133347Y-134974486D01*
X165133340Y-134974473D01*
X165021170Y-134806600D01*
X165021167Y-134806596D01*
X164878403Y-134663832D01*
X164878399Y-134663829D01*
X164710526Y-134551659D01*
X164710513Y-134551652D01*
X164523983Y-134474390D01*
X164523974Y-134474387D01*
X164325958Y-134435000D01*
X164250000Y-134435000D01*
X164250000Y-135179670D01*
X164230255Y-135159925D01*
X164144745Y-135110556D01*
X164049370Y-135085000D01*
X163950630Y-135085000D01*
X163855255Y-135110556D01*
X163769745Y-135159925D01*
X163750000Y-135179670D01*
X163750000Y-134435000D01*
X163674041Y-134435000D01*
X163476025Y-134474387D01*
X163476016Y-134474390D01*
X163289486Y-134551652D01*
X163289473Y-134551659D01*
X163121600Y-134663829D01*
X163121596Y-134663832D01*
X162978832Y-134806596D01*
X162978829Y-134806600D01*
X162866659Y-134974473D01*
X162866652Y-134974486D01*
X162789390Y-135161016D01*
X162789387Y-135161025D01*
X162779647Y-135210000D01*
X163719670Y-135210000D01*
X163699925Y-135229745D01*
X163650556Y-135315255D01*
X163625000Y-135410630D01*
X163625000Y-135509370D01*
X163650556Y-135604745D01*
X163699925Y-135690255D01*
X163714170Y-135704500D01*
X163673997Y-135704500D01*
X163673996Y-135704500D01*
X163658326Y-135707617D01*
X163634134Y-135710000D01*
X162779647Y-135710000D01*
X162789387Y-135758974D01*
X162789390Y-135758983D01*
X162866652Y-135945513D01*
X162866659Y-135945526D01*
X162920203Y-136025659D01*
X162941081Y-136092336D01*
X162922597Y-136159716D01*
X162920204Y-136163439D01*
X162866214Y-136244243D01*
X162788909Y-136430872D01*
X162788907Y-136430880D01*
X162749500Y-136628992D01*
X162749500Y-136831007D01*
X162788907Y-137029119D01*
X162788909Y-137029127D01*
X162822325Y-137109800D01*
X162829794Y-137179270D01*
X162810038Y-137224660D01*
X162810454Y-137224887D01*
X162807919Y-137229528D01*
X162807037Y-137231556D01*
X162806206Y-137232665D01*
X162806202Y-137232672D01*
X162774067Y-137318833D01*
X162732196Y-137374767D01*
X162666732Y-137399184D01*
X162657885Y-137399500D01*
X159800097Y-137399500D01*
X159733058Y-137379815D01*
X159712416Y-137363181D01*
X158336819Y-135987584D01*
X158303334Y-135926261D01*
X158300500Y-135899903D01*
X158300500Y-132289090D01*
X158320185Y-132222051D01*
X158372101Y-132176706D01*
X158377830Y-132174035D01*
X158571401Y-132038495D01*
X158738495Y-131871401D01*
X158874035Y-131677830D01*
X158973903Y-131463663D01*
X159035063Y-131235408D01*
X159055659Y-131000000D01*
X159035063Y-130764592D01*
X158973903Y-130536337D01*
X158938538Y-130460498D01*
X166614532Y-130460498D01*
X166614532Y-130460501D01*
X166634364Y-130687186D01*
X166634366Y-130687197D01*
X166693258Y-130906988D01*
X166693261Y-130906997D01*
X166789431Y-131113232D01*
X166789432Y-131113234D01*
X166919954Y-131299641D01*
X167080858Y-131460545D01*
X167088542Y-131465925D01*
X167267266Y-131591068D01*
X167473504Y-131687239D01*
X167693308Y-131746135D01*
X167855230Y-131760301D01*
X167919998Y-131765968D01*
X167920000Y-131765968D01*
X167920002Y-131765968D01*
X167976673Y-131761009D01*
X168146692Y-131746135D01*
X168366496Y-131687239D01*
X168572734Y-131591068D01*
X168759139Y-131460547D01*
X168920047Y-131299639D01*
X169050568Y-131113234D01*
X169146739Y-130906996D01*
X169205635Y-130687192D01*
X169225468Y-130460500D01*
X169205635Y-130233808D01*
X169160916Y-130066915D01*
X169146741Y-130014011D01*
X169146738Y-130014002D01*
X169122436Y-129961886D01*
X169050568Y-129807766D01*
X168933723Y-129640893D01*
X168920045Y-129621358D01*
X168759141Y-129460454D01*
X168572734Y-129329932D01*
X168572732Y-129329931D01*
X168366497Y-129233761D01*
X168366488Y-129233758D01*
X168146697Y-129174866D01*
X168146693Y-129174865D01*
X168146692Y-129174865D01*
X168146691Y-129174864D01*
X168146686Y-129174864D01*
X167920002Y-129155032D01*
X167919998Y-129155032D01*
X167693313Y-129174864D01*
X167693302Y-129174866D01*
X167473511Y-129233758D01*
X167473502Y-129233761D01*
X167267267Y-129329931D01*
X167267265Y-129329932D01*
X167080858Y-129460454D01*
X166919954Y-129621358D01*
X166789432Y-129807765D01*
X166789431Y-129807767D01*
X166693261Y-130014002D01*
X166693258Y-130014011D01*
X166634366Y-130233802D01*
X166634364Y-130233813D01*
X166614532Y-130460498D01*
X158938538Y-130460498D01*
X158874035Y-130322171D01*
X158868731Y-130314595D01*
X158738494Y-130128597D01*
X158571402Y-129961506D01*
X158571396Y-129961501D01*
X158377987Y-129826075D01*
X158334362Y-129771498D01*
X158327168Y-129702000D01*
X158358691Y-129639645D01*
X158418921Y-129604231D01*
X158449110Y-129600500D01*
X161413331Y-129600500D01*
X161413347Y-129600501D01*
X161420943Y-129600501D01*
X161579054Y-129600501D01*
X161579057Y-129600501D01*
X161731785Y-129559577D01*
X161781904Y-129530639D01*
X161868716Y-129480520D01*
X161980520Y-129368716D01*
X161980520Y-129368714D01*
X161990728Y-129358507D01*
X161990729Y-129358504D01*
X163251917Y-128097319D01*
X163313240Y-128063834D01*
X163339598Y-128061000D01*
X166688308Y-128061000D01*
X166755347Y-128080685D01*
X166789880Y-128113874D01*
X166875480Y-128236124D01*
X166919954Y-128299641D01*
X167080858Y-128460545D01*
X167080861Y-128460547D01*
X167267266Y-128591068D01*
X167473504Y-128687239D01*
X167693308Y-128746135D01*
X167855230Y-128760301D01*
X167919998Y-128765968D01*
X167920000Y-128765968D01*
X167920002Y-128765968D01*
X167976673Y-128761009D01*
X168146692Y-128746135D01*
X168366496Y-128687239D01*
X168572734Y-128591068D01*
X168759139Y-128460547D01*
X168920047Y-128299639D01*
X169050568Y-128113234D01*
X169146739Y-127906996D01*
X169205635Y-127687192D01*
X169224749Y-127468716D01*
X169225468Y-127460501D01*
X169225468Y-127460498D01*
X169214647Y-127336819D01*
X169205635Y-127233808D01*
X169146739Y-127014004D01*
X169050568Y-126807766D01*
X168920047Y-126621361D01*
X168920045Y-126621358D01*
X168759141Y-126460454D01*
X168572734Y-126329932D01*
X168572732Y-126329931D01*
X168366497Y-126233761D01*
X168366488Y-126233758D01*
X168146697Y-126174866D01*
X168146693Y-126174865D01*
X168146692Y-126174865D01*
X168146691Y-126174864D01*
X168146686Y-126174864D01*
X167920002Y-126155032D01*
X167919998Y-126155032D01*
X167693313Y-126174864D01*
X167693302Y-126174866D01*
X167473511Y-126233758D01*
X167473502Y-126233761D01*
X167267267Y-126329931D01*
X167267265Y-126329932D01*
X167080858Y-126460454D01*
X166919954Y-126621358D01*
X166869796Y-126692993D01*
X166789881Y-126807124D01*
X166735307Y-126850748D01*
X166688308Y-126860000D01*
X163126170Y-126860000D01*
X163126154Y-126859999D01*
X163118558Y-126859999D01*
X162960443Y-126859999D01*
X162884079Y-126880461D01*
X162807714Y-126900923D01*
X162807709Y-126900926D01*
X162670790Y-126979975D01*
X162670782Y-126979981D01*
X161287584Y-128363181D01*
X161226261Y-128396666D01*
X161199903Y-128399500D01*
X151485783Y-128399500D01*
X151418744Y-128379815D01*
X151398102Y-128363181D01*
X148173276Y-125138355D01*
X148173274Y-125138352D01*
X148054402Y-125019480D01*
X148054400Y-125019479D01*
X148036793Y-125009314D01*
X147967590Y-124969360D01*
X147967590Y-124969359D01*
X147967586Y-124969358D01*
X147917471Y-124940423D01*
X147764743Y-124899499D01*
X147606629Y-124899499D01*
X147599033Y-124899499D01*
X147599017Y-124899500D01*
X140300097Y-124899500D01*
X140233058Y-124879815D01*
X140212416Y-124863181D01*
X139956819Y-124607584D01*
X139923334Y-124546261D01*
X139920500Y-124519903D01*
X139920500Y-121829090D01*
X139940185Y-121762051D01*
X139992101Y-121716706D01*
X139997830Y-121714035D01*
X140191401Y-121578495D01*
X140358495Y-121411401D01*
X140488426Y-121225841D01*
X140543002Y-121182217D01*
X140612500Y-121175023D01*
X140674855Y-121206546D01*
X140691575Y-121225842D01*
X140821281Y-121411082D01*
X140821505Y-121411401D01*
X140988599Y-121578495D01*
X141069679Y-121635268D01*
X141182165Y-121714032D01*
X141182167Y-121714033D01*
X141182170Y-121714035D01*
X141396337Y-121813903D01*
X141624592Y-121875063D01*
X141801034Y-121890500D01*
X141859999Y-121895659D01*
X141860000Y-121895659D01*
X141860001Y-121895659D01*
X141918966Y-121890500D01*
X142095408Y-121875063D01*
X142223757Y-121840672D01*
X142293606Y-121842335D01*
X142343531Y-121872766D01*
X144000824Y-123530059D01*
X144000834Y-123530070D01*
X144005164Y-123534400D01*
X144005165Y-123534401D01*
X144116969Y-123646205D01*
X144116971Y-123646206D01*
X144116975Y-123646209D01*
X144253894Y-123725258D01*
X144253901Y-123725262D01*
X144365704Y-123755219D01*
X144406627Y-123766185D01*
X144406628Y-123766185D01*
X144799901Y-123766185D01*
X144866940Y-123785870D01*
X144887582Y-123802504D01*
X144965598Y-123880520D01*
X145102530Y-123959577D01*
X145102531Y-123959577D01*
X145106873Y-123962084D01*
X145124695Y-123975760D01*
X145124839Y-123975574D01*
X145131281Y-123980517D01*
X145131284Y-123980520D01*
X145131287Y-123980521D01*
X145131290Y-123980524D01*
X145268209Y-124059573D01*
X145268216Y-124059577D01*
X145380019Y-124089534D01*
X145420942Y-124100500D01*
X145420943Y-124100500D01*
X155199903Y-124100500D01*
X155266942Y-124120185D01*
X155287584Y-124136819D01*
X156308582Y-125157817D01*
X156342067Y-125219140D01*
X156337083Y-125288832D01*
X156295211Y-125344765D01*
X156292025Y-125347073D01*
X156128597Y-125461505D01*
X156006284Y-125583819D01*
X155944961Y-125617303D01*
X155875269Y-125612319D01*
X155819336Y-125570447D01*
X155802421Y-125539470D01*
X155753354Y-125407913D01*
X155753350Y-125407906D01*
X155667190Y-125292812D01*
X155667187Y-125292809D01*
X155552093Y-125206649D01*
X155552086Y-125206645D01*
X155417379Y-125156403D01*
X155417372Y-125156401D01*
X155357844Y-125150000D01*
X154710000Y-125150000D01*
X154710000Y-126066988D01*
X154652993Y-126034075D01*
X154525826Y-126000000D01*
X154394174Y-126000000D01*
X154267007Y-126034075D01*
X154210000Y-126066988D01*
X154210000Y-125150000D01*
X153562155Y-125150000D01*
X153502627Y-125156401D01*
X153502620Y-125156403D01*
X153367913Y-125206645D01*
X153367906Y-125206649D01*
X153252812Y-125292809D01*
X153252809Y-125292812D01*
X153166649Y-125407906D01*
X153166645Y-125407913D01*
X153116403Y-125542620D01*
X153116401Y-125542627D01*
X153110000Y-125602155D01*
X153110000Y-126250000D01*
X154026988Y-126250000D01*
X153994075Y-126307007D01*
X153960000Y-126434174D01*
X153960000Y-126565826D01*
X153994075Y-126692993D01*
X154026988Y-126750000D01*
X153110000Y-126750000D01*
X153110000Y-127397844D01*
X153116401Y-127457372D01*
X153116403Y-127457379D01*
X153166645Y-127592086D01*
X153166649Y-127592093D01*
X153252809Y-127707187D01*
X153252812Y-127707190D01*
X153367906Y-127793350D01*
X153367913Y-127793354D01*
X153502620Y-127843596D01*
X153502627Y-127843598D01*
X153562155Y-127849999D01*
X153562172Y-127850000D01*
X154210000Y-127850000D01*
X154210000Y-126933012D01*
X154267007Y-126965925D01*
X154394174Y-127000000D01*
X154525826Y-127000000D01*
X154652993Y-126965925D01*
X154710000Y-126933012D01*
X154710000Y-127850000D01*
X155357828Y-127850000D01*
X155357844Y-127849999D01*
X155417372Y-127843598D01*
X155417379Y-127843596D01*
X155552086Y-127793354D01*
X155552093Y-127793350D01*
X155667187Y-127707190D01*
X155667190Y-127707187D01*
X155753350Y-127592093D01*
X155753354Y-127592086D01*
X155802422Y-127460529D01*
X155844293Y-127404595D01*
X155909757Y-127380178D01*
X155978030Y-127395030D01*
X156006285Y-127416181D01*
X156128599Y-127538495D01*
X156188617Y-127580520D01*
X156322165Y-127674032D01*
X156322167Y-127674033D01*
X156322170Y-127674035D01*
X156536337Y-127773903D01*
X156764592Y-127835063D01*
X156935319Y-127850000D01*
X156999999Y-127855659D01*
X157000000Y-127855659D01*
X157000001Y-127855659D01*
X157064681Y-127850000D01*
X157235408Y-127835063D01*
X157463663Y-127773903D01*
X157677830Y-127674035D01*
X157871401Y-127538495D01*
X158038495Y-127371401D01*
X158168425Y-127185842D01*
X158223002Y-127142217D01*
X158292500Y-127135023D01*
X158354855Y-127166546D01*
X158371575Y-127185842D01*
X158501500Y-127371395D01*
X158501505Y-127371401D01*
X158668599Y-127538495D01*
X158728617Y-127580520D01*
X158862165Y-127674032D01*
X158862167Y-127674033D01*
X158862170Y-127674035D01*
X159076337Y-127773903D01*
X159304592Y-127835063D01*
X159475319Y-127850000D01*
X159539999Y-127855659D01*
X159540000Y-127855659D01*
X159540001Y-127855659D01*
X159604681Y-127850000D01*
X159775408Y-127835063D01*
X160003663Y-127773903D01*
X160217830Y-127674035D01*
X160411401Y-127538495D01*
X160578495Y-127371401D01*
X160714035Y-127177830D01*
X160813903Y-126963663D01*
X160875063Y-126735408D01*
X160895659Y-126500000D01*
X160875063Y-126264592D01*
X160813903Y-126036337D01*
X160714035Y-125822171D01*
X160708425Y-125814158D01*
X160578494Y-125628597D01*
X160411402Y-125461506D01*
X160411396Y-125461501D01*
X160217987Y-125326075D01*
X160174362Y-125271498D01*
X160167168Y-125202000D01*
X160198691Y-125139645D01*
X160258921Y-125104231D01*
X160289110Y-125100500D01*
X166479017Y-125100500D01*
X166479033Y-125100501D01*
X166486629Y-125100501D01*
X166644740Y-125100501D01*
X166644743Y-125100501D01*
X166797471Y-125059577D01*
X166866919Y-125019481D01*
X166934402Y-124980520D01*
X167046206Y-124868716D01*
X167046206Y-124868714D01*
X167056410Y-124858511D01*
X167056414Y-124858506D01*
X169558505Y-122356415D01*
X169558510Y-122356411D01*
X169568713Y-122346207D01*
X169568715Y-122346207D01*
X169680519Y-122234403D01*
X169707414Y-122187819D01*
X169740045Y-122131301D01*
X169740048Y-122131292D01*
X169740054Y-122131284D01*
X169759576Y-122097472D01*
X169800499Y-121944744D01*
X169800499Y-121786630D01*
X169800499Y-121420944D01*
X169800500Y-121220946D01*
X169800500Y-116100097D01*
X169820185Y-116033058D01*
X169836817Y-116012418D01*
X169858502Y-115990732D01*
X169858507Y-115990728D01*
X169868714Y-115980520D01*
X169868716Y-115980520D01*
X169980520Y-115868716D01*
X170043531Y-115759577D01*
X170059577Y-115731785D01*
X170100500Y-115579057D01*
X170100500Y-115420943D01*
X170100500Y-114880096D01*
X170120185Y-114813057D01*
X170136814Y-114792420D01*
X172057294Y-112871939D01*
X172118615Y-112838456D01*
X172177066Y-112839847D01*
X172190349Y-112843406D01*
X172273308Y-112865635D01*
X172435230Y-112879801D01*
X172499998Y-112885468D01*
X172500000Y-112885468D01*
X172500002Y-112885468D01*
X172556673Y-112880509D01*
X172726692Y-112865635D01*
X172946496Y-112806739D01*
X173152734Y-112710568D01*
X173339139Y-112580047D01*
X173500047Y-112419139D01*
X173630568Y-112232734D01*
X173726739Y-112026496D01*
X173785635Y-111806692D01*
X173805468Y-111580000D01*
X173785635Y-111353308D01*
X173726739Y-111133504D01*
X173630568Y-110927266D01*
X173500047Y-110740861D01*
X173500045Y-110740858D01*
X173339141Y-110579954D01*
X173152734Y-110449432D01*
X173152732Y-110449431D01*
X172946497Y-110353261D01*
X172946488Y-110353258D01*
X172726697Y-110294366D01*
X172726693Y-110294365D01*
X172726692Y-110294365D01*
X172726691Y-110294364D01*
X172726686Y-110294364D01*
X172500002Y-110274532D01*
X172499998Y-110274532D01*
X172273313Y-110294364D01*
X172273302Y-110294366D01*
X172053511Y-110353258D01*
X172053502Y-110353261D01*
X171847267Y-110449431D01*
X171847265Y-110449432D01*
X171660858Y-110579954D01*
X171499954Y-110740858D01*
X171369432Y-110927265D01*
X171369431Y-110927267D01*
X171273261Y-111133502D01*
X171273258Y-111133511D01*
X171214366Y-111353302D01*
X171214364Y-111353313D01*
X171194532Y-111579998D01*
X171194532Y-111580001D01*
X171214364Y-111806686D01*
X171214366Y-111806697D01*
X171240152Y-111902931D01*
X171238489Y-111972781D01*
X171208058Y-112022705D01*
X169312181Y-113918583D01*
X169250858Y-113952068D01*
X169181166Y-113947084D01*
X169125233Y-113905212D01*
X169100816Y-113839748D01*
X169100500Y-113830902D01*
X169100500Y-112811692D01*
X169120185Y-112744653D01*
X169153374Y-112710119D01*
X169339139Y-112580047D01*
X169500047Y-112419139D01*
X169630568Y-112232734D01*
X169726739Y-112026496D01*
X169785635Y-111806692D01*
X169805468Y-111580000D01*
X169785635Y-111353308D01*
X169726739Y-111133504D01*
X169630568Y-110927266D01*
X169500047Y-110740861D01*
X169500045Y-110740858D01*
X169339141Y-110579954D01*
X169152734Y-110449432D01*
X169152732Y-110449431D01*
X168946497Y-110353261D01*
X168946488Y-110353258D01*
X168726697Y-110294366D01*
X168726693Y-110294365D01*
X168726692Y-110294365D01*
X168726691Y-110294364D01*
X168726686Y-110294364D01*
X168500002Y-110274532D01*
X168499998Y-110274532D01*
X168273313Y-110294364D01*
X168273302Y-110294366D01*
X168053511Y-110353258D01*
X168053502Y-110353261D01*
X167847267Y-110449431D01*
X167847265Y-110449432D01*
X167660858Y-110579954D01*
X167499954Y-110740858D01*
X167369432Y-110927265D01*
X167369431Y-110927267D01*
X167273261Y-111133502D01*
X167273258Y-111133511D01*
X167214366Y-111353302D01*
X167214364Y-111353313D01*
X167194532Y-111579998D01*
X167194532Y-111580001D01*
X167214364Y-111806686D01*
X167214366Y-111806697D01*
X167273258Y-112026488D01*
X167273261Y-112026497D01*
X167369431Y-112232732D01*
X167369432Y-112232734D01*
X167499954Y-112419141D01*
X167660858Y-112580045D01*
X167660861Y-112580047D01*
X167846624Y-112710118D01*
X167890248Y-112764693D01*
X167899500Y-112811692D01*
X167899500Y-115053845D01*
X167879815Y-115120884D01*
X167827011Y-115166639D01*
X167757853Y-115176583D01*
X167694297Y-115147558D01*
X167687819Y-115141526D01*
X166984647Y-114438355D01*
X166984645Y-114438352D01*
X166865774Y-114319481D01*
X166865773Y-114319480D01*
X166762017Y-114259577D01*
X166762016Y-114259576D01*
X166737730Y-114245555D01*
X166728842Y-114240423D01*
X166728841Y-114240422D01*
X166728840Y-114240422D01*
X166672938Y-114225443D01*
X166576114Y-114199499D01*
X166418000Y-114199499D01*
X166410404Y-114199499D01*
X166410388Y-114199500D01*
X165300097Y-114199500D01*
X165233058Y-114179815D01*
X165212416Y-114163181D01*
X165097319Y-114048084D01*
X165063834Y-113986761D01*
X165061000Y-113960403D01*
X165061000Y-112766237D01*
X165080685Y-112699198D01*
X165113874Y-112664664D01*
X165299639Y-112534592D01*
X165460547Y-112373684D01*
X165591068Y-112187279D01*
X165687239Y-111981041D01*
X165746135Y-111761237D01*
X165765968Y-111534545D01*
X165765570Y-111530001D01*
X165750112Y-111353313D01*
X165746135Y-111307853D01*
X165687239Y-111088049D01*
X165591068Y-110881811D01*
X165460547Y-110695406D01*
X165460545Y-110695403D01*
X165299641Y-110534499D01*
X165113234Y-110403977D01*
X165113232Y-110403976D01*
X164906997Y-110307806D01*
X164906988Y-110307803D01*
X164687197Y-110248911D01*
X164687193Y-110248910D01*
X164687192Y-110248910D01*
X164687191Y-110248909D01*
X164687186Y-110248909D01*
X164460502Y-110229077D01*
X164460498Y-110229077D01*
X164233813Y-110248909D01*
X164233802Y-110248911D01*
X164014011Y-110307803D01*
X164014002Y-110307806D01*
X163807767Y-110403976D01*
X163807765Y-110403977D01*
X163621358Y-110534499D01*
X163460454Y-110695403D01*
X163329932Y-110881810D01*
X163329931Y-110881812D01*
X163233761Y-111088047D01*
X163233758Y-111088056D01*
X163174866Y-111307847D01*
X163174864Y-111307858D01*
X163155032Y-111534543D01*
X163155032Y-111534546D01*
X163174864Y-111761231D01*
X163174866Y-111761242D01*
X163233758Y-111981033D01*
X163233761Y-111981042D01*
X163329931Y-112187277D01*
X163329932Y-112187279D01*
X163460454Y-112373686D01*
X163621358Y-112534590D01*
X163621361Y-112534592D01*
X163807124Y-112664663D01*
X163850748Y-112719238D01*
X163860000Y-112766237D01*
X163860000Y-114086383D01*
X163840315Y-114153422D01*
X163787511Y-114199177D01*
X163718353Y-114209121D01*
X163703915Y-114206160D01*
X163679057Y-114199499D01*
X163520943Y-114199499D01*
X163513347Y-114199499D01*
X163513331Y-114199500D01*
X161665783Y-114199500D01*
X161598744Y-114179815D01*
X161578102Y-114163181D01*
X161136819Y-113721898D01*
X161103334Y-113660575D01*
X161100500Y-113634217D01*
X161100500Y-112766237D01*
X161120185Y-112699198D01*
X161153374Y-112664664D01*
X161339139Y-112534592D01*
X161500047Y-112373684D01*
X161630568Y-112187279D01*
X161726739Y-111981041D01*
X161785635Y-111761237D01*
X161805468Y-111534545D01*
X161805070Y-111530001D01*
X161789612Y-111353313D01*
X161785635Y-111307853D01*
X161726739Y-111088049D01*
X161630568Y-110881811D01*
X161500047Y-110695406D01*
X161500045Y-110695403D01*
X161339141Y-110534499D01*
X161152734Y-110403977D01*
X161152732Y-110403976D01*
X160946497Y-110307806D01*
X160946488Y-110307803D01*
X160726697Y-110248911D01*
X160726693Y-110248910D01*
X160726692Y-110248910D01*
X160726691Y-110248909D01*
X160726686Y-110248909D01*
X160500002Y-110229077D01*
X160499998Y-110229077D01*
X160273313Y-110248909D01*
X160273302Y-110248911D01*
X160053511Y-110307803D01*
X160053502Y-110307806D01*
X159847267Y-110403976D01*
X159847265Y-110403977D01*
X159660858Y-110534499D01*
X159499954Y-110695403D01*
X159369432Y-110881810D01*
X159369431Y-110881812D01*
X159273261Y-111088047D01*
X159273258Y-111088056D01*
X159214366Y-111307847D01*
X159214364Y-111307858D01*
X159194532Y-111534543D01*
X159194532Y-111534546D01*
X159214364Y-111761231D01*
X159214366Y-111761242D01*
X159273258Y-111981033D01*
X159273261Y-111981042D01*
X159369431Y-112187277D01*
X159369432Y-112187279D01*
X159499954Y-112373686D01*
X159660858Y-112534590D01*
X159660861Y-112534592D01*
X159846624Y-112664663D01*
X159890248Y-112719238D01*
X159899500Y-112766237D01*
X159899500Y-113675500D01*
X159879815Y-113742539D01*
X159827011Y-113788294D01*
X159775500Y-113799500D01*
X157300098Y-113799500D01*
X157233059Y-113779815D01*
X157212417Y-113763181D01*
X157136819Y-113687583D01*
X157103334Y-113626260D01*
X157100500Y-113599902D01*
X157100500Y-112766237D01*
X157120185Y-112699198D01*
X157153374Y-112664664D01*
X157339139Y-112534592D01*
X157500047Y-112373684D01*
X157630568Y-112187279D01*
X157726739Y-111981041D01*
X157785635Y-111761237D01*
X157805468Y-111534545D01*
X157805070Y-111530001D01*
X157789612Y-111353313D01*
X157785635Y-111307853D01*
X157726739Y-111088049D01*
X157630568Y-110881811D01*
X157500047Y-110695406D01*
X157500045Y-110695403D01*
X157339141Y-110534499D01*
X157152734Y-110403977D01*
X157152732Y-110403976D01*
X156946497Y-110307806D01*
X156946488Y-110307803D01*
X156726697Y-110248911D01*
X156726693Y-110248910D01*
X156726692Y-110248910D01*
X156726691Y-110248909D01*
X156726686Y-110248909D01*
X156500002Y-110229077D01*
X156499998Y-110229077D01*
X156273313Y-110248909D01*
X156273302Y-110248911D01*
X156053511Y-110307803D01*
X156053502Y-110307806D01*
X155847267Y-110403976D01*
X155847265Y-110403977D01*
X155660858Y-110534499D01*
X155499954Y-110695403D01*
X155369432Y-110881810D01*
X155369431Y-110881812D01*
X155273261Y-111088047D01*
X155273258Y-111088056D01*
X155214366Y-111307847D01*
X155214364Y-111307858D01*
X155194532Y-111534543D01*
X155194532Y-111534546D01*
X155214364Y-111761231D01*
X155214366Y-111761242D01*
X155273258Y-111981033D01*
X155273261Y-111981042D01*
X155369431Y-112187277D01*
X155369432Y-112187279D01*
X155499954Y-112373686D01*
X155660858Y-112534590D01*
X155660861Y-112534592D01*
X155846624Y-112664663D01*
X155890248Y-112719238D01*
X155899500Y-112766237D01*
X155899500Y-113813330D01*
X155899499Y-113813348D01*
X155899499Y-113979054D01*
X155899498Y-113979054D01*
X155899499Y-113979057D01*
X155910722Y-114020943D01*
X155916742Y-114043406D01*
X155915079Y-114113256D01*
X155875917Y-114171119D01*
X155811688Y-114198623D01*
X155796967Y-114199500D01*
X153922840Y-114199500D01*
X153855801Y-114179815D01*
X153835159Y-114163181D01*
X153510333Y-113838355D01*
X153510331Y-113838352D01*
X153391461Y-113719482D01*
X153391459Y-113719480D01*
X153351785Y-113696574D01*
X153326104Y-113676868D01*
X153136819Y-113487583D01*
X153103334Y-113426260D01*
X153100500Y-113399902D01*
X153100500Y-112766237D01*
X153120185Y-112699198D01*
X153153374Y-112664664D01*
X153339139Y-112534592D01*
X153500047Y-112373684D01*
X153630568Y-112187279D01*
X153726739Y-111981041D01*
X153785635Y-111761237D01*
X153805468Y-111534545D01*
X153805070Y-111530001D01*
X153789612Y-111353313D01*
X153785635Y-111307853D01*
X153726739Y-111088049D01*
X153630568Y-110881811D01*
X153500047Y-110695406D01*
X153500045Y-110695403D01*
X153339141Y-110534499D01*
X153152734Y-110403977D01*
X153152732Y-110403976D01*
X152946497Y-110307806D01*
X152946488Y-110307803D01*
X152726697Y-110248911D01*
X152726693Y-110248910D01*
X152726692Y-110248910D01*
X152726691Y-110248909D01*
X152726686Y-110248909D01*
X152500002Y-110229077D01*
X152499998Y-110229077D01*
X152273313Y-110248909D01*
X152273302Y-110248911D01*
X152053511Y-110307803D01*
X152053502Y-110307806D01*
X151847267Y-110403976D01*
X151847265Y-110403977D01*
X151660858Y-110534499D01*
X151499954Y-110695403D01*
X151369432Y-110881810D01*
X151369431Y-110881812D01*
X151273261Y-111088047D01*
X151273258Y-111088056D01*
X151214366Y-111307847D01*
X151214364Y-111307858D01*
X151194532Y-111534543D01*
X151194532Y-111534546D01*
X151214364Y-111761231D01*
X151214366Y-111761242D01*
X151273258Y-111981033D01*
X151273261Y-111981042D01*
X151369431Y-112187277D01*
X151369432Y-112187279D01*
X151499954Y-112373686D01*
X151660858Y-112534590D01*
X151660861Y-112534592D01*
X151846624Y-112664663D01*
X151890248Y-112719238D01*
X151899500Y-112766237D01*
X151899500Y-113613330D01*
X151899499Y-113613348D01*
X151899499Y-113779054D01*
X151899498Y-113779054D01*
X151899499Y-113779057D01*
X151915761Y-113839748D01*
X151916742Y-113843406D01*
X151915079Y-113913256D01*
X151875917Y-113971119D01*
X151811688Y-113998623D01*
X151796967Y-113999500D01*
X149300098Y-113999500D01*
X149233059Y-113979815D01*
X149212417Y-113963181D01*
X149136819Y-113887583D01*
X149103334Y-113826260D01*
X149100500Y-113799902D01*
X149100500Y-112766237D01*
X149120185Y-112699198D01*
X149153374Y-112664664D01*
X149339139Y-112534592D01*
X149500047Y-112373684D01*
X149630568Y-112187279D01*
X149726739Y-111981041D01*
X149785635Y-111761237D01*
X149805468Y-111534545D01*
X149805070Y-111530001D01*
X149789612Y-111353313D01*
X149785635Y-111307853D01*
X149726739Y-111088049D01*
X149630568Y-110881811D01*
X149500047Y-110695406D01*
X149500045Y-110695403D01*
X149339141Y-110534499D01*
X149152734Y-110403977D01*
X149152732Y-110403976D01*
X148946497Y-110307806D01*
X148946488Y-110307803D01*
X148726697Y-110248911D01*
X148726693Y-110248910D01*
X148726692Y-110248910D01*
X148726691Y-110248909D01*
X148726686Y-110248909D01*
X148500002Y-110229077D01*
X148499998Y-110229077D01*
X148273313Y-110248909D01*
X148273302Y-110248911D01*
X148053511Y-110307803D01*
X148053502Y-110307806D01*
X147847267Y-110403976D01*
X147847265Y-110403977D01*
X147660858Y-110534499D01*
X147499954Y-110695403D01*
X147369432Y-110881810D01*
X147369431Y-110881812D01*
X147273261Y-111088047D01*
X147273258Y-111088056D01*
X147214366Y-111307847D01*
X147214364Y-111307858D01*
X147194532Y-111534543D01*
X147194532Y-111534546D01*
X147214364Y-111761231D01*
X147214366Y-111761242D01*
X147273258Y-111981033D01*
X147273261Y-111981042D01*
X147369431Y-112187277D01*
X147369432Y-112187279D01*
X147499954Y-112373686D01*
X147660858Y-112534590D01*
X147660861Y-112534592D01*
X147846624Y-112664663D01*
X147890248Y-112719238D01*
X147899500Y-112766237D01*
X147899500Y-114013330D01*
X147899499Y-114013348D01*
X147899499Y-114075500D01*
X147879814Y-114142539D01*
X147827010Y-114188294D01*
X147775499Y-114199500D01*
X145300098Y-114199500D01*
X145233059Y-114179815D01*
X145212417Y-114163181D01*
X145136819Y-114087583D01*
X145103334Y-114026260D01*
X145100500Y-113999902D01*
X145100500Y-112766237D01*
X145120185Y-112699198D01*
X145153374Y-112664664D01*
X145339139Y-112534592D01*
X145500047Y-112373684D01*
X145630568Y-112187279D01*
X145726739Y-111981041D01*
X145785635Y-111761237D01*
X145805468Y-111534545D01*
X145805070Y-111530001D01*
X145789612Y-111353313D01*
X145785635Y-111307853D01*
X145726739Y-111088049D01*
X145630568Y-110881811D01*
X145500047Y-110695406D01*
X145500045Y-110695403D01*
X145339141Y-110534499D01*
X145152734Y-110403977D01*
X145152732Y-110403976D01*
X144946497Y-110307806D01*
X144946488Y-110307803D01*
X144726697Y-110248911D01*
X144726693Y-110248910D01*
X144726692Y-110248910D01*
X144726691Y-110248909D01*
X144726686Y-110248909D01*
X144500002Y-110229077D01*
X144499998Y-110229077D01*
X144273313Y-110248909D01*
X144273302Y-110248911D01*
X144053511Y-110307803D01*
X144053502Y-110307806D01*
X143847267Y-110403976D01*
X143847265Y-110403977D01*
X143660858Y-110534499D01*
X143499954Y-110695403D01*
X143369432Y-110881810D01*
X143369431Y-110881812D01*
X143273261Y-111088047D01*
X143273258Y-111088056D01*
X143214366Y-111307847D01*
X143214364Y-111307858D01*
X143194532Y-111534543D01*
X143194532Y-111534546D01*
X143214364Y-111761231D01*
X143214366Y-111761242D01*
X143273258Y-111981033D01*
X143273261Y-111981042D01*
X143369431Y-112187277D01*
X143369432Y-112187279D01*
X143499954Y-112373686D01*
X143660858Y-112534590D01*
X143660861Y-112534592D01*
X143846624Y-112664663D01*
X143890248Y-112719238D01*
X143899500Y-112766237D01*
X143899500Y-114213330D01*
X143899499Y-114213348D01*
X143899499Y-114379054D01*
X143899498Y-114379054D01*
X143899499Y-114379057D01*
X143915388Y-114438355D01*
X143916742Y-114443406D01*
X143915079Y-114513256D01*
X143875917Y-114571119D01*
X143811688Y-114598623D01*
X143796967Y-114599500D01*
X143631469Y-114599500D01*
X143564430Y-114579815D01*
X143543788Y-114563181D01*
X142418962Y-113438355D01*
X142418960Y-113438352D01*
X142300089Y-113319481D01*
X142300088Y-113319480D01*
X142196332Y-113259577D01*
X142196331Y-113259576D01*
X142172045Y-113245555D01*
X142163157Y-113240423D01*
X142163156Y-113240422D01*
X142163155Y-113240422D01*
X142107253Y-113225443D01*
X142010429Y-113199499D01*
X141852315Y-113199499D01*
X141844719Y-113199499D01*
X141844703Y-113199500D01*
X141300098Y-113199500D01*
X141233059Y-113179815D01*
X141212417Y-113163181D01*
X141136819Y-113087583D01*
X141103334Y-113026260D01*
X141100500Y-112999902D01*
X141100500Y-112766237D01*
X141120185Y-112699198D01*
X141153374Y-112664664D01*
X141339139Y-112534592D01*
X141500047Y-112373684D01*
X141630568Y-112187279D01*
X141726739Y-111981041D01*
X141785635Y-111761237D01*
X141805468Y-111534545D01*
X141805070Y-111530001D01*
X141789612Y-111353313D01*
X141785635Y-111307853D01*
X141726739Y-111088049D01*
X141630568Y-110881811D01*
X141500047Y-110695406D01*
X141500045Y-110695403D01*
X141339141Y-110534499D01*
X141152734Y-110403977D01*
X141152732Y-110403976D01*
X140946497Y-110307806D01*
X140946488Y-110307803D01*
X140726697Y-110248911D01*
X140726693Y-110248910D01*
X140726692Y-110248910D01*
X140726691Y-110248909D01*
X140726686Y-110248909D01*
X140500002Y-110229077D01*
X140499998Y-110229077D01*
X140273313Y-110248909D01*
X140273302Y-110248911D01*
X140053511Y-110307803D01*
X140053502Y-110307806D01*
X139847267Y-110403976D01*
X139847265Y-110403977D01*
X139660858Y-110534499D01*
X139499954Y-110695403D01*
X139369432Y-110881810D01*
X139369431Y-110881812D01*
X139273261Y-111088047D01*
X139273258Y-111088056D01*
X139214366Y-111307847D01*
X139214364Y-111307858D01*
X139194532Y-111534543D01*
X139194532Y-111534546D01*
X139214364Y-111761231D01*
X139214366Y-111761242D01*
X139273258Y-111981033D01*
X139273261Y-111981042D01*
X139369431Y-112187277D01*
X139369432Y-112187279D01*
X139499954Y-112373686D01*
X139515277Y-112389009D01*
X139548762Y-112450332D01*
X139543778Y-112520024D01*
X139501906Y-112575957D01*
X139436442Y-112600374D01*
X139411409Y-112599629D01*
X139410428Y-112599499D01*
X139244720Y-112599499D01*
X139244704Y-112599500D01*
X137573594Y-112599500D01*
X137506555Y-112579815D01*
X137460800Y-112527011D01*
X137450856Y-112457853D01*
X137479881Y-112394297D01*
X137485913Y-112387819D01*
X137500045Y-112373686D01*
X137500047Y-112373684D01*
X137630568Y-112187279D01*
X137726739Y-111981041D01*
X137785635Y-111761237D01*
X137805468Y-111534545D01*
X137805070Y-111530001D01*
X137789612Y-111353313D01*
X137785635Y-111307853D01*
X137726739Y-111088049D01*
X137630568Y-110881811D01*
X137500047Y-110695406D01*
X137500045Y-110695403D01*
X137339141Y-110534499D01*
X137152734Y-110403977D01*
X137152732Y-110403976D01*
X136946497Y-110307806D01*
X136946488Y-110307803D01*
X136726697Y-110248911D01*
X136726693Y-110248910D01*
X136726692Y-110248910D01*
X136726691Y-110248909D01*
X136726686Y-110248909D01*
X136500002Y-110229077D01*
X136499998Y-110229077D01*
X136273313Y-110248909D01*
X136273302Y-110248911D01*
X136053511Y-110307803D01*
X136053502Y-110307806D01*
X135847267Y-110403976D01*
X135847265Y-110403977D01*
X135660858Y-110534499D01*
X135499954Y-110695403D01*
X135369432Y-110881810D01*
X135369431Y-110881812D01*
X135273261Y-111088047D01*
X135273258Y-111088056D01*
X135214366Y-111307847D01*
X135214364Y-111307858D01*
X135194532Y-111534543D01*
X135194532Y-111534546D01*
X135214364Y-111761231D01*
X135214366Y-111761242D01*
X135273258Y-111981033D01*
X135273261Y-111981042D01*
X135369431Y-112187277D01*
X135369432Y-112187279D01*
X135499954Y-112373686D01*
X135660858Y-112534590D01*
X135846622Y-112664662D01*
X135890247Y-112719238D01*
X135899499Y-112766237D01*
X135899499Y-112779054D01*
X135899498Y-112779054D01*
X135899499Y-112779057D01*
X135915415Y-112838456D01*
X135916742Y-112843406D01*
X135915079Y-112913256D01*
X135875917Y-112971119D01*
X135811688Y-112998623D01*
X135796967Y-112999500D01*
X133300098Y-112999500D01*
X133233059Y-112979815D01*
X133212417Y-112963181D01*
X133143753Y-112894517D01*
X133110268Y-112833194D01*
X133115252Y-112763502D01*
X133157124Y-112707569D01*
X133160234Y-112705316D01*
X133339139Y-112580047D01*
X133500047Y-112419139D01*
X133630568Y-112232734D01*
X133726739Y-112026496D01*
X133785635Y-111806692D01*
X133805468Y-111580000D01*
X133785635Y-111353308D01*
X133726739Y-111133504D01*
X133630568Y-110927266D01*
X133500047Y-110740861D01*
X133500045Y-110740858D01*
X133339141Y-110579954D01*
X133152734Y-110449432D01*
X133152732Y-110449431D01*
X132946497Y-110353261D01*
X132946488Y-110353258D01*
X132726697Y-110294366D01*
X132726693Y-110294365D01*
X132726692Y-110294365D01*
X132726691Y-110294364D01*
X132726686Y-110294364D01*
X132500002Y-110274532D01*
X132499998Y-110274532D01*
X132273313Y-110294364D01*
X132273302Y-110294366D01*
X132053511Y-110353258D01*
X132053502Y-110353261D01*
X131847267Y-110449431D01*
X131847265Y-110449432D01*
X131660858Y-110579954D01*
X131499954Y-110740858D01*
X131369432Y-110927265D01*
X131369431Y-110927267D01*
X131273261Y-111133502D01*
X131273258Y-111133511D01*
X131214366Y-111353302D01*
X131214364Y-111353313D01*
X131194532Y-111579998D01*
X131194532Y-111580001D01*
X131214364Y-111806686D01*
X131214366Y-111806697D01*
X131273258Y-112026488D01*
X131273261Y-112026497D01*
X131369431Y-112232732D01*
X131369432Y-112232734D01*
X131499954Y-112419141D01*
X131660858Y-112580045D01*
X131660861Y-112580047D01*
X131846624Y-112710118D01*
X131890248Y-112764693D01*
X131899500Y-112811692D01*
X131899500Y-113013330D01*
X131899499Y-113013348D01*
X131899499Y-113179054D01*
X131899498Y-113179054D01*
X131899499Y-113179057D01*
X131915942Y-113240423D01*
X131916742Y-113243406D01*
X131915079Y-113313256D01*
X131875917Y-113371119D01*
X131811688Y-113398623D01*
X131796967Y-113399500D01*
X129300098Y-113399500D01*
X129233059Y-113379815D01*
X129212417Y-113363181D01*
X129136819Y-113287583D01*
X129103334Y-113226260D01*
X129100500Y-113199902D01*
X129100500Y-112766237D01*
X129120185Y-112699198D01*
X129153374Y-112664664D01*
X129339139Y-112534592D01*
X129500047Y-112373684D01*
X129630568Y-112187279D01*
X129726739Y-111981041D01*
X129785635Y-111761237D01*
X129805468Y-111534545D01*
X129805070Y-111530001D01*
X129789612Y-111353313D01*
X129785635Y-111307853D01*
X129726739Y-111088049D01*
X129630568Y-110881811D01*
X129500047Y-110695406D01*
X129500045Y-110695403D01*
X129339141Y-110534499D01*
X129152734Y-110403977D01*
X129152732Y-110403976D01*
X128946497Y-110307806D01*
X128946488Y-110307803D01*
X128726697Y-110248911D01*
X128726693Y-110248910D01*
X128726692Y-110248910D01*
X128726691Y-110248909D01*
X128726686Y-110248909D01*
X128500002Y-110229077D01*
X128499998Y-110229077D01*
X128273313Y-110248909D01*
X128273302Y-110248911D01*
X128053511Y-110307803D01*
X128053502Y-110307806D01*
X127847267Y-110403976D01*
X127847265Y-110403977D01*
X127660858Y-110534499D01*
X127499954Y-110695403D01*
X127369432Y-110881810D01*
X127369431Y-110881812D01*
X127273261Y-111088047D01*
X127273258Y-111088056D01*
X127214366Y-111307847D01*
X127214364Y-111307858D01*
X127194532Y-111534543D01*
X127194532Y-111534546D01*
X127214364Y-111761231D01*
X127214366Y-111761242D01*
X127273258Y-111981033D01*
X127273261Y-111981042D01*
X127369431Y-112187277D01*
X127369432Y-112187279D01*
X127499954Y-112373686D01*
X127660858Y-112534590D01*
X127660861Y-112534592D01*
X127846624Y-112664663D01*
X127890248Y-112719238D01*
X127899500Y-112766237D01*
X127899500Y-113413330D01*
X127899499Y-113413348D01*
X127899499Y-113579054D01*
X127899498Y-113579054D01*
X127908687Y-113613348D01*
X127940423Y-113731785D01*
X127940424Y-113731786D01*
X127953973Y-113755255D01*
X127953975Y-113755258D01*
X127953976Y-113755259D01*
X127987602Y-113813501D01*
X128004074Y-113881401D01*
X127981221Y-113947428D01*
X127926299Y-113990618D01*
X127880214Y-113999500D01*
X125300098Y-113999500D01*
X125233059Y-113979815D01*
X125212417Y-113963181D01*
X125136819Y-113887583D01*
X125103334Y-113826260D01*
X125100500Y-113799902D01*
X125100500Y-112766237D01*
X125120185Y-112699198D01*
X125153374Y-112664664D01*
X125339139Y-112534592D01*
X125500047Y-112373684D01*
X125630568Y-112187279D01*
X125726739Y-111981041D01*
X125785635Y-111761237D01*
X125805468Y-111534545D01*
X125805070Y-111530001D01*
X125789612Y-111353313D01*
X125785635Y-111307853D01*
X125726739Y-111088049D01*
X125630568Y-110881811D01*
X125500047Y-110695406D01*
X125500045Y-110695403D01*
X125339141Y-110534499D01*
X125152734Y-110403977D01*
X125152732Y-110403976D01*
X124946497Y-110307806D01*
X124946488Y-110307803D01*
X124726697Y-110248911D01*
X124726693Y-110248910D01*
X124726692Y-110248910D01*
X124726691Y-110248909D01*
X124726686Y-110248909D01*
X124500002Y-110229077D01*
X124499998Y-110229077D01*
X124273313Y-110248909D01*
X124273302Y-110248911D01*
X124053511Y-110307803D01*
X124053502Y-110307806D01*
X123847267Y-110403976D01*
X123847265Y-110403977D01*
X123660858Y-110534499D01*
X123499954Y-110695403D01*
X123369432Y-110881810D01*
X123369431Y-110881812D01*
X123273261Y-111088047D01*
X123273258Y-111088056D01*
X123214366Y-111307847D01*
X123214364Y-111307858D01*
X123194532Y-111534543D01*
X123194532Y-111534546D01*
X123214364Y-111761231D01*
X123214366Y-111761242D01*
X123273258Y-111981033D01*
X123273261Y-111981042D01*
X123369431Y-112187277D01*
X123369432Y-112187279D01*
X123499954Y-112373686D01*
X123660858Y-112534590D01*
X123660861Y-112534592D01*
X123846624Y-112664663D01*
X123890248Y-112719238D01*
X123899500Y-112766237D01*
X123899500Y-114013330D01*
X123899499Y-114013348D01*
X123899499Y-114179054D01*
X123899498Y-114179054D01*
X123899499Y-114179057D01*
X123915942Y-114240423D01*
X123916742Y-114243406D01*
X123915079Y-114313256D01*
X123875917Y-114371119D01*
X123811688Y-114398623D01*
X123796967Y-114399500D01*
X121300098Y-114399500D01*
X121233059Y-114379815D01*
X121212417Y-114363181D01*
X121136819Y-114287583D01*
X121103334Y-114226260D01*
X121100500Y-114199902D01*
X121100500Y-112766237D01*
X121120185Y-112699198D01*
X121153374Y-112664664D01*
X121339139Y-112534592D01*
X121500047Y-112373684D01*
X121630568Y-112187279D01*
X121726739Y-111981041D01*
X121785635Y-111761237D01*
X121805468Y-111534545D01*
X121805070Y-111530001D01*
X121789612Y-111353313D01*
X121785635Y-111307853D01*
X121726739Y-111088049D01*
X121630568Y-110881811D01*
X121500047Y-110695406D01*
X121500045Y-110695403D01*
X121339141Y-110534499D01*
X121152734Y-110403977D01*
X121152732Y-110403976D01*
X120946497Y-110307806D01*
X120946488Y-110307803D01*
X120726697Y-110248911D01*
X120726693Y-110248910D01*
X120726692Y-110248910D01*
X120726691Y-110248909D01*
X120726686Y-110248909D01*
X120500002Y-110229077D01*
X120499998Y-110229077D01*
X120273313Y-110248909D01*
X120273302Y-110248911D01*
X120053511Y-110307803D01*
X120053502Y-110307806D01*
X119847267Y-110403976D01*
X119847265Y-110403977D01*
X119660858Y-110534499D01*
X119499954Y-110695403D01*
X119369432Y-110881810D01*
X119369431Y-110881812D01*
X119273261Y-111088047D01*
X119273258Y-111088056D01*
X119214366Y-111307847D01*
X119214364Y-111307858D01*
X119194532Y-111534543D01*
X119194532Y-111534546D01*
X119214364Y-111761231D01*
X119214366Y-111761242D01*
X119273258Y-111981033D01*
X119273261Y-111981042D01*
X119369431Y-112187277D01*
X119369432Y-112187279D01*
X119499954Y-112373686D01*
X119660858Y-112534590D01*
X119660861Y-112534592D01*
X119846624Y-112664663D01*
X119890248Y-112719238D01*
X119899500Y-112766237D01*
X119899500Y-114413330D01*
X119899499Y-114413348D01*
X119899499Y-114579054D01*
X119899498Y-114579054D01*
X119940423Y-114731786D01*
X119940424Y-114731787D01*
X119968560Y-114780520D01*
X119987601Y-114813500D01*
X120004074Y-114881400D01*
X119981221Y-114947427D01*
X119926300Y-114990618D01*
X119880214Y-114999500D01*
X117900097Y-114999500D01*
X117833058Y-114979815D01*
X117812416Y-114963181D01*
X117136819Y-114287584D01*
X117103334Y-114226261D01*
X117100500Y-114199903D01*
X117100500Y-112766237D01*
X117120185Y-112699198D01*
X117153374Y-112664664D01*
X117339139Y-112534592D01*
X117500047Y-112373684D01*
X117630568Y-112187279D01*
X117726739Y-111981041D01*
X117785635Y-111761237D01*
X117805468Y-111534545D01*
X117805070Y-111530001D01*
X117789612Y-111353313D01*
X117785635Y-111307853D01*
X117726739Y-111088049D01*
X117630568Y-110881811D01*
X117500047Y-110695406D01*
X117500045Y-110695403D01*
X117339141Y-110534499D01*
X117152734Y-110403977D01*
X117152732Y-110403976D01*
X116946497Y-110307806D01*
X116946488Y-110307803D01*
X116726697Y-110248911D01*
X116726693Y-110248910D01*
X116726692Y-110248910D01*
X116726691Y-110248909D01*
X116726686Y-110248909D01*
X116500002Y-110229077D01*
X116499998Y-110229077D01*
X116273313Y-110248909D01*
X116273302Y-110248911D01*
X116053511Y-110307803D01*
X116053502Y-110307806D01*
X115847267Y-110403976D01*
X115847265Y-110403977D01*
X115660858Y-110534499D01*
X115499954Y-110695403D01*
X115369432Y-110881810D01*
X115369431Y-110881812D01*
X115273261Y-111088047D01*
X115273258Y-111088056D01*
X115214366Y-111307847D01*
X115214364Y-111307858D01*
X115194532Y-111534543D01*
X115194532Y-111534546D01*
X115214364Y-111761231D01*
X115214366Y-111761242D01*
X115273258Y-111981033D01*
X115273261Y-111981042D01*
X115369431Y-112187277D01*
X115369432Y-112187279D01*
X115499954Y-112373686D01*
X115660858Y-112534590D01*
X115660861Y-112534592D01*
X115846624Y-112664663D01*
X115890248Y-112719238D01*
X115899500Y-112766237D01*
X115899500Y-114413330D01*
X115899499Y-114413348D01*
X115899499Y-114579054D01*
X115899498Y-114579054D01*
X115940423Y-114731786D01*
X115940424Y-114731787D01*
X115968560Y-114780520D01*
X116019480Y-114868716D01*
X116019482Y-114868718D01*
X116138349Y-114987585D01*
X116138355Y-114987590D01*
X116338584Y-115187819D01*
X116372069Y-115249142D01*
X116367085Y-115318834D01*
X116325213Y-115374767D01*
X116259749Y-115399184D01*
X116250903Y-115399500D01*
X113300097Y-115399500D01*
X113233058Y-115379815D01*
X113212416Y-115363181D01*
X113097319Y-115248084D01*
X113063834Y-115186761D01*
X113061000Y-115160403D01*
X113061000Y-112761692D01*
X113080685Y-112694653D01*
X113113874Y-112660119D01*
X113299639Y-112530047D01*
X113460547Y-112369139D01*
X113591068Y-112182734D01*
X113687239Y-111976496D01*
X113746135Y-111756692D01*
X113765968Y-111530000D01*
X113746135Y-111303308D01*
X113687239Y-111083504D01*
X113591068Y-110877266D01*
X113493339Y-110737693D01*
X113460545Y-110690858D01*
X113299641Y-110529954D01*
X113113234Y-110399432D01*
X113113232Y-110399431D01*
X112906997Y-110303261D01*
X112906988Y-110303258D01*
X112687197Y-110244366D01*
X112687193Y-110244365D01*
X112687192Y-110244365D01*
X112687191Y-110244364D01*
X112687186Y-110244364D01*
X112460502Y-110224532D01*
X112460498Y-110224532D01*
X112233813Y-110244364D01*
X112233802Y-110244366D01*
X112014011Y-110303258D01*
X112014002Y-110303261D01*
X111807767Y-110399431D01*
X111807765Y-110399432D01*
X111621358Y-110529954D01*
X111460454Y-110690858D01*
X111329932Y-110877265D01*
X111329931Y-110877267D01*
X111233761Y-111083502D01*
X111233758Y-111083511D01*
X111174866Y-111303302D01*
X111174864Y-111303313D01*
X111155032Y-111529998D01*
X111155032Y-111530001D01*
X111174864Y-111756686D01*
X111174866Y-111756697D01*
X111233758Y-111976488D01*
X111233761Y-111976497D01*
X111329931Y-112182732D01*
X111329932Y-112182734D01*
X111460454Y-112369141D01*
X111621358Y-112530045D01*
X111621361Y-112530047D01*
X111807124Y-112660118D01*
X111850748Y-112714693D01*
X111860000Y-112761692D01*
X111860000Y-115373830D01*
X111859999Y-115373848D01*
X111859999Y-115539554D01*
X111859998Y-115539554D01*
X111859999Y-115539557D01*
X111900923Y-115692285D01*
X111900924Y-115692286D01*
X111917468Y-115720943D01*
X111917469Y-115720944D01*
X111979975Y-115829209D01*
X111979981Y-115829217D01*
X112098849Y-115948085D01*
X112098855Y-115948090D01*
X112515139Y-116364374D01*
X112515149Y-116364385D01*
X112519479Y-116368715D01*
X112519480Y-116368716D01*
X112631284Y-116480520D01*
X112714763Y-116528716D01*
X112756731Y-116552947D01*
X112768215Y-116559577D01*
X112920942Y-116600500D01*
X112920943Y-116600500D01*
X115710890Y-116600500D01*
X115777929Y-116620185D01*
X115823684Y-116672989D01*
X115833628Y-116742147D01*
X115804603Y-116805703D01*
X115782013Y-116826075D01*
X115588597Y-116961505D01*
X115421505Y-117128597D01*
X115285965Y-117322169D01*
X115285964Y-117322171D01*
X115186098Y-117536335D01*
X115186094Y-117536344D01*
X115124938Y-117764586D01*
X115124936Y-117764596D01*
X115104341Y-117999999D01*
X115104341Y-118000000D01*
X115124936Y-118235403D01*
X115124938Y-118235413D01*
X115186094Y-118463655D01*
X115186096Y-118463659D01*
X115186097Y-118463663D01*
X115265801Y-118634588D01*
X115285965Y-118677830D01*
X115285967Y-118677834D01*
X115364157Y-118789500D01*
X115421504Y-118871400D01*
X115421506Y-118871402D01*
X115543430Y-118993326D01*
X115576915Y-119054649D01*
X115571931Y-119124341D01*
X115530059Y-119180274D01*
X115499083Y-119197189D01*
X115367669Y-119246203D01*
X115367664Y-119246206D01*
X115252455Y-119332452D01*
X115252452Y-119332455D01*
X115166206Y-119447664D01*
X115166202Y-119447671D01*
X115115908Y-119582517D01*
X115109501Y-119642116D01*
X115109500Y-119642135D01*
X115109500Y-121437870D01*
X115109501Y-121437876D01*
X115115908Y-121497483D01*
X115166202Y-121632328D01*
X115166206Y-121632335D01*
X115252452Y-121747544D01*
X115252455Y-121747547D01*
X115367664Y-121833793D01*
X115367671Y-121833797D01*
X115502517Y-121884091D01*
X115502516Y-121884091D01*
X115509444Y-121884835D01*
X115562127Y-121890500D01*
X117357872Y-121890499D01*
X117417483Y-121884091D01*
X117552331Y-121833796D01*
X117667546Y-121747546D01*
X117753796Y-121632331D01*
X117802810Y-121500916D01*
X117844681Y-121444984D01*
X117910145Y-121420566D01*
X117978418Y-121435417D01*
X118006673Y-121456569D01*
X118128599Y-121578495D01*
X118209679Y-121635268D01*
X118322165Y-121714032D01*
X118322167Y-121714033D01*
X118322170Y-121714035D01*
X118536337Y-121813903D01*
X118764592Y-121875063D01*
X118941034Y-121890500D01*
X118999999Y-121895659D01*
X119000000Y-121895659D01*
X119000001Y-121895659D01*
X119058966Y-121890500D01*
X119235408Y-121875063D01*
X119363757Y-121840672D01*
X119433606Y-121842335D01*
X119483531Y-121872766D01*
X126583181Y-128972416D01*
X126616666Y-129033739D01*
X126619500Y-129060097D01*
X126619500Y-129710908D01*
X126599815Y-129777947D01*
X126547914Y-129823286D01*
X126542173Y-129825963D01*
X126542169Y-129825965D01*
X126348597Y-129961505D01*
X126181505Y-130128597D01*
X126051575Y-130314158D01*
X125996998Y-130357783D01*
X125927500Y-130364977D01*
X125865145Y-130333454D01*
X125848425Y-130314158D01*
X125718494Y-130128597D01*
X125551402Y-129961506D01*
X125551395Y-129961501D01*
X125357834Y-129825967D01*
X125357830Y-129825965D01*
X125280499Y-129789905D01*
X125143663Y-129726097D01*
X125143659Y-129726096D01*
X125143655Y-129726094D01*
X124915413Y-129664938D01*
X124915403Y-129664936D01*
X124680001Y-129644341D01*
X124679999Y-129644341D01*
X124444596Y-129664936D01*
X124444586Y-129664938D01*
X124216344Y-129726094D01*
X124216335Y-129726098D01*
X124002171Y-129825964D01*
X124002169Y-129825965D01*
X123808597Y-129961505D01*
X123641505Y-130128597D01*
X123511575Y-130314158D01*
X123456998Y-130357783D01*
X123387500Y-130364977D01*
X123325145Y-130333454D01*
X123308425Y-130314158D01*
X123178494Y-130128597D01*
X123011402Y-129961506D01*
X123011395Y-129961501D01*
X122817834Y-129825967D01*
X122817830Y-129825965D01*
X122740499Y-129789905D01*
X122603663Y-129726097D01*
X122603659Y-129726096D01*
X122603655Y-129726094D01*
X122375413Y-129664938D01*
X122375403Y-129664936D01*
X122140001Y-129644341D01*
X122139999Y-129644341D01*
X121904596Y-129664936D01*
X121904586Y-129664938D01*
X121676344Y-129726094D01*
X121676335Y-129726098D01*
X121462171Y-129825964D01*
X121462169Y-129825965D01*
X121268600Y-129961503D01*
X121146284Y-130083819D01*
X121084961Y-130117303D01*
X121015269Y-130112319D01*
X120959336Y-130070447D01*
X120942421Y-130039470D01*
X120893354Y-129907913D01*
X120893350Y-129907906D01*
X120807190Y-129792812D01*
X120807187Y-129792809D01*
X120692093Y-129706649D01*
X120692086Y-129706645D01*
X120557379Y-129656403D01*
X120557372Y-129656401D01*
X120497844Y-129650000D01*
X119850000Y-129650000D01*
X119850000Y-130566988D01*
X119792993Y-130534075D01*
X119665826Y-130500000D01*
X119534174Y-130500000D01*
X119407007Y-130534075D01*
X119350000Y-130566988D01*
X119350000Y-129650000D01*
X118702155Y-129650000D01*
X118642627Y-129656401D01*
X118642620Y-129656403D01*
X118507913Y-129706645D01*
X118507906Y-129706649D01*
X118392812Y-129792809D01*
X118392809Y-129792812D01*
X118306649Y-129907906D01*
X118306645Y-129907913D01*
X118256403Y-130042620D01*
X118256401Y-130042627D01*
X118250000Y-130102155D01*
X118250000Y-130750000D01*
X119166988Y-130750000D01*
X119134075Y-130807007D01*
X119100000Y-130934174D01*
X119100000Y-131065826D01*
X119134075Y-131192993D01*
X119166988Y-131250000D01*
X118250000Y-131250000D01*
X118250000Y-131897844D01*
X118256401Y-131957372D01*
X118256403Y-131957379D01*
X118306645Y-132092086D01*
X118306649Y-132092093D01*
X118392809Y-132207187D01*
X118392812Y-132207190D01*
X118507906Y-132293350D01*
X118507913Y-132293354D01*
X118642620Y-132343596D01*
X118642627Y-132343598D01*
X118702155Y-132349999D01*
X118702172Y-132350000D01*
X119350000Y-132350000D01*
X119350000Y-131433012D01*
X119407007Y-131465925D01*
X119534174Y-131500000D01*
X119665826Y-131500000D01*
X119792993Y-131465925D01*
X119850000Y-131433012D01*
X119850000Y-132350000D01*
X120497828Y-132350000D01*
X120497844Y-132349999D01*
X120557372Y-132343598D01*
X120557379Y-132343596D01*
X120692086Y-132293354D01*
X120692093Y-132293350D01*
X120807187Y-132207190D01*
X120807190Y-132207187D01*
X120893350Y-132092093D01*
X120893354Y-132092086D01*
X120942422Y-131960529D01*
X120984293Y-131904595D01*
X121049757Y-131880178D01*
X121118030Y-131895030D01*
X121146285Y-131916181D01*
X121268599Y-132038495D01*
X121326532Y-132079060D01*
X121462165Y-132174032D01*
X121462167Y-132174033D01*
X121462170Y-132174035D01*
X121676337Y-132273903D01*
X121676343Y-132273904D01*
X121676344Y-132273905D01*
X121731285Y-132288626D01*
X121904592Y-132335063D01*
X122075319Y-132350000D01*
X122139999Y-132355659D01*
X122140000Y-132355659D01*
X122140001Y-132355659D01*
X122204681Y-132350000D01*
X122375408Y-132335063D01*
X122603663Y-132273903D01*
X122817830Y-132174035D01*
X123011401Y-132038495D01*
X123178495Y-131871401D01*
X123307447Y-131687239D01*
X123308425Y-131685842D01*
X123363002Y-131642217D01*
X123432500Y-131635023D01*
X123494855Y-131666546D01*
X123511575Y-131685842D01*
X123641500Y-131871395D01*
X123641505Y-131871401D01*
X123808599Y-132038495D01*
X123866532Y-132079060D01*
X124002165Y-132174032D01*
X124002167Y-132174033D01*
X124002170Y-132174035D01*
X124007898Y-132176706D01*
X124060339Y-132222872D01*
X124079500Y-132289090D01*
X124079500Y-134775500D01*
X124059815Y-134842539D01*
X124007011Y-134888294D01*
X123955500Y-134899500D01*
X113689903Y-134899500D01*
X113622864Y-134879815D01*
X113577109Y-134827011D01*
X113570130Y-134807600D01*
X113559577Y-134768215D01*
X113524738Y-134707872D01*
X113480520Y-134631284D01*
X113368716Y-134519480D01*
X113368715Y-134519479D01*
X113364385Y-134515149D01*
X113364374Y-134515139D01*
X112316818Y-133467583D01*
X112283333Y-133406260D01*
X112280499Y-133379902D01*
X112280499Y-132999998D01*
X114714609Y-132999998D01*
X114714609Y-133000001D01*
X114734136Y-133223200D01*
X114734137Y-133223208D01*
X114792126Y-133439625D01*
X114792127Y-133439627D01*
X114792128Y-133439630D01*
X114886819Y-133642696D01*
X114886821Y-133642700D01*
X115015329Y-133826228D01*
X115015334Y-133826234D01*
X115173765Y-133984665D01*
X115173771Y-133984670D01*
X115357299Y-134113178D01*
X115357301Y-134113179D01*
X115357304Y-134113181D01*
X115560370Y-134207872D01*
X115776794Y-134265863D01*
X115936226Y-134279811D01*
X115999998Y-134285391D01*
X116000000Y-134285391D01*
X116000002Y-134285391D01*
X116055927Y-134280498D01*
X116223206Y-134265863D01*
X116439630Y-134207872D01*
X116642696Y-134113181D01*
X116826233Y-133984667D01*
X116984667Y-133826233D01*
X117113181Y-133642696D01*
X117207872Y-133439630D01*
X117265863Y-133223206D01*
X117285391Y-133000000D01*
X117265863Y-132776794D01*
X117207872Y-132560370D01*
X117113181Y-132357305D01*
X117008068Y-132207187D01*
X116984668Y-132173768D01*
X116923416Y-132112516D01*
X116826233Y-132015333D01*
X116826229Y-132015330D01*
X116826228Y-132015329D01*
X116642700Y-131886821D01*
X116642696Y-131886819D01*
X116590445Y-131862454D01*
X116439630Y-131792128D01*
X116439627Y-131792127D01*
X116439625Y-131792126D01*
X116223208Y-131734137D01*
X116223200Y-131734136D01*
X116000002Y-131714609D01*
X115999998Y-131714609D01*
X115776799Y-131734136D01*
X115776791Y-131734137D01*
X115560374Y-131792126D01*
X115560368Y-131792129D01*
X115357306Y-131886818D01*
X115357304Y-131886819D01*
X115173764Y-132015334D01*
X115015334Y-132173764D01*
X114886819Y-132357304D01*
X114886818Y-132357306D01*
X114792129Y-132560368D01*
X114792126Y-132560374D01*
X114734137Y-132776791D01*
X114734136Y-132776799D01*
X114714609Y-132999998D01*
X112280499Y-132999998D01*
X112280499Y-132172129D01*
X112280498Y-132172123D01*
X112280497Y-132172116D01*
X112274091Y-132112517D01*
X112266473Y-132092093D01*
X112223797Y-131977671D01*
X112223793Y-131977664D01*
X112137547Y-131862455D01*
X112137544Y-131862452D01*
X112022335Y-131776206D01*
X112022328Y-131776202D01*
X111887482Y-131725908D01*
X111887483Y-131725908D01*
X111827883Y-131719501D01*
X111827881Y-131719500D01*
X111827873Y-131719500D01*
X111827864Y-131719500D01*
X110172129Y-131719500D01*
X110172123Y-131719501D01*
X110112516Y-131725908D01*
X109977671Y-131776202D01*
X109977664Y-131776206D01*
X109862455Y-131862452D01*
X109862452Y-131862455D01*
X109776206Y-131977664D01*
X109776202Y-131977671D01*
X109725908Y-132112517D01*
X109719897Y-132168430D01*
X109719501Y-132172123D01*
X109719500Y-132172135D01*
X109719500Y-133827870D01*
X109719501Y-133827876D01*
X109725908Y-133887483D01*
X109776202Y-134022328D01*
X109776206Y-134022335D01*
X109862452Y-134137544D01*
X109862455Y-134137547D01*
X109977664Y-134223793D01*
X109977671Y-134223797D01*
X110112517Y-134274091D01*
X110112516Y-134274091D01*
X110119444Y-134274835D01*
X110172127Y-134280500D01*
X111379902Y-134280499D01*
X111446941Y-134300184D01*
X111467583Y-134316818D01*
X112363181Y-135212416D01*
X112396666Y-135273739D01*
X112399500Y-135300097D01*
X112399500Y-135579057D01*
X112433948Y-135707617D01*
X112440423Y-135731783D01*
X112440426Y-135731790D01*
X112519475Y-135868709D01*
X112519478Y-135868713D01*
X112519480Y-135868716D01*
X112631284Y-135980520D01*
X112631286Y-135980521D01*
X112631290Y-135980524D01*
X112768209Y-136059573D01*
X112768216Y-136059577D01*
X112920943Y-136100500D01*
X113079057Y-136100500D01*
X124413331Y-136100500D01*
X124413347Y-136100501D01*
X124420943Y-136100501D01*
X124579054Y-136100501D01*
X124579057Y-136100501D01*
X124731785Y-136059577D01*
X124781904Y-136030639D01*
X124868716Y-135980520D01*
X124980520Y-135868716D01*
X124980520Y-135868714D01*
X124990728Y-135858507D01*
X124990730Y-135858504D01*
X125038506Y-135810728D01*
X125038511Y-135810724D01*
X125048714Y-135800520D01*
X125048716Y-135800520D01*
X125160520Y-135688716D01*
X125239577Y-135551784D01*
X125280500Y-135399057D01*
X125280500Y-132289090D01*
X125300185Y-132222051D01*
X125352101Y-132176706D01*
X125357830Y-132174035D01*
X125551401Y-132038495D01*
X125718495Y-131871401D01*
X125847447Y-131687239D01*
X125848425Y-131685842D01*
X125903002Y-131642217D01*
X125972500Y-131635023D01*
X126034855Y-131666546D01*
X126051575Y-131685842D01*
X126181500Y-131871395D01*
X126181505Y-131871401D01*
X126348599Y-132038495D01*
X126406532Y-132079060D01*
X126542165Y-132174032D01*
X126542167Y-132174033D01*
X126542170Y-132174035D01*
X126756337Y-132273903D01*
X126756343Y-132273904D01*
X126756344Y-132273905D01*
X126811285Y-132288626D01*
X126984592Y-132335063D01*
X127155319Y-132350000D01*
X127219999Y-132355659D01*
X127220000Y-132355659D01*
X127220001Y-132355659D01*
X127284681Y-132350000D01*
X127455408Y-132335063D01*
X127683663Y-132273903D01*
X127897830Y-132174035D01*
X128091401Y-132038495D01*
X128258495Y-131871401D01*
X128388730Y-131685405D01*
X128443307Y-131641781D01*
X128512805Y-131634587D01*
X128575160Y-131666110D01*
X128591879Y-131685405D01*
X128721890Y-131871078D01*
X128888917Y-132038105D01*
X129082421Y-132173600D01*
X129296507Y-132273429D01*
X129296516Y-132273433D01*
X129510000Y-132330634D01*
X129510000Y-131433012D01*
X129567007Y-131465925D01*
X129694174Y-131500000D01*
X129825826Y-131500000D01*
X129952993Y-131465925D01*
X130010000Y-131433012D01*
X130010000Y-132330633D01*
X130223483Y-132273433D01*
X130223492Y-132273429D01*
X130437578Y-132173600D01*
X130631082Y-132038105D01*
X130798105Y-131871082D01*
X130928119Y-131685405D01*
X130982696Y-131641781D01*
X131052195Y-131634588D01*
X131114549Y-131666110D01*
X131131269Y-131685405D01*
X131132553Y-131687239D01*
X131261505Y-131871401D01*
X131428599Y-132038495D01*
X131486532Y-132079060D01*
X131622165Y-132174032D01*
X131622167Y-132174033D01*
X131622170Y-132174035D01*
X131836337Y-132273903D01*
X131836343Y-132273904D01*
X131836344Y-132273905D01*
X131891285Y-132288626D01*
X132064592Y-132335063D01*
X132235319Y-132350000D01*
X132299999Y-132355659D01*
X132300000Y-132355659D01*
X132300001Y-132355659D01*
X132364681Y-132350000D01*
X132535408Y-132335063D01*
X132763663Y-132273903D01*
X132977830Y-132174035D01*
X133171401Y-132038495D01*
X133338495Y-131871401D01*
X133467447Y-131687239D01*
X133468425Y-131685842D01*
X133523002Y-131642217D01*
X133592500Y-131635023D01*
X133654855Y-131666546D01*
X133671575Y-131685842D01*
X133801500Y-131871395D01*
X133801505Y-131871401D01*
X133968599Y-132038495D01*
X134026532Y-132079060D01*
X134162165Y-132174032D01*
X134162167Y-132174033D01*
X134162170Y-132174035D01*
X134376337Y-132273903D01*
X134376343Y-132273904D01*
X134376344Y-132273905D01*
X134431285Y-132288626D01*
X134604592Y-132335063D01*
X134775319Y-132350000D01*
X134839999Y-132355659D01*
X134840000Y-132355659D01*
X134840001Y-132355659D01*
X134904681Y-132350000D01*
X135075408Y-132335063D01*
X135303663Y-132273903D01*
X135517830Y-132174035D01*
X135711401Y-132038495D01*
X135878495Y-131871401D01*
X136007447Y-131687239D01*
X136008425Y-131685842D01*
X136063002Y-131642217D01*
X136132500Y-131635023D01*
X136194855Y-131666546D01*
X136211575Y-131685842D01*
X136341500Y-131871395D01*
X136341505Y-131871401D01*
X136508599Y-132038495D01*
X136566532Y-132079060D01*
X136702165Y-132174032D01*
X136702167Y-132174033D01*
X136702170Y-132174035D01*
X136916337Y-132273903D01*
X136916343Y-132273904D01*
X136916344Y-132273905D01*
X136971285Y-132288626D01*
X137144592Y-132335063D01*
X137315319Y-132350000D01*
X137379999Y-132355659D01*
X137380000Y-132355659D01*
X137380001Y-132355659D01*
X137444681Y-132350000D01*
X137615408Y-132335063D01*
X137843663Y-132273903D01*
X138057830Y-132174035D01*
X138251401Y-132038495D01*
X138418495Y-131871401D01*
X138547447Y-131687239D01*
X138548425Y-131685842D01*
X138603002Y-131642217D01*
X138672500Y-131635023D01*
X138734855Y-131666546D01*
X138751575Y-131685842D01*
X138881500Y-131871395D01*
X138881505Y-131871401D01*
X139048599Y-132038495D01*
X139106532Y-132079060D01*
X139242165Y-132174032D01*
X139242167Y-132174033D01*
X139242170Y-132174035D01*
X139456337Y-132273903D01*
X139456343Y-132273904D01*
X139456344Y-132273905D01*
X139511285Y-132288626D01*
X139684592Y-132335063D01*
X139855319Y-132350000D01*
X139919999Y-132355659D01*
X139920000Y-132355659D01*
X139920001Y-132355659D01*
X139984681Y-132350000D01*
X140155408Y-132335063D01*
X140383663Y-132273903D01*
X140597830Y-132174035D01*
X140791401Y-132038495D01*
X140958495Y-131871401D01*
X141087447Y-131687239D01*
X141088425Y-131685842D01*
X141143002Y-131642217D01*
X141212500Y-131635023D01*
X141274855Y-131666546D01*
X141291575Y-131685842D01*
X141421500Y-131871395D01*
X141421505Y-131871401D01*
X141588599Y-132038495D01*
X141646532Y-132079060D01*
X141782165Y-132174032D01*
X141782167Y-132174033D01*
X141782170Y-132174035D01*
X141996337Y-132273903D01*
X141996343Y-132273904D01*
X141996344Y-132273905D01*
X142051285Y-132288626D01*
X142224592Y-132335063D01*
X142395319Y-132350000D01*
X142459999Y-132355659D01*
X142460000Y-132355659D01*
X142460001Y-132355659D01*
X142524681Y-132350000D01*
X142695408Y-132335063D01*
X142923663Y-132273903D01*
X143137830Y-132174035D01*
X143331401Y-132038495D01*
X143498495Y-131871401D01*
X143627447Y-131687239D01*
X143628425Y-131685842D01*
X143683002Y-131642217D01*
X143752500Y-131635023D01*
X143814855Y-131666546D01*
X143831575Y-131685842D01*
X143961500Y-131871395D01*
X143961505Y-131871401D01*
X144128599Y-132038495D01*
X144186532Y-132079060D01*
X144322165Y-132174032D01*
X144322167Y-132174033D01*
X144322170Y-132174035D01*
X144536337Y-132273903D01*
X144536343Y-132273904D01*
X144536344Y-132273905D01*
X144591285Y-132288626D01*
X144764592Y-132335063D01*
X144935319Y-132350000D01*
X144999999Y-132355659D01*
X145000000Y-132355659D01*
X145000001Y-132355659D01*
X145064681Y-132350000D01*
X145235408Y-132335063D01*
X145463663Y-132273903D01*
X145677830Y-132174035D01*
X145871401Y-132038495D01*
X146038495Y-131871401D01*
X146167447Y-131687239D01*
X146168425Y-131685842D01*
X146223002Y-131642217D01*
X146292500Y-131635023D01*
X146354855Y-131666546D01*
X146371575Y-131685842D01*
X146501500Y-131871395D01*
X146501505Y-131871401D01*
X146668599Y-132038495D01*
X146726532Y-132079060D01*
X146862165Y-132174032D01*
X146862167Y-132174033D01*
X146862170Y-132174035D01*
X147076337Y-132273903D01*
X147076343Y-132273904D01*
X147076344Y-132273905D01*
X147131285Y-132288626D01*
X147304592Y-132335063D01*
X147475319Y-132350000D01*
X147539999Y-132355659D01*
X147540000Y-132355659D01*
X147540001Y-132355659D01*
X147604681Y-132350000D01*
X147775408Y-132335063D01*
X148003663Y-132273903D01*
X148217830Y-132174035D01*
X148411401Y-132038495D01*
X148578495Y-131871401D01*
X148707447Y-131687239D01*
X148708425Y-131685842D01*
X148763002Y-131642217D01*
X148832500Y-131635023D01*
X148894855Y-131666546D01*
X148911575Y-131685842D01*
X149041500Y-131871395D01*
X149041505Y-131871401D01*
X149208599Y-132038495D01*
X149266532Y-132079060D01*
X149402165Y-132174032D01*
X149402167Y-132174033D01*
X149402170Y-132174035D01*
X149616337Y-132273903D01*
X149616343Y-132273904D01*
X149616344Y-132273905D01*
X149671285Y-132288626D01*
X149844592Y-132335063D01*
X150015319Y-132350000D01*
X150079999Y-132355659D01*
X150080000Y-132355659D01*
X150080001Y-132355659D01*
X150144681Y-132350000D01*
X150315408Y-132335063D01*
X150543663Y-132273903D01*
X150757830Y-132174035D01*
X150951401Y-132038495D01*
X151118495Y-131871401D01*
X151247447Y-131687239D01*
X151248425Y-131685842D01*
X151303002Y-131642217D01*
X151372500Y-131635023D01*
X151434855Y-131666546D01*
X151451575Y-131685842D01*
X151581500Y-131871395D01*
X151581505Y-131871401D01*
X151748599Y-132038495D01*
X151806532Y-132079060D01*
X151942165Y-132174032D01*
X151942167Y-132174033D01*
X151942170Y-132174035D01*
X152156337Y-132273903D01*
X152156343Y-132273904D01*
X152156344Y-132273905D01*
X152211285Y-132288626D01*
X152384592Y-132335063D01*
X152555319Y-132350000D01*
X152619999Y-132355659D01*
X152620000Y-132355659D01*
X152620001Y-132355659D01*
X152684681Y-132350000D01*
X152855408Y-132335063D01*
X153083663Y-132273903D01*
X153297830Y-132174035D01*
X153491401Y-132038495D01*
X153658495Y-131871401D01*
X153787447Y-131687239D01*
X153788425Y-131685842D01*
X153843002Y-131642217D01*
X153912500Y-131635023D01*
X153974855Y-131666546D01*
X153991575Y-131685842D01*
X154121500Y-131871395D01*
X154121505Y-131871401D01*
X154288599Y-132038495D01*
X154346532Y-132079060D01*
X154482165Y-132174032D01*
X154482167Y-132174033D01*
X154482170Y-132174035D01*
X154487898Y-132176706D01*
X154540339Y-132222872D01*
X154559500Y-132289090D01*
X154559500Y-136573330D01*
X154559499Y-136573348D01*
X154559499Y-136739054D01*
X154559498Y-136739054D01*
X154600423Y-136891785D01*
X154629358Y-136941900D01*
X154629359Y-136941904D01*
X154629360Y-136941904D01*
X154679479Y-137028714D01*
X154679481Y-137028717D01*
X154798349Y-137147585D01*
X154798355Y-137147590D01*
X158015139Y-140364374D01*
X158015149Y-140364385D01*
X158019479Y-140368715D01*
X158019480Y-140368716D01*
X158131284Y-140480520D01*
X158218095Y-140530639D01*
X158218097Y-140530641D01*
X158268213Y-140559576D01*
X158268215Y-140559577D01*
X158420942Y-140600500D01*
X158420943Y-140600500D01*
X166413331Y-140600500D01*
X166413347Y-140600501D01*
X166420943Y-140600501D01*
X166579054Y-140600501D01*
X166579057Y-140600501D01*
X166731785Y-140559577D01*
X166781904Y-140530639D01*
X166868716Y-140480520D01*
X166980520Y-140368716D01*
X166980520Y-140368714D01*
X166990728Y-140358507D01*
X166990729Y-140358504D01*
X168212416Y-139136819D01*
X168273739Y-139103334D01*
X168300097Y-139100500D01*
X168595501Y-139100500D01*
X168662540Y-139120185D01*
X168708295Y-139172989D01*
X168719501Y-139224500D01*
X168719501Y-139327876D01*
X168725908Y-139387483D01*
X168776202Y-139522328D01*
X168776206Y-139522335D01*
X168862452Y-139637544D01*
X168862455Y-139637547D01*
X168977664Y-139723793D01*
X168977671Y-139723797D01*
X169112517Y-139774091D01*
X169112516Y-139774091D01*
X169119444Y-139774835D01*
X169172127Y-139780500D01*
X170827872Y-139780499D01*
X170887483Y-139774091D01*
X171022331Y-139723796D01*
X171137546Y-139637546D01*
X171223796Y-139522331D01*
X171274091Y-139387483D01*
X171280500Y-139327873D01*
X171280499Y-137672128D01*
X171274091Y-137612517D01*
X171254708Y-137560549D01*
X171223797Y-137477671D01*
X171223793Y-137477664D01*
X171137547Y-137362455D01*
X171137544Y-137362452D01*
X171022335Y-137276206D01*
X171022328Y-137276202D01*
X170887482Y-137225908D01*
X170887483Y-137225908D01*
X170827883Y-137219501D01*
X170827881Y-137219500D01*
X170827873Y-137219500D01*
X170827865Y-137219500D01*
X169469595Y-137219500D01*
X169402556Y-137199815D01*
X169356801Y-137147011D01*
X169346857Y-137077853D01*
X169375882Y-137014297D01*
X169381900Y-137007833D01*
X174187821Y-132201913D01*
X174249142Y-132168430D01*
X174318834Y-132173414D01*
X174374767Y-132215286D01*
X174399184Y-132280750D01*
X174399500Y-132289596D01*
X174399500Y-134792723D01*
X174379815Y-134859762D01*
X174346623Y-134894298D01*
X174173765Y-135015333D01*
X174015334Y-135173764D01*
X173886819Y-135357304D01*
X173886818Y-135357306D01*
X173792129Y-135560368D01*
X173792126Y-135560374D01*
X173734137Y-135776791D01*
X173734136Y-135776799D01*
X173714609Y-135999998D01*
X173714609Y-136000001D01*
X173734136Y-136223200D01*
X173734137Y-136223208D01*
X173792126Y-136439625D01*
X173792127Y-136439627D01*
X173792128Y-136439630D01*
X173808445Y-136474622D01*
X173886819Y-136642696D01*
X173886821Y-136642700D01*
X174015329Y-136826228D01*
X174015334Y-136826234D01*
X174173765Y-136984665D01*
X174173771Y-136984670D01*
X174357299Y-137113178D01*
X174357301Y-137113179D01*
X174357304Y-137113181D01*
X174560370Y-137207872D01*
X174776794Y-137265863D01*
X174936226Y-137279811D01*
X174999998Y-137285391D01*
X175000000Y-137285391D01*
X175000002Y-137285391D01*
X175055801Y-137280509D01*
X175223206Y-137265863D01*
X175439630Y-137207872D01*
X175642696Y-137113181D01*
X175826233Y-136984667D01*
X175984667Y-136826233D01*
X176113181Y-136642696D01*
X176207872Y-136439630D01*
X176265863Y-136223206D01*
X176285391Y-136000000D01*
X176265863Y-135776794D01*
X176207872Y-135560370D01*
X176113181Y-135357305D01*
X176011729Y-135212416D01*
X175984668Y-135173768D01*
X175921456Y-135110556D01*
X175826233Y-135015333D01*
X175767879Y-134974473D01*
X175653376Y-134894297D01*
X175609752Y-134839720D01*
X175600500Y-134792722D01*
X175600500Y-132300097D01*
X175620185Y-132233058D01*
X175636819Y-132212416D01*
X176751917Y-131097319D01*
X176813240Y-131063834D01*
X176839598Y-131061000D01*
X176848308Y-131061000D01*
X176915347Y-131080685D01*
X176949880Y-131113874D01*
X177034975Y-131235403D01*
X177079954Y-131299641D01*
X177240858Y-131460545D01*
X177248542Y-131465925D01*
X177427266Y-131591068D01*
X177633504Y-131687239D01*
X177853308Y-131746135D01*
X178015230Y-131760301D01*
X178079998Y-131765968D01*
X178080000Y-131765968D01*
X178080002Y-131765968D01*
X178136673Y-131761009D01*
X178306692Y-131746135D01*
X178526496Y-131687239D01*
X178732734Y-131591068D01*
X178804378Y-131540902D01*
X178870583Y-131518576D01*
X178938350Y-131535586D01*
X178986163Y-131586534D01*
X178999500Y-131642478D01*
X178999500Y-141125500D01*
X178979815Y-141192539D01*
X178927011Y-141238294D01*
X178875500Y-141249500D01*
X107124500Y-141249500D01*
X107057461Y-141229815D01*
X107011706Y-141177011D01*
X107000500Y-141125500D01*
X107000500Y-137999997D01*
X112215111Y-137999997D01*
X112215111Y-138000002D01*
X112234630Y-138223113D01*
X112234632Y-138223124D01*
X112292596Y-138439450D01*
X112292600Y-138439459D01*
X112387252Y-138642443D01*
X112387253Y-138642445D01*
X112435334Y-138711112D01*
X113017037Y-138129409D01*
X113034075Y-138192993D01*
X113099901Y-138307007D01*
X113192993Y-138400099D01*
X113307007Y-138465925D01*
X113370590Y-138482962D01*
X112788886Y-139064664D01*
X112857555Y-139112746D01*
X113060540Y-139207399D01*
X113060549Y-139207403D01*
X113276875Y-139265367D01*
X113276886Y-139265369D01*
X113499998Y-139284889D01*
X113500002Y-139284889D01*
X113723113Y-139265369D01*
X113723124Y-139265367D01*
X113939450Y-139207403D01*
X113939459Y-139207399D01*
X114142445Y-139112746D01*
X114142451Y-139112742D01*
X114211112Y-139064665D01*
X113629409Y-138482962D01*
X113692993Y-138465925D01*
X113807007Y-138400099D01*
X113900099Y-138307007D01*
X113965925Y-138192993D01*
X113982962Y-138129409D01*
X114564665Y-138711112D01*
X114612742Y-138642451D01*
X114612746Y-138642445D01*
X114707399Y-138439459D01*
X114707403Y-138439450D01*
X114765367Y-138223124D01*
X114765369Y-138223113D01*
X114784889Y-138000002D01*
X114784889Y-137999997D01*
X114765369Y-137776886D01*
X114765367Y-137776875D01*
X114707403Y-137560549D01*
X114707399Y-137560540D01*
X114612747Y-137357557D01*
X114612746Y-137357555D01*
X114564664Y-137288887D01*
X114564664Y-137288886D01*
X113982962Y-137870589D01*
X113965925Y-137807007D01*
X113900099Y-137692993D01*
X113807007Y-137599901D01*
X113692993Y-137534075D01*
X113629408Y-137517037D01*
X114211112Y-136935334D01*
X114211112Y-136935333D01*
X114142445Y-136887253D01*
X114142443Y-136887252D01*
X113939459Y-136792600D01*
X113939450Y-136792596D01*
X113723124Y-136734632D01*
X113723113Y-136734630D01*
X113500002Y-136715111D01*
X113499998Y-136715111D01*
X113276886Y-136734630D01*
X113276875Y-136734632D01*
X113060549Y-136792596D01*
X113060540Y-136792600D01*
X112857556Y-136887253D01*
X112788887Y-136935334D01*
X113370591Y-137517037D01*
X113307007Y-137534075D01*
X113192993Y-137599901D01*
X113099901Y-137692993D01*
X113034075Y-137807007D01*
X113017037Y-137870590D01*
X112435334Y-137288887D01*
X112387253Y-137357556D01*
X112292600Y-137560540D01*
X112292596Y-137560549D01*
X112234632Y-137776875D01*
X112234630Y-137776886D01*
X112215111Y-137999997D01*
X107000500Y-137999997D01*
X107000500Y-123950500D01*
X107020185Y-123883461D01*
X107072989Y-123837706D01*
X107142147Y-123827762D01*
X107205703Y-123856787D01*
X107231888Y-123888502D01*
X107239289Y-123901322D01*
X107447972Y-124181631D01*
X107447976Y-124181636D01*
X107456147Y-124190297D01*
X107456148Y-124190298D01*
X108706320Y-122940125D01*
X108796554Y-123064320D01*
X108935680Y-123203446D01*
X109059873Y-123293678D01*
X107812817Y-124540733D01*
X107812818Y-124540734D01*
X107955480Y-124660442D01*
X108247461Y-124852480D01*
X108559739Y-125009314D01*
X108559745Y-125009316D01*
X108888130Y-125128838D01*
X108888133Y-125128839D01*
X109228171Y-125209429D01*
X109575276Y-125249999D01*
X109575277Y-125250000D01*
X109924723Y-125250000D01*
X109924723Y-125249999D01*
X110271827Y-125209429D01*
X110271829Y-125209429D01*
X110611866Y-125128839D01*
X110611869Y-125128838D01*
X110940254Y-125009316D01*
X110940260Y-125009314D01*
X111252538Y-124852480D01*
X111544515Y-124660445D01*
X111687180Y-124540734D01*
X111687181Y-124540733D01*
X110440126Y-123293678D01*
X110564320Y-123203446D01*
X110703446Y-123064320D01*
X110793679Y-122940126D01*
X112043850Y-124190297D01*
X112052032Y-124181625D01*
X112260710Y-123901322D01*
X112435438Y-123598683D01*
X112435444Y-123598670D01*
X112573854Y-123277800D01*
X112674083Y-122943011D01*
X112674085Y-122943002D01*
X112734763Y-122598880D01*
X112734764Y-122598869D01*
X112755084Y-122250003D01*
X112755084Y-122249996D01*
X112734764Y-121901130D01*
X112734763Y-121901119D01*
X112674085Y-121556997D01*
X112674083Y-121556988D01*
X112573854Y-121222199D01*
X112435444Y-120901329D01*
X112435438Y-120901316D01*
X112260710Y-120598677D01*
X112052029Y-120318371D01*
X112043850Y-120309701D01*
X112043850Y-120309700D01*
X110793678Y-121559872D01*
X110703446Y-121435680D01*
X110564320Y-121296554D01*
X110440125Y-121206320D01*
X111687181Y-119959265D01*
X111687180Y-119959264D01*
X111544519Y-119839557D01*
X111252538Y-119647519D01*
X110940260Y-119490685D01*
X110940254Y-119490683D01*
X110611869Y-119371161D01*
X110611866Y-119371160D01*
X110271828Y-119290570D01*
X109924723Y-119250000D01*
X109575277Y-119250000D01*
X109228172Y-119290570D01*
X109228170Y-119290570D01*
X108888133Y-119371160D01*
X108888130Y-119371161D01*
X108559745Y-119490683D01*
X108559739Y-119490685D01*
X108247461Y-119647519D01*
X107955485Y-119839554D01*
X107812817Y-119959264D01*
X109059874Y-121206320D01*
X108935680Y-121296554D01*
X108796554Y-121435680D01*
X108706320Y-121559873D01*
X107456148Y-120309701D01*
X107456146Y-120309701D01*
X107447973Y-120318366D01*
X107239292Y-120598674D01*
X107231887Y-120611500D01*
X107181319Y-120659715D01*
X107112712Y-120672937D01*
X107047848Y-120646969D01*
X107007320Y-120590055D01*
X107000500Y-120549499D01*
X107000500Y-97539999D01*
X111144341Y-97539999D01*
X111144341Y-97540000D01*
X111164936Y-97775403D01*
X111164938Y-97775413D01*
X111226094Y-98003655D01*
X111226096Y-98003659D01*
X111226097Y-98003663D01*
X111325965Y-98217830D01*
X111325967Y-98217834D01*
X111434281Y-98372521D01*
X111461505Y-98411401D01*
X111628599Y-98578495D01*
X111807124Y-98703500D01*
X111850748Y-98758075D01*
X111860000Y-98805073D01*
X111860000Y-100138306D01*
X111840315Y-100205345D01*
X111807123Y-100239881D01*
X111621359Y-100369953D01*
X111460454Y-100530858D01*
X111329932Y-100717265D01*
X111329931Y-100717267D01*
X111233761Y-100923502D01*
X111233758Y-100923511D01*
X111174866Y-101143302D01*
X111174864Y-101143313D01*
X111155032Y-101369998D01*
X111155032Y-101370001D01*
X111174864Y-101596686D01*
X111174866Y-101596697D01*
X111233758Y-101816488D01*
X111233761Y-101816497D01*
X111329931Y-102022732D01*
X111329932Y-102022734D01*
X111460454Y-102209141D01*
X111621358Y-102370045D01*
X111621361Y-102370047D01*
X111807766Y-102500568D01*
X112014004Y-102596739D01*
X112014009Y-102596740D01*
X112014011Y-102596741D01*
X112066915Y-102610916D01*
X112233808Y-102655635D01*
X112395730Y-102669801D01*
X112460498Y-102675468D01*
X112460500Y-102675468D01*
X112460502Y-102675468D01*
X112517173Y-102670509D01*
X112687192Y-102655635D01*
X112906996Y-102596739D01*
X113113234Y-102500568D01*
X113299639Y-102370047D01*
X113460547Y-102209139D01*
X113591068Y-102022734D01*
X113687239Y-101816496D01*
X113746135Y-101596692D01*
X113765968Y-101370000D01*
X113746135Y-101143308D01*
X113687239Y-100923504D01*
X113591068Y-100717266D01*
X113493339Y-100577693D01*
X113460545Y-100530858D01*
X113299640Y-100369953D01*
X113113877Y-100239881D01*
X113070252Y-100185304D01*
X113061000Y-100138306D01*
X113061000Y-98847509D01*
X113080685Y-98780470D01*
X113132594Y-98735128D01*
X113177830Y-98714035D01*
X113371401Y-98578495D01*
X113538495Y-98411401D01*
X113674035Y-98217830D01*
X113773903Y-98003663D01*
X113835063Y-97775408D01*
X113855659Y-97540000D01*
X113855659Y-97539999D01*
X115104841Y-97539999D01*
X115104841Y-97540000D01*
X115125436Y-97775403D01*
X115125438Y-97775413D01*
X115186594Y-98003655D01*
X115186596Y-98003659D01*
X115186597Y-98003663D01*
X115286465Y-98217830D01*
X115286467Y-98217834D01*
X115394781Y-98372521D01*
X115422005Y-98411401D01*
X115589099Y-98578495D01*
X115685884Y-98646265D01*
X115782665Y-98714032D01*
X115782666Y-98714032D01*
X115782670Y-98714035D01*
X115827905Y-98735128D01*
X115880343Y-98781297D01*
X115899500Y-98847509D01*
X115899500Y-100142851D01*
X115879815Y-100209890D01*
X115846623Y-100244426D01*
X115660859Y-100374498D01*
X115499954Y-100535403D01*
X115369432Y-100721810D01*
X115369431Y-100721812D01*
X115273261Y-100928047D01*
X115273258Y-100928056D01*
X115214366Y-101147847D01*
X115214364Y-101147858D01*
X115194532Y-101374543D01*
X115194532Y-101374546D01*
X115214364Y-101601231D01*
X115214366Y-101601242D01*
X115273258Y-101821033D01*
X115273261Y-101821042D01*
X115369431Y-102027277D01*
X115369432Y-102027279D01*
X115499954Y-102213686D01*
X115660858Y-102374590D01*
X115660861Y-102374592D01*
X115847266Y-102505113D01*
X116053504Y-102601284D01*
X116273308Y-102660180D01*
X116435230Y-102674346D01*
X116499998Y-102680013D01*
X116500000Y-102680013D01*
X116500002Y-102680013D01*
X116556673Y-102675054D01*
X116726692Y-102660180D01*
X116946496Y-102601284D01*
X117152734Y-102505113D01*
X117339139Y-102374592D01*
X117500047Y-102213684D01*
X117630568Y-102027279D01*
X117726739Y-101821041D01*
X117785635Y-101601237D01*
X117805468Y-101374545D01*
X117805070Y-101370001D01*
X117789612Y-101193313D01*
X117785635Y-101147853D01*
X117726739Y-100928049D01*
X117630568Y-100721811D01*
X117500047Y-100535406D01*
X117500045Y-100535403D01*
X117339140Y-100374498D01*
X117153377Y-100244426D01*
X117109752Y-100189849D01*
X117100500Y-100142851D01*
X117100500Y-98805073D01*
X117120185Y-98738034D01*
X117153374Y-98703500D01*
X117331901Y-98578495D01*
X117498995Y-98411401D01*
X117634535Y-98217830D01*
X117734403Y-98003663D01*
X117795563Y-97775408D01*
X117816159Y-97540000D01*
X117816159Y-97539999D01*
X119144341Y-97539999D01*
X119144341Y-97540000D01*
X119164936Y-97775403D01*
X119164938Y-97775413D01*
X119226094Y-98003655D01*
X119226096Y-98003659D01*
X119226097Y-98003663D01*
X119325965Y-98217830D01*
X119325967Y-98217834D01*
X119434281Y-98372521D01*
X119461505Y-98411401D01*
X119628599Y-98578495D01*
X119725384Y-98646265D01*
X119822165Y-98714032D01*
X119822167Y-98714033D01*
X119822170Y-98714035D01*
X119827898Y-98716706D01*
X119880339Y-98762872D01*
X119899500Y-98829090D01*
X119899500Y-100142851D01*
X119879815Y-100209890D01*
X119846623Y-100244426D01*
X119660859Y-100374498D01*
X119499954Y-100535403D01*
X119369432Y-100721810D01*
X119369431Y-100721812D01*
X119273261Y-100928047D01*
X119273258Y-100928056D01*
X119214366Y-101147847D01*
X119214364Y-101147858D01*
X119194532Y-101374543D01*
X119194532Y-101374546D01*
X119214364Y-101601231D01*
X119214366Y-101601242D01*
X119273258Y-101821033D01*
X119273261Y-101821042D01*
X119369431Y-102027277D01*
X119369432Y-102027279D01*
X119499954Y-102213686D01*
X119660858Y-102374590D01*
X119660861Y-102374592D01*
X119847266Y-102505113D01*
X120053504Y-102601284D01*
X120273308Y-102660180D01*
X120435230Y-102674346D01*
X120499998Y-102680013D01*
X120500000Y-102680013D01*
X120500002Y-102680013D01*
X120556673Y-102675054D01*
X120726692Y-102660180D01*
X120946496Y-102601284D01*
X121152734Y-102505113D01*
X121339139Y-102374592D01*
X121500047Y-102213684D01*
X121630568Y-102027279D01*
X121726739Y-101821041D01*
X121785635Y-101601237D01*
X121805468Y-101374545D01*
X121805070Y-101370001D01*
X121789612Y-101193313D01*
X121785635Y-101147853D01*
X121726739Y-100928049D01*
X121630568Y-100721811D01*
X121500047Y-100535406D01*
X121500045Y-100535403D01*
X121339140Y-100374498D01*
X121153377Y-100244426D01*
X121109752Y-100189849D01*
X121100500Y-100142851D01*
X121100500Y-98829090D01*
X121120185Y-98762051D01*
X121172101Y-98716706D01*
X121177830Y-98714035D01*
X121371401Y-98578495D01*
X121538495Y-98411401D01*
X121674035Y-98217830D01*
X121773903Y-98003663D01*
X121835063Y-97775408D01*
X121855659Y-97540000D01*
X121855659Y-97539999D01*
X123051484Y-97539999D01*
X123051484Y-97540000D01*
X123072079Y-97775403D01*
X123072081Y-97775413D01*
X123133237Y-98003655D01*
X123133239Y-98003659D01*
X123133240Y-98003663D01*
X123233108Y-98217830D01*
X123233110Y-98217834D01*
X123341424Y-98372521D01*
X123368648Y-98411401D01*
X123535742Y-98578495D01*
X123729313Y-98714035D01*
X123827907Y-98760010D01*
X123880344Y-98806179D01*
X123899500Y-98872390D01*
X123899500Y-100142851D01*
X123879815Y-100209890D01*
X123846623Y-100244426D01*
X123660859Y-100374498D01*
X123499954Y-100535403D01*
X123369432Y-100721810D01*
X123369431Y-100721812D01*
X123273261Y-100928047D01*
X123273258Y-100928056D01*
X123214366Y-101147847D01*
X123214364Y-101147858D01*
X123194532Y-101374543D01*
X123194532Y-101374546D01*
X123214364Y-101601231D01*
X123214366Y-101601242D01*
X123273258Y-101821033D01*
X123273261Y-101821042D01*
X123369431Y-102027277D01*
X123369432Y-102027279D01*
X123499954Y-102213686D01*
X123660858Y-102374590D01*
X123660861Y-102374592D01*
X123847266Y-102505113D01*
X124053504Y-102601284D01*
X124273308Y-102660180D01*
X124435230Y-102674346D01*
X124499998Y-102680013D01*
X124500000Y-102680013D01*
X124500002Y-102680013D01*
X124556673Y-102675054D01*
X124726692Y-102660180D01*
X124946496Y-102601284D01*
X125152734Y-102505113D01*
X125339139Y-102374592D01*
X125500047Y-102213684D01*
X125630568Y-102027279D01*
X125726739Y-101821041D01*
X125785635Y-101601237D01*
X125805468Y-101374545D01*
X125805070Y-101370001D01*
X125789612Y-101193313D01*
X125785635Y-101147853D01*
X125726739Y-100928049D01*
X125630568Y-100721811D01*
X125500047Y-100535406D01*
X125500045Y-100535403D01*
X125339140Y-100374498D01*
X125153377Y-100244426D01*
X125109752Y-100189849D01*
X125100500Y-100142851D01*
X125100500Y-98767712D01*
X125120185Y-98700673D01*
X125153377Y-98666137D01*
X125278544Y-98578495D01*
X125445638Y-98411401D01*
X125581178Y-98217830D01*
X125681046Y-98003663D01*
X125742206Y-97775408D01*
X125762802Y-97540000D01*
X125762802Y-97539999D01*
X127144341Y-97539999D01*
X127144341Y-97540000D01*
X127164936Y-97775403D01*
X127164938Y-97775413D01*
X127226094Y-98003655D01*
X127226096Y-98003659D01*
X127226097Y-98003663D01*
X127325965Y-98217830D01*
X127325967Y-98217834D01*
X127434281Y-98372521D01*
X127461505Y-98411401D01*
X127628599Y-98578495D01*
X127725384Y-98646265D01*
X127822165Y-98714032D01*
X127822167Y-98714033D01*
X127822170Y-98714035D01*
X127827898Y-98716706D01*
X127880339Y-98762872D01*
X127899500Y-98829090D01*
X127899500Y-100142851D01*
X127879815Y-100209890D01*
X127846623Y-100244426D01*
X127660859Y-100374498D01*
X127499954Y-100535403D01*
X127369432Y-100721810D01*
X127369431Y-100721812D01*
X127273261Y-100928047D01*
X127273258Y-100928056D01*
X127214366Y-101147847D01*
X127214364Y-101147858D01*
X127194532Y-101374543D01*
X127194532Y-101374546D01*
X127214364Y-101601231D01*
X127214366Y-101601242D01*
X127273258Y-101821033D01*
X127273261Y-101821042D01*
X127369431Y-102027277D01*
X127369432Y-102027279D01*
X127499954Y-102213686D01*
X127660858Y-102374590D01*
X127660861Y-102374592D01*
X127847266Y-102505113D01*
X128053504Y-102601284D01*
X128273308Y-102660180D01*
X128435230Y-102674346D01*
X128499998Y-102680013D01*
X128500000Y-102680013D01*
X128500002Y-102680013D01*
X128556673Y-102675054D01*
X128726692Y-102660180D01*
X128946496Y-102601284D01*
X129152734Y-102505113D01*
X129339139Y-102374592D01*
X129500047Y-102213684D01*
X129630568Y-102027279D01*
X129726739Y-101821041D01*
X129785635Y-101601237D01*
X129805468Y-101374545D01*
X129805070Y-101370001D01*
X129789612Y-101193313D01*
X129785635Y-101147853D01*
X129726739Y-100928049D01*
X129630568Y-100721811D01*
X129500047Y-100535406D01*
X129500045Y-100535403D01*
X129339140Y-100374498D01*
X129153377Y-100244426D01*
X129109752Y-100189849D01*
X129100500Y-100142851D01*
X129100500Y-98829090D01*
X129120185Y-98762051D01*
X129172101Y-98716706D01*
X129177830Y-98714035D01*
X129371401Y-98578495D01*
X129538495Y-98411401D01*
X129674035Y-98217830D01*
X129773903Y-98003663D01*
X129835063Y-97775408D01*
X129855659Y-97540000D01*
X129855659Y-97539999D01*
X131144341Y-97539999D01*
X131144341Y-97540000D01*
X131164936Y-97775403D01*
X131164938Y-97775413D01*
X131226094Y-98003655D01*
X131226096Y-98003659D01*
X131226097Y-98003663D01*
X131325965Y-98217830D01*
X131325967Y-98217834D01*
X131434281Y-98372521D01*
X131461505Y-98411401D01*
X131628599Y-98578495D01*
X131725384Y-98646265D01*
X131822165Y-98714032D01*
X131822167Y-98714033D01*
X131822170Y-98714035D01*
X131827898Y-98716706D01*
X131880339Y-98762872D01*
X131899500Y-98829090D01*
X131899500Y-100188306D01*
X131879815Y-100255345D01*
X131846623Y-100289881D01*
X131660859Y-100419953D01*
X131499954Y-100580858D01*
X131369432Y-100767265D01*
X131369431Y-100767267D01*
X131273261Y-100973502D01*
X131273258Y-100973511D01*
X131214366Y-101193302D01*
X131214364Y-101193313D01*
X131194532Y-101419998D01*
X131194532Y-101420001D01*
X131214364Y-101646686D01*
X131214366Y-101646697D01*
X131273258Y-101866488D01*
X131273261Y-101866497D01*
X131369431Y-102072732D01*
X131369432Y-102072734D01*
X131499954Y-102259141D01*
X131660858Y-102420045D01*
X131660861Y-102420047D01*
X131847266Y-102550568D01*
X132053504Y-102646739D01*
X132273308Y-102705635D01*
X132435230Y-102719801D01*
X132499998Y-102725468D01*
X132500000Y-102725468D01*
X132500002Y-102725468D01*
X132556673Y-102720509D01*
X132726692Y-102705635D01*
X132946496Y-102646739D01*
X133152734Y-102550568D01*
X133339139Y-102420047D01*
X133500047Y-102259139D01*
X133630568Y-102072734D01*
X133726739Y-101866496D01*
X133785635Y-101646692D01*
X133805468Y-101420000D01*
X133785635Y-101193308D01*
X133726739Y-100973504D01*
X133630568Y-100767266D01*
X133500047Y-100580861D01*
X133500045Y-100580858D01*
X133339140Y-100419953D01*
X133153377Y-100289881D01*
X133109752Y-100235304D01*
X133100500Y-100188306D01*
X133100500Y-98829090D01*
X133120185Y-98762051D01*
X133172101Y-98716706D01*
X133177830Y-98714035D01*
X133371401Y-98578495D01*
X133538495Y-98411401D01*
X133674035Y-98217830D01*
X133773903Y-98003663D01*
X133835063Y-97775408D01*
X133855659Y-97540000D01*
X133855659Y-97539999D01*
X135144341Y-97539999D01*
X135144341Y-97540000D01*
X135164936Y-97775403D01*
X135164938Y-97775413D01*
X135226094Y-98003655D01*
X135226096Y-98003659D01*
X135226097Y-98003663D01*
X135325965Y-98217830D01*
X135325967Y-98217834D01*
X135434281Y-98372521D01*
X135461505Y-98411401D01*
X135628599Y-98578495D01*
X135725384Y-98646265D01*
X135822165Y-98714032D01*
X135822167Y-98714033D01*
X135822170Y-98714035D01*
X135827898Y-98716706D01*
X135880339Y-98762872D01*
X135899500Y-98829090D01*
X135899500Y-100142851D01*
X135879815Y-100209890D01*
X135846623Y-100244426D01*
X135660859Y-100374498D01*
X135499954Y-100535403D01*
X135369432Y-100721810D01*
X135369431Y-100721812D01*
X135273261Y-100928047D01*
X135273258Y-100928056D01*
X135214366Y-101147847D01*
X135214364Y-101147858D01*
X135194532Y-101374543D01*
X135194532Y-101374546D01*
X135214364Y-101601231D01*
X135214366Y-101601242D01*
X135273258Y-101821033D01*
X135273261Y-101821042D01*
X135369431Y-102027277D01*
X135369432Y-102027279D01*
X135499954Y-102213686D01*
X135660858Y-102374590D01*
X135660861Y-102374592D01*
X135847266Y-102505113D01*
X136053504Y-102601284D01*
X136273308Y-102660180D01*
X136435230Y-102674346D01*
X136499998Y-102680013D01*
X136500000Y-102680013D01*
X136500002Y-102680013D01*
X136556673Y-102675054D01*
X136726692Y-102660180D01*
X136946496Y-102601284D01*
X137152734Y-102505113D01*
X137339139Y-102374592D01*
X137500047Y-102213684D01*
X137630568Y-102027279D01*
X137726739Y-101821041D01*
X137785635Y-101601237D01*
X137805468Y-101374545D01*
X137805070Y-101370001D01*
X137789612Y-101193313D01*
X137785635Y-101147853D01*
X137726739Y-100928049D01*
X137630568Y-100721811D01*
X137500047Y-100535406D01*
X137500045Y-100535403D01*
X137339140Y-100374498D01*
X137153377Y-100244426D01*
X137109752Y-100189849D01*
X137100500Y-100142851D01*
X137100500Y-98829090D01*
X137120185Y-98762051D01*
X137172101Y-98716706D01*
X137177830Y-98714035D01*
X137371401Y-98578495D01*
X137538495Y-98411401D01*
X137674035Y-98217830D01*
X137773903Y-98003663D01*
X137835063Y-97775408D01*
X137855659Y-97540000D01*
X137855659Y-97539999D01*
X139144341Y-97539999D01*
X139144341Y-97540000D01*
X139164936Y-97775403D01*
X139164938Y-97775413D01*
X139226094Y-98003655D01*
X139226096Y-98003659D01*
X139226097Y-98003663D01*
X139325965Y-98217830D01*
X139325967Y-98217834D01*
X139434281Y-98372521D01*
X139461505Y-98411401D01*
X139628599Y-98578495D01*
X139725384Y-98646265D01*
X139822165Y-98714032D01*
X139822167Y-98714033D01*
X139822170Y-98714035D01*
X139827898Y-98716706D01*
X139880339Y-98762872D01*
X139899500Y-98829090D01*
X139899500Y-100142851D01*
X139879815Y-100209890D01*
X139846623Y-100244426D01*
X139660859Y-100374498D01*
X139499954Y-100535403D01*
X139369432Y-100721810D01*
X139369431Y-100721812D01*
X139273261Y-100928047D01*
X139273258Y-100928056D01*
X139214366Y-101147847D01*
X139214364Y-101147858D01*
X139194532Y-101374543D01*
X139194532Y-101374546D01*
X139214364Y-101601231D01*
X139214366Y-101601242D01*
X139273258Y-101821033D01*
X139273261Y-101821042D01*
X139369431Y-102027277D01*
X139369432Y-102027279D01*
X139499954Y-102213686D01*
X139660858Y-102374590D01*
X139660861Y-102374592D01*
X139847266Y-102505113D01*
X140053504Y-102601284D01*
X140273308Y-102660180D01*
X140435230Y-102674346D01*
X140499998Y-102680013D01*
X140500000Y-102680013D01*
X140500002Y-102680013D01*
X140556673Y-102675054D01*
X140726692Y-102660180D01*
X140946496Y-102601284D01*
X141152734Y-102505113D01*
X141339139Y-102374592D01*
X141500047Y-102213684D01*
X141630568Y-102027279D01*
X141726739Y-101821041D01*
X141785635Y-101601237D01*
X141805468Y-101374545D01*
X141805070Y-101370001D01*
X141789612Y-101193313D01*
X141785635Y-101147853D01*
X141726739Y-100928049D01*
X141630568Y-100721811D01*
X141500047Y-100535406D01*
X141500045Y-100535403D01*
X141339140Y-100374498D01*
X141153377Y-100244426D01*
X141109752Y-100189849D01*
X141100500Y-100142851D01*
X141100500Y-98829090D01*
X141120185Y-98762051D01*
X141172101Y-98716706D01*
X141177830Y-98714035D01*
X141371401Y-98578495D01*
X141538495Y-98411401D01*
X141674035Y-98217830D01*
X141773903Y-98003663D01*
X141835063Y-97775408D01*
X141855659Y-97540000D01*
X141855659Y-97539999D01*
X143144341Y-97539999D01*
X143144341Y-97540000D01*
X143164936Y-97775403D01*
X143164938Y-97775413D01*
X143226094Y-98003655D01*
X143226096Y-98003659D01*
X143226097Y-98003663D01*
X143325965Y-98217830D01*
X143325967Y-98217834D01*
X143434281Y-98372521D01*
X143461505Y-98411401D01*
X143628599Y-98578495D01*
X143725384Y-98646265D01*
X143822165Y-98714032D01*
X143822167Y-98714033D01*
X143822170Y-98714035D01*
X143827898Y-98716706D01*
X143880339Y-98762872D01*
X143899500Y-98829090D01*
X143899500Y-100142851D01*
X143879815Y-100209890D01*
X143846623Y-100244426D01*
X143660859Y-100374498D01*
X143499954Y-100535403D01*
X143369432Y-100721810D01*
X143369431Y-100721812D01*
X143273261Y-100928047D01*
X143273258Y-100928056D01*
X143214366Y-101147847D01*
X143214364Y-101147858D01*
X143194532Y-101374543D01*
X143194532Y-101374546D01*
X143214364Y-101601231D01*
X143214366Y-101601242D01*
X143273258Y-101821033D01*
X143273261Y-101821042D01*
X143369431Y-102027277D01*
X143369432Y-102027279D01*
X143499954Y-102213686D01*
X143660858Y-102374590D01*
X143660861Y-102374592D01*
X143847266Y-102505113D01*
X144053504Y-102601284D01*
X144273308Y-102660180D01*
X144435230Y-102674346D01*
X144499998Y-102680013D01*
X144500000Y-102680013D01*
X144500002Y-102680013D01*
X144556673Y-102675054D01*
X144726692Y-102660180D01*
X144946496Y-102601284D01*
X145152734Y-102505113D01*
X145339139Y-102374592D01*
X145500047Y-102213684D01*
X145630568Y-102027279D01*
X145726739Y-101821041D01*
X145785635Y-101601237D01*
X145805468Y-101374545D01*
X145805070Y-101370001D01*
X145789612Y-101193313D01*
X145785635Y-101147853D01*
X145726739Y-100928049D01*
X145630568Y-100721811D01*
X145500047Y-100535406D01*
X145500045Y-100535403D01*
X145339140Y-100374498D01*
X145153377Y-100244426D01*
X145109752Y-100189849D01*
X145100500Y-100142851D01*
X145100500Y-98829090D01*
X145120185Y-98762051D01*
X145172101Y-98716706D01*
X145177830Y-98714035D01*
X145371401Y-98578495D01*
X145538495Y-98411401D01*
X145674035Y-98217830D01*
X145773903Y-98003663D01*
X145835063Y-97775408D01*
X145855659Y-97540000D01*
X145855659Y-97539999D01*
X147144341Y-97539999D01*
X147144341Y-97540000D01*
X147164936Y-97775403D01*
X147164938Y-97775413D01*
X147226094Y-98003655D01*
X147226096Y-98003659D01*
X147226097Y-98003663D01*
X147325965Y-98217830D01*
X147325967Y-98217834D01*
X147434281Y-98372521D01*
X147461505Y-98411401D01*
X147628599Y-98578495D01*
X147725384Y-98646265D01*
X147822165Y-98714032D01*
X147822167Y-98714033D01*
X147822170Y-98714035D01*
X147827898Y-98716706D01*
X147880339Y-98762872D01*
X147899500Y-98829090D01*
X147899500Y-100142851D01*
X147879815Y-100209890D01*
X147846623Y-100244426D01*
X147660859Y-100374498D01*
X147499954Y-100535403D01*
X147369432Y-100721810D01*
X147369431Y-100721812D01*
X147273261Y-100928047D01*
X147273258Y-100928056D01*
X147214366Y-101147847D01*
X147214364Y-101147858D01*
X147194532Y-101374543D01*
X147194532Y-101374546D01*
X147214364Y-101601231D01*
X147214366Y-101601242D01*
X147273258Y-101821033D01*
X147273261Y-101821042D01*
X147369431Y-102027277D01*
X147369432Y-102027279D01*
X147499954Y-102213686D01*
X147660858Y-102374590D01*
X147660861Y-102374592D01*
X147847266Y-102505113D01*
X148053504Y-102601284D01*
X148273308Y-102660180D01*
X148435230Y-102674346D01*
X148499998Y-102680013D01*
X148500000Y-102680013D01*
X148500002Y-102680013D01*
X148556673Y-102675054D01*
X148726692Y-102660180D01*
X148946496Y-102601284D01*
X149152734Y-102505113D01*
X149339139Y-102374592D01*
X149500047Y-102213684D01*
X149630568Y-102027279D01*
X149726739Y-101821041D01*
X149785635Y-101601237D01*
X149805468Y-101374545D01*
X149805070Y-101370001D01*
X149789612Y-101193313D01*
X149785635Y-101147853D01*
X149726739Y-100928049D01*
X149630568Y-100721811D01*
X149500047Y-100535406D01*
X149500045Y-100535403D01*
X149339140Y-100374498D01*
X149153377Y-100244426D01*
X149109752Y-100189849D01*
X149100500Y-100142851D01*
X149100500Y-98829090D01*
X149120185Y-98762051D01*
X149172101Y-98716706D01*
X149177830Y-98714035D01*
X149371401Y-98578495D01*
X149538495Y-98411401D01*
X149674035Y-98217830D01*
X149773903Y-98003663D01*
X149835063Y-97775408D01*
X149855659Y-97540000D01*
X149855659Y-97539999D01*
X151144341Y-97539999D01*
X151144341Y-97540000D01*
X151164936Y-97775403D01*
X151164938Y-97775413D01*
X151226094Y-98003655D01*
X151226096Y-98003659D01*
X151226097Y-98003663D01*
X151325965Y-98217830D01*
X151325967Y-98217834D01*
X151434281Y-98372521D01*
X151461505Y-98411401D01*
X151628599Y-98578495D01*
X151725384Y-98646265D01*
X151822165Y-98714032D01*
X151822167Y-98714033D01*
X151822170Y-98714035D01*
X151827898Y-98716706D01*
X151880339Y-98762872D01*
X151899500Y-98829090D01*
X151899500Y-100142851D01*
X151879815Y-100209890D01*
X151846623Y-100244426D01*
X151660859Y-100374498D01*
X151499954Y-100535403D01*
X151369432Y-100721810D01*
X151369431Y-100721812D01*
X151273261Y-100928047D01*
X151273258Y-100928056D01*
X151214366Y-101147847D01*
X151214364Y-101147858D01*
X151194532Y-101374543D01*
X151194532Y-101374546D01*
X151214364Y-101601231D01*
X151214366Y-101601242D01*
X151273258Y-101821033D01*
X151273261Y-101821042D01*
X151369431Y-102027277D01*
X151369432Y-102027279D01*
X151499954Y-102213686D01*
X151660858Y-102374590D01*
X151660861Y-102374592D01*
X151847266Y-102505113D01*
X152053504Y-102601284D01*
X152273308Y-102660180D01*
X152435230Y-102674346D01*
X152499998Y-102680013D01*
X152500000Y-102680013D01*
X152500002Y-102680013D01*
X152556673Y-102675054D01*
X152726692Y-102660180D01*
X152946496Y-102601284D01*
X153152734Y-102505113D01*
X153339139Y-102374592D01*
X153500047Y-102213684D01*
X153630568Y-102027279D01*
X153726739Y-101821041D01*
X153785635Y-101601237D01*
X153805468Y-101374545D01*
X153805070Y-101370001D01*
X153789612Y-101193313D01*
X153785635Y-101147853D01*
X153726739Y-100928049D01*
X153630568Y-100721811D01*
X153500047Y-100535406D01*
X153500045Y-100535403D01*
X153339140Y-100374498D01*
X153153377Y-100244426D01*
X153109752Y-100189849D01*
X153100500Y-100142851D01*
X153100500Y-98829090D01*
X153120185Y-98762051D01*
X153172101Y-98716706D01*
X153177830Y-98714035D01*
X153371401Y-98578495D01*
X153538495Y-98411401D01*
X153674035Y-98217830D01*
X153773903Y-98003663D01*
X153835063Y-97775408D01*
X153855659Y-97540000D01*
X153855659Y-97539999D01*
X155144341Y-97539999D01*
X155144341Y-97540000D01*
X155164936Y-97775403D01*
X155164938Y-97775413D01*
X155226094Y-98003655D01*
X155226096Y-98003659D01*
X155226097Y-98003663D01*
X155325965Y-98217830D01*
X155325967Y-98217834D01*
X155434281Y-98372521D01*
X155461505Y-98411401D01*
X155628599Y-98578495D01*
X155725384Y-98646265D01*
X155822165Y-98714032D01*
X155822167Y-98714033D01*
X155822170Y-98714035D01*
X155827898Y-98716706D01*
X155880339Y-98762872D01*
X155899500Y-98829090D01*
X155899500Y-100142851D01*
X155879815Y-100209890D01*
X155846623Y-100244426D01*
X155660859Y-100374498D01*
X155499954Y-100535403D01*
X155369432Y-100721810D01*
X155369431Y-100721812D01*
X155273261Y-100928047D01*
X155273258Y-100928056D01*
X155214366Y-101147847D01*
X155214364Y-101147858D01*
X155194532Y-101374543D01*
X155194532Y-101374546D01*
X155214364Y-101601231D01*
X155214366Y-101601242D01*
X155273258Y-101821033D01*
X155273261Y-101821042D01*
X155369431Y-102027277D01*
X155369432Y-102027279D01*
X155499954Y-102213686D01*
X155660858Y-102374590D01*
X155660861Y-102374592D01*
X155847266Y-102505113D01*
X156053504Y-102601284D01*
X156273308Y-102660180D01*
X156435230Y-102674346D01*
X156499998Y-102680013D01*
X156500000Y-102680013D01*
X156500002Y-102680013D01*
X156556673Y-102675054D01*
X156726692Y-102660180D01*
X156946496Y-102601284D01*
X157152734Y-102505113D01*
X157339139Y-102374592D01*
X157500047Y-102213684D01*
X157630568Y-102027279D01*
X157726739Y-101821041D01*
X157785635Y-101601237D01*
X157805468Y-101374545D01*
X157805070Y-101370001D01*
X157789612Y-101193313D01*
X157785635Y-101147853D01*
X157726739Y-100928049D01*
X157630568Y-100721811D01*
X157500047Y-100535406D01*
X157500045Y-100535403D01*
X157339140Y-100374498D01*
X157153377Y-100244426D01*
X157109752Y-100189849D01*
X157100500Y-100142851D01*
X157100500Y-98829090D01*
X157120185Y-98762051D01*
X157172101Y-98716706D01*
X157177830Y-98714035D01*
X157371401Y-98578495D01*
X157538495Y-98411401D01*
X157674035Y-98217830D01*
X157773903Y-98003663D01*
X157835063Y-97775408D01*
X157855659Y-97540000D01*
X157855659Y-97539999D01*
X159144341Y-97539999D01*
X159144341Y-97540000D01*
X159164936Y-97775403D01*
X159164938Y-97775413D01*
X159226094Y-98003655D01*
X159226096Y-98003659D01*
X159226097Y-98003663D01*
X159325965Y-98217830D01*
X159325967Y-98217834D01*
X159434281Y-98372521D01*
X159461505Y-98411401D01*
X159628599Y-98578495D01*
X159725384Y-98646265D01*
X159822165Y-98714032D01*
X159822167Y-98714033D01*
X159822170Y-98714035D01*
X159827898Y-98716706D01*
X159880339Y-98762872D01*
X159899500Y-98829090D01*
X159899500Y-100142851D01*
X159879815Y-100209890D01*
X159846623Y-100244426D01*
X159660859Y-100374498D01*
X159499954Y-100535403D01*
X159369432Y-100721810D01*
X159369431Y-100721812D01*
X159273261Y-100928047D01*
X159273258Y-100928056D01*
X159214366Y-101147847D01*
X159214364Y-101147858D01*
X159194532Y-101374543D01*
X159194532Y-101374546D01*
X159214364Y-101601231D01*
X159214366Y-101601242D01*
X159273258Y-101821033D01*
X159273261Y-101821042D01*
X159369431Y-102027277D01*
X159369432Y-102027279D01*
X159499954Y-102213686D01*
X159660858Y-102374590D01*
X159660861Y-102374592D01*
X159847266Y-102505113D01*
X160053504Y-102601284D01*
X160273308Y-102660180D01*
X160435230Y-102674346D01*
X160499998Y-102680013D01*
X160500000Y-102680013D01*
X160500002Y-102680013D01*
X160556673Y-102675054D01*
X160726692Y-102660180D01*
X160946496Y-102601284D01*
X161152734Y-102505113D01*
X161339139Y-102374592D01*
X161500047Y-102213684D01*
X161630568Y-102027279D01*
X161726739Y-101821041D01*
X161785635Y-101601237D01*
X161805468Y-101374545D01*
X161805070Y-101370001D01*
X161789612Y-101193313D01*
X161785635Y-101147853D01*
X161726739Y-100928049D01*
X161630568Y-100721811D01*
X161500047Y-100535406D01*
X161500045Y-100535403D01*
X161339140Y-100374498D01*
X161153377Y-100244426D01*
X161109752Y-100189849D01*
X161100500Y-100142851D01*
X161100500Y-98829090D01*
X161120185Y-98762051D01*
X161172101Y-98716706D01*
X161177830Y-98714035D01*
X161371401Y-98578495D01*
X161538495Y-98411401D01*
X161674035Y-98217830D01*
X161773903Y-98003663D01*
X161835063Y-97775408D01*
X161855659Y-97540000D01*
X161855659Y-97539999D01*
X163099103Y-97539999D01*
X163099103Y-97540000D01*
X163119698Y-97775403D01*
X163119700Y-97775413D01*
X163180856Y-98003655D01*
X163180858Y-98003659D01*
X163180859Y-98003663D01*
X163280727Y-98217830D01*
X163280729Y-98217834D01*
X163389043Y-98372521D01*
X163416267Y-98411401D01*
X163583361Y-98578495D01*
X163680146Y-98646265D01*
X163776927Y-98714032D01*
X163776929Y-98714033D01*
X163776932Y-98714035D01*
X163782660Y-98716706D01*
X163835101Y-98762872D01*
X163854262Y-98829090D01*
X163854262Y-100146869D01*
X163834577Y-100213908D01*
X163801385Y-100248444D01*
X163621359Y-100374498D01*
X163460454Y-100535403D01*
X163329932Y-100721810D01*
X163329931Y-100721812D01*
X163233761Y-100928047D01*
X163233758Y-100928056D01*
X163174866Y-101147847D01*
X163174864Y-101147858D01*
X163155032Y-101374543D01*
X163155032Y-101374546D01*
X163174864Y-101601231D01*
X163174866Y-101601242D01*
X163233758Y-101821033D01*
X163233761Y-101821042D01*
X163329931Y-102027277D01*
X163329932Y-102027279D01*
X163460454Y-102213686D01*
X163621358Y-102374590D01*
X163621361Y-102374592D01*
X163807766Y-102505113D01*
X164014004Y-102601284D01*
X164233808Y-102660180D01*
X164395730Y-102674346D01*
X164460498Y-102680013D01*
X164460500Y-102680013D01*
X164460502Y-102680013D01*
X164517173Y-102675054D01*
X164687192Y-102660180D01*
X164906996Y-102601284D01*
X165113234Y-102505113D01*
X165299639Y-102374592D01*
X165460547Y-102213684D01*
X165591068Y-102027279D01*
X165687239Y-101821041D01*
X165746135Y-101601237D01*
X165765968Y-101374545D01*
X165765570Y-101370001D01*
X165750112Y-101193313D01*
X165746135Y-101147853D01*
X165687239Y-100928049D01*
X165591068Y-100721811D01*
X165460547Y-100535406D01*
X165460545Y-100535403D01*
X165299641Y-100374499D01*
X165129469Y-100255345D01*
X165113234Y-100243977D01*
X165113232Y-100243976D01*
X165108799Y-100240872D01*
X165110174Y-100238907D01*
X165068985Y-100195616D01*
X165055262Y-100138915D01*
X165055262Y-98829090D01*
X165074947Y-98762051D01*
X165126863Y-98716706D01*
X165132592Y-98714035D01*
X165326163Y-98578495D01*
X165493257Y-98411401D01*
X165628797Y-98217830D01*
X165728665Y-98003663D01*
X165789825Y-97775408D01*
X165810421Y-97540000D01*
X165810421Y-97539999D01*
X167144341Y-97539999D01*
X167144341Y-97540000D01*
X167164936Y-97775403D01*
X167164938Y-97775413D01*
X167226094Y-98003655D01*
X167226096Y-98003659D01*
X167226097Y-98003663D01*
X167325965Y-98217830D01*
X167325967Y-98217834D01*
X167434281Y-98372521D01*
X167461505Y-98411401D01*
X167628599Y-98578495D01*
X167725384Y-98646265D01*
X167822165Y-98714032D01*
X167822167Y-98714033D01*
X167822170Y-98714035D01*
X167827898Y-98716706D01*
X167880339Y-98762872D01*
X167899500Y-98829090D01*
X167899500Y-100188306D01*
X167879815Y-100255345D01*
X167846623Y-100289881D01*
X167660859Y-100419953D01*
X167499954Y-100580858D01*
X167369432Y-100767265D01*
X167369431Y-100767267D01*
X167273261Y-100973502D01*
X167273258Y-100973511D01*
X167214366Y-101193302D01*
X167214364Y-101193313D01*
X167194532Y-101419998D01*
X167194532Y-101420001D01*
X167214364Y-101646686D01*
X167214366Y-101646697D01*
X167273258Y-101866488D01*
X167273261Y-101866497D01*
X167369431Y-102072732D01*
X167369432Y-102072734D01*
X167499954Y-102259141D01*
X167660858Y-102420045D01*
X167660861Y-102420047D01*
X167847266Y-102550568D01*
X168053504Y-102646739D01*
X168273308Y-102705635D01*
X168435230Y-102719801D01*
X168499998Y-102725468D01*
X168500000Y-102725468D01*
X168500002Y-102725468D01*
X168556673Y-102720509D01*
X168726692Y-102705635D01*
X168946496Y-102646739D01*
X169152734Y-102550568D01*
X169339139Y-102420047D01*
X169500047Y-102259139D01*
X169630568Y-102072734D01*
X169726739Y-101866496D01*
X169785635Y-101646692D01*
X169805468Y-101420000D01*
X169785635Y-101193308D01*
X169726739Y-100973504D01*
X169630568Y-100767266D01*
X169500047Y-100580861D01*
X169500045Y-100580858D01*
X169339140Y-100419953D01*
X169153377Y-100289881D01*
X169109752Y-100235304D01*
X169100500Y-100188306D01*
X169100500Y-98829090D01*
X169120185Y-98762051D01*
X169172101Y-98716706D01*
X169177830Y-98714035D01*
X169371401Y-98578495D01*
X169538495Y-98411401D01*
X169674035Y-98217830D01*
X169773903Y-98003663D01*
X169835063Y-97775408D01*
X169855659Y-97540000D01*
X169855659Y-97539999D01*
X171144341Y-97539999D01*
X171144341Y-97540000D01*
X171164936Y-97775403D01*
X171164938Y-97775413D01*
X171226094Y-98003655D01*
X171226096Y-98003659D01*
X171226097Y-98003663D01*
X171325965Y-98217830D01*
X171325967Y-98217834D01*
X171434281Y-98372521D01*
X171461505Y-98411401D01*
X171628599Y-98578495D01*
X171725384Y-98646265D01*
X171822165Y-98714032D01*
X171822167Y-98714033D01*
X171822170Y-98714035D01*
X171827898Y-98716706D01*
X171880339Y-98762872D01*
X171899500Y-98829090D01*
X171899500Y-100188306D01*
X171879815Y-100255345D01*
X171846623Y-100289881D01*
X171660859Y-100419953D01*
X171499954Y-100580858D01*
X171369432Y-100767265D01*
X171369431Y-100767267D01*
X171273261Y-100973502D01*
X171273258Y-100973511D01*
X171214366Y-101193302D01*
X171214364Y-101193313D01*
X171194532Y-101419998D01*
X171194532Y-101420001D01*
X171214364Y-101646686D01*
X171214366Y-101646697D01*
X171273258Y-101866488D01*
X171273261Y-101866497D01*
X171369431Y-102072732D01*
X171369432Y-102072734D01*
X171499954Y-102259141D01*
X171660858Y-102420045D01*
X171660861Y-102420047D01*
X171847266Y-102550568D01*
X172053504Y-102646739D01*
X172273308Y-102705635D01*
X172435230Y-102719801D01*
X172499998Y-102725468D01*
X172500000Y-102725468D01*
X172500002Y-102725468D01*
X172556673Y-102720509D01*
X172726692Y-102705635D01*
X172946496Y-102646739D01*
X173152734Y-102550568D01*
X173339139Y-102420047D01*
X173500047Y-102259139D01*
X173630568Y-102072734D01*
X173726739Y-101866496D01*
X173785635Y-101646692D01*
X173805468Y-101420000D01*
X173785635Y-101193308D01*
X173726739Y-100973504D01*
X173630568Y-100767266D01*
X173500047Y-100580861D01*
X173500045Y-100580858D01*
X173339140Y-100419953D01*
X173153377Y-100289881D01*
X173109752Y-100235304D01*
X173100500Y-100188306D01*
X173100500Y-98829090D01*
X173120185Y-98762051D01*
X173172101Y-98716706D01*
X173177830Y-98714035D01*
X173371401Y-98578495D01*
X173538495Y-98411401D01*
X173674035Y-98217830D01*
X173773903Y-98003663D01*
X173835063Y-97775408D01*
X173855659Y-97540000D01*
X173835063Y-97304592D01*
X173773903Y-97076337D01*
X173674035Y-96862171D01*
X173538495Y-96668599D01*
X173416567Y-96546671D01*
X173383084Y-96485351D01*
X173388068Y-96415659D01*
X173429939Y-96359725D01*
X173460915Y-96342810D01*
X173592331Y-96293796D01*
X173707546Y-96207546D01*
X173793796Y-96092331D01*
X173844091Y-95957483D01*
X173850500Y-95897873D01*
X173850499Y-94102128D01*
X173844091Y-94042517D01*
X173793884Y-93907906D01*
X173793797Y-93907671D01*
X173793793Y-93907664D01*
X173707547Y-93792455D01*
X173707544Y-93792452D01*
X173592335Y-93706206D01*
X173592328Y-93706202D01*
X173457482Y-93655908D01*
X173457483Y-93655908D01*
X173397883Y-93649501D01*
X173397881Y-93649500D01*
X173397873Y-93649500D01*
X173397864Y-93649500D01*
X171602129Y-93649500D01*
X171602123Y-93649501D01*
X171542516Y-93655908D01*
X171407671Y-93706202D01*
X171407664Y-93706206D01*
X171292455Y-93792452D01*
X171292452Y-93792455D01*
X171206206Y-93907664D01*
X171206202Y-93907671D01*
X171155908Y-94042517D01*
X171149501Y-94102116D01*
X171149501Y-94102123D01*
X171149500Y-94102135D01*
X171149500Y-95897870D01*
X171149501Y-95897876D01*
X171155908Y-95957483D01*
X171206202Y-96092328D01*
X171206206Y-96092335D01*
X171292452Y-96207544D01*
X171292455Y-96207547D01*
X171407664Y-96293793D01*
X171407671Y-96293797D01*
X171539081Y-96342810D01*
X171595015Y-96384681D01*
X171619432Y-96450145D01*
X171604580Y-96518418D01*
X171583430Y-96546673D01*
X171461503Y-96668600D01*
X171325965Y-96862169D01*
X171325964Y-96862171D01*
X171226098Y-97076335D01*
X171226094Y-97076344D01*
X171164938Y-97304586D01*
X171164936Y-97304596D01*
X171144341Y-97539999D01*
X169855659Y-97539999D01*
X169835063Y-97304592D01*
X169773903Y-97076337D01*
X169674035Y-96862171D01*
X169538495Y-96668599D01*
X169416567Y-96546671D01*
X169383084Y-96485351D01*
X169388068Y-96415659D01*
X169429939Y-96359725D01*
X169460915Y-96342810D01*
X169592331Y-96293796D01*
X169707546Y-96207546D01*
X169793796Y-96092331D01*
X169844091Y-95957483D01*
X169850500Y-95897873D01*
X169850499Y-94102128D01*
X169844091Y-94042517D01*
X169793884Y-93907906D01*
X169793797Y-93907671D01*
X169793793Y-93907664D01*
X169707547Y-93792455D01*
X169707544Y-93792452D01*
X169592335Y-93706206D01*
X169592328Y-93706202D01*
X169457482Y-93655908D01*
X169457483Y-93655908D01*
X169397883Y-93649501D01*
X169397881Y-93649500D01*
X169397873Y-93649500D01*
X169397864Y-93649500D01*
X167602129Y-93649500D01*
X167602123Y-93649501D01*
X167542516Y-93655908D01*
X167407671Y-93706202D01*
X167407664Y-93706206D01*
X167292455Y-93792452D01*
X167292452Y-93792455D01*
X167206206Y-93907664D01*
X167206202Y-93907671D01*
X167155908Y-94042517D01*
X167149501Y-94102116D01*
X167149501Y-94102123D01*
X167149500Y-94102135D01*
X167149500Y-95897870D01*
X167149501Y-95897876D01*
X167155908Y-95957483D01*
X167206202Y-96092328D01*
X167206206Y-96092335D01*
X167292452Y-96207544D01*
X167292455Y-96207547D01*
X167407664Y-96293793D01*
X167407671Y-96293797D01*
X167539081Y-96342810D01*
X167595015Y-96384681D01*
X167619432Y-96450145D01*
X167604580Y-96518418D01*
X167583430Y-96546673D01*
X167461503Y-96668600D01*
X167325965Y-96862169D01*
X167325964Y-96862171D01*
X167226098Y-97076335D01*
X167226094Y-97076344D01*
X167164938Y-97304586D01*
X167164936Y-97304596D01*
X167144341Y-97539999D01*
X165810421Y-97539999D01*
X165789825Y-97304592D01*
X165728665Y-97076337D01*
X165628797Y-96862171D01*
X165493257Y-96668599D01*
X165371329Y-96546671D01*
X165337846Y-96485351D01*
X165342830Y-96415659D01*
X165384701Y-96359725D01*
X165415677Y-96342810D01*
X165547093Y-96293796D01*
X165662308Y-96207546D01*
X165748558Y-96092331D01*
X165798853Y-95957483D01*
X165805262Y-95897873D01*
X165805261Y-94102128D01*
X165798853Y-94042517D01*
X165748646Y-93907906D01*
X165748559Y-93907671D01*
X165748555Y-93907664D01*
X165662309Y-93792455D01*
X165662306Y-93792452D01*
X165547097Y-93706206D01*
X165547090Y-93706202D01*
X165412244Y-93655908D01*
X165412245Y-93655908D01*
X165352645Y-93649501D01*
X165352643Y-93649500D01*
X165352635Y-93649500D01*
X165352626Y-93649500D01*
X163556891Y-93649500D01*
X163556885Y-93649501D01*
X163497278Y-93655908D01*
X163362433Y-93706202D01*
X163362426Y-93706206D01*
X163247217Y-93792452D01*
X163247214Y-93792455D01*
X163160968Y-93907664D01*
X163160964Y-93907671D01*
X163110670Y-94042517D01*
X163104263Y-94102116D01*
X163104263Y-94102123D01*
X163104262Y-94102135D01*
X163104262Y-95897870D01*
X163104263Y-95897876D01*
X163110670Y-95957483D01*
X163160964Y-96092328D01*
X163160968Y-96092335D01*
X163247214Y-96207544D01*
X163247217Y-96207547D01*
X163362426Y-96293793D01*
X163362433Y-96293797D01*
X163493843Y-96342810D01*
X163549777Y-96384681D01*
X163574194Y-96450145D01*
X163559342Y-96518418D01*
X163538192Y-96546673D01*
X163416265Y-96668600D01*
X163280727Y-96862169D01*
X163280726Y-96862171D01*
X163180860Y-97076335D01*
X163180856Y-97076344D01*
X163119700Y-97304586D01*
X163119698Y-97304596D01*
X163099103Y-97539999D01*
X161855659Y-97539999D01*
X161835063Y-97304592D01*
X161773903Y-97076337D01*
X161674035Y-96862171D01*
X161538495Y-96668599D01*
X161416179Y-96546283D01*
X161382696Y-96484963D01*
X161387680Y-96415271D01*
X161429551Y-96359337D01*
X161460529Y-96342422D01*
X161592086Y-96293354D01*
X161592093Y-96293350D01*
X161707187Y-96207190D01*
X161707190Y-96207187D01*
X161793350Y-96092093D01*
X161793354Y-96092086D01*
X161843596Y-95957379D01*
X161843598Y-95957372D01*
X161849999Y-95897844D01*
X161850000Y-95897827D01*
X161850000Y-95250000D01*
X160933012Y-95250000D01*
X160965925Y-95192993D01*
X161000000Y-95065826D01*
X161000000Y-94934174D01*
X160965925Y-94807007D01*
X160933012Y-94750000D01*
X161850000Y-94750000D01*
X161850000Y-94102172D01*
X161849999Y-94102155D01*
X161843598Y-94042627D01*
X161843596Y-94042620D01*
X161793354Y-93907913D01*
X161793350Y-93907906D01*
X161707190Y-93792812D01*
X161707187Y-93792809D01*
X161592093Y-93706649D01*
X161592086Y-93706645D01*
X161457379Y-93656403D01*
X161457372Y-93656401D01*
X161397844Y-93650000D01*
X160750000Y-93650000D01*
X160750000Y-94566988D01*
X160692993Y-94534075D01*
X160565826Y-94500000D01*
X160434174Y-94500000D01*
X160307007Y-94534075D01*
X160250000Y-94566988D01*
X160250000Y-93650000D01*
X159602155Y-93650000D01*
X159542627Y-93656401D01*
X159542620Y-93656403D01*
X159407913Y-93706645D01*
X159407906Y-93706649D01*
X159292812Y-93792809D01*
X159292809Y-93792812D01*
X159206649Y-93907906D01*
X159206645Y-93907913D01*
X159156403Y-94042620D01*
X159156401Y-94042627D01*
X159150000Y-94102155D01*
X159150000Y-94750000D01*
X160066988Y-94750000D01*
X160034075Y-94807007D01*
X160000000Y-94934174D01*
X160000000Y-95065826D01*
X160034075Y-95192993D01*
X160066988Y-95250000D01*
X159150000Y-95250000D01*
X159150000Y-95897844D01*
X159156401Y-95957372D01*
X159156403Y-95957379D01*
X159206645Y-96092086D01*
X159206649Y-96092093D01*
X159292809Y-96207187D01*
X159292812Y-96207190D01*
X159407906Y-96293350D01*
X159407913Y-96293354D01*
X159539470Y-96342421D01*
X159595403Y-96384292D01*
X159619821Y-96449756D01*
X159604970Y-96518029D01*
X159583819Y-96546284D01*
X159461503Y-96668600D01*
X159325965Y-96862169D01*
X159325964Y-96862171D01*
X159226098Y-97076335D01*
X159226094Y-97076344D01*
X159164938Y-97304586D01*
X159164936Y-97304596D01*
X159144341Y-97539999D01*
X157855659Y-97539999D01*
X157835063Y-97304592D01*
X157773903Y-97076337D01*
X157674035Y-96862171D01*
X157538495Y-96668599D01*
X157416179Y-96546283D01*
X157382696Y-96484963D01*
X157387680Y-96415271D01*
X157429551Y-96359337D01*
X157460529Y-96342422D01*
X157592086Y-96293354D01*
X157592093Y-96293350D01*
X157707187Y-96207190D01*
X157707190Y-96207187D01*
X157793350Y-96092093D01*
X157793354Y-96092086D01*
X157843596Y-95957379D01*
X157843598Y-95957372D01*
X157849999Y-95897844D01*
X157850000Y-95897827D01*
X157850000Y-95250000D01*
X156933012Y-95250000D01*
X156965925Y-95192993D01*
X157000000Y-95065826D01*
X157000000Y-94934174D01*
X156965925Y-94807007D01*
X156933012Y-94750000D01*
X157850000Y-94750000D01*
X157850000Y-94102172D01*
X157849999Y-94102155D01*
X157843598Y-94042627D01*
X157843596Y-94042620D01*
X157793354Y-93907913D01*
X157793350Y-93907906D01*
X157707190Y-93792812D01*
X157707187Y-93792809D01*
X157592093Y-93706649D01*
X157592086Y-93706645D01*
X157457379Y-93656403D01*
X157457372Y-93656401D01*
X157397844Y-93650000D01*
X156750000Y-93650000D01*
X156750000Y-94566988D01*
X156692993Y-94534075D01*
X156565826Y-94500000D01*
X156434174Y-94500000D01*
X156307007Y-94534075D01*
X156250000Y-94566988D01*
X156250000Y-93650000D01*
X155602155Y-93650000D01*
X155542627Y-93656401D01*
X155542620Y-93656403D01*
X155407913Y-93706645D01*
X155407906Y-93706649D01*
X155292812Y-93792809D01*
X155292809Y-93792812D01*
X155206649Y-93907906D01*
X155206645Y-93907913D01*
X155156403Y-94042620D01*
X155156401Y-94042627D01*
X155150000Y-94102155D01*
X155150000Y-94750000D01*
X156066988Y-94750000D01*
X156034075Y-94807007D01*
X156000000Y-94934174D01*
X156000000Y-95065826D01*
X156034075Y-95192993D01*
X156066988Y-95250000D01*
X155150000Y-95250000D01*
X155150000Y-95897844D01*
X155156401Y-95957372D01*
X155156403Y-95957379D01*
X155206645Y-96092086D01*
X155206649Y-96092093D01*
X155292809Y-96207187D01*
X155292812Y-96207190D01*
X155407906Y-96293350D01*
X155407913Y-96293354D01*
X155539470Y-96342421D01*
X155595403Y-96384292D01*
X155619821Y-96449756D01*
X155604970Y-96518029D01*
X155583819Y-96546284D01*
X155461503Y-96668600D01*
X155325965Y-96862169D01*
X155325964Y-96862171D01*
X155226098Y-97076335D01*
X155226094Y-97076344D01*
X155164938Y-97304586D01*
X155164936Y-97304596D01*
X155144341Y-97539999D01*
X153855659Y-97539999D01*
X153835063Y-97304592D01*
X153773903Y-97076337D01*
X153674035Y-96862171D01*
X153538495Y-96668599D01*
X153416179Y-96546283D01*
X153382696Y-96484963D01*
X153387680Y-96415271D01*
X153429551Y-96359337D01*
X153460529Y-96342422D01*
X153592086Y-96293354D01*
X153592093Y-96293350D01*
X153707187Y-96207190D01*
X153707190Y-96207187D01*
X153793350Y-96092093D01*
X153793354Y-96092086D01*
X153843596Y-95957379D01*
X153843598Y-95957372D01*
X153849999Y-95897844D01*
X153850000Y-95897827D01*
X153850000Y-95250000D01*
X152933012Y-95250000D01*
X152965925Y-95192993D01*
X153000000Y-95065826D01*
X153000000Y-94934174D01*
X152965925Y-94807007D01*
X152933012Y-94750000D01*
X153850000Y-94750000D01*
X153850000Y-94102172D01*
X153849999Y-94102155D01*
X153843598Y-94042627D01*
X153843596Y-94042620D01*
X153793354Y-93907913D01*
X153793350Y-93907906D01*
X153707190Y-93792812D01*
X153707187Y-93792809D01*
X153592093Y-93706649D01*
X153592086Y-93706645D01*
X153457379Y-93656403D01*
X153457372Y-93656401D01*
X153397844Y-93650000D01*
X152750000Y-93650000D01*
X152750000Y-94566988D01*
X152692993Y-94534075D01*
X152565826Y-94500000D01*
X152434174Y-94500000D01*
X152307007Y-94534075D01*
X152250000Y-94566988D01*
X152250000Y-93650000D01*
X151602155Y-93650000D01*
X151542627Y-93656401D01*
X151542620Y-93656403D01*
X151407913Y-93706645D01*
X151407906Y-93706649D01*
X151292812Y-93792809D01*
X151292809Y-93792812D01*
X151206649Y-93907906D01*
X151206645Y-93907913D01*
X151156403Y-94042620D01*
X151156401Y-94042627D01*
X151150000Y-94102155D01*
X151150000Y-94750000D01*
X152066988Y-94750000D01*
X152034075Y-94807007D01*
X152000000Y-94934174D01*
X152000000Y-95065826D01*
X152034075Y-95192993D01*
X152066988Y-95250000D01*
X151150000Y-95250000D01*
X151150000Y-95897844D01*
X151156401Y-95957372D01*
X151156403Y-95957379D01*
X151206645Y-96092086D01*
X151206649Y-96092093D01*
X151292809Y-96207187D01*
X151292812Y-96207190D01*
X151407906Y-96293350D01*
X151407913Y-96293354D01*
X151539470Y-96342421D01*
X151595403Y-96384292D01*
X151619821Y-96449756D01*
X151604970Y-96518029D01*
X151583819Y-96546284D01*
X151461503Y-96668600D01*
X151325965Y-96862169D01*
X151325964Y-96862171D01*
X151226098Y-97076335D01*
X151226094Y-97076344D01*
X151164938Y-97304586D01*
X151164936Y-97304596D01*
X151144341Y-97539999D01*
X149855659Y-97539999D01*
X149835063Y-97304592D01*
X149773903Y-97076337D01*
X149674035Y-96862171D01*
X149538495Y-96668599D01*
X149416567Y-96546671D01*
X149383084Y-96485351D01*
X149388068Y-96415659D01*
X149429939Y-96359725D01*
X149460915Y-96342810D01*
X149592331Y-96293796D01*
X149707546Y-96207546D01*
X149793796Y-96092331D01*
X149844091Y-95957483D01*
X149850500Y-95897873D01*
X149850499Y-94102128D01*
X149844091Y-94042517D01*
X149793884Y-93907906D01*
X149793797Y-93907671D01*
X149793793Y-93907664D01*
X149707547Y-93792455D01*
X149707544Y-93792452D01*
X149592335Y-93706206D01*
X149592328Y-93706202D01*
X149457482Y-93655908D01*
X149457483Y-93655908D01*
X149397883Y-93649501D01*
X149397881Y-93649500D01*
X149397873Y-93649500D01*
X149397864Y-93649500D01*
X147602129Y-93649500D01*
X147602123Y-93649501D01*
X147542516Y-93655908D01*
X147407671Y-93706202D01*
X147407664Y-93706206D01*
X147292455Y-93792452D01*
X147292452Y-93792455D01*
X147206206Y-93907664D01*
X147206202Y-93907671D01*
X147155908Y-94042517D01*
X147149501Y-94102116D01*
X147149501Y-94102123D01*
X147149500Y-94102135D01*
X147149500Y-95897870D01*
X147149501Y-95897876D01*
X147155908Y-95957483D01*
X147206202Y-96092328D01*
X147206206Y-96092335D01*
X147292452Y-96207544D01*
X147292455Y-96207547D01*
X147407664Y-96293793D01*
X147407671Y-96293797D01*
X147539081Y-96342810D01*
X147595015Y-96384681D01*
X147619432Y-96450145D01*
X147604580Y-96518418D01*
X147583430Y-96546673D01*
X147461503Y-96668600D01*
X147325965Y-96862169D01*
X147325964Y-96862171D01*
X147226098Y-97076335D01*
X147226094Y-97076344D01*
X147164938Y-97304586D01*
X147164936Y-97304596D01*
X147144341Y-97539999D01*
X145855659Y-97539999D01*
X145835063Y-97304592D01*
X145773903Y-97076337D01*
X145674035Y-96862171D01*
X145538495Y-96668599D01*
X145416567Y-96546671D01*
X145383084Y-96485351D01*
X145388068Y-96415659D01*
X145429939Y-96359725D01*
X145460915Y-96342810D01*
X145592331Y-96293796D01*
X145707546Y-96207546D01*
X145793796Y-96092331D01*
X145844091Y-95957483D01*
X145850500Y-95897873D01*
X145850499Y-94102128D01*
X145844091Y-94042517D01*
X145793884Y-93907906D01*
X145793797Y-93907671D01*
X145793793Y-93907664D01*
X145707547Y-93792455D01*
X145707544Y-93792452D01*
X145592335Y-93706206D01*
X145592328Y-93706202D01*
X145457482Y-93655908D01*
X145457483Y-93655908D01*
X145397883Y-93649501D01*
X145397881Y-93649500D01*
X145397873Y-93649500D01*
X145397864Y-93649500D01*
X143602129Y-93649500D01*
X143602123Y-93649501D01*
X143542516Y-93655908D01*
X143407671Y-93706202D01*
X143407664Y-93706206D01*
X143292455Y-93792452D01*
X143292452Y-93792455D01*
X143206206Y-93907664D01*
X143206202Y-93907671D01*
X143155908Y-94042517D01*
X143149501Y-94102116D01*
X143149501Y-94102123D01*
X143149500Y-94102135D01*
X143149500Y-95897870D01*
X143149501Y-95897876D01*
X143155908Y-95957483D01*
X143206202Y-96092328D01*
X143206206Y-96092335D01*
X143292452Y-96207544D01*
X143292455Y-96207547D01*
X143407664Y-96293793D01*
X143407671Y-96293797D01*
X143539081Y-96342810D01*
X143595015Y-96384681D01*
X143619432Y-96450145D01*
X143604580Y-96518418D01*
X143583430Y-96546673D01*
X143461503Y-96668600D01*
X143325965Y-96862169D01*
X143325964Y-96862171D01*
X143226098Y-97076335D01*
X143226094Y-97076344D01*
X143164938Y-97304586D01*
X143164936Y-97304596D01*
X143144341Y-97539999D01*
X141855659Y-97539999D01*
X141835063Y-97304592D01*
X141773903Y-97076337D01*
X141674035Y-96862171D01*
X141538495Y-96668599D01*
X141416567Y-96546671D01*
X141383084Y-96485351D01*
X141388068Y-96415659D01*
X141429939Y-96359725D01*
X141460915Y-96342810D01*
X141592331Y-96293796D01*
X141707546Y-96207546D01*
X141793796Y-96092331D01*
X141844091Y-95957483D01*
X141850500Y-95897873D01*
X141850499Y-94102128D01*
X141844091Y-94042517D01*
X141793884Y-93907906D01*
X141793797Y-93907671D01*
X141793793Y-93907664D01*
X141707547Y-93792455D01*
X141707544Y-93792452D01*
X141592335Y-93706206D01*
X141592328Y-93706202D01*
X141457482Y-93655908D01*
X141457483Y-93655908D01*
X141397883Y-93649501D01*
X141397881Y-93649500D01*
X141397873Y-93649500D01*
X141397864Y-93649500D01*
X139602129Y-93649500D01*
X139602123Y-93649501D01*
X139542516Y-93655908D01*
X139407671Y-93706202D01*
X139407664Y-93706206D01*
X139292455Y-93792452D01*
X139292452Y-93792455D01*
X139206206Y-93907664D01*
X139206202Y-93907671D01*
X139155908Y-94042517D01*
X139149501Y-94102116D01*
X139149501Y-94102123D01*
X139149500Y-94102135D01*
X139149500Y-95897870D01*
X139149501Y-95897876D01*
X139155908Y-95957483D01*
X139206202Y-96092328D01*
X139206206Y-96092335D01*
X139292452Y-96207544D01*
X139292455Y-96207547D01*
X139407664Y-96293793D01*
X139407671Y-96293797D01*
X139539081Y-96342810D01*
X139595015Y-96384681D01*
X139619432Y-96450145D01*
X139604580Y-96518418D01*
X139583430Y-96546673D01*
X139461503Y-96668600D01*
X139325965Y-96862169D01*
X139325964Y-96862171D01*
X139226098Y-97076335D01*
X139226094Y-97076344D01*
X139164938Y-97304586D01*
X139164936Y-97304596D01*
X139144341Y-97539999D01*
X137855659Y-97539999D01*
X137835063Y-97304592D01*
X137773903Y-97076337D01*
X137674035Y-96862171D01*
X137538495Y-96668599D01*
X137416567Y-96546671D01*
X137383084Y-96485351D01*
X137388068Y-96415659D01*
X137429939Y-96359725D01*
X137460915Y-96342810D01*
X137592331Y-96293796D01*
X137707546Y-96207546D01*
X137793796Y-96092331D01*
X137844091Y-95957483D01*
X137850500Y-95897873D01*
X137850499Y-94102128D01*
X137844091Y-94042517D01*
X137793884Y-93907906D01*
X137793797Y-93907671D01*
X137793793Y-93907664D01*
X137707547Y-93792455D01*
X137707544Y-93792452D01*
X137592335Y-93706206D01*
X137592328Y-93706202D01*
X137457482Y-93655908D01*
X137457483Y-93655908D01*
X137397883Y-93649501D01*
X137397881Y-93649500D01*
X137397873Y-93649500D01*
X137397864Y-93649500D01*
X135602129Y-93649500D01*
X135602123Y-93649501D01*
X135542516Y-93655908D01*
X135407671Y-93706202D01*
X135407664Y-93706206D01*
X135292455Y-93792452D01*
X135292452Y-93792455D01*
X135206206Y-93907664D01*
X135206202Y-93907671D01*
X135155908Y-94042517D01*
X135149501Y-94102116D01*
X135149501Y-94102123D01*
X135149500Y-94102135D01*
X135149500Y-95897870D01*
X135149501Y-95897876D01*
X135155908Y-95957483D01*
X135206202Y-96092328D01*
X135206206Y-96092335D01*
X135292452Y-96207544D01*
X135292455Y-96207547D01*
X135407664Y-96293793D01*
X135407671Y-96293797D01*
X135539081Y-96342810D01*
X135595015Y-96384681D01*
X135619432Y-96450145D01*
X135604580Y-96518418D01*
X135583430Y-96546673D01*
X135461503Y-96668600D01*
X135325965Y-96862169D01*
X135325964Y-96862171D01*
X135226098Y-97076335D01*
X135226094Y-97076344D01*
X135164938Y-97304586D01*
X135164936Y-97304596D01*
X135144341Y-97539999D01*
X133855659Y-97539999D01*
X133835063Y-97304592D01*
X133773903Y-97076337D01*
X133674035Y-96862171D01*
X133538495Y-96668599D01*
X133416567Y-96546671D01*
X133383084Y-96485351D01*
X133388068Y-96415659D01*
X133429939Y-96359725D01*
X133460915Y-96342810D01*
X133592331Y-96293796D01*
X133707546Y-96207546D01*
X133793796Y-96092331D01*
X133844091Y-95957483D01*
X133850500Y-95897873D01*
X133850499Y-94102128D01*
X133844091Y-94042517D01*
X133793884Y-93907906D01*
X133793797Y-93907671D01*
X133793793Y-93907664D01*
X133707547Y-93792455D01*
X133707544Y-93792452D01*
X133592335Y-93706206D01*
X133592328Y-93706202D01*
X133457482Y-93655908D01*
X133457483Y-93655908D01*
X133397883Y-93649501D01*
X133397881Y-93649500D01*
X133397873Y-93649500D01*
X133397864Y-93649500D01*
X131602129Y-93649500D01*
X131602123Y-93649501D01*
X131542516Y-93655908D01*
X131407671Y-93706202D01*
X131407664Y-93706206D01*
X131292455Y-93792452D01*
X131292452Y-93792455D01*
X131206206Y-93907664D01*
X131206202Y-93907671D01*
X131155908Y-94042517D01*
X131149501Y-94102116D01*
X131149501Y-94102123D01*
X131149500Y-94102135D01*
X131149500Y-95897870D01*
X131149501Y-95897876D01*
X131155908Y-95957483D01*
X131206202Y-96092328D01*
X131206206Y-96092335D01*
X131292452Y-96207544D01*
X131292455Y-96207547D01*
X131407664Y-96293793D01*
X131407671Y-96293797D01*
X131539081Y-96342810D01*
X131595015Y-96384681D01*
X131619432Y-96450145D01*
X131604580Y-96518418D01*
X131583430Y-96546673D01*
X131461503Y-96668600D01*
X131325965Y-96862169D01*
X131325964Y-96862171D01*
X131226098Y-97076335D01*
X131226094Y-97076344D01*
X131164938Y-97304586D01*
X131164936Y-97304596D01*
X131144341Y-97539999D01*
X129855659Y-97539999D01*
X129835063Y-97304592D01*
X129773903Y-97076337D01*
X129674035Y-96862171D01*
X129538495Y-96668599D01*
X129416567Y-96546671D01*
X129383084Y-96485351D01*
X129388068Y-96415659D01*
X129429939Y-96359725D01*
X129460915Y-96342810D01*
X129592331Y-96293796D01*
X129707546Y-96207546D01*
X129793796Y-96092331D01*
X129844091Y-95957483D01*
X129850500Y-95897873D01*
X129850499Y-94102128D01*
X129844091Y-94042517D01*
X129793884Y-93907906D01*
X129793797Y-93907671D01*
X129793793Y-93907664D01*
X129707547Y-93792455D01*
X129707544Y-93792452D01*
X129592335Y-93706206D01*
X129592328Y-93706202D01*
X129457482Y-93655908D01*
X129457483Y-93655908D01*
X129397883Y-93649501D01*
X129397881Y-93649500D01*
X129397873Y-93649500D01*
X129397864Y-93649500D01*
X127602129Y-93649500D01*
X127602123Y-93649501D01*
X127542516Y-93655908D01*
X127407671Y-93706202D01*
X127407664Y-93706206D01*
X127292455Y-93792452D01*
X127292452Y-93792455D01*
X127206206Y-93907664D01*
X127206202Y-93907671D01*
X127155908Y-94042517D01*
X127149501Y-94102116D01*
X127149501Y-94102123D01*
X127149500Y-94102135D01*
X127149500Y-95897870D01*
X127149501Y-95897876D01*
X127155908Y-95957483D01*
X127206202Y-96092328D01*
X127206206Y-96092335D01*
X127292452Y-96207544D01*
X127292455Y-96207547D01*
X127407664Y-96293793D01*
X127407671Y-96293797D01*
X127539081Y-96342810D01*
X127595015Y-96384681D01*
X127619432Y-96450145D01*
X127604580Y-96518418D01*
X127583430Y-96546673D01*
X127461503Y-96668600D01*
X127325965Y-96862169D01*
X127325964Y-96862171D01*
X127226098Y-97076335D01*
X127226094Y-97076344D01*
X127164938Y-97304586D01*
X127164936Y-97304596D01*
X127144341Y-97539999D01*
X125762802Y-97539999D01*
X125742206Y-97304592D01*
X125681046Y-97076337D01*
X125581178Y-96862171D01*
X125445638Y-96668599D01*
X125323322Y-96546283D01*
X125289839Y-96484963D01*
X125294823Y-96415271D01*
X125336694Y-96359337D01*
X125367672Y-96342422D01*
X125499229Y-96293354D01*
X125499236Y-96293350D01*
X125614330Y-96207190D01*
X125614333Y-96207187D01*
X125700493Y-96092093D01*
X125700497Y-96092086D01*
X125750739Y-95957379D01*
X125750741Y-95957372D01*
X125757142Y-95897844D01*
X125757143Y-95897827D01*
X125757143Y-95250000D01*
X124840155Y-95250000D01*
X124873068Y-95192993D01*
X124907143Y-95065826D01*
X124907143Y-94934174D01*
X124873068Y-94807007D01*
X124840155Y-94750000D01*
X125757143Y-94750000D01*
X125757143Y-94102172D01*
X125757142Y-94102155D01*
X125750741Y-94042627D01*
X125750739Y-94042620D01*
X125700497Y-93907913D01*
X125700493Y-93907906D01*
X125614333Y-93792812D01*
X125614330Y-93792809D01*
X125499236Y-93706649D01*
X125499229Y-93706645D01*
X125364522Y-93656403D01*
X125364515Y-93656401D01*
X125304987Y-93650000D01*
X124657143Y-93650000D01*
X124657143Y-94566988D01*
X124600136Y-94534075D01*
X124472969Y-94500000D01*
X124341317Y-94500000D01*
X124214150Y-94534075D01*
X124157143Y-94566988D01*
X124157143Y-93650000D01*
X123509298Y-93650000D01*
X123449770Y-93656401D01*
X123449763Y-93656403D01*
X123315056Y-93706645D01*
X123315049Y-93706649D01*
X123199955Y-93792809D01*
X123199952Y-93792812D01*
X123113792Y-93907906D01*
X123113788Y-93907913D01*
X123063546Y-94042620D01*
X123063544Y-94042627D01*
X123057143Y-94102155D01*
X123057143Y-94750000D01*
X123974131Y-94750000D01*
X123941218Y-94807007D01*
X123907143Y-94934174D01*
X123907143Y-95065826D01*
X123941218Y-95192993D01*
X123974131Y-95250000D01*
X123057143Y-95250000D01*
X123057143Y-95897844D01*
X123063544Y-95957372D01*
X123063546Y-95957379D01*
X123113788Y-96092086D01*
X123113792Y-96092093D01*
X123199952Y-96207187D01*
X123199955Y-96207190D01*
X123315049Y-96293350D01*
X123315056Y-96293354D01*
X123446613Y-96342421D01*
X123502546Y-96384292D01*
X123526964Y-96449756D01*
X123512113Y-96518029D01*
X123490962Y-96546284D01*
X123368646Y-96668600D01*
X123233108Y-96862169D01*
X123233107Y-96862171D01*
X123133241Y-97076335D01*
X123133237Y-97076344D01*
X123072081Y-97304586D01*
X123072079Y-97304596D01*
X123051484Y-97539999D01*
X121855659Y-97539999D01*
X121835063Y-97304592D01*
X121773903Y-97076337D01*
X121674035Y-96862171D01*
X121538495Y-96668599D01*
X121416179Y-96546283D01*
X121382696Y-96484963D01*
X121387680Y-96415271D01*
X121429551Y-96359337D01*
X121460529Y-96342422D01*
X121592086Y-96293354D01*
X121592093Y-96293350D01*
X121707187Y-96207190D01*
X121707190Y-96207187D01*
X121793350Y-96092093D01*
X121793354Y-96092086D01*
X121843596Y-95957379D01*
X121843598Y-95957372D01*
X121849999Y-95897844D01*
X121850000Y-95897827D01*
X121850000Y-95250000D01*
X120933012Y-95250000D01*
X120965925Y-95192993D01*
X121000000Y-95065826D01*
X121000000Y-94934174D01*
X120965925Y-94807007D01*
X120933012Y-94750000D01*
X121850000Y-94750000D01*
X121850000Y-94102172D01*
X121849999Y-94102155D01*
X121843598Y-94042627D01*
X121843596Y-94042620D01*
X121793354Y-93907913D01*
X121793350Y-93907906D01*
X121707190Y-93792812D01*
X121707187Y-93792809D01*
X121592093Y-93706649D01*
X121592086Y-93706645D01*
X121457379Y-93656403D01*
X121457372Y-93656401D01*
X121397844Y-93650000D01*
X120750000Y-93650000D01*
X120750000Y-94566988D01*
X120692993Y-94534075D01*
X120565826Y-94500000D01*
X120434174Y-94500000D01*
X120307007Y-94534075D01*
X120250000Y-94566988D01*
X120250000Y-93650000D01*
X119602155Y-93650000D01*
X119542627Y-93656401D01*
X119542620Y-93656403D01*
X119407913Y-93706645D01*
X119407906Y-93706649D01*
X119292812Y-93792809D01*
X119292809Y-93792812D01*
X119206649Y-93907906D01*
X119206645Y-93907913D01*
X119156403Y-94042620D01*
X119156401Y-94042627D01*
X119150000Y-94102155D01*
X119150000Y-94750000D01*
X120066988Y-94750000D01*
X120034075Y-94807007D01*
X120000000Y-94934174D01*
X120000000Y-95065826D01*
X120034075Y-95192993D01*
X120066988Y-95250000D01*
X119150000Y-95250000D01*
X119150000Y-95897844D01*
X119156401Y-95957372D01*
X119156403Y-95957379D01*
X119206645Y-96092086D01*
X119206649Y-96092093D01*
X119292809Y-96207187D01*
X119292812Y-96207190D01*
X119407906Y-96293350D01*
X119407913Y-96293354D01*
X119539470Y-96342421D01*
X119595403Y-96384292D01*
X119619821Y-96449756D01*
X119604970Y-96518029D01*
X119583819Y-96546284D01*
X119461503Y-96668600D01*
X119325965Y-96862169D01*
X119325964Y-96862171D01*
X119226098Y-97076335D01*
X119226094Y-97076344D01*
X119164938Y-97304586D01*
X119164936Y-97304596D01*
X119144341Y-97539999D01*
X117816159Y-97539999D01*
X117795563Y-97304592D01*
X117734403Y-97076337D01*
X117634535Y-96862171D01*
X117498995Y-96668599D01*
X117376679Y-96546283D01*
X117343196Y-96484963D01*
X117348180Y-96415271D01*
X117390051Y-96359337D01*
X117421029Y-96342422D01*
X117552586Y-96293354D01*
X117552593Y-96293350D01*
X117667687Y-96207190D01*
X117667690Y-96207187D01*
X117753850Y-96092093D01*
X117753854Y-96092086D01*
X117804096Y-95957379D01*
X117804098Y-95957372D01*
X117810499Y-95897844D01*
X117810500Y-95897827D01*
X117810500Y-95250000D01*
X116893512Y-95250000D01*
X116926425Y-95192993D01*
X116960500Y-95065826D01*
X116960500Y-94934174D01*
X116926425Y-94807007D01*
X116893512Y-94750000D01*
X117810500Y-94750000D01*
X117810500Y-94102172D01*
X117810499Y-94102155D01*
X117804098Y-94042627D01*
X117804096Y-94042620D01*
X117753854Y-93907913D01*
X117753850Y-93907906D01*
X117667690Y-93792812D01*
X117667687Y-93792809D01*
X117552593Y-93706649D01*
X117552586Y-93706645D01*
X117417879Y-93656403D01*
X117417872Y-93656401D01*
X117358344Y-93650000D01*
X116710500Y-93650000D01*
X116710500Y-94566988D01*
X116653493Y-94534075D01*
X116526326Y-94500000D01*
X116394674Y-94500000D01*
X116267507Y-94534075D01*
X116210500Y-94566988D01*
X116210500Y-93650000D01*
X115562655Y-93650000D01*
X115503127Y-93656401D01*
X115503120Y-93656403D01*
X115368413Y-93706645D01*
X115368406Y-93706649D01*
X115253312Y-93792809D01*
X115253309Y-93792812D01*
X115167149Y-93907906D01*
X115167145Y-93907913D01*
X115116903Y-94042620D01*
X115116901Y-94042627D01*
X115110500Y-94102155D01*
X115110500Y-94750000D01*
X116027488Y-94750000D01*
X115994575Y-94807007D01*
X115960500Y-94934174D01*
X115960500Y-95065826D01*
X115994575Y-95192993D01*
X116027488Y-95250000D01*
X115110500Y-95250000D01*
X115110500Y-95897844D01*
X115116901Y-95957372D01*
X115116903Y-95957379D01*
X115167145Y-96092086D01*
X115167149Y-96092093D01*
X115253309Y-96207187D01*
X115253312Y-96207190D01*
X115368406Y-96293350D01*
X115368413Y-96293354D01*
X115499970Y-96342421D01*
X115555903Y-96384292D01*
X115580321Y-96449756D01*
X115565470Y-96518029D01*
X115544319Y-96546284D01*
X115422003Y-96668600D01*
X115286465Y-96862169D01*
X115286464Y-96862171D01*
X115186598Y-97076335D01*
X115186594Y-97076344D01*
X115125438Y-97304586D01*
X115125436Y-97304596D01*
X115104841Y-97539999D01*
X113855659Y-97539999D01*
X113835063Y-97304592D01*
X113773903Y-97076337D01*
X113674035Y-96862171D01*
X113538495Y-96668599D01*
X113416179Y-96546283D01*
X113382696Y-96484963D01*
X113387680Y-96415271D01*
X113429551Y-96359337D01*
X113460529Y-96342422D01*
X113592086Y-96293354D01*
X113592093Y-96293350D01*
X113707187Y-96207190D01*
X113707190Y-96207187D01*
X113793350Y-96092093D01*
X113793354Y-96092086D01*
X113843596Y-95957379D01*
X113843598Y-95957372D01*
X113849999Y-95897844D01*
X113850000Y-95897827D01*
X113850000Y-95250000D01*
X112933012Y-95250000D01*
X112965925Y-95192993D01*
X113000000Y-95065826D01*
X113000000Y-94934174D01*
X112965925Y-94807007D01*
X112933012Y-94750000D01*
X113850000Y-94750000D01*
X113850000Y-94102172D01*
X113849999Y-94102155D01*
X113843598Y-94042627D01*
X113843596Y-94042620D01*
X113793354Y-93907913D01*
X113793350Y-93907906D01*
X113707190Y-93792812D01*
X113707187Y-93792809D01*
X113592093Y-93706649D01*
X113592086Y-93706645D01*
X113457379Y-93656403D01*
X113457372Y-93656401D01*
X113397844Y-93650000D01*
X112750000Y-93650000D01*
X112750000Y-94566988D01*
X112692993Y-94534075D01*
X112565826Y-94500000D01*
X112434174Y-94500000D01*
X112307007Y-94534075D01*
X112250000Y-94566988D01*
X112250000Y-93650000D01*
X111602155Y-93650000D01*
X111542627Y-93656401D01*
X111542620Y-93656403D01*
X111407913Y-93706645D01*
X111407906Y-93706649D01*
X111292812Y-93792809D01*
X111292809Y-93792812D01*
X111206649Y-93907906D01*
X111206645Y-93907913D01*
X111156403Y-94042620D01*
X111156401Y-94042627D01*
X111150000Y-94102155D01*
X111150000Y-94750000D01*
X112066988Y-94750000D01*
X112034075Y-94807007D01*
X112000000Y-94934174D01*
X112000000Y-95065826D01*
X112034075Y-95192993D01*
X112066988Y-95250000D01*
X111150000Y-95250000D01*
X111150000Y-95897844D01*
X111156401Y-95957372D01*
X111156403Y-95957379D01*
X111206645Y-96092086D01*
X111206649Y-96092093D01*
X111292809Y-96207187D01*
X111292812Y-96207190D01*
X111407906Y-96293350D01*
X111407913Y-96293354D01*
X111539470Y-96342421D01*
X111595403Y-96384292D01*
X111619821Y-96449756D01*
X111604970Y-96518029D01*
X111583819Y-96546284D01*
X111461503Y-96668600D01*
X111325965Y-96862169D01*
X111325964Y-96862171D01*
X111226098Y-97076335D01*
X111226094Y-97076344D01*
X111164938Y-97304586D01*
X111164936Y-97304596D01*
X111144341Y-97539999D01*
X107000500Y-97539999D01*
X107000500Y-91200500D01*
X107020185Y-91133461D01*
X107072989Y-91087706D01*
X107142147Y-91077762D01*
X107205703Y-91106787D01*
X107231888Y-91138502D01*
X107239289Y-91151322D01*
X107447972Y-91431631D01*
X107447976Y-91431636D01*
X107456147Y-91440297D01*
X107456148Y-91440298D01*
X108706320Y-90190125D01*
X108796554Y-90314320D01*
X108935680Y-90453446D01*
X109059873Y-90543678D01*
X107812817Y-91790733D01*
X107812818Y-91790734D01*
X107955480Y-91910442D01*
X108247461Y-92102480D01*
X108559739Y-92259314D01*
X108559745Y-92259316D01*
X108888130Y-92378838D01*
X108888133Y-92378839D01*
X109228171Y-92459429D01*
X109575276Y-92499999D01*
X109575277Y-92500000D01*
X109924723Y-92500000D01*
X109924723Y-92499999D01*
X110271827Y-92459429D01*
X110271829Y-92459429D01*
X110611866Y-92378839D01*
X110611869Y-92378838D01*
X110940254Y-92259316D01*
X110940260Y-92259314D01*
X111252538Y-92102480D01*
X111544515Y-91910445D01*
X111687180Y-91790734D01*
X111687181Y-91790733D01*
X110440126Y-90543678D01*
X110564320Y-90453446D01*
X110703446Y-90314320D01*
X110793679Y-90190126D01*
X112043850Y-91440297D01*
X112052032Y-91431625D01*
X112260710Y-91151322D01*
X112435438Y-90848683D01*
X112435444Y-90848670D01*
X112573854Y-90527800D01*
X112674083Y-90193011D01*
X112674085Y-90193002D01*
X112734763Y-89848880D01*
X112734764Y-89848869D01*
X112755084Y-89500003D01*
X112755084Y-89499996D01*
X112734764Y-89151130D01*
X112734763Y-89151119D01*
X112674085Y-88806997D01*
X112674083Y-88806988D01*
X112573854Y-88472199D01*
X112435444Y-88151329D01*
X112435438Y-88151316D01*
X112260710Y-87848677D01*
X112052029Y-87568371D01*
X112043850Y-87559701D01*
X112043850Y-87559700D01*
X110793678Y-88809872D01*
X110703446Y-88685680D01*
X110564320Y-88546554D01*
X110440125Y-88456320D01*
X111687181Y-87209265D01*
X111687180Y-87209264D01*
X111544514Y-87089553D01*
X111375058Y-86978100D01*
X111329864Y-86924815D01*
X111320653Y-86855556D01*
X111350348Y-86792311D01*
X111409523Y-86755160D01*
X111443197Y-86750500D01*
X174556803Y-86750500D01*
X174623842Y-86770185D01*
G37*
%TD.AperFunction*%
%TA.AperFunction,Conductor*%
G36*
X147190000Y-121870633D02*
G01*
X147403483Y-121813433D01*
X147403492Y-121813429D01*
X147617578Y-121713600D01*
X147811082Y-121578105D01*
X147978105Y-121411082D01*
X148108119Y-121225405D01*
X148162696Y-121181781D01*
X148232195Y-121174588D01*
X148294549Y-121206110D01*
X148311269Y-121225405D01*
X148441505Y-121411401D01*
X148608599Y-121578495D01*
X148689679Y-121635268D01*
X148802165Y-121714032D01*
X148802167Y-121714033D01*
X148802170Y-121714035D01*
X149016337Y-121813903D01*
X149244592Y-121875063D01*
X149421034Y-121890500D01*
X149479999Y-121895659D01*
X149480000Y-121895659D01*
X149480001Y-121895659D01*
X149538966Y-121890500D01*
X149715408Y-121875063D01*
X149943663Y-121813903D01*
X150157830Y-121714035D01*
X150351401Y-121578495D01*
X150518495Y-121411401D01*
X150648426Y-121225841D01*
X150703002Y-121182217D01*
X150772500Y-121175023D01*
X150834855Y-121206546D01*
X150851575Y-121225842D01*
X150981281Y-121411082D01*
X150981505Y-121411401D01*
X151148599Y-121578495D01*
X151229679Y-121635268D01*
X151342165Y-121714032D01*
X151342167Y-121714033D01*
X151342170Y-121714035D01*
X151438729Y-121759061D01*
X151491169Y-121805233D01*
X151493703Y-121809428D01*
X151534341Y-121879815D01*
X151539479Y-121888714D01*
X151539481Y-121888717D01*
X151658349Y-122007585D01*
X151658355Y-122007590D01*
X151838584Y-122187819D01*
X151872069Y-122249142D01*
X151867085Y-122318834D01*
X151825213Y-122374767D01*
X151759749Y-122399184D01*
X151750903Y-122399500D01*
X145800097Y-122399500D01*
X145733058Y-122379815D01*
X145712416Y-122363181D01*
X145173760Y-121824525D01*
X145140275Y-121763202D01*
X145145259Y-121693510D01*
X145187131Y-121637577D01*
X145190265Y-121635306D01*
X145271401Y-121578495D01*
X145438495Y-121411401D01*
X145568730Y-121225405D01*
X145623307Y-121181781D01*
X145692805Y-121174587D01*
X145755160Y-121206110D01*
X145771879Y-121225405D01*
X145901890Y-121411078D01*
X146068917Y-121578105D01*
X146262421Y-121713600D01*
X146476507Y-121813429D01*
X146476516Y-121813433D01*
X146690000Y-121870634D01*
X146690000Y-120973012D01*
X146747007Y-121005925D01*
X146874174Y-121040000D01*
X147005826Y-121040000D01*
X147132993Y-121005925D01*
X147190000Y-120973012D01*
X147190000Y-121870633D01*
G37*
%TD.AperFunction*%
%TA.AperFunction,Conductor*%
G36*
X165766942Y-116620185D02*
G01*
X165787584Y-116636819D01*
X166363181Y-117212416D01*
X166396666Y-117273739D01*
X166399500Y-117300097D01*
X166399500Y-120699902D01*
X166379815Y-120766941D01*
X166363184Y-120787579D01*
X166303757Y-120847007D01*
X166264352Y-120886412D01*
X166203028Y-120919896D01*
X166133337Y-120914912D01*
X166077404Y-120873040D01*
X166052987Y-120807575D01*
X166054219Y-120794670D01*
X166050636Y-120790000D01*
X165153012Y-120790000D01*
X165185925Y-120732993D01*
X165220000Y-120605826D01*
X165220000Y-120474174D01*
X165185925Y-120347007D01*
X165153012Y-120290000D01*
X166050636Y-120290000D01*
X166050635Y-120289999D01*
X165993432Y-120076513D01*
X165993429Y-120076507D01*
X165893600Y-119862422D01*
X165893599Y-119862420D01*
X165758113Y-119668926D01*
X165758108Y-119668920D01*
X165591078Y-119501890D01*
X165405405Y-119371879D01*
X165361780Y-119317302D01*
X165354588Y-119247804D01*
X165386110Y-119185449D01*
X165405406Y-119168730D01*
X165468800Y-119124341D01*
X165591401Y-119038495D01*
X165758495Y-118871401D01*
X165894035Y-118677830D01*
X165993903Y-118463663D01*
X166055063Y-118235408D01*
X166075659Y-118000000D01*
X166055063Y-117764592D01*
X165993903Y-117536337D01*
X165894035Y-117322171D01*
X165888731Y-117314595D01*
X165758494Y-117128597D01*
X165591402Y-116961506D01*
X165591396Y-116961501D01*
X165397987Y-116826075D01*
X165354362Y-116771498D01*
X165347168Y-116702000D01*
X165378691Y-116639645D01*
X165438921Y-116604231D01*
X165469110Y-116600500D01*
X165699903Y-116600500D01*
X165766942Y-116620185D01*
G37*
%TD.AperFunction*%
%TA.AperFunction,Conductor*%
G36*
X131606942Y-116220185D02*
G01*
X131627584Y-116236819D01*
X131913681Y-116522916D01*
X131947166Y-116584239D01*
X131950000Y-116610597D01*
X131950000Y-117566988D01*
X131892993Y-117534075D01*
X131765826Y-117500000D01*
X131634174Y-117500000D01*
X131507007Y-117534075D01*
X131450000Y-117566988D01*
X131450000Y-116669364D01*
X131449999Y-116669364D01*
X131236513Y-116726567D01*
X131236507Y-116726570D01*
X131022422Y-116826399D01*
X131022420Y-116826400D01*
X130828926Y-116961886D01*
X130828920Y-116961891D01*
X130661891Y-117128920D01*
X130661890Y-117128922D01*
X130531880Y-117314595D01*
X130477303Y-117358219D01*
X130407804Y-117365412D01*
X130345450Y-117333890D01*
X130328730Y-117314594D01*
X130198494Y-117128597D01*
X130031402Y-116961506D01*
X130031395Y-116961501D01*
X129837831Y-116825965D01*
X129837826Y-116825962D01*
X129832091Y-116823288D01*
X129779653Y-116777113D01*
X129760500Y-116710908D01*
X129760500Y-116324500D01*
X129780185Y-116257461D01*
X129832989Y-116211706D01*
X129884500Y-116200500D01*
X131539903Y-116200500D01*
X131606942Y-116220185D01*
G37*
%TD.AperFunction*%
%TA.AperFunction,Conductor*%
G36*
X138366942Y-115220185D02*
G01*
X138387584Y-115236819D01*
X139386866Y-116236101D01*
X139418959Y-116291687D01*
X139440421Y-116371781D01*
X139440422Y-116371783D01*
X139469358Y-116421900D01*
X139469359Y-116421904D01*
X139469360Y-116421904D01*
X139519479Y-116508714D01*
X139519481Y-116508717D01*
X139533681Y-116522917D01*
X139567166Y-116584240D01*
X139570000Y-116610598D01*
X139570000Y-117566988D01*
X139512993Y-117534075D01*
X139385826Y-117500000D01*
X139254174Y-117500000D01*
X139127007Y-117534075D01*
X139070000Y-117566988D01*
X139070000Y-116669364D01*
X139069999Y-116669364D01*
X138856513Y-116726567D01*
X138856507Y-116726570D01*
X138642422Y-116826399D01*
X138642420Y-116826400D01*
X138448926Y-116961886D01*
X138448920Y-116961891D01*
X138281891Y-117128920D01*
X138281890Y-117128922D01*
X138151880Y-117314595D01*
X138097303Y-117358219D01*
X138027804Y-117365412D01*
X137965450Y-117333890D01*
X137948730Y-117314594D01*
X137818494Y-117128597D01*
X137651402Y-116961506D01*
X137651395Y-116961501D01*
X137457834Y-116825967D01*
X137457830Y-116825965D01*
X137380499Y-116789905D01*
X137243663Y-116726097D01*
X137243659Y-116726096D01*
X137243655Y-116726094D01*
X137015413Y-116664938D01*
X137015403Y-116664936D01*
X136780001Y-116644341D01*
X136779999Y-116644341D01*
X136544596Y-116664936D01*
X136544586Y-116664938D01*
X136416243Y-116699327D01*
X136346393Y-116697664D01*
X136296469Y-116667233D01*
X135677971Y-116048735D01*
X135041415Y-115412180D01*
X135007931Y-115350858D01*
X135012915Y-115281166D01*
X135054787Y-115225233D01*
X135120251Y-115200816D01*
X135129097Y-115200500D01*
X138299903Y-115200500D01*
X138366942Y-115220185D01*
G37*
%TD.AperFunction*%
%TA.AperFunction,Conductor*%
G36*
X108123842Y-86770185D02*
G01*
X108169597Y-86822989D01*
X108179541Y-86892147D01*
X108150516Y-86955703D01*
X108124942Y-86978100D01*
X107955494Y-87089547D01*
X107955487Y-87089552D01*
X107812817Y-87209264D01*
X109059874Y-88456320D01*
X108935680Y-88546554D01*
X108796554Y-88685680D01*
X108706320Y-88809873D01*
X107456148Y-87559701D01*
X107456146Y-87559701D01*
X107447973Y-87568366D01*
X107239292Y-87848674D01*
X107231887Y-87861500D01*
X107181319Y-87909715D01*
X107112712Y-87922937D01*
X107047848Y-87896969D01*
X107007320Y-87840055D01*
X107000500Y-87799499D01*
X107000500Y-86874500D01*
X107020185Y-86807461D01*
X107072989Y-86761706D01*
X107124500Y-86750500D01*
X108056803Y-86750500D01*
X108123842Y-86770185D01*
G37*
%TD.AperFunction*%
%TA.AperFunction,Conductor*%
G36*
X178942539Y-86770185D02*
G01*
X178988294Y-86822989D01*
X178999500Y-86874500D01*
X178999500Y-87799499D01*
X178979815Y-87866538D01*
X178927011Y-87912293D01*
X178857853Y-87922237D01*
X178794297Y-87893212D01*
X178768113Y-87861500D01*
X178760707Y-87848674D01*
X178552029Y-87568371D01*
X178543850Y-87559701D01*
X178543850Y-87559700D01*
X177293678Y-88809872D01*
X177203446Y-88685680D01*
X177064320Y-88546554D01*
X176940125Y-88456320D01*
X178187181Y-87209265D01*
X178187180Y-87209264D01*
X178044514Y-87089553D01*
X177875058Y-86978100D01*
X177829864Y-86924815D01*
X177820653Y-86855556D01*
X177850348Y-86792311D01*
X177909523Y-86755160D01*
X177943197Y-86750500D01*
X178875500Y-86750500D01*
X178942539Y-86770185D01*
G37*
%TD.AperFunction*%
M02*
