%TF.GenerationSoftware,KiCad,Pcbnew,8.0.7-8.0.7-0~ubuntu24.04.1*%
%TF.CreationDate,2025-01-10T11:13:04+00:00*%
%TF.ProjectId,whenisbins,7768656e-6973-4626-996e-732e6b696361,rev?*%
%TF.SameCoordinates,Original*%
%TF.FileFunction,Drillmap*%
%TF.FilePolarity,Positive*%
%FSLAX45Y45*%
G04 Gerber Fmt 4.5, Leading zero omitted, Abs format (unit mm)*
G04 Created by KiCad (PCBNEW 8.0.7-8.0.7-0~ubuntu24.04.1) date 2025-01-10 11:13:04*
%MOMM*%
%LPD*%
G01*
G04 APERTURE LIST*
%ADD10C,0.050000*%
%ADD11C,0.200000*%
%ADD12C,0.100000*%
%ADD13C,0.250000*%
G04 APERTURE END LIST*
D10*
X10650000Y-8625000D02*
X17950000Y-8625000D01*
X17950000Y-14175000D01*
X10650000Y-14175000D01*
X10650000Y-8625000D01*
D11*
D12*
X16362500Y-13508500D02*
X16437500Y-13583500D01*
X16437500Y-13508500D02*
X16362500Y-13583500D01*
X16362500Y-13635500D02*
X16437500Y-13710500D01*
X16437500Y-13635500D02*
X16362500Y-13710500D01*
X16362500Y-13762500D02*
X16437500Y-13837500D01*
X16437500Y-13762500D02*
X16362500Y-13837500D01*
X11286050Y-10137000D02*
G75*
G02*
X11206050Y-10137000I-40000J0D01*
G01*
X11206050Y-10137000D02*
G75*
G02*
X11286050Y-10137000I40000J0D01*
G01*
X11286050Y-11153000D02*
G75*
G02*
X11206050Y-11153000I-40000J0D01*
G01*
X11206050Y-11153000D02*
G75*
G02*
X11286050Y-11153000I40000J0D01*
G01*
X11690000Y-10137455D02*
G75*
G02*
X11610000Y-10137455I-40000J0D01*
G01*
X11610000Y-10137455D02*
G75*
G02*
X11690000Y-10137455I40000J0D01*
G01*
X11690000Y-11153455D02*
G75*
G02*
X11610000Y-11153455I-40000J0D01*
G01*
X11610000Y-11153455D02*
G75*
G02*
X11690000Y-11153455I40000J0D01*
G01*
X12090000Y-10137455D02*
G75*
G02*
X12010000Y-10137455I-40000J0D01*
G01*
X12010000Y-10137455D02*
G75*
G02*
X12090000Y-10137455I40000J0D01*
G01*
X12090000Y-11153455D02*
G75*
G02*
X12010000Y-11153455I-40000J0D01*
G01*
X12010000Y-11153455D02*
G75*
G02*
X12090000Y-11153455I40000J0D01*
G01*
X12490000Y-10137455D02*
G75*
G02*
X12410000Y-10137455I-40000J0D01*
G01*
X12410000Y-10137455D02*
G75*
G02*
X12490000Y-10137455I40000J0D01*
G01*
X12490000Y-11153455D02*
G75*
G02*
X12410000Y-11153455I-40000J0D01*
G01*
X12410000Y-11153455D02*
G75*
G02*
X12490000Y-11153455I40000J0D01*
G01*
X12890000Y-10137455D02*
G75*
G02*
X12810000Y-10137455I-40000J0D01*
G01*
X12810000Y-10137455D02*
G75*
G02*
X12890000Y-10137455I40000J0D01*
G01*
X12890000Y-11153455D02*
G75*
G02*
X12810000Y-11153455I-40000J0D01*
G01*
X12810000Y-11153455D02*
G75*
G02*
X12890000Y-11153455I40000J0D01*
G01*
X13290000Y-10142000D02*
G75*
G02*
X13210000Y-10142000I-40000J0D01*
G01*
X13210000Y-10142000D02*
G75*
G02*
X13290000Y-10142000I40000J0D01*
G01*
X13290000Y-11158000D02*
G75*
G02*
X13210000Y-11158000I-40000J0D01*
G01*
X13210000Y-11158000D02*
G75*
G02*
X13290000Y-11158000I40000J0D01*
G01*
X13690000Y-10137455D02*
G75*
G02*
X13610000Y-10137455I-40000J0D01*
G01*
X13610000Y-10137455D02*
G75*
G02*
X13690000Y-10137455I40000J0D01*
G01*
X13690000Y-11153455D02*
G75*
G02*
X13610000Y-11153455I-40000J0D01*
G01*
X13610000Y-11153455D02*
G75*
G02*
X13690000Y-11153455I40000J0D01*
G01*
X14090000Y-10137455D02*
G75*
G02*
X14010000Y-10137455I-40000J0D01*
G01*
X14010000Y-10137455D02*
G75*
G02*
X14090000Y-10137455I40000J0D01*
G01*
X14090000Y-11153455D02*
G75*
G02*
X14010000Y-11153455I-40000J0D01*
G01*
X14010000Y-11153455D02*
G75*
G02*
X14090000Y-11153455I40000J0D01*
G01*
X14490000Y-10137455D02*
G75*
G02*
X14410000Y-10137455I-40000J0D01*
G01*
X14410000Y-10137455D02*
G75*
G02*
X14490000Y-10137455I40000J0D01*
G01*
X14490000Y-11153455D02*
G75*
G02*
X14410000Y-11153455I-40000J0D01*
G01*
X14410000Y-11153455D02*
G75*
G02*
X14490000Y-11153455I40000J0D01*
G01*
X14890000Y-10137455D02*
G75*
G02*
X14810000Y-10137455I-40000J0D01*
G01*
X14810000Y-10137455D02*
G75*
G02*
X14890000Y-10137455I40000J0D01*
G01*
X14890000Y-11153455D02*
G75*
G02*
X14810000Y-11153455I-40000J0D01*
G01*
X14810000Y-11153455D02*
G75*
G02*
X14890000Y-11153455I40000J0D01*
G01*
X15290000Y-10137455D02*
G75*
G02*
X15210000Y-10137455I-40000J0D01*
G01*
X15210000Y-10137455D02*
G75*
G02*
X15290000Y-10137455I40000J0D01*
G01*
X15290000Y-11153455D02*
G75*
G02*
X15210000Y-11153455I-40000J0D01*
G01*
X15210000Y-11153455D02*
G75*
G02*
X15290000Y-11153455I40000J0D01*
G01*
X15690000Y-10137455D02*
G75*
G02*
X15610000Y-10137455I-40000J0D01*
G01*
X15610000Y-10137455D02*
G75*
G02*
X15690000Y-10137455I40000J0D01*
G01*
X15690000Y-11153455D02*
G75*
G02*
X15610000Y-11153455I-40000J0D01*
G01*
X15610000Y-11153455D02*
G75*
G02*
X15690000Y-11153455I40000J0D01*
G01*
X16090000Y-10137455D02*
G75*
G02*
X16010000Y-10137455I-40000J0D01*
G01*
X16010000Y-10137455D02*
G75*
G02*
X16090000Y-10137455I40000J0D01*
G01*
X16090000Y-11153455D02*
G75*
G02*
X16010000Y-11153455I-40000J0D01*
G01*
X16010000Y-11153455D02*
G75*
G02*
X16090000Y-11153455I40000J0D01*
G01*
X16486050Y-10137455D02*
G75*
G02*
X16406050Y-10137455I-40000J0D01*
G01*
X16406050Y-10137455D02*
G75*
G02*
X16486050Y-10137455I40000J0D01*
G01*
X16486050Y-11153455D02*
G75*
G02*
X16406050Y-11153455I-40000J0D01*
G01*
X16406050Y-11153455D02*
G75*
G02*
X16486050Y-11153455I40000J0D01*
G01*
X16832000Y-12746050D02*
G75*
G02*
X16752000Y-12746050I-40000J0D01*
G01*
X16752000Y-12746050D02*
G75*
G02*
X16832000Y-12746050I40000J0D01*
G01*
X16832000Y-13046050D02*
G75*
G02*
X16752000Y-13046050I-40000J0D01*
G01*
X16752000Y-13046050D02*
G75*
G02*
X16832000Y-13046050I40000J0D01*
G01*
X16890000Y-10142000D02*
G75*
G02*
X16810000Y-10142000I-40000J0D01*
G01*
X16810000Y-10142000D02*
G75*
G02*
X16890000Y-10142000I40000J0D01*
G01*
X16890000Y-11158000D02*
G75*
G02*
X16810000Y-11158000I-40000J0D01*
G01*
X16810000Y-11158000D02*
G75*
G02*
X16890000Y-11158000I40000J0D01*
G01*
X17290000Y-10142000D02*
G75*
G02*
X17210000Y-10142000I-40000J0D01*
G01*
X17210000Y-10142000D02*
G75*
G02*
X17290000Y-10142000I40000J0D01*
G01*
X17290000Y-11158000D02*
G75*
G02*
X17210000Y-11158000I-40000J0D01*
G01*
X17210000Y-11158000D02*
G75*
G02*
X17290000Y-11158000I40000J0D01*
G01*
X17848000Y-12746050D02*
G75*
G02*
X17768000Y-12746050I-40000J0D01*
G01*
X17768000Y-12746050D02*
G75*
G02*
X17848000Y-12746050I40000J0D01*
G01*
X17848000Y-13046050D02*
G75*
G02*
X17768000Y-13046050I-40000J0D01*
G01*
X17768000Y-13046050D02*
G75*
G02*
X17848000Y-13046050I40000J0D01*
G01*
X11100000Y-13250000D02*
X11100000Y-13350000D01*
X11050000Y-13300000D02*
X11150000Y-13300000D01*
X11250000Y-9450000D02*
X11250000Y-9550000D01*
X11200000Y-9500000D02*
X11300000Y-9500000D01*
X11250000Y-9704000D02*
X11250000Y-9804000D01*
X11200000Y-9754000D02*
X11300000Y-9754000D01*
X11350000Y-13750000D02*
X11350000Y-13850000D01*
X11300000Y-13800000D02*
X11400000Y-13800000D01*
X11600000Y-13250000D02*
X11600000Y-13350000D01*
X11550000Y-13300000D02*
X11650000Y-13300000D01*
X11646000Y-11750000D02*
X11646000Y-11850000D01*
X11596000Y-11800000D02*
X11696000Y-11800000D01*
X11646000Y-12004000D02*
X11646000Y-12104000D01*
X11596000Y-12054000D02*
X11696000Y-12054000D01*
X11646050Y-9450000D02*
X11646050Y-9550000D01*
X11596050Y-9500000D02*
X11696050Y-9500000D01*
X11646050Y-9704000D02*
X11646050Y-9804000D01*
X11596050Y-9754000D02*
X11696050Y-9754000D01*
X11900000Y-11750000D02*
X11900000Y-11850000D01*
X11850000Y-11800000D02*
X11950000Y-11800000D01*
X11900000Y-12004000D02*
X11900000Y-12104000D01*
X11850000Y-12054000D02*
X11950000Y-12054000D01*
X11960000Y-13050000D02*
X11960000Y-13150000D01*
X11910000Y-13100000D02*
X12010000Y-13100000D01*
X12050000Y-9450000D02*
X12050000Y-9550000D01*
X12000000Y-9500000D02*
X12100000Y-9500000D01*
X12050000Y-9704000D02*
X12050000Y-9804000D01*
X12000000Y-9754000D02*
X12100000Y-9754000D01*
X12154000Y-11750000D02*
X12154000Y-11850000D01*
X12104000Y-11800000D02*
X12204000Y-11800000D01*
X12154000Y-12004000D02*
X12154000Y-12104000D01*
X12104000Y-12054000D02*
X12204000Y-12054000D01*
X12214000Y-13050000D02*
X12214000Y-13150000D01*
X12164000Y-13100000D02*
X12264000Y-13100000D01*
X12408000Y-11750000D02*
X12408000Y-11850000D01*
X12358000Y-11800000D02*
X12458000Y-11800000D01*
X12408000Y-12004000D02*
X12408000Y-12104000D01*
X12358000Y-12054000D02*
X12458000Y-12054000D01*
X12440714Y-9450000D02*
X12440714Y-9550000D01*
X12390714Y-9500000D02*
X12490714Y-9500000D01*
X12440714Y-9704000D02*
X12440714Y-9804000D01*
X12390714Y-9754000D02*
X12490714Y-9754000D01*
X12468000Y-13050000D02*
X12468000Y-13150000D01*
X12418000Y-13100000D02*
X12518000Y-13100000D01*
X12662000Y-11750000D02*
X12662000Y-11850000D01*
X12612000Y-11800000D02*
X12712000Y-11800000D01*
X12662000Y-12004000D02*
X12662000Y-12104000D01*
X12612000Y-12054000D02*
X12712000Y-12054000D01*
X12722000Y-13050000D02*
X12722000Y-13150000D01*
X12672000Y-13100000D02*
X12772000Y-13100000D01*
X12850000Y-9450000D02*
X12850000Y-9550000D01*
X12800000Y-9500000D02*
X12900000Y-9500000D01*
X12850000Y-9704000D02*
X12850000Y-9804000D01*
X12800000Y-9754000D02*
X12900000Y-9754000D01*
X12916000Y-11750000D02*
X12916000Y-11850000D01*
X12866000Y-11800000D02*
X12966000Y-11800000D01*
X12916000Y-12004000D02*
X12916000Y-12104000D01*
X12866000Y-12054000D02*
X12966000Y-12054000D01*
X12976000Y-13050000D02*
X12976000Y-13150000D01*
X12926000Y-13100000D02*
X13026000Y-13100000D01*
X13170000Y-11750000D02*
X13170000Y-11850000D01*
X13120000Y-11800000D02*
X13220000Y-11800000D01*
X13170000Y-12004000D02*
X13170000Y-12104000D01*
X13120000Y-12054000D02*
X13220000Y-12054000D01*
X13230000Y-13050000D02*
X13230000Y-13150000D01*
X13180000Y-13100000D02*
X13280000Y-13100000D01*
X13250000Y-9450000D02*
X13250000Y-9550000D01*
X13200000Y-9500000D02*
X13300000Y-9500000D01*
X13250000Y-9704000D02*
X13250000Y-9804000D01*
X13200000Y-9754000D02*
X13300000Y-9754000D01*
X13424000Y-11750000D02*
X13424000Y-11850000D01*
X13374000Y-11800000D02*
X13474000Y-11800000D01*
X13424000Y-12004000D02*
X13424000Y-12104000D01*
X13374000Y-12054000D02*
X13474000Y-12054000D01*
X13484000Y-13050000D02*
X13484000Y-13150000D01*
X13434000Y-13100000D02*
X13534000Y-13100000D01*
X13650000Y-9450000D02*
X13650000Y-9550000D01*
X13600000Y-9500000D02*
X13700000Y-9500000D01*
X13650000Y-9704000D02*
X13650000Y-9804000D01*
X13600000Y-9754000D02*
X13700000Y-9754000D01*
X13678000Y-11750000D02*
X13678000Y-11850000D01*
X13628000Y-11800000D02*
X13728000Y-11800000D01*
X13678000Y-12004000D02*
X13678000Y-12104000D01*
X13628000Y-12054000D02*
X13728000Y-12054000D01*
X13738000Y-13050000D02*
X13738000Y-13150000D01*
X13688000Y-13100000D02*
X13788000Y-13100000D01*
X13932000Y-11750000D02*
X13932000Y-11850000D01*
X13882000Y-11800000D02*
X13982000Y-11800000D01*
X13932000Y-12004000D02*
X13932000Y-12104000D01*
X13882000Y-12054000D02*
X13982000Y-12054000D01*
X13992000Y-13050000D02*
X13992000Y-13150000D01*
X13942000Y-13100000D02*
X14042000Y-13100000D01*
X14050000Y-9450000D02*
X14050000Y-9550000D01*
X14000000Y-9500000D02*
X14100000Y-9500000D01*
X14050000Y-9704000D02*
X14050000Y-9804000D01*
X14000000Y-9754000D02*
X14100000Y-9754000D01*
X14186000Y-11750000D02*
X14186000Y-11850000D01*
X14136000Y-11800000D02*
X14236000Y-11800000D01*
X14186000Y-12004000D02*
X14186000Y-12104000D01*
X14136000Y-12054000D02*
X14236000Y-12054000D01*
X14246000Y-13050000D02*
X14246000Y-13150000D01*
X14196000Y-13100000D02*
X14296000Y-13100000D01*
X14440000Y-11750000D02*
X14440000Y-11850000D01*
X14390000Y-11800000D02*
X14490000Y-11800000D01*
X14440000Y-12004000D02*
X14440000Y-12104000D01*
X14390000Y-12054000D02*
X14490000Y-12054000D01*
X14450000Y-9450000D02*
X14450000Y-9550000D01*
X14400000Y-9500000D02*
X14500000Y-9500000D01*
X14450000Y-9704000D02*
X14450000Y-9804000D01*
X14400000Y-9754000D02*
X14500000Y-9754000D01*
X14500000Y-13050000D02*
X14500000Y-13150000D01*
X14450000Y-13100000D02*
X14550000Y-13100000D01*
X14694000Y-11750000D02*
X14694000Y-11850000D01*
X14644000Y-11800000D02*
X14744000Y-11800000D01*
X14694000Y-12004000D02*
X14694000Y-12104000D01*
X14644000Y-12054000D02*
X14744000Y-12054000D01*
X14754000Y-13050000D02*
X14754000Y-13150000D01*
X14704000Y-13100000D02*
X14804000Y-13100000D01*
X14850000Y-9450000D02*
X14850000Y-9550000D01*
X14800000Y-9500000D02*
X14900000Y-9500000D01*
X14850000Y-9704000D02*
X14850000Y-9804000D01*
X14800000Y-9754000D02*
X14900000Y-9754000D01*
X14948000Y-11750000D02*
X14948000Y-11850000D01*
X14898000Y-11800000D02*
X14998000Y-11800000D01*
X14948000Y-12004000D02*
X14948000Y-12104000D01*
X14898000Y-12054000D02*
X14998000Y-12054000D01*
X15008000Y-13050000D02*
X15008000Y-13150000D01*
X14958000Y-13100000D02*
X15058000Y-13100000D01*
X15202000Y-11750000D02*
X15202000Y-11850000D01*
X15152000Y-11800000D02*
X15252000Y-11800000D01*
X15202000Y-12004000D02*
X15202000Y-12104000D01*
X15152000Y-12054000D02*
X15252000Y-12054000D01*
X15250000Y-9450000D02*
X15250000Y-9550000D01*
X15200000Y-9500000D02*
X15300000Y-9500000D01*
X15250000Y-9704000D02*
X15250000Y-9804000D01*
X15200000Y-9754000D02*
X15300000Y-9754000D01*
X15262000Y-13050000D02*
X15262000Y-13150000D01*
X15212000Y-13100000D02*
X15312000Y-13100000D01*
X15446000Y-12600000D02*
X15446000Y-12700000D01*
X15396000Y-12650000D02*
X15496000Y-12650000D01*
X15456000Y-11750000D02*
X15456000Y-11850000D01*
X15406000Y-11800000D02*
X15506000Y-11800000D01*
X15456000Y-12004000D02*
X15456000Y-12104000D01*
X15406000Y-12054000D02*
X15506000Y-12054000D01*
X15516000Y-13050000D02*
X15516000Y-13150000D01*
X15466000Y-13100000D02*
X15566000Y-13100000D01*
X15650000Y-9450000D02*
X15650000Y-9550000D01*
X15600000Y-9500000D02*
X15700000Y-9500000D01*
X15650000Y-9704000D02*
X15650000Y-9804000D01*
X15600000Y-9754000D02*
X15700000Y-9754000D01*
X15700000Y-12600000D02*
X15700000Y-12700000D01*
X15650000Y-12650000D02*
X15750000Y-12650000D01*
X15710000Y-11750000D02*
X15710000Y-11850000D01*
X15660000Y-11800000D02*
X15760000Y-11800000D01*
X15710000Y-12004000D02*
X15710000Y-12104000D01*
X15660000Y-12054000D02*
X15760000Y-12054000D01*
X15770000Y-13050000D02*
X15770000Y-13150000D01*
X15720000Y-13100000D02*
X15820000Y-13100000D01*
X15954000Y-12600000D02*
X15954000Y-12700000D01*
X15904000Y-12650000D02*
X16004000Y-12650000D01*
X15964000Y-11750000D02*
X15964000Y-11850000D01*
X15914000Y-11800000D02*
X16014000Y-11800000D01*
X15964000Y-12004000D02*
X15964000Y-12104000D01*
X15914000Y-12054000D02*
X16014000Y-12054000D01*
X16050000Y-9450000D02*
X16050000Y-9550000D01*
X16000000Y-9500000D02*
X16100000Y-9500000D01*
X16050000Y-9704000D02*
X16050000Y-9804000D01*
X16000000Y-9754000D02*
X16100000Y-9754000D01*
X16218000Y-11750000D02*
X16218000Y-11850000D01*
X16168000Y-11800000D02*
X16268000Y-11800000D01*
X16218000Y-12004000D02*
X16218000Y-12104000D01*
X16168000Y-12054000D02*
X16268000Y-12054000D01*
X16445476Y-9450000D02*
X16445476Y-9550000D01*
X16395476Y-9500000D02*
X16495476Y-9500000D01*
X16445476Y-9704000D02*
X16445476Y-9804000D01*
X16395476Y-9754000D02*
X16495476Y-9754000D01*
X16472000Y-11750000D02*
X16472000Y-11850000D01*
X16422000Y-11800000D02*
X16522000Y-11800000D01*
X16472000Y-12004000D02*
X16472000Y-12104000D01*
X16422000Y-12054000D02*
X16522000Y-12054000D01*
X16850000Y-9450000D02*
X16850000Y-9550000D01*
X16800000Y-9500000D02*
X16900000Y-9500000D01*
X16850000Y-9704000D02*
X16850000Y-9804000D01*
X16800000Y-9754000D02*
X16900000Y-9754000D01*
X17000000Y-13300000D02*
X17000000Y-13400000D01*
X16950000Y-13350000D02*
X17050000Y-13350000D01*
X17000000Y-13800000D02*
X17000000Y-13900000D01*
X16950000Y-13850000D02*
X17050000Y-13850000D01*
X17250000Y-9450000D02*
X17250000Y-9550000D01*
X17200000Y-9500000D02*
X17300000Y-9500000D01*
X17250000Y-9704000D02*
X17250000Y-9804000D01*
X17200000Y-9754000D02*
X17300000Y-9754000D01*
X17500000Y-13550000D02*
X17500000Y-13650000D01*
X17450000Y-13600000D02*
X17550000Y-13600000D01*
D13*
X11063389Y-9038389D02*
X11063389Y-8861611D01*
X10886611Y-8861611D01*
X10886611Y-9038389D01*
X11063389Y-9038389D01*
X11063389Y-12313389D02*
X11063389Y-12136611D01*
X10886611Y-12136611D01*
X10886611Y-12313389D01*
X11063389Y-12313389D01*
X17713389Y-9038389D02*
X17713389Y-8861611D01*
X17536611Y-8861611D01*
X17536611Y-9038389D01*
X17713389Y-9038389D01*
X17713389Y-12313389D02*
X17713389Y-12136611D01*
X17536611Y-12136611D01*
X17536611Y-12313389D01*
X17713389Y-12313389D01*
D11*
X10908277Y-14488984D02*
X10908277Y-14288984D01*
X10908277Y-14288984D02*
X10955896Y-14288984D01*
X10955896Y-14288984D02*
X10984467Y-14298508D01*
X10984467Y-14298508D02*
X11003515Y-14317555D01*
X11003515Y-14317555D02*
X11013039Y-14336603D01*
X11013039Y-14336603D02*
X11022563Y-14374698D01*
X11022563Y-14374698D02*
X11022563Y-14403269D01*
X11022563Y-14403269D02*
X11013039Y-14441365D01*
X11013039Y-14441365D02*
X11003515Y-14460412D01*
X11003515Y-14460412D02*
X10984467Y-14479460D01*
X10984467Y-14479460D02*
X10955896Y-14488984D01*
X10955896Y-14488984D02*
X10908277Y-14488984D01*
X11108277Y-14488984D02*
X11108277Y-14355650D01*
X11108277Y-14393746D02*
X11117801Y-14374698D01*
X11117801Y-14374698D02*
X11127324Y-14365174D01*
X11127324Y-14365174D02*
X11146372Y-14355650D01*
X11146372Y-14355650D02*
X11165420Y-14355650D01*
X11232086Y-14488984D02*
X11232086Y-14355650D01*
X11232086Y-14288984D02*
X11222562Y-14298508D01*
X11222562Y-14298508D02*
X11232086Y-14308031D01*
X11232086Y-14308031D02*
X11241610Y-14298508D01*
X11241610Y-14298508D02*
X11232086Y-14288984D01*
X11232086Y-14288984D02*
X11232086Y-14308031D01*
X11355896Y-14488984D02*
X11336848Y-14479460D01*
X11336848Y-14479460D02*
X11327324Y-14460412D01*
X11327324Y-14460412D02*
X11327324Y-14288984D01*
X11460658Y-14488984D02*
X11441610Y-14479460D01*
X11441610Y-14479460D02*
X11432086Y-14460412D01*
X11432086Y-14460412D02*
X11432086Y-14288984D01*
X11689229Y-14488984D02*
X11689229Y-14288984D01*
X11689229Y-14288984D02*
X11755896Y-14431841D01*
X11755896Y-14431841D02*
X11822562Y-14288984D01*
X11822562Y-14288984D02*
X11822562Y-14488984D01*
X12003515Y-14488984D02*
X12003515Y-14384222D01*
X12003515Y-14384222D02*
X11993991Y-14365174D01*
X11993991Y-14365174D02*
X11974943Y-14355650D01*
X11974943Y-14355650D02*
X11936848Y-14355650D01*
X11936848Y-14355650D02*
X11917801Y-14365174D01*
X12003515Y-14479460D02*
X11984467Y-14488984D01*
X11984467Y-14488984D02*
X11936848Y-14488984D01*
X11936848Y-14488984D02*
X11917801Y-14479460D01*
X11917801Y-14479460D02*
X11908277Y-14460412D01*
X11908277Y-14460412D02*
X11908277Y-14441365D01*
X11908277Y-14441365D02*
X11917801Y-14422317D01*
X11917801Y-14422317D02*
X11936848Y-14412793D01*
X11936848Y-14412793D02*
X11984467Y-14412793D01*
X11984467Y-14412793D02*
X12003515Y-14403269D01*
X12098753Y-14355650D02*
X12098753Y-14555650D01*
X12098753Y-14365174D02*
X12117801Y-14355650D01*
X12117801Y-14355650D02*
X12155896Y-14355650D01*
X12155896Y-14355650D02*
X12174943Y-14365174D01*
X12174943Y-14365174D02*
X12184467Y-14374698D01*
X12184467Y-14374698D02*
X12193991Y-14393746D01*
X12193991Y-14393746D02*
X12193991Y-14450888D01*
X12193991Y-14450888D02*
X12184467Y-14469936D01*
X12184467Y-14469936D02*
X12174943Y-14479460D01*
X12174943Y-14479460D02*
X12155896Y-14488984D01*
X12155896Y-14488984D02*
X12117801Y-14488984D01*
X12117801Y-14488984D02*
X12098753Y-14479460D01*
X12279705Y-14469936D02*
X12289229Y-14479460D01*
X12289229Y-14479460D02*
X12279705Y-14488984D01*
X12279705Y-14488984D02*
X12270182Y-14479460D01*
X12270182Y-14479460D02*
X12279705Y-14469936D01*
X12279705Y-14469936D02*
X12279705Y-14488984D01*
X12279705Y-14365174D02*
X12289229Y-14374698D01*
X12289229Y-14374698D02*
X12279705Y-14384222D01*
X12279705Y-14384222D02*
X12270182Y-14374698D01*
X12270182Y-14374698D02*
X12279705Y-14365174D01*
X12279705Y-14365174D02*
X12279705Y-14384222D01*
D12*
X10572500Y-14780000D02*
X10647500Y-14855000D01*
X10647500Y-14780000D02*
X10572500Y-14855000D01*
D11*
X10946372Y-14708984D02*
X10965420Y-14708984D01*
X10965420Y-14708984D02*
X10984467Y-14718508D01*
X10984467Y-14718508D02*
X10993991Y-14728031D01*
X10993991Y-14728031D02*
X11003515Y-14747079D01*
X11003515Y-14747079D02*
X11013039Y-14785174D01*
X11013039Y-14785174D02*
X11013039Y-14832793D01*
X11013039Y-14832793D02*
X11003515Y-14870888D01*
X11003515Y-14870888D02*
X10993991Y-14889936D01*
X10993991Y-14889936D02*
X10984467Y-14899460D01*
X10984467Y-14899460D02*
X10965420Y-14908984D01*
X10965420Y-14908984D02*
X10946372Y-14908984D01*
X10946372Y-14908984D02*
X10927324Y-14899460D01*
X10927324Y-14899460D02*
X10917801Y-14889936D01*
X10917801Y-14889936D02*
X10908277Y-14870888D01*
X10908277Y-14870888D02*
X10898753Y-14832793D01*
X10898753Y-14832793D02*
X10898753Y-14785174D01*
X10898753Y-14785174D02*
X10908277Y-14747079D01*
X10908277Y-14747079D02*
X10917801Y-14728031D01*
X10917801Y-14728031D02*
X10927324Y-14718508D01*
X10927324Y-14718508D02*
X10946372Y-14708984D01*
X11098753Y-14889936D02*
X11108277Y-14899460D01*
X11108277Y-14899460D02*
X11098753Y-14908984D01*
X11098753Y-14908984D02*
X11089229Y-14899460D01*
X11089229Y-14899460D02*
X11098753Y-14889936D01*
X11098753Y-14889936D02*
X11098753Y-14908984D01*
X11174944Y-14708984D02*
X11308277Y-14708984D01*
X11308277Y-14708984D02*
X11222562Y-14908984D01*
X11479705Y-14708984D02*
X11384467Y-14708984D01*
X11384467Y-14708984D02*
X11374943Y-14804222D01*
X11374943Y-14804222D02*
X11384467Y-14794698D01*
X11384467Y-14794698D02*
X11403515Y-14785174D01*
X11403515Y-14785174D02*
X11451134Y-14785174D01*
X11451134Y-14785174D02*
X11470182Y-14794698D01*
X11470182Y-14794698D02*
X11479705Y-14804222D01*
X11479705Y-14804222D02*
X11489229Y-14823269D01*
X11489229Y-14823269D02*
X11489229Y-14870888D01*
X11489229Y-14870888D02*
X11479705Y-14889936D01*
X11479705Y-14889936D02*
X11470182Y-14899460D01*
X11470182Y-14899460D02*
X11451134Y-14908984D01*
X11451134Y-14908984D02*
X11403515Y-14908984D01*
X11403515Y-14908984D02*
X11384467Y-14899460D01*
X11384467Y-14899460D02*
X11374943Y-14889936D01*
X11613039Y-14708984D02*
X11632086Y-14708984D01*
X11632086Y-14708984D02*
X11651134Y-14718508D01*
X11651134Y-14718508D02*
X11660658Y-14728031D01*
X11660658Y-14728031D02*
X11670182Y-14747079D01*
X11670182Y-14747079D02*
X11679705Y-14785174D01*
X11679705Y-14785174D02*
X11679705Y-14832793D01*
X11679705Y-14832793D02*
X11670182Y-14870888D01*
X11670182Y-14870888D02*
X11660658Y-14889936D01*
X11660658Y-14889936D02*
X11651134Y-14899460D01*
X11651134Y-14899460D02*
X11632086Y-14908984D01*
X11632086Y-14908984D02*
X11613039Y-14908984D01*
X11613039Y-14908984D02*
X11593991Y-14899460D01*
X11593991Y-14899460D02*
X11584467Y-14889936D01*
X11584467Y-14889936D02*
X11574943Y-14870888D01*
X11574943Y-14870888D02*
X11565420Y-14832793D01*
X11565420Y-14832793D02*
X11565420Y-14785174D01*
X11565420Y-14785174D02*
X11574943Y-14747079D01*
X11574943Y-14747079D02*
X11584467Y-14728031D01*
X11584467Y-14728031D02*
X11593991Y-14718508D01*
X11593991Y-14718508D02*
X11613039Y-14708984D01*
X11765420Y-14908984D02*
X11765420Y-14775650D01*
X11765420Y-14794698D02*
X11774943Y-14785174D01*
X11774943Y-14785174D02*
X11793991Y-14775650D01*
X11793991Y-14775650D02*
X11822563Y-14775650D01*
X11822563Y-14775650D02*
X11841610Y-14785174D01*
X11841610Y-14785174D02*
X11851134Y-14804222D01*
X11851134Y-14804222D02*
X11851134Y-14908984D01*
X11851134Y-14804222D02*
X11860658Y-14785174D01*
X11860658Y-14785174D02*
X11879705Y-14775650D01*
X11879705Y-14775650D02*
X11908277Y-14775650D01*
X11908277Y-14775650D02*
X11927324Y-14785174D01*
X11927324Y-14785174D02*
X11936848Y-14804222D01*
X11936848Y-14804222D02*
X11936848Y-14908984D01*
X12032086Y-14908984D02*
X12032086Y-14775650D01*
X12032086Y-14794698D02*
X12041610Y-14785174D01*
X12041610Y-14785174D02*
X12060658Y-14775650D01*
X12060658Y-14775650D02*
X12089229Y-14775650D01*
X12089229Y-14775650D02*
X12108277Y-14785174D01*
X12108277Y-14785174D02*
X12117801Y-14804222D01*
X12117801Y-14804222D02*
X12117801Y-14908984D01*
X12117801Y-14804222D02*
X12127324Y-14785174D01*
X12127324Y-14785174D02*
X12146372Y-14775650D01*
X12146372Y-14775650D02*
X12174943Y-14775650D01*
X12174943Y-14775650D02*
X12193991Y-14785174D01*
X12193991Y-14785174D02*
X12203515Y-14804222D01*
X12203515Y-14804222D02*
X12203515Y-14908984D01*
X12593991Y-14699460D02*
X12422563Y-14956603D01*
X12851134Y-14708984D02*
X12870182Y-14708984D01*
X12870182Y-14708984D02*
X12889229Y-14718508D01*
X12889229Y-14718508D02*
X12898753Y-14728031D01*
X12898753Y-14728031D02*
X12908277Y-14747079D01*
X12908277Y-14747079D02*
X12917801Y-14785174D01*
X12917801Y-14785174D02*
X12917801Y-14832793D01*
X12917801Y-14832793D02*
X12908277Y-14870888D01*
X12908277Y-14870888D02*
X12898753Y-14889936D01*
X12898753Y-14889936D02*
X12889229Y-14899460D01*
X12889229Y-14899460D02*
X12870182Y-14908984D01*
X12870182Y-14908984D02*
X12851134Y-14908984D01*
X12851134Y-14908984D02*
X12832086Y-14899460D01*
X12832086Y-14899460D02*
X12822563Y-14889936D01*
X12822563Y-14889936D02*
X12813039Y-14870888D01*
X12813039Y-14870888D02*
X12803515Y-14832793D01*
X12803515Y-14832793D02*
X12803515Y-14785174D01*
X12803515Y-14785174D02*
X12813039Y-14747079D01*
X12813039Y-14747079D02*
X12822563Y-14728031D01*
X12822563Y-14728031D02*
X12832086Y-14718508D01*
X12832086Y-14718508D02*
X12851134Y-14708984D01*
X13003515Y-14889936D02*
X13013039Y-14899460D01*
X13013039Y-14899460D02*
X13003515Y-14908984D01*
X13003515Y-14908984D02*
X12993991Y-14899460D01*
X12993991Y-14899460D02*
X13003515Y-14889936D01*
X13003515Y-14889936D02*
X13003515Y-14908984D01*
X13136848Y-14708984D02*
X13155896Y-14708984D01*
X13155896Y-14708984D02*
X13174944Y-14718508D01*
X13174944Y-14718508D02*
X13184467Y-14728031D01*
X13184467Y-14728031D02*
X13193991Y-14747079D01*
X13193991Y-14747079D02*
X13203515Y-14785174D01*
X13203515Y-14785174D02*
X13203515Y-14832793D01*
X13203515Y-14832793D02*
X13193991Y-14870888D01*
X13193991Y-14870888D02*
X13184467Y-14889936D01*
X13184467Y-14889936D02*
X13174944Y-14899460D01*
X13174944Y-14899460D02*
X13155896Y-14908984D01*
X13155896Y-14908984D02*
X13136848Y-14908984D01*
X13136848Y-14908984D02*
X13117801Y-14899460D01*
X13117801Y-14899460D02*
X13108277Y-14889936D01*
X13108277Y-14889936D02*
X13098753Y-14870888D01*
X13098753Y-14870888D02*
X13089229Y-14832793D01*
X13089229Y-14832793D02*
X13089229Y-14785174D01*
X13089229Y-14785174D02*
X13098753Y-14747079D01*
X13098753Y-14747079D02*
X13108277Y-14728031D01*
X13108277Y-14728031D02*
X13117801Y-14718508D01*
X13117801Y-14718508D02*
X13136848Y-14708984D01*
X13279706Y-14728031D02*
X13289229Y-14718508D01*
X13289229Y-14718508D02*
X13308277Y-14708984D01*
X13308277Y-14708984D02*
X13355896Y-14708984D01*
X13355896Y-14708984D02*
X13374944Y-14718508D01*
X13374944Y-14718508D02*
X13384467Y-14728031D01*
X13384467Y-14728031D02*
X13393991Y-14747079D01*
X13393991Y-14747079D02*
X13393991Y-14766127D01*
X13393991Y-14766127D02*
X13384467Y-14794698D01*
X13384467Y-14794698D02*
X13270182Y-14908984D01*
X13270182Y-14908984D02*
X13393991Y-14908984D01*
X13489229Y-14908984D02*
X13527325Y-14908984D01*
X13527325Y-14908984D02*
X13546372Y-14899460D01*
X13546372Y-14899460D02*
X13555896Y-14889936D01*
X13555896Y-14889936D02*
X13574944Y-14861365D01*
X13574944Y-14861365D02*
X13584467Y-14823269D01*
X13584467Y-14823269D02*
X13584467Y-14747079D01*
X13584467Y-14747079D02*
X13574944Y-14728031D01*
X13574944Y-14728031D02*
X13565420Y-14718508D01*
X13565420Y-14718508D02*
X13546372Y-14708984D01*
X13546372Y-14708984D02*
X13508277Y-14708984D01*
X13508277Y-14708984D02*
X13489229Y-14718508D01*
X13489229Y-14718508D02*
X13479706Y-14728031D01*
X13479706Y-14728031D02*
X13470182Y-14747079D01*
X13470182Y-14747079D02*
X13470182Y-14794698D01*
X13470182Y-14794698D02*
X13479706Y-14813746D01*
X13479706Y-14813746D02*
X13489229Y-14823269D01*
X13489229Y-14823269D02*
X13508277Y-14832793D01*
X13508277Y-14832793D02*
X13546372Y-14832793D01*
X13546372Y-14832793D02*
X13565420Y-14823269D01*
X13565420Y-14823269D02*
X13574944Y-14813746D01*
X13574944Y-14813746D02*
X13584467Y-14794698D01*
X13765420Y-14708984D02*
X13670182Y-14708984D01*
X13670182Y-14708984D02*
X13660658Y-14804222D01*
X13660658Y-14804222D02*
X13670182Y-14794698D01*
X13670182Y-14794698D02*
X13689229Y-14785174D01*
X13689229Y-14785174D02*
X13736848Y-14785174D01*
X13736848Y-14785174D02*
X13755896Y-14794698D01*
X13755896Y-14794698D02*
X13765420Y-14804222D01*
X13765420Y-14804222D02*
X13774944Y-14823269D01*
X13774944Y-14823269D02*
X13774944Y-14870888D01*
X13774944Y-14870888D02*
X13765420Y-14889936D01*
X13765420Y-14889936D02*
X13755896Y-14899460D01*
X13755896Y-14899460D02*
X13736848Y-14908984D01*
X13736848Y-14908984D02*
X13689229Y-14908984D01*
X13689229Y-14908984D02*
X13670182Y-14899460D01*
X13670182Y-14899460D02*
X13660658Y-14889936D01*
X13851134Y-14708984D02*
X13851134Y-14747079D01*
X13927325Y-14708984D02*
X13927325Y-14747079D01*
X14222563Y-14985174D02*
X14213039Y-14975650D01*
X14213039Y-14975650D02*
X14193991Y-14947079D01*
X14193991Y-14947079D02*
X14184468Y-14928031D01*
X14184468Y-14928031D02*
X14174944Y-14899460D01*
X14174944Y-14899460D02*
X14165420Y-14851841D01*
X14165420Y-14851841D02*
X14165420Y-14813746D01*
X14165420Y-14813746D02*
X14174944Y-14766127D01*
X14174944Y-14766127D02*
X14184468Y-14737555D01*
X14184468Y-14737555D02*
X14193991Y-14718508D01*
X14193991Y-14718508D02*
X14213039Y-14689936D01*
X14213039Y-14689936D02*
X14222563Y-14680412D01*
X14279706Y-14708984D02*
X14403515Y-14708984D01*
X14403515Y-14708984D02*
X14336848Y-14785174D01*
X14336848Y-14785174D02*
X14365420Y-14785174D01*
X14365420Y-14785174D02*
X14384468Y-14794698D01*
X14384468Y-14794698D02*
X14393991Y-14804222D01*
X14393991Y-14804222D02*
X14403515Y-14823269D01*
X14403515Y-14823269D02*
X14403515Y-14870888D01*
X14403515Y-14870888D02*
X14393991Y-14889936D01*
X14393991Y-14889936D02*
X14384468Y-14899460D01*
X14384468Y-14899460D02*
X14365420Y-14908984D01*
X14365420Y-14908984D02*
X14308277Y-14908984D01*
X14308277Y-14908984D02*
X14289229Y-14899460D01*
X14289229Y-14899460D02*
X14279706Y-14889936D01*
X14641610Y-14908984D02*
X14641610Y-14708984D01*
X14727325Y-14908984D02*
X14727325Y-14804222D01*
X14727325Y-14804222D02*
X14717801Y-14785174D01*
X14717801Y-14785174D02*
X14698753Y-14775650D01*
X14698753Y-14775650D02*
X14670182Y-14775650D01*
X14670182Y-14775650D02*
X14651134Y-14785174D01*
X14651134Y-14785174D02*
X14641610Y-14794698D01*
X14851134Y-14908984D02*
X14832087Y-14899460D01*
X14832087Y-14899460D02*
X14822563Y-14889936D01*
X14822563Y-14889936D02*
X14813039Y-14870888D01*
X14813039Y-14870888D02*
X14813039Y-14813746D01*
X14813039Y-14813746D02*
X14822563Y-14794698D01*
X14822563Y-14794698D02*
X14832087Y-14785174D01*
X14832087Y-14785174D02*
X14851134Y-14775650D01*
X14851134Y-14775650D02*
X14879706Y-14775650D01*
X14879706Y-14775650D02*
X14898753Y-14785174D01*
X14898753Y-14785174D02*
X14908277Y-14794698D01*
X14908277Y-14794698D02*
X14917801Y-14813746D01*
X14917801Y-14813746D02*
X14917801Y-14870888D01*
X14917801Y-14870888D02*
X14908277Y-14889936D01*
X14908277Y-14889936D02*
X14898753Y-14899460D01*
X14898753Y-14899460D02*
X14879706Y-14908984D01*
X14879706Y-14908984D02*
X14851134Y-14908984D01*
X15032087Y-14908984D02*
X15013039Y-14899460D01*
X15013039Y-14899460D02*
X15003515Y-14880412D01*
X15003515Y-14880412D02*
X15003515Y-14708984D01*
X15184468Y-14899460D02*
X15165420Y-14908984D01*
X15165420Y-14908984D02*
X15127325Y-14908984D01*
X15127325Y-14908984D02*
X15108277Y-14899460D01*
X15108277Y-14899460D02*
X15098753Y-14880412D01*
X15098753Y-14880412D02*
X15098753Y-14804222D01*
X15098753Y-14804222D02*
X15108277Y-14785174D01*
X15108277Y-14785174D02*
X15127325Y-14775650D01*
X15127325Y-14775650D02*
X15165420Y-14775650D01*
X15165420Y-14775650D02*
X15184468Y-14785174D01*
X15184468Y-14785174D02*
X15193991Y-14804222D01*
X15193991Y-14804222D02*
X15193991Y-14823269D01*
X15193991Y-14823269D02*
X15098753Y-14842317D01*
X15270182Y-14899460D02*
X15289230Y-14908984D01*
X15289230Y-14908984D02*
X15327325Y-14908984D01*
X15327325Y-14908984D02*
X15346372Y-14899460D01*
X15346372Y-14899460D02*
X15355896Y-14880412D01*
X15355896Y-14880412D02*
X15355896Y-14870888D01*
X15355896Y-14870888D02*
X15346372Y-14851841D01*
X15346372Y-14851841D02*
X15327325Y-14842317D01*
X15327325Y-14842317D02*
X15298753Y-14842317D01*
X15298753Y-14842317D02*
X15279706Y-14832793D01*
X15279706Y-14832793D02*
X15270182Y-14813746D01*
X15270182Y-14813746D02*
X15270182Y-14804222D01*
X15270182Y-14804222D02*
X15279706Y-14785174D01*
X15279706Y-14785174D02*
X15298753Y-14775650D01*
X15298753Y-14775650D02*
X15327325Y-14775650D01*
X15327325Y-14775650D02*
X15346372Y-14785174D01*
X15422563Y-14985174D02*
X15432087Y-14975650D01*
X15432087Y-14975650D02*
X15451134Y-14947079D01*
X15451134Y-14947079D02*
X15460658Y-14928031D01*
X15460658Y-14928031D02*
X15470182Y-14899460D01*
X15470182Y-14899460D02*
X15479706Y-14851841D01*
X15479706Y-14851841D02*
X15479706Y-14813746D01*
X15479706Y-14813746D02*
X15470182Y-14766127D01*
X15470182Y-14766127D02*
X15460658Y-14737555D01*
X15460658Y-14737555D02*
X15451134Y-14718508D01*
X15451134Y-14718508D02*
X15432087Y-14689936D01*
X15432087Y-14689936D02*
X15422563Y-14680412D01*
D12*
X10647500Y-15081500D02*
G75*
G02*
X10567500Y-15081500I-40000J0D01*
G01*
X10567500Y-15081500D02*
G75*
G02*
X10647500Y-15081500I40000J0D01*
G01*
D11*
X10946372Y-14972984D02*
X10965420Y-14972984D01*
X10965420Y-14972984D02*
X10984467Y-14982508D01*
X10984467Y-14982508D02*
X10993991Y-14992031D01*
X10993991Y-14992031D02*
X11003515Y-15011079D01*
X11003515Y-15011079D02*
X11013039Y-15049174D01*
X11013039Y-15049174D02*
X11013039Y-15096793D01*
X11013039Y-15096793D02*
X11003515Y-15134888D01*
X11003515Y-15134888D02*
X10993991Y-15153936D01*
X10993991Y-15153936D02*
X10984467Y-15163460D01*
X10984467Y-15163460D02*
X10965420Y-15172984D01*
X10965420Y-15172984D02*
X10946372Y-15172984D01*
X10946372Y-15172984D02*
X10927324Y-15163460D01*
X10927324Y-15163460D02*
X10917801Y-15153936D01*
X10917801Y-15153936D02*
X10908277Y-15134888D01*
X10908277Y-15134888D02*
X10898753Y-15096793D01*
X10898753Y-15096793D02*
X10898753Y-15049174D01*
X10898753Y-15049174D02*
X10908277Y-15011079D01*
X10908277Y-15011079D02*
X10917801Y-14992031D01*
X10917801Y-14992031D02*
X10927324Y-14982508D01*
X10927324Y-14982508D02*
X10946372Y-14972984D01*
X11098753Y-15153936D02*
X11108277Y-15163460D01*
X11108277Y-15163460D02*
X11098753Y-15172984D01*
X11098753Y-15172984D02*
X11089229Y-15163460D01*
X11089229Y-15163460D02*
X11098753Y-15153936D01*
X11098753Y-15153936D02*
X11098753Y-15172984D01*
X11222562Y-15058698D02*
X11203515Y-15049174D01*
X11203515Y-15049174D02*
X11193991Y-15039650D01*
X11193991Y-15039650D02*
X11184467Y-15020603D01*
X11184467Y-15020603D02*
X11184467Y-15011079D01*
X11184467Y-15011079D02*
X11193991Y-14992031D01*
X11193991Y-14992031D02*
X11203515Y-14982508D01*
X11203515Y-14982508D02*
X11222562Y-14972984D01*
X11222562Y-14972984D02*
X11260658Y-14972984D01*
X11260658Y-14972984D02*
X11279705Y-14982508D01*
X11279705Y-14982508D02*
X11289229Y-14992031D01*
X11289229Y-14992031D02*
X11298753Y-15011079D01*
X11298753Y-15011079D02*
X11298753Y-15020603D01*
X11298753Y-15020603D02*
X11289229Y-15039650D01*
X11289229Y-15039650D02*
X11279705Y-15049174D01*
X11279705Y-15049174D02*
X11260658Y-15058698D01*
X11260658Y-15058698D02*
X11222562Y-15058698D01*
X11222562Y-15058698D02*
X11203515Y-15068222D01*
X11203515Y-15068222D02*
X11193991Y-15077746D01*
X11193991Y-15077746D02*
X11184467Y-15096793D01*
X11184467Y-15096793D02*
X11184467Y-15134888D01*
X11184467Y-15134888D02*
X11193991Y-15153936D01*
X11193991Y-15153936D02*
X11203515Y-15163460D01*
X11203515Y-15163460D02*
X11222562Y-15172984D01*
X11222562Y-15172984D02*
X11260658Y-15172984D01*
X11260658Y-15172984D02*
X11279705Y-15163460D01*
X11279705Y-15163460D02*
X11289229Y-15153936D01*
X11289229Y-15153936D02*
X11298753Y-15134888D01*
X11298753Y-15134888D02*
X11298753Y-15096793D01*
X11298753Y-15096793D02*
X11289229Y-15077746D01*
X11289229Y-15077746D02*
X11279705Y-15068222D01*
X11279705Y-15068222D02*
X11260658Y-15058698D01*
X11422562Y-14972984D02*
X11441610Y-14972984D01*
X11441610Y-14972984D02*
X11460658Y-14982508D01*
X11460658Y-14982508D02*
X11470182Y-14992031D01*
X11470182Y-14992031D02*
X11479705Y-15011079D01*
X11479705Y-15011079D02*
X11489229Y-15049174D01*
X11489229Y-15049174D02*
X11489229Y-15096793D01*
X11489229Y-15096793D02*
X11479705Y-15134888D01*
X11479705Y-15134888D02*
X11470182Y-15153936D01*
X11470182Y-15153936D02*
X11460658Y-15163460D01*
X11460658Y-15163460D02*
X11441610Y-15172984D01*
X11441610Y-15172984D02*
X11422562Y-15172984D01*
X11422562Y-15172984D02*
X11403515Y-15163460D01*
X11403515Y-15163460D02*
X11393991Y-15153936D01*
X11393991Y-15153936D02*
X11384467Y-15134888D01*
X11384467Y-15134888D02*
X11374943Y-15096793D01*
X11374943Y-15096793D02*
X11374943Y-15049174D01*
X11374943Y-15049174D02*
X11384467Y-15011079D01*
X11384467Y-15011079D02*
X11393991Y-14992031D01*
X11393991Y-14992031D02*
X11403515Y-14982508D01*
X11403515Y-14982508D02*
X11422562Y-14972984D01*
X11613039Y-14972984D02*
X11632086Y-14972984D01*
X11632086Y-14972984D02*
X11651134Y-14982508D01*
X11651134Y-14982508D02*
X11660658Y-14992031D01*
X11660658Y-14992031D02*
X11670182Y-15011079D01*
X11670182Y-15011079D02*
X11679705Y-15049174D01*
X11679705Y-15049174D02*
X11679705Y-15096793D01*
X11679705Y-15096793D02*
X11670182Y-15134888D01*
X11670182Y-15134888D02*
X11660658Y-15153936D01*
X11660658Y-15153936D02*
X11651134Y-15163460D01*
X11651134Y-15163460D02*
X11632086Y-15172984D01*
X11632086Y-15172984D02*
X11613039Y-15172984D01*
X11613039Y-15172984D02*
X11593991Y-15163460D01*
X11593991Y-15163460D02*
X11584467Y-15153936D01*
X11584467Y-15153936D02*
X11574943Y-15134888D01*
X11574943Y-15134888D02*
X11565420Y-15096793D01*
X11565420Y-15096793D02*
X11565420Y-15049174D01*
X11565420Y-15049174D02*
X11574943Y-15011079D01*
X11574943Y-15011079D02*
X11584467Y-14992031D01*
X11584467Y-14992031D02*
X11593991Y-14982508D01*
X11593991Y-14982508D02*
X11613039Y-14972984D01*
X11765420Y-15172984D02*
X11765420Y-15039650D01*
X11765420Y-15058698D02*
X11774943Y-15049174D01*
X11774943Y-15049174D02*
X11793991Y-15039650D01*
X11793991Y-15039650D02*
X11822563Y-15039650D01*
X11822563Y-15039650D02*
X11841610Y-15049174D01*
X11841610Y-15049174D02*
X11851134Y-15068222D01*
X11851134Y-15068222D02*
X11851134Y-15172984D01*
X11851134Y-15068222D02*
X11860658Y-15049174D01*
X11860658Y-15049174D02*
X11879705Y-15039650D01*
X11879705Y-15039650D02*
X11908277Y-15039650D01*
X11908277Y-15039650D02*
X11927324Y-15049174D01*
X11927324Y-15049174D02*
X11936848Y-15068222D01*
X11936848Y-15068222D02*
X11936848Y-15172984D01*
X12032086Y-15172984D02*
X12032086Y-15039650D01*
X12032086Y-15058698D02*
X12041610Y-15049174D01*
X12041610Y-15049174D02*
X12060658Y-15039650D01*
X12060658Y-15039650D02*
X12089229Y-15039650D01*
X12089229Y-15039650D02*
X12108277Y-15049174D01*
X12108277Y-15049174D02*
X12117801Y-15068222D01*
X12117801Y-15068222D02*
X12117801Y-15172984D01*
X12117801Y-15068222D02*
X12127324Y-15049174D01*
X12127324Y-15049174D02*
X12146372Y-15039650D01*
X12146372Y-15039650D02*
X12174943Y-15039650D01*
X12174943Y-15039650D02*
X12193991Y-15049174D01*
X12193991Y-15049174D02*
X12203515Y-15068222D01*
X12203515Y-15068222D02*
X12203515Y-15172984D01*
X12593991Y-14963460D02*
X12422563Y-15220603D01*
X12851134Y-14972984D02*
X12870182Y-14972984D01*
X12870182Y-14972984D02*
X12889229Y-14982508D01*
X12889229Y-14982508D02*
X12898753Y-14992031D01*
X12898753Y-14992031D02*
X12908277Y-15011079D01*
X12908277Y-15011079D02*
X12917801Y-15049174D01*
X12917801Y-15049174D02*
X12917801Y-15096793D01*
X12917801Y-15096793D02*
X12908277Y-15134888D01*
X12908277Y-15134888D02*
X12898753Y-15153936D01*
X12898753Y-15153936D02*
X12889229Y-15163460D01*
X12889229Y-15163460D02*
X12870182Y-15172984D01*
X12870182Y-15172984D02*
X12851134Y-15172984D01*
X12851134Y-15172984D02*
X12832086Y-15163460D01*
X12832086Y-15163460D02*
X12822563Y-15153936D01*
X12822563Y-15153936D02*
X12813039Y-15134888D01*
X12813039Y-15134888D02*
X12803515Y-15096793D01*
X12803515Y-15096793D02*
X12803515Y-15049174D01*
X12803515Y-15049174D02*
X12813039Y-15011079D01*
X12813039Y-15011079D02*
X12822563Y-14992031D01*
X12822563Y-14992031D02*
X12832086Y-14982508D01*
X12832086Y-14982508D02*
X12851134Y-14972984D01*
X13003515Y-15153936D02*
X13013039Y-15163460D01*
X13013039Y-15163460D02*
X13003515Y-15172984D01*
X13003515Y-15172984D02*
X12993991Y-15163460D01*
X12993991Y-15163460D02*
X13003515Y-15153936D01*
X13003515Y-15153936D02*
X13003515Y-15172984D01*
X13136848Y-14972984D02*
X13155896Y-14972984D01*
X13155896Y-14972984D02*
X13174944Y-14982508D01*
X13174944Y-14982508D02*
X13184467Y-14992031D01*
X13184467Y-14992031D02*
X13193991Y-15011079D01*
X13193991Y-15011079D02*
X13203515Y-15049174D01*
X13203515Y-15049174D02*
X13203515Y-15096793D01*
X13203515Y-15096793D02*
X13193991Y-15134888D01*
X13193991Y-15134888D02*
X13184467Y-15153936D01*
X13184467Y-15153936D02*
X13174944Y-15163460D01*
X13174944Y-15163460D02*
X13155896Y-15172984D01*
X13155896Y-15172984D02*
X13136848Y-15172984D01*
X13136848Y-15172984D02*
X13117801Y-15163460D01*
X13117801Y-15163460D02*
X13108277Y-15153936D01*
X13108277Y-15153936D02*
X13098753Y-15134888D01*
X13098753Y-15134888D02*
X13089229Y-15096793D01*
X13089229Y-15096793D02*
X13089229Y-15049174D01*
X13089229Y-15049174D02*
X13098753Y-15011079D01*
X13098753Y-15011079D02*
X13108277Y-14992031D01*
X13108277Y-14992031D02*
X13117801Y-14982508D01*
X13117801Y-14982508D02*
X13136848Y-14972984D01*
X13270182Y-14972984D02*
X13393991Y-14972984D01*
X13393991Y-14972984D02*
X13327325Y-15049174D01*
X13327325Y-15049174D02*
X13355896Y-15049174D01*
X13355896Y-15049174D02*
X13374944Y-15058698D01*
X13374944Y-15058698D02*
X13384467Y-15068222D01*
X13384467Y-15068222D02*
X13393991Y-15087269D01*
X13393991Y-15087269D02*
X13393991Y-15134888D01*
X13393991Y-15134888D02*
X13384467Y-15153936D01*
X13384467Y-15153936D02*
X13374944Y-15163460D01*
X13374944Y-15163460D02*
X13355896Y-15172984D01*
X13355896Y-15172984D02*
X13298753Y-15172984D01*
X13298753Y-15172984D02*
X13279706Y-15163460D01*
X13279706Y-15163460D02*
X13270182Y-15153936D01*
X13584467Y-15172984D02*
X13470182Y-15172984D01*
X13527325Y-15172984D02*
X13527325Y-14972984D01*
X13527325Y-14972984D02*
X13508277Y-15001555D01*
X13508277Y-15001555D02*
X13489229Y-15020603D01*
X13489229Y-15020603D02*
X13470182Y-15030127D01*
X13765420Y-14972984D02*
X13670182Y-14972984D01*
X13670182Y-14972984D02*
X13660658Y-15068222D01*
X13660658Y-15068222D02*
X13670182Y-15058698D01*
X13670182Y-15058698D02*
X13689229Y-15049174D01*
X13689229Y-15049174D02*
X13736848Y-15049174D01*
X13736848Y-15049174D02*
X13755896Y-15058698D01*
X13755896Y-15058698D02*
X13765420Y-15068222D01*
X13765420Y-15068222D02*
X13774944Y-15087269D01*
X13774944Y-15087269D02*
X13774944Y-15134888D01*
X13774944Y-15134888D02*
X13765420Y-15153936D01*
X13765420Y-15153936D02*
X13755896Y-15163460D01*
X13755896Y-15163460D02*
X13736848Y-15172984D01*
X13736848Y-15172984D02*
X13689229Y-15172984D01*
X13689229Y-15172984D02*
X13670182Y-15163460D01*
X13670182Y-15163460D02*
X13660658Y-15153936D01*
X13851134Y-14972984D02*
X13851134Y-15011079D01*
X13927325Y-14972984D02*
X13927325Y-15011079D01*
X14222563Y-15249174D02*
X14213039Y-15239650D01*
X14213039Y-15239650D02*
X14193991Y-15211079D01*
X14193991Y-15211079D02*
X14184468Y-15192031D01*
X14184468Y-15192031D02*
X14174944Y-15163460D01*
X14174944Y-15163460D02*
X14165420Y-15115841D01*
X14165420Y-15115841D02*
X14165420Y-15077746D01*
X14165420Y-15077746D02*
X14174944Y-15030127D01*
X14174944Y-15030127D02*
X14184468Y-15001555D01*
X14184468Y-15001555D02*
X14193991Y-14982508D01*
X14193991Y-14982508D02*
X14213039Y-14953936D01*
X14213039Y-14953936D02*
X14222563Y-14944412D01*
X14279706Y-14972984D02*
X14403515Y-14972984D01*
X14403515Y-14972984D02*
X14336848Y-15049174D01*
X14336848Y-15049174D02*
X14365420Y-15049174D01*
X14365420Y-15049174D02*
X14384468Y-15058698D01*
X14384468Y-15058698D02*
X14393991Y-15068222D01*
X14393991Y-15068222D02*
X14403515Y-15087269D01*
X14403515Y-15087269D02*
X14403515Y-15134888D01*
X14403515Y-15134888D02*
X14393991Y-15153936D01*
X14393991Y-15153936D02*
X14384468Y-15163460D01*
X14384468Y-15163460D02*
X14365420Y-15172984D01*
X14365420Y-15172984D02*
X14308277Y-15172984D01*
X14308277Y-15172984D02*
X14289229Y-15163460D01*
X14289229Y-15163460D02*
X14279706Y-15153936D01*
X14574944Y-14972984D02*
X14536848Y-14972984D01*
X14536848Y-14972984D02*
X14517801Y-14982508D01*
X14517801Y-14982508D02*
X14508277Y-14992031D01*
X14508277Y-14992031D02*
X14489229Y-15020603D01*
X14489229Y-15020603D02*
X14479706Y-15058698D01*
X14479706Y-15058698D02*
X14479706Y-15134888D01*
X14479706Y-15134888D02*
X14489229Y-15153936D01*
X14489229Y-15153936D02*
X14498753Y-15163460D01*
X14498753Y-15163460D02*
X14517801Y-15172984D01*
X14517801Y-15172984D02*
X14555896Y-15172984D01*
X14555896Y-15172984D02*
X14574944Y-15163460D01*
X14574944Y-15163460D02*
X14584468Y-15153936D01*
X14584468Y-15153936D02*
X14593991Y-15134888D01*
X14593991Y-15134888D02*
X14593991Y-15087269D01*
X14593991Y-15087269D02*
X14584468Y-15068222D01*
X14584468Y-15068222D02*
X14574944Y-15058698D01*
X14574944Y-15058698D02*
X14555896Y-15049174D01*
X14555896Y-15049174D02*
X14517801Y-15049174D01*
X14517801Y-15049174D02*
X14498753Y-15058698D01*
X14498753Y-15058698D02*
X14489229Y-15068222D01*
X14489229Y-15068222D02*
X14479706Y-15087269D01*
X14832087Y-15172984D02*
X14832087Y-14972984D01*
X14917801Y-15172984D02*
X14917801Y-15068222D01*
X14917801Y-15068222D02*
X14908277Y-15049174D01*
X14908277Y-15049174D02*
X14889230Y-15039650D01*
X14889230Y-15039650D02*
X14860658Y-15039650D01*
X14860658Y-15039650D02*
X14841610Y-15049174D01*
X14841610Y-15049174D02*
X14832087Y-15058698D01*
X15041610Y-15172984D02*
X15022563Y-15163460D01*
X15022563Y-15163460D02*
X15013039Y-15153936D01*
X15013039Y-15153936D02*
X15003515Y-15134888D01*
X15003515Y-15134888D02*
X15003515Y-15077746D01*
X15003515Y-15077746D02*
X15013039Y-15058698D01*
X15013039Y-15058698D02*
X15022563Y-15049174D01*
X15022563Y-15049174D02*
X15041610Y-15039650D01*
X15041610Y-15039650D02*
X15070182Y-15039650D01*
X15070182Y-15039650D02*
X15089230Y-15049174D01*
X15089230Y-15049174D02*
X15098753Y-15058698D01*
X15098753Y-15058698D02*
X15108277Y-15077746D01*
X15108277Y-15077746D02*
X15108277Y-15134888D01*
X15108277Y-15134888D02*
X15098753Y-15153936D01*
X15098753Y-15153936D02*
X15089230Y-15163460D01*
X15089230Y-15163460D02*
X15070182Y-15172984D01*
X15070182Y-15172984D02*
X15041610Y-15172984D01*
X15222563Y-15172984D02*
X15203515Y-15163460D01*
X15203515Y-15163460D02*
X15193991Y-15144412D01*
X15193991Y-15144412D02*
X15193991Y-14972984D01*
X15374944Y-15163460D02*
X15355896Y-15172984D01*
X15355896Y-15172984D02*
X15317801Y-15172984D01*
X15317801Y-15172984D02*
X15298753Y-15163460D01*
X15298753Y-15163460D02*
X15289230Y-15144412D01*
X15289230Y-15144412D02*
X15289230Y-15068222D01*
X15289230Y-15068222D02*
X15298753Y-15049174D01*
X15298753Y-15049174D02*
X15317801Y-15039650D01*
X15317801Y-15039650D02*
X15355896Y-15039650D01*
X15355896Y-15039650D02*
X15374944Y-15049174D01*
X15374944Y-15049174D02*
X15384468Y-15068222D01*
X15384468Y-15068222D02*
X15384468Y-15087269D01*
X15384468Y-15087269D02*
X15289230Y-15106317D01*
X15460658Y-15163460D02*
X15479706Y-15172984D01*
X15479706Y-15172984D02*
X15517801Y-15172984D01*
X15517801Y-15172984D02*
X15536849Y-15163460D01*
X15536849Y-15163460D02*
X15546372Y-15144412D01*
X15546372Y-15144412D02*
X15546372Y-15134888D01*
X15546372Y-15134888D02*
X15536849Y-15115841D01*
X15536849Y-15115841D02*
X15517801Y-15106317D01*
X15517801Y-15106317D02*
X15489230Y-15106317D01*
X15489230Y-15106317D02*
X15470182Y-15096793D01*
X15470182Y-15096793D02*
X15460658Y-15077746D01*
X15460658Y-15077746D02*
X15460658Y-15068222D01*
X15460658Y-15068222D02*
X15470182Y-15049174D01*
X15470182Y-15049174D02*
X15489230Y-15039650D01*
X15489230Y-15039650D02*
X15517801Y-15039650D01*
X15517801Y-15039650D02*
X15536849Y-15049174D01*
X15613039Y-15249174D02*
X15622563Y-15239650D01*
X15622563Y-15239650D02*
X15641611Y-15211079D01*
X15641611Y-15211079D02*
X15651134Y-15192031D01*
X15651134Y-15192031D02*
X15660658Y-15163460D01*
X15660658Y-15163460D02*
X15670182Y-15115841D01*
X15670182Y-15115841D02*
X15670182Y-15077746D01*
X15670182Y-15077746D02*
X15660658Y-15030127D01*
X15660658Y-15030127D02*
X15651134Y-15001555D01*
X15651134Y-15001555D02*
X15641611Y-14982508D01*
X15641611Y-14982508D02*
X15622563Y-14953936D01*
X15622563Y-14953936D02*
X15613039Y-14944412D01*
D12*
X10597500Y-15295500D02*
X10597500Y-15395500D01*
X10547500Y-15345500D02*
X10647500Y-15345500D01*
D11*
X11013039Y-15436984D02*
X10898753Y-15436984D01*
X10955896Y-15436984D02*
X10955896Y-15236984D01*
X10955896Y-15236984D02*
X10936848Y-15265555D01*
X10936848Y-15265555D02*
X10917801Y-15284603D01*
X10917801Y-15284603D02*
X10898753Y-15294127D01*
X11098753Y-15417936D02*
X11108277Y-15427460D01*
X11108277Y-15427460D02*
X11098753Y-15436984D01*
X11098753Y-15436984D02*
X11089229Y-15427460D01*
X11089229Y-15427460D02*
X11098753Y-15417936D01*
X11098753Y-15417936D02*
X11098753Y-15436984D01*
X11232086Y-15236984D02*
X11251134Y-15236984D01*
X11251134Y-15236984D02*
X11270182Y-15246508D01*
X11270182Y-15246508D02*
X11279705Y-15256031D01*
X11279705Y-15256031D02*
X11289229Y-15275079D01*
X11289229Y-15275079D02*
X11298753Y-15313174D01*
X11298753Y-15313174D02*
X11298753Y-15360793D01*
X11298753Y-15360793D02*
X11289229Y-15398888D01*
X11289229Y-15398888D02*
X11279705Y-15417936D01*
X11279705Y-15417936D02*
X11270182Y-15427460D01*
X11270182Y-15427460D02*
X11251134Y-15436984D01*
X11251134Y-15436984D02*
X11232086Y-15436984D01*
X11232086Y-15436984D02*
X11213039Y-15427460D01*
X11213039Y-15427460D02*
X11203515Y-15417936D01*
X11203515Y-15417936D02*
X11193991Y-15398888D01*
X11193991Y-15398888D02*
X11184467Y-15360793D01*
X11184467Y-15360793D02*
X11184467Y-15313174D01*
X11184467Y-15313174D02*
X11193991Y-15275079D01*
X11193991Y-15275079D02*
X11203515Y-15256031D01*
X11203515Y-15256031D02*
X11213039Y-15246508D01*
X11213039Y-15246508D02*
X11232086Y-15236984D01*
X11422562Y-15236984D02*
X11441610Y-15236984D01*
X11441610Y-15236984D02*
X11460658Y-15246508D01*
X11460658Y-15246508D02*
X11470182Y-15256031D01*
X11470182Y-15256031D02*
X11479705Y-15275079D01*
X11479705Y-15275079D02*
X11489229Y-15313174D01*
X11489229Y-15313174D02*
X11489229Y-15360793D01*
X11489229Y-15360793D02*
X11479705Y-15398888D01*
X11479705Y-15398888D02*
X11470182Y-15417936D01*
X11470182Y-15417936D02*
X11460658Y-15427460D01*
X11460658Y-15427460D02*
X11441610Y-15436984D01*
X11441610Y-15436984D02*
X11422562Y-15436984D01*
X11422562Y-15436984D02*
X11403515Y-15427460D01*
X11403515Y-15427460D02*
X11393991Y-15417936D01*
X11393991Y-15417936D02*
X11384467Y-15398888D01*
X11384467Y-15398888D02*
X11374943Y-15360793D01*
X11374943Y-15360793D02*
X11374943Y-15313174D01*
X11374943Y-15313174D02*
X11384467Y-15275079D01*
X11384467Y-15275079D02*
X11393991Y-15256031D01*
X11393991Y-15256031D02*
X11403515Y-15246508D01*
X11403515Y-15246508D02*
X11422562Y-15236984D01*
X11613039Y-15236984D02*
X11632086Y-15236984D01*
X11632086Y-15236984D02*
X11651134Y-15246508D01*
X11651134Y-15246508D02*
X11660658Y-15256031D01*
X11660658Y-15256031D02*
X11670182Y-15275079D01*
X11670182Y-15275079D02*
X11679705Y-15313174D01*
X11679705Y-15313174D02*
X11679705Y-15360793D01*
X11679705Y-15360793D02*
X11670182Y-15398888D01*
X11670182Y-15398888D02*
X11660658Y-15417936D01*
X11660658Y-15417936D02*
X11651134Y-15427460D01*
X11651134Y-15427460D02*
X11632086Y-15436984D01*
X11632086Y-15436984D02*
X11613039Y-15436984D01*
X11613039Y-15436984D02*
X11593991Y-15427460D01*
X11593991Y-15427460D02*
X11584467Y-15417936D01*
X11584467Y-15417936D02*
X11574943Y-15398888D01*
X11574943Y-15398888D02*
X11565420Y-15360793D01*
X11565420Y-15360793D02*
X11565420Y-15313174D01*
X11565420Y-15313174D02*
X11574943Y-15275079D01*
X11574943Y-15275079D02*
X11584467Y-15256031D01*
X11584467Y-15256031D02*
X11593991Y-15246508D01*
X11593991Y-15246508D02*
X11613039Y-15236984D01*
X11765420Y-15436984D02*
X11765420Y-15303650D01*
X11765420Y-15322698D02*
X11774943Y-15313174D01*
X11774943Y-15313174D02*
X11793991Y-15303650D01*
X11793991Y-15303650D02*
X11822563Y-15303650D01*
X11822563Y-15303650D02*
X11841610Y-15313174D01*
X11841610Y-15313174D02*
X11851134Y-15332222D01*
X11851134Y-15332222D02*
X11851134Y-15436984D01*
X11851134Y-15332222D02*
X11860658Y-15313174D01*
X11860658Y-15313174D02*
X11879705Y-15303650D01*
X11879705Y-15303650D02*
X11908277Y-15303650D01*
X11908277Y-15303650D02*
X11927324Y-15313174D01*
X11927324Y-15313174D02*
X11936848Y-15332222D01*
X11936848Y-15332222D02*
X11936848Y-15436984D01*
X12032086Y-15436984D02*
X12032086Y-15303650D01*
X12032086Y-15322698D02*
X12041610Y-15313174D01*
X12041610Y-15313174D02*
X12060658Y-15303650D01*
X12060658Y-15303650D02*
X12089229Y-15303650D01*
X12089229Y-15303650D02*
X12108277Y-15313174D01*
X12108277Y-15313174D02*
X12117801Y-15332222D01*
X12117801Y-15332222D02*
X12117801Y-15436984D01*
X12117801Y-15332222D02*
X12127324Y-15313174D01*
X12127324Y-15313174D02*
X12146372Y-15303650D01*
X12146372Y-15303650D02*
X12174943Y-15303650D01*
X12174943Y-15303650D02*
X12193991Y-15313174D01*
X12193991Y-15313174D02*
X12203515Y-15332222D01*
X12203515Y-15332222D02*
X12203515Y-15436984D01*
X12593991Y-15227460D02*
X12422563Y-15484603D01*
X12851134Y-15236984D02*
X12870182Y-15236984D01*
X12870182Y-15236984D02*
X12889229Y-15246508D01*
X12889229Y-15246508D02*
X12898753Y-15256031D01*
X12898753Y-15256031D02*
X12908277Y-15275079D01*
X12908277Y-15275079D02*
X12917801Y-15313174D01*
X12917801Y-15313174D02*
X12917801Y-15360793D01*
X12917801Y-15360793D02*
X12908277Y-15398888D01*
X12908277Y-15398888D02*
X12898753Y-15417936D01*
X12898753Y-15417936D02*
X12889229Y-15427460D01*
X12889229Y-15427460D02*
X12870182Y-15436984D01*
X12870182Y-15436984D02*
X12851134Y-15436984D01*
X12851134Y-15436984D02*
X12832086Y-15427460D01*
X12832086Y-15427460D02*
X12822563Y-15417936D01*
X12822563Y-15417936D02*
X12813039Y-15398888D01*
X12813039Y-15398888D02*
X12803515Y-15360793D01*
X12803515Y-15360793D02*
X12803515Y-15313174D01*
X12803515Y-15313174D02*
X12813039Y-15275079D01*
X12813039Y-15275079D02*
X12822563Y-15256031D01*
X12822563Y-15256031D02*
X12832086Y-15246508D01*
X12832086Y-15246508D02*
X12851134Y-15236984D01*
X13003515Y-15417936D02*
X13013039Y-15427460D01*
X13013039Y-15427460D02*
X13003515Y-15436984D01*
X13003515Y-15436984D02*
X12993991Y-15427460D01*
X12993991Y-15427460D02*
X13003515Y-15417936D01*
X13003515Y-15417936D02*
X13003515Y-15436984D01*
X13136848Y-15236984D02*
X13155896Y-15236984D01*
X13155896Y-15236984D02*
X13174944Y-15246508D01*
X13174944Y-15246508D02*
X13184467Y-15256031D01*
X13184467Y-15256031D02*
X13193991Y-15275079D01*
X13193991Y-15275079D02*
X13203515Y-15313174D01*
X13203515Y-15313174D02*
X13203515Y-15360793D01*
X13203515Y-15360793D02*
X13193991Y-15398888D01*
X13193991Y-15398888D02*
X13184467Y-15417936D01*
X13184467Y-15417936D02*
X13174944Y-15427460D01*
X13174944Y-15427460D02*
X13155896Y-15436984D01*
X13155896Y-15436984D02*
X13136848Y-15436984D01*
X13136848Y-15436984D02*
X13117801Y-15427460D01*
X13117801Y-15427460D02*
X13108277Y-15417936D01*
X13108277Y-15417936D02*
X13098753Y-15398888D01*
X13098753Y-15398888D02*
X13089229Y-15360793D01*
X13089229Y-15360793D02*
X13089229Y-15313174D01*
X13089229Y-15313174D02*
X13098753Y-15275079D01*
X13098753Y-15275079D02*
X13108277Y-15256031D01*
X13108277Y-15256031D02*
X13117801Y-15246508D01*
X13117801Y-15246508D02*
X13136848Y-15236984D01*
X13270182Y-15236984D02*
X13393991Y-15236984D01*
X13393991Y-15236984D02*
X13327325Y-15313174D01*
X13327325Y-15313174D02*
X13355896Y-15313174D01*
X13355896Y-15313174D02*
X13374944Y-15322698D01*
X13374944Y-15322698D02*
X13384467Y-15332222D01*
X13384467Y-15332222D02*
X13393991Y-15351269D01*
X13393991Y-15351269D02*
X13393991Y-15398888D01*
X13393991Y-15398888D02*
X13384467Y-15417936D01*
X13384467Y-15417936D02*
X13374944Y-15427460D01*
X13374944Y-15427460D02*
X13355896Y-15436984D01*
X13355896Y-15436984D02*
X13298753Y-15436984D01*
X13298753Y-15436984D02*
X13279706Y-15427460D01*
X13279706Y-15427460D02*
X13270182Y-15417936D01*
X13489229Y-15436984D02*
X13527325Y-15436984D01*
X13527325Y-15436984D02*
X13546372Y-15427460D01*
X13546372Y-15427460D02*
X13555896Y-15417936D01*
X13555896Y-15417936D02*
X13574944Y-15389365D01*
X13574944Y-15389365D02*
X13584467Y-15351269D01*
X13584467Y-15351269D02*
X13584467Y-15275079D01*
X13584467Y-15275079D02*
X13574944Y-15256031D01*
X13574944Y-15256031D02*
X13565420Y-15246508D01*
X13565420Y-15246508D02*
X13546372Y-15236984D01*
X13546372Y-15236984D02*
X13508277Y-15236984D01*
X13508277Y-15236984D02*
X13489229Y-15246508D01*
X13489229Y-15246508D02*
X13479706Y-15256031D01*
X13479706Y-15256031D02*
X13470182Y-15275079D01*
X13470182Y-15275079D02*
X13470182Y-15322698D01*
X13470182Y-15322698D02*
X13479706Y-15341746D01*
X13479706Y-15341746D02*
X13489229Y-15351269D01*
X13489229Y-15351269D02*
X13508277Y-15360793D01*
X13508277Y-15360793D02*
X13546372Y-15360793D01*
X13546372Y-15360793D02*
X13565420Y-15351269D01*
X13565420Y-15351269D02*
X13574944Y-15341746D01*
X13574944Y-15341746D02*
X13584467Y-15322698D01*
X13755896Y-15303650D02*
X13755896Y-15436984D01*
X13708277Y-15227460D02*
X13660658Y-15370317D01*
X13660658Y-15370317D02*
X13784467Y-15370317D01*
X13851134Y-15236984D02*
X13851134Y-15275079D01*
X13927325Y-15236984D02*
X13927325Y-15275079D01*
X14222563Y-15513174D02*
X14213039Y-15503650D01*
X14213039Y-15503650D02*
X14193991Y-15475079D01*
X14193991Y-15475079D02*
X14184468Y-15456031D01*
X14184468Y-15456031D02*
X14174944Y-15427460D01*
X14174944Y-15427460D02*
X14165420Y-15379841D01*
X14165420Y-15379841D02*
X14165420Y-15341746D01*
X14165420Y-15341746D02*
X14174944Y-15294127D01*
X14174944Y-15294127D02*
X14184468Y-15265555D01*
X14184468Y-15265555D02*
X14193991Y-15246508D01*
X14193991Y-15246508D02*
X14213039Y-15217936D01*
X14213039Y-15217936D02*
X14222563Y-15208412D01*
X14308277Y-15436984D02*
X14346372Y-15436984D01*
X14346372Y-15436984D02*
X14365420Y-15427460D01*
X14365420Y-15427460D02*
X14374944Y-15417936D01*
X14374944Y-15417936D02*
X14393991Y-15389365D01*
X14393991Y-15389365D02*
X14403515Y-15351269D01*
X14403515Y-15351269D02*
X14403515Y-15275079D01*
X14403515Y-15275079D02*
X14393991Y-15256031D01*
X14393991Y-15256031D02*
X14384468Y-15246508D01*
X14384468Y-15246508D02*
X14365420Y-15236984D01*
X14365420Y-15236984D02*
X14327325Y-15236984D01*
X14327325Y-15236984D02*
X14308277Y-15246508D01*
X14308277Y-15246508D02*
X14298753Y-15256031D01*
X14298753Y-15256031D02*
X14289229Y-15275079D01*
X14289229Y-15275079D02*
X14289229Y-15322698D01*
X14289229Y-15322698D02*
X14298753Y-15341746D01*
X14298753Y-15341746D02*
X14308277Y-15351269D01*
X14308277Y-15351269D02*
X14327325Y-15360793D01*
X14327325Y-15360793D02*
X14365420Y-15360793D01*
X14365420Y-15360793D02*
X14384468Y-15351269D01*
X14384468Y-15351269D02*
X14393991Y-15341746D01*
X14393991Y-15341746D02*
X14403515Y-15322698D01*
X14470182Y-15236984D02*
X14603515Y-15236984D01*
X14603515Y-15236984D02*
X14517801Y-15436984D01*
X14832087Y-15436984D02*
X14832087Y-15236984D01*
X14917801Y-15436984D02*
X14917801Y-15332222D01*
X14917801Y-15332222D02*
X14908277Y-15313174D01*
X14908277Y-15313174D02*
X14889230Y-15303650D01*
X14889230Y-15303650D02*
X14860658Y-15303650D01*
X14860658Y-15303650D02*
X14841610Y-15313174D01*
X14841610Y-15313174D02*
X14832087Y-15322698D01*
X15041610Y-15436984D02*
X15022563Y-15427460D01*
X15022563Y-15427460D02*
X15013039Y-15417936D01*
X15013039Y-15417936D02*
X15003515Y-15398888D01*
X15003515Y-15398888D02*
X15003515Y-15341746D01*
X15003515Y-15341746D02*
X15013039Y-15322698D01*
X15013039Y-15322698D02*
X15022563Y-15313174D01*
X15022563Y-15313174D02*
X15041610Y-15303650D01*
X15041610Y-15303650D02*
X15070182Y-15303650D01*
X15070182Y-15303650D02*
X15089230Y-15313174D01*
X15089230Y-15313174D02*
X15098753Y-15322698D01*
X15098753Y-15322698D02*
X15108277Y-15341746D01*
X15108277Y-15341746D02*
X15108277Y-15398888D01*
X15108277Y-15398888D02*
X15098753Y-15417936D01*
X15098753Y-15417936D02*
X15089230Y-15427460D01*
X15089230Y-15427460D02*
X15070182Y-15436984D01*
X15070182Y-15436984D02*
X15041610Y-15436984D01*
X15222563Y-15436984D02*
X15203515Y-15427460D01*
X15203515Y-15427460D02*
X15193991Y-15408412D01*
X15193991Y-15408412D02*
X15193991Y-15236984D01*
X15374944Y-15427460D02*
X15355896Y-15436984D01*
X15355896Y-15436984D02*
X15317801Y-15436984D01*
X15317801Y-15436984D02*
X15298753Y-15427460D01*
X15298753Y-15427460D02*
X15289230Y-15408412D01*
X15289230Y-15408412D02*
X15289230Y-15332222D01*
X15289230Y-15332222D02*
X15298753Y-15313174D01*
X15298753Y-15313174D02*
X15317801Y-15303650D01*
X15317801Y-15303650D02*
X15355896Y-15303650D01*
X15355896Y-15303650D02*
X15374944Y-15313174D01*
X15374944Y-15313174D02*
X15384468Y-15332222D01*
X15384468Y-15332222D02*
X15384468Y-15351269D01*
X15384468Y-15351269D02*
X15289230Y-15370317D01*
X15460658Y-15427460D02*
X15479706Y-15436984D01*
X15479706Y-15436984D02*
X15517801Y-15436984D01*
X15517801Y-15436984D02*
X15536849Y-15427460D01*
X15536849Y-15427460D02*
X15546372Y-15408412D01*
X15546372Y-15408412D02*
X15546372Y-15398888D01*
X15546372Y-15398888D02*
X15536849Y-15379841D01*
X15536849Y-15379841D02*
X15517801Y-15370317D01*
X15517801Y-15370317D02*
X15489230Y-15370317D01*
X15489230Y-15370317D02*
X15470182Y-15360793D01*
X15470182Y-15360793D02*
X15460658Y-15341746D01*
X15460658Y-15341746D02*
X15460658Y-15332222D01*
X15460658Y-15332222D02*
X15470182Y-15313174D01*
X15470182Y-15313174D02*
X15489230Y-15303650D01*
X15489230Y-15303650D02*
X15517801Y-15303650D01*
X15517801Y-15303650D02*
X15536849Y-15313174D01*
X15613039Y-15513174D02*
X15622563Y-15503650D01*
X15622563Y-15503650D02*
X15641611Y-15475079D01*
X15641611Y-15475079D02*
X15651134Y-15456031D01*
X15651134Y-15456031D02*
X15660658Y-15427460D01*
X15660658Y-15427460D02*
X15670182Y-15379841D01*
X15670182Y-15379841D02*
X15670182Y-15341746D01*
X15670182Y-15341746D02*
X15660658Y-15294127D01*
X15660658Y-15294127D02*
X15651134Y-15265555D01*
X15651134Y-15265555D02*
X15641611Y-15246508D01*
X15641611Y-15246508D02*
X15622563Y-15217936D01*
X15622563Y-15217936D02*
X15613039Y-15208412D01*
X10618211Y-15680211D02*
X10618211Y-15538789D01*
X10476789Y-15538789D01*
X10476789Y-15680211D01*
X10618211Y-15680211D01*
X10898753Y-15520031D02*
X10908277Y-15510508D01*
X10908277Y-15510508D02*
X10927324Y-15500984D01*
X10927324Y-15500984D02*
X10974944Y-15500984D01*
X10974944Y-15500984D02*
X10993991Y-15510508D01*
X10993991Y-15510508D02*
X11003515Y-15520031D01*
X11003515Y-15520031D02*
X11013039Y-15539079D01*
X11013039Y-15539079D02*
X11013039Y-15558127D01*
X11013039Y-15558127D02*
X11003515Y-15586698D01*
X11003515Y-15586698D02*
X10889229Y-15700984D01*
X10889229Y-15700984D02*
X11013039Y-15700984D01*
X11098753Y-15681936D02*
X11108277Y-15691460D01*
X11108277Y-15691460D02*
X11098753Y-15700984D01*
X11098753Y-15700984D02*
X11089229Y-15691460D01*
X11089229Y-15691460D02*
X11098753Y-15681936D01*
X11098753Y-15681936D02*
X11098753Y-15700984D01*
X11289229Y-15500984D02*
X11193991Y-15500984D01*
X11193991Y-15500984D02*
X11184467Y-15596222D01*
X11184467Y-15596222D02*
X11193991Y-15586698D01*
X11193991Y-15586698D02*
X11213039Y-15577174D01*
X11213039Y-15577174D02*
X11260658Y-15577174D01*
X11260658Y-15577174D02*
X11279705Y-15586698D01*
X11279705Y-15586698D02*
X11289229Y-15596222D01*
X11289229Y-15596222D02*
X11298753Y-15615269D01*
X11298753Y-15615269D02*
X11298753Y-15662888D01*
X11298753Y-15662888D02*
X11289229Y-15681936D01*
X11289229Y-15681936D02*
X11279705Y-15691460D01*
X11279705Y-15691460D02*
X11260658Y-15700984D01*
X11260658Y-15700984D02*
X11213039Y-15700984D01*
X11213039Y-15700984D02*
X11193991Y-15691460D01*
X11193991Y-15691460D02*
X11184467Y-15681936D01*
X11422562Y-15500984D02*
X11441610Y-15500984D01*
X11441610Y-15500984D02*
X11460658Y-15510508D01*
X11460658Y-15510508D02*
X11470182Y-15520031D01*
X11470182Y-15520031D02*
X11479705Y-15539079D01*
X11479705Y-15539079D02*
X11489229Y-15577174D01*
X11489229Y-15577174D02*
X11489229Y-15624793D01*
X11489229Y-15624793D02*
X11479705Y-15662888D01*
X11479705Y-15662888D02*
X11470182Y-15681936D01*
X11470182Y-15681936D02*
X11460658Y-15691460D01*
X11460658Y-15691460D02*
X11441610Y-15700984D01*
X11441610Y-15700984D02*
X11422562Y-15700984D01*
X11422562Y-15700984D02*
X11403515Y-15691460D01*
X11403515Y-15691460D02*
X11393991Y-15681936D01*
X11393991Y-15681936D02*
X11384467Y-15662888D01*
X11384467Y-15662888D02*
X11374943Y-15624793D01*
X11374943Y-15624793D02*
X11374943Y-15577174D01*
X11374943Y-15577174D02*
X11384467Y-15539079D01*
X11384467Y-15539079D02*
X11393991Y-15520031D01*
X11393991Y-15520031D02*
X11403515Y-15510508D01*
X11403515Y-15510508D02*
X11422562Y-15500984D01*
X11613039Y-15500984D02*
X11632086Y-15500984D01*
X11632086Y-15500984D02*
X11651134Y-15510508D01*
X11651134Y-15510508D02*
X11660658Y-15520031D01*
X11660658Y-15520031D02*
X11670182Y-15539079D01*
X11670182Y-15539079D02*
X11679705Y-15577174D01*
X11679705Y-15577174D02*
X11679705Y-15624793D01*
X11679705Y-15624793D02*
X11670182Y-15662888D01*
X11670182Y-15662888D02*
X11660658Y-15681936D01*
X11660658Y-15681936D02*
X11651134Y-15691460D01*
X11651134Y-15691460D02*
X11632086Y-15700984D01*
X11632086Y-15700984D02*
X11613039Y-15700984D01*
X11613039Y-15700984D02*
X11593991Y-15691460D01*
X11593991Y-15691460D02*
X11584467Y-15681936D01*
X11584467Y-15681936D02*
X11574943Y-15662888D01*
X11574943Y-15662888D02*
X11565420Y-15624793D01*
X11565420Y-15624793D02*
X11565420Y-15577174D01*
X11565420Y-15577174D02*
X11574943Y-15539079D01*
X11574943Y-15539079D02*
X11584467Y-15520031D01*
X11584467Y-15520031D02*
X11593991Y-15510508D01*
X11593991Y-15510508D02*
X11613039Y-15500984D01*
X11765420Y-15700984D02*
X11765420Y-15567650D01*
X11765420Y-15586698D02*
X11774943Y-15577174D01*
X11774943Y-15577174D02*
X11793991Y-15567650D01*
X11793991Y-15567650D02*
X11822563Y-15567650D01*
X11822563Y-15567650D02*
X11841610Y-15577174D01*
X11841610Y-15577174D02*
X11851134Y-15596222D01*
X11851134Y-15596222D02*
X11851134Y-15700984D01*
X11851134Y-15596222D02*
X11860658Y-15577174D01*
X11860658Y-15577174D02*
X11879705Y-15567650D01*
X11879705Y-15567650D02*
X11908277Y-15567650D01*
X11908277Y-15567650D02*
X11927324Y-15577174D01*
X11927324Y-15577174D02*
X11936848Y-15596222D01*
X11936848Y-15596222D02*
X11936848Y-15700984D01*
X12032086Y-15700984D02*
X12032086Y-15567650D01*
X12032086Y-15586698D02*
X12041610Y-15577174D01*
X12041610Y-15577174D02*
X12060658Y-15567650D01*
X12060658Y-15567650D02*
X12089229Y-15567650D01*
X12089229Y-15567650D02*
X12108277Y-15577174D01*
X12108277Y-15577174D02*
X12117801Y-15596222D01*
X12117801Y-15596222D02*
X12117801Y-15700984D01*
X12117801Y-15596222D02*
X12127324Y-15577174D01*
X12127324Y-15577174D02*
X12146372Y-15567650D01*
X12146372Y-15567650D02*
X12174943Y-15567650D01*
X12174943Y-15567650D02*
X12193991Y-15577174D01*
X12193991Y-15577174D02*
X12203515Y-15596222D01*
X12203515Y-15596222D02*
X12203515Y-15700984D01*
X12593991Y-15491460D02*
X12422563Y-15748603D01*
X12851134Y-15500984D02*
X12870182Y-15500984D01*
X12870182Y-15500984D02*
X12889229Y-15510508D01*
X12889229Y-15510508D02*
X12898753Y-15520031D01*
X12898753Y-15520031D02*
X12908277Y-15539079D01*
X12908277Y-15539079D02*
X12917801Y-15577174D01*
X12917801Y-15577174D02*
X12917801Y-15624793D01*
X12917801Y-15624793D02*
X12908277Y-15662888D01*
X12908277Y-15662888D02*
X12898753Y-15681936D01*
X12898753Y-15681936D02*
X12889229Y-15691460D01*
X12889229Y-15691460D02*
X12870182Y-15700984D01*
X12870182Y-15700984D02*
X12851134Y-15700984D01*
X12851134Y-15700984D02*
X12832086Y-15691460D01*
X12832086Y-15691460D02*
X12822563Y-15681936D01*
X12822563Y-15681936D02*
X12813039Y-15662888D01*
X12813039Y-15662888D02*
X12803515Y-15624793D01*
X12803515Y-15624793D02*
X12803515Y-15577174D01*
X12803515Y-15577174D02*
X12813039Y-15539079D01*
X12813039Y-15539079D02*
X12822563Y-15520031D01*
X12822563Y-15520031D02*
X12832086Y-15510508D01*
X12832086Y-15510508D02*
X12851134Y-15500984D01*
X13003515Y-15681936D02*
X13013039Y-15691460D01*
X13013039Y-15691460D02*
X13003515Y-15700984D01*
X13003515Y-15700984D02*
X12993991Y-15691460D01*
X12993991Y-15691460D02*
X13003515Y-15681936D01*
X13003515Y-15681936D02*
X13003515Y-15700984D01*
X13136848Y-15500984D02*
X13155896Y-15500984D01*
X13155896Y-15500984D02*
X13174944Y-15510508D01*
X13174944Y-15510508D02*
X13184467Y-15520031D01*
X13184467Y-15520031D02*
X13193991Y-15539079D01*
X13193991Y-15539079D02*
X13203515Y-15577174D01*
X13203515Y-15577174D02*
X13203515Y-15624793D01*
X13203515Y-15624793D02*
X13193991Y-15662888D01*
X13193991Y-15662888D02*
X13184467Y-15681936D01*
X13184467Y-15681936D02*
X13174944Y-15691460D01*
X13174944Y-15691460D02*
X13155896Y-15700984D01*
X13155896Y-15700984D02*
X13136848Y-15700984D01*
X13136848Y-15700984D02*
X13117801Y-15691460D01*
X13117801Y-15691460D02*
X13108277Y-15681936D01*
X13108277Y-15681936D02*
X13098753Y-15662888D01*
X13098753Y-15662888D02*
X13089229Y-15624793D01*
X13089229Y-15624793D02*
X13089229Y-15577174D01*
X13089229Y-15577174D02*
X13098753Y-15539079D01*
X13098753Y-15539079D02*
X13108277Y-15520031D01*
X13108277Y-15520031D02*
X13117801Y-15510508D01*
X13117801Y-15510508D02*
X13136848Y-15500984D01*
X13298753Y-15700984D02*
X13336848Y-15700984D01*
X13336848Y-15700984D02*
X13355896Y-15691460D01*
X13355896Y-15691460D02*
X13365420Y-15681936D01*
X13365420Y-15681936D02*
X13384467Y-15653365D01*
X13384467Y-15653365D02*
X13393991Y-15615269D01*
X13393991Y-15615269D02*
X13393991Y-15539079D01*
X13393991Y-15539079D02*
X13384467Y-15520031D01*
X13384467Y-15520031D02*
X13374944Y-15510508D01*
X13374944Y-15510508D02*
X13355896Y-15500984D01*
X13355896Y-15500984D02*
X13317801Y-15500984D01*
X13317801Y-15500984D02*
X13298753Y-15510508D01*
X13298753Y-15510508D02*
X13289229Y-15520031D01*
X13289229Y-15520031D02*
X13279706Y-15539079D01*
X13279706Y-15539079D02*
X13279706Y-15586698D01*
X13279706Y-15586698D02*
X13289229Y-15605746D01*
X13289229Y-15605746D02*
X13298753Y-15615269D01*
X13298753Y-15615269D02*
X13317801Y-15624793D01*
X13317801Y-15624793D02*
X13355896Y-15624793D01*
X13355896Y-15624793D02*
X13374944Y-15615269D01*
X13374944Y-15615269D02*
X13384467Y-15605746D01*
X13384467Y-15605746D02*
X13393991Y-15586698D01*
X13508277Y-15586698D02*
X13489229Y-15577174D01*
X13489229Y-15577174D02*
X13479706Y-15567650D01*
X13479706Y-15567650D02*
X13470182Y-15548603D01*
X13470182Y-15548603D02*
X13470182Y-15539079D01*
X13470182Y-15539079D02*
X13479706Y-15520031D01*
X13479706Y-15520031D02*
X13489229Y-15510508D01*
X13489229Y-15510508D02*
X13508277Y-15500984D01*
X13508277Y-15500984D02*
X13546372Y-15500984D01*
X13546372Y-15500984D02*
X13565420Y-15510508D01*
X13565420Y-15510508D02*
X13574944Y-15520031D01*
X13574944Y-15520031D02*
X13584467Y-15539079D01*
X13584467Y-15539079D02*
X13584467Y-15548603D01*
X13584467Y-15548603D02*
X13574944Y-15567650D01*
X13574944Y-15567650D02*
X13565420Y-15577174D01*
X13565420Y-15577174D02*
X13546372Y-15586698D01*
X13546372Y-15586698D02*
X13508277Y-15586698D01*
X13508277Y-15586698D02*
X13489229Y-15596222D01*
X13489229Y-15596222D02*
X13479706Y-15605746D01*
X13479706Y-15605746D02*
X13470182Y-15624793D01*
X13470182Y-15624793D02*
X13470182Y-15662888D01*
X13470182Y-15662888D02*
X13479706Y-15681936D01*
X13479706Y-15681936D02*
X13489229Y-15691460D01*
X13489229Y-15691460D02*
X13508277Y-15700984D01*
X13508277Y-15700984D02*
X13546372Y-15700984D01*
X13546372Y-15700984D02*
X13565420Y-15691460D01*
X13565420Y-15691460D02*
X13574944Y-15681936D01*
X13574944Y-15681936D02*
X13584467Y-15662888D01*
X13584467Y-15662888D02*
X13584467Y-15624793D01*
X13584467Y-15624793D02*
X13574944Y-15605746D01*
X13574944Y-15605746D02*
X13565420Y-15596222D01*
X13565420Y-15596222D02*
X13546372Y-15586698D01*
X13755896Y-15567650D02*
X13755896Y-15700984D01*
X13708277Y-15491460D02*
X13660658Y-15634317D01*
X13660658Y-15634317D02*
X13784467Y-15634317D01*
X13851134Y-15500984D02*
X13851134Y-15539079D01*
X13927325Y-15500984D02*
X13927325Y-15539079D01*
X14222563Y-15777174D02*
X14213039Y-15767650D01*
X14213039Y-15767650D02*
X14193991Y-15739079D01*
X14193991Y-15739079D02*
X14184468Y-15720031D01*
X14184468Y-15720031D02*
X14174944Y-15691460D01*
X14174944Y-15691460D02*
X14165420Y-15643841D01*
X14165420Y-15643841D02*
X14165420Y-15605746D01*
X14165420Y-15605746D02*
X14174944Y-15558127D01*
X14174944Y-15558127D02*
X14184468Y-15529555D01*
X14184468Y-15529555D02*
X14193991Y-15510508D01*
X14193991Y-15510508D02*
X14213039Y-15481936D01*
X14213039Y-15481936D02*
X14222563Y-15472412D01*
X14384468Y-15567650D02*
X14384468Y-15700984D01*
X14336848Y-15491460D02*
X14289229Y-15634317D01*
X14289229Y-15634317D02*
X14413039Y-15634317D01*
X14641610Y-15700984D02*
X14641610Y-15500984D01*
X14727325Y-15700984D02*
X14727325Y-15596222D01*
X14727325Y-15596222D02*
X14717801Y-15577174D01*
X14717801Y-15577174D02*
X14698753Y-15567650D01*
X14698753Y-15567650D02*
X14670182Y-15567650D01*
X14670182Y-15567650D02*
X14651134Y-15577174D01*
X14651134Y-15577174D02*
X14641610Y-15586698D01*
X14851134Y-15700984D02*
X14832087Y-15691460D01*
X14832087Y-15691460D02*
X14822563Y-15681936D01*
X14822563Y-15681936D02*
X14813039Y-15662888D01*
X14813039Y-15662888D02*
X14813039Y-15605746D01*
X14813039Y-15605746D02*
X14822563Y-15586698D01*
X14822563Y-15586698D02*
X14832087Y-15577174D01*
X14832087Y-15577174D02*
X14851134Y-15567650D01*
X14851134Y-15567650D02*
X14879706Y-15567650D01*
X14879706Y-15567650D02*
X14898753Y-15577174D01*
X14898753Y-15577174D02*
X14908277Y-15586698D01*
X14908277Y-15586698D02*
X14917801Y-15605746D01*
X14917801Y-15605746D02*
X14917801Y-15662888D01*
X14917801Y-15662888D02*
X14908277Y-15681936D01*
X14908277Y-15681936D02*
X14898753Y-15691460D01*
X14898753Y-15691460D02*
X14879706Y-15700984D01*
X14879706Y-15700984D02*
X14851134Y-15700984D01*
X15032087Y-15700984D02*
X15013039Y-15691460D01*
X15013039Y-15691460D02*
X15003515Y-15672412D01*
X15003515Y-15672412D02*
X15003515Y-15500984D01*
X15184468Y-15691460D02*
X15165420Y-15700984D01*
X15165420Y-15700984D02*
X15127325Y-15700984D01*
X15127325Y-15700984D02*
X15108277Y-15691460D01*
X15108277Y-15691460D02*
X15098753Y-15672412D01*
X15098753Y-15672412D02*
X15098753Y-15596222D01*
X15098753Y-15596222D02*
X15108277Y-15577174D01*
X15108277Y-15577174D02*
X15127325Y-15567650D01*
X15127325Y-15567650D02*
X15165420Y-15567650D01*
X15165420Y-15567650D02*
X15184468Y-15577174D01*
X15184468Y-15577174D02*
X15193991Y-15596222D01*
X15193991Y-15596222D02*
X15193991Y-15615269D01*
X15193991Y-15615269D02*
X15098753Y-15634317D01*
X15270182Y-15691460D02*
X15289230Y-15700984D01*
X15289230Y-15700984D02*
X15327325Y-15700984D01*
X15327325Y-15700984D02*
X15346372Y-15691460D01*
X15346372Y-15691460D02*
X15355896Y-15672412D01*
X15355896Y-15672412D02*
X15355896Y-15662888D01*
X15355896Y-15662888D02*
X15346372Y-15643841D01*
X15346372Y-15643841D02*
X15327325Y-15634317D01*
X15327325Y-15634317D02*
X15298753Y-15634317D01*
X15298753Y-15634317D02*
X15279706Y-15624793D01*
X15279706Y-15624793D02*
X15270182Y-15605746D01*
X15270182Y-15605746D02*
X15270182Y-15596222D01*
X15270182Y-15596222D02*
X15279706Y-15577174D01*
X15279706Y-15577174D02*
X15298753Y-15567650D01*
X15298753Y-15567650D02*
X15327325Y-15567650D01*
X15327325Y-15567650D02*
X15346372Y-15577174D01*
X15422563Y-15777174D02*
X15432087Y-15767650D01*
X15432087Y-15767650D02*
X15451134Y-15739079D01*
X15451134Y-15739079D02*
X15460658Y-15720031D01*
X15460658Y-15720031D02*
X15470182Y-15691460D01*
X15470182Y-15691460D02*
X15479706Y-15643841D01*
X15479706Y-15643841D02*
X15479706Y-15605746D01*
X15479706Y-15605746D02*
X15470182Y-15558127D01*
X15470182Y-15558127D02*
X15460658Y-15529555D01*
X15460658Y-15529555D02*
X15451134Y-15510508D01*
X15451134Y-15510508D02*
X15432087Y-15481936D01*
X15432087Y-15481936D02*
X15422563Y-15472412D01*
M02*
