%TF.GenerationSoftware,KiCad,Pcbnew,8.0.7-8.0.7-0~ubuntu24.04.1*%
%TF.CreationDate,2025-01-10T11:12:07+00:00*%
%TF.ProjectId,whenisbins,7768656e-6973-4626-996e-732e6b696361,rev?*%
%TF.SameCoordinates,Original*%
%TF.FileFunction,Legend,Top*%
%TF.FilePolarity,Positive*%
%FSLAX46Y46*%
G04 Gerber Fmt 4.6, Leading zero omitted, Abs format (unit mm)*
G04 Created by KiCad (PCBNEW 8.0.7-8.0.7-0~ubuntu24.04.1) date 2025-01-10 11:12:07*
%MOMM*%
%LPD*%
G01*
G04 APERTURE LIST*
%ADD10C,0.100000*%
%ADD11C,0.150000*%
%ADD12C,0.120000*%
%ADD13C,2.900000*%
%ADD14C,5.000000*%
%ADD15O,1.600000X1.600000*%
%ADD16C,1.600000*%
%ADD17O,1.700000X1.700000*%
%ADD18R,1.700000X1.700000*%
%ADD19R,1.560000X1.560000*%
%ADD20C,1.560000*%
%ADD21R,1.500000X1.050000*%
%ADD22O,1.500000X1.050000*%
G04 APERTURE END LIST*
D10*
X134661027Y-87372419D02*
X135232455Y-87372419D01*
X134946741Y-88372419D02*
X134946741Y-87372419D01*
X135565789Y-88372419D02*
X135565789Y-87372419D01*
X135994360Y-88372419D02*
X135994360Y-87848609D01*
X135994360Y-87848609D02*
X135946741Y-87753371D01*
X135946741Y-87753371D02*
X135851503Y-87705752D01*
X135851503Y-87705752D02*
X135708646Y-87705752D01*
X135708646Y-87705752D02*
X135613408Y-87753371D01*
X135613408Y-87753371D02*
X135565789Y-87800990D01*
X136851503Y-88324800D02*
X136756265Y-88372419D01*
X136756265Y-88372419D02*
X136565789Y-88372419D01*
X136565789Y-88372419D02*
X136470551Y-88324800D01*
X136470551Y-88324800D02*
X136422932Y-88229561D01*
X136422932Y-88229561D02*
X136422932Y-87848609D01*
X136422932Y-87848609D02*
X136470551Y-87753371D01*
X136470551Y-87753371D02*
X136565789Y-87705752D01*
X136565789Y-87705752D02*
X136756265Y-87705752D01*
X136756265Y-87705752D02*
X136851503Y-87753371D01*
X136851503Y-87753371D02*
X136899122Y-87848609D01*
X136899122Y-87848609D02*
X136899122Y-87943847D01*
X136899122Y-87943847D02*
X136422932Y-88039085D01*
X138422932Y-87848609D02*
X138565789Y-87896228D01*
X138565789Y-87896228D02*
X138613408Y-87943847D01*
X138613408Y-87943847D02*
X138661027Y-88039085D01*
X138661027Y-88039085D02*
X138661027Y-88181942D01*
X138661027Y-88181942D02*
X138613408Y-88277180D01*
X138613408Y-88277180D02*
X138565789Y-88324800D01*
X138565789Y-88324800D02*
X138470551Y-88372419D01*
X138470551Y-88372419D02*
X138089599Y-88372419D01*
X138089599Y-88372419D02*
X138089599Y-87372419D01*
X138089599Y-87372419D02*
X138422932Y-87372419D01*
X138422932Y-87372419D02*
X138518170Y-87420038D01*
X138518170Y-87420038D02*
X138565789Y-87467657D01*
X138565789Y-87467657D02*
X138613408Y-87562895D01*
X138613408Y-87562895D02*
X138613408Y-87658133D01*
X138613408Y-87658133D02*
X138565789Y-87753371D01*
X138565789Y-87753371D02*
X138518170Y-87800990D01*
X138518170Y-87800990D02*
X138422932Y-87848609D01*
X138422932Y-87848609D02*
X138089599Y-87848609D01*
X139089599Y-88372419D02*
X139089599Y-87705752D01*
X139089599Y-87372419D02*
X139041980Y-87420038D01*
X139041980Y-87420038D02*
X139089599Y-87467657D01*
X139089599Y-87467657D02*
X139137218Y-87420038D01*
X139137218Y-87420038D02*
X139089599Y-87372419D01*
X139089599Y-87372419D02*
X139089599Y-87467657D01*
X139565789Y-87705752D02*
X139565789Y-88372419D01*
X139565789Y-87800990D02*
X139613408Y-87753371D01*
X139613408Y-87753371D02*
X139708646Y-87705752D01*
X139708646Y-87705752D02*
X139851503Y-87705752D01*
X139851503Y-87705752D02*
X139946741Y-87753371D01*
X139946741Y-87753371D02*
X139994360Y-87848609D01*
X139994360Y-87848609D02*
X139994360Y-88372419D01*
X140470551Y-87991466D02*
X141232456Y-87991466D01*
X141708646Y-88372419D02*
X141708646Y-87372419D01*
X141708646Y-87372419D02*
X141946741Y-87372419D01*
X141946741Y-87372419D02*
X142089598Y-87420038D01*
X142089598Y-87420038D02*
X142184836Y-87515276D01*
X142184836Y-87515276D02*
X142232455Y-87610514D01*
X142232455Y-87610514D02*
X142280074Y-87800990D01*
X142280074Y-87800990D02*
X142280074Y-87943847D01*
X142280074Y-87943847D02*
X142232455Y-88134323D01*
X142232455Y-88134323D02*
X142184836Y-88229561D01*
X142184836Y-88229561D02*
X142089598Y-88324800D01*
X142089598Y-88324800D02*
X141946741Y-88372419D01*
X141946741Y-88372419D02*
X141708646Y-88372419D01*
X142708646Y-88372419D02*
X142708646Y-87705752D01*
X142708646Y-87372419D02*
X142661027Y-87420038D01*
X142661027Y-87420038D02*
X142708646Y-87467657D01*
X142708646Y-87467657D02*
X142756265Y-87420038D01*
X142756265Y-87420038D02*
X142708646Y-87372419D01*
X142708646Y-87372419D02*
X142708646Y-87467657D01*
X143613407Y-88324800D02*
X143518169Y-88372419D01*
X143518169Y-88372419D02*
X143327693Y-88372419D01*
X143327693Y-88372419D02*
X143232455Y-88324800D01*
X143232455Y-88324800D02*
X143184836Y-88277180D01*
X143184836Y-88277180D02*
X143137217Y-88181942D01*
X143137217Y-88181942D02*
X143137217Y-87896228D01*
X143137217Y-87896228D02*
X143184836Y-87800990D01*
X143184836Y-87800990D02*
X143232455Y-87753371D01*
X143232455Y-87753371D02*
X143327693Y-87705752D01*
X143327693Y-87705752D02*
X143518169Y-87705752D01*
X143518169Y-87705752D02*
X143613407Y-87753371D01*
X144470550Y-88372419D02*
X144470550Y-87848609D01*
X144470550Y-87848609D02*
X144422931Y-87753371D01*
X144422931Y-87753371D02*
X144327693Y-87705752D01*
X144327693Y-87705752D02*
X144137217Y-87705752D01*
X144137217Y-87705752D02*
X144041979Y-87753371D01*
X144470550Y-88324800D02*
X144375312Y-88372419D01*
X144375312Y-88372419D02*
X144137217Y-88372419D01*
X144137217Y-88372419D02*
X144041979Y-88324800D01*
X144041979Y-88324800D02*
X143994360Y-88229561D01*
X143994360Y-88229561D02*
X143994360Y-88134323D01*
X143994360Y-88134323D02*
X144041979Y-88039085D01*
X144041979Y-88039085D02*
X144137217Y-87991466D01*
X144137217Y-87991466D02*
X144375312Y-87991466D01*
X144375312Y-87991466D02*
X144470550Y-87943847D01*
X144803884Y-87705752D02*
X145184836Y-87705752D01*
X144946741Y-87372419D02*
X144946741Y-88229561D01*
X144946741Y-88229561D02*
X144994360Y-88324800D01*
X144994360Y-88324800D02*
X145089598Y-88372419D01*
X145089598Y-88372419D02*
X145184836Y-88372419D01*
X145661027Y-88372419D02*
X145565789Y-88324800D01*
X145565789Y-88324800D02*
X145518170Y-88277180D01*
X145518170Y-88277180D02*
X145470551Y-88181942D01*
X145470551Y-88181942D02*
X145470551Y-87896228D01*
X145470551Y-87896228D02*
X145518170Y-87800990D01*
X145518170Y-87800990D02*
X145565789Y-87753371D01*
X145565789Y-87753371D02*
X145661027Y-87705752D01*
X145661027Y-87705752D02*
X145803884Y-87705752D01*
X145803884Y-87705752D02*
X145899122Y-87753371D01*
X145899122Y-87753371D02*
X145946741Y-87800990D01*
X145946741Y-87800990D02*
X145994360Y-87896228D01*
X145994360Y-87896228D02*
X145994360Y-88181942D01*
X145994360Y-88181942D02*
X145946741Y-88277180D01*
X145946741Y-88277180D02*
X145899122Y-88324800D01*
X145899122Y-88324800D02*
X145803884Y-88372419D01*
X145803884Y-88372419D02*
X145661027Y-88372419D01*
X146422932Y-88372419D02*
X146422932Y-87705752D01*
X146422932Y-87896228D02*
X146470551Y-87800990D01*
X146470551Y-87800990D02*
X146518170Y-87753371D01*
X146518170Y-87753371D02*
X146613408Y-87705752D01*
X146613408Y-87705752D02*
X146708646Y-87705752D01*
X147708647Y-87705752D02*
X147946742Y-88372419D01*
X147946742Y-88372419D02*
X148184837Y-87705752D01*
X149089599Y-88372419D02*
X148518171Y-88372419D01*
X148803885Y-88372419D02*
X148803885Y-87372419D01*
X148803885Y-87372419D02*
X148708647Y-87515276D01*
X148708647Y-87515276D02*
X148613409Y-87610514D01*
X148613409Y-87610514D02*
X148518171Y-87658133D01*
X172007157Y-108293734D02*
X171959538Y-108246115D01*
X171959538Y-108246115D02*
X171911919Y-108150877D01*
X171911919Y-108150877D02*
X171911919Y-107912782D01*
X171911919Y-107912782D02*
X171959538Y-107817544D01*
X171959538Y-107817544D02*
X172007157Y-107769925D01*
X172007157Y-107769925D02*
X172102395Y-107722306D01*
X172102395Y-107722306D02*
X172197633Y-107722306D01*
X172197633Y-107722306D02*
X172340490Y-107769925D01*
X172340490Y-107769925D02*
X172911919Y-108341353D01*
X172911919Y-108341353D02*
X172911919Y-107722306D01*
X172007157Y-107341353D02*
X171959538Y-107293734D01*
X171959538Y-107293734D02*
X171911919Y-107198496D01*
X171911919Y-107198496D02*
X171911919Y-106960401D01*
X171911919Y-106960401D02*
X171959538Y-106865163D01*
X171959538Y-106865163D02*
X172007157Y-106817544D01*
X172007157Y-106817544D02*
X172102395Y-106769925D01*
X172102395Y-106769925D02*
X172197633Y-106769925D01*
X172197633Y-106769925D02*
X172340490Y-106817544D01*
X172340490Y-106817544D02*
X172911919Y-107388972D01*
X172911919Y-107388972D02*
X172911919Y-106769925D01*
X171911919Y-106150877D02*
X171911919Y-106055639D01*
X171911919Y-106055639D02*
X171959538Y-105960401D01*
X171959538Y-105960401D02*
X172007157Y-105912782D01*
X172007157Y-105912782D02*
X172102395Y-105865163D01*
X172102395Y-105865163D02*
X172292871Y-105817544D01*
X172292871Y-105817544D02*
X172530966Y-105817544D01*
X172530966Y-105817544D02*
X172721442Y-105865163D01*
X172721442Y-105865163D02*
X172816680Y-105912782D01*
X172816680Y-105912782D02*
X172864300Y-105960401D01*
X172864300Y-105960401D02*
X172911919Y-106055639D01*
X172911919Y-106055639D02*
X172911919Y-106150877D01*
X172911919Y-106150877D02*
X172864300Y-106246115D01*
X172864300Y-106246115D02*
X172816680Y-106293734D01*
X172816680Y-106293734D02*
X172721442Y-106341353D01*
X172721442Y-106341353D02*
X172530966Y-106388972D01*
X172530966Y-106388972D02*
X172292871Y-106388972D01*
X172292871Y-106388972D02*
X172102395Y-106341353D01*
X172102395Y-106341353D02*
X172007157Y-106293734D01*
X172007157Y-106293734D02*
X171959538Y-106246115D01*
X171959538Y-106246115D02*
X171911919Y-106150877D01*
X172911919Y-105436591D02*
X172911919Y-105198496D01*
X172911919Y-105198496D02*
X172721442Y-105198496D01*
X172721442Y-105198496D02*
X172673823Y-105293734D01*
X172673823Y-105293734D02*
X172578585Y-105388972D01*
X172578585Y-105388972D02*
X172435728Y-105436591D01*
X172435728Y-105436591D02*
X172197633Y-105436591D01*
X172197633Y-105436591D02*
X172054776Y-105388972D01*
X172054776Y-105388972D02*
X171959538Y-105293734D01*
X171959538Y-105293734D02*
X171911919Y-105150877D01*
X171911919Y-105150877D02*
X171911919Y-104960401D01*
X171911919Y-104960401D02*
X171959538Y-104817544D01*
X171959538Y-104817544D02*
X172054776Y-104722306D01*
X172054776Y-104722306D02*
X172197633Y-104674687D01*
X172197633Y-104674687D02*
X172435728Y-104674687D01*
X172435728Y-104674687D02*
X172578585Y-104722306D01*
X172578585Y-104722306D02*
X172673823Y-104817544D01*
X172673823Y-104817544D02*
X172721442Y-104912782D01*
X172721442Y-104912782D02*
X172911919Y-104912782D01*
X172911919Y-104912782D02*
X172911919Y-104674687D01*
X168007157Y-108293734D02*
X167959538Y-108246115D01*
X167959538Y-108246115D02*
X167911919Y-108150877D01*
X167911919Y-108150877D02*
X167911919Y-107912782D01*
X167911919Y-107912782D02*
X167959538Y-107817544D01*
X167959538Y-107817544D02*
X168007157Y-107769925D01*
X168007157Y-107769925D02*
X168102395Y-107722306D01*
X168102395Y-107722306D02*
X168197633Y-107722306D01*
X168197633Y-107722306D02*
X168340490Y-107769925D01*
X168340490Y-107769925D02*
X168911919Y-108341353D01*
X168911919Y-108341353D02*
X168911919Y-107722306D01*
X168007157Y-107341353D02*
X167959538Y-107293734D01*
X167959538Y-107293734D02*
X167911919Y-107198496D01*
X167911919Y-107198496D02*
X167911919Y-106960401D01*
X167911919Y-106960401D02*
X167959538Y-106865163D01*
X167959538Y-106865163D02*
X168007157Y-106817544D01*
X168007157Y-106817544D02*
X168102395Y-106769925D01*
X168102395Y-106769925D02*
X168197633Y-106769925D01*
X168197633Y-106769925D02*
X168340490Y-106817544D01*
X168340490Y-106817544D02*
X168911919Y-107388972D01*
X168911919Y-107388972D02*
X168911919Y-106769925D01*
X167911919Y-106150877D02*
X167911919Y-106055639D01*
X167911919Y-106055639D02*
X167959538Y-105960401D01*
X167959538Y-105960401D02*
X168007157Y-105912782D01*
X168007157Y-105912782D02*
X168102395Y-105865163D01*
X168102395Y-105865163D02*
X168292871Y-105817544D01*
X168292871Y-105817544D02*
X168530966Y-105817544D01*
X168530966Y-105817544D02*
X168721442Y-105865163D01*
X168721442Y-105865163D02*
X168816680Y-105912782D01*
X168816680Y-105912782D02*
X168864300Y-105960401D01*
X168864300Y-105960401D02*
X168911919Y-106055639D01*
X168911919Y-106055639D02*
X168911919Y-106150877D01*
X168911919Y-106150877D02*
X168864300Y-106246115D01*
X168864300Y-106246115D02*
X168816680Y-106293734D01*
X168816680Y-106293734D02*
X168721442Y-106341353D01*
X168721442Y-106341353D02*
X168530966Y-106388972D01*
X168530966Y-106388972D02*
X168292871Y-106388972D01*
X168292871Y-106388972D02*
X168102395Y-106341353D01*
X168102395Y-106341353D02*
X168007157Y-106293734D01*
X168007157Y-106293734D02*
X167959538Y-106246115D01*
X167959538Y-106246115D02*
X167911919Y-106150877D01*
X168911919Y-105436591D02*
X168911919Y-105198496D01*
X168911919Y-105198496D02*
X168721442Y-105198496D01*
X168721442Y-105198496D02*
X168673823Y-105293734D01*
X168673823Y-105293734D02*
X168578585Y-105388972D01*
X168578585Y-105388972D02*
X168435728Y-105436591D01*
X168435728Y-105436591D02*
X168197633Y-105436591D01*
X168197633Y-105436591D02*
X168054776Y-105388972D01*
X168054776Y-105388972D02*
X167959538Y-105293734D01*
X167959538Y-105293734D02*
X167911919Y-105150877D01*
X167911919Y-105150877D02*
X167911919Y-104960401D01*
X167911919Y-104960401D02*
X167959538Y-104817544D01*
X167959538Y-104817544D02*
X168054776Y-104722306D01*
X168054776Y-104722306D02*
X168197633Y-104674687D01*
X168197633Y-104674687D02*
X168435728Y-104674687D01*
X168435728Y-104674687D02*
X168578585Y-104722306D01*
X168578585Y-104722306D02*
X168673823Y-104817544D01*
X168673823Y-104817544D02*
X168721442Y-104912782D01*
X168721442Y-104912782D02*
X168911919Y-104912782D01*
X168911919Y-104912782D02*
X168911919Y-104674687D01*
X163967657Y-108248279D02*
X163920038Y-108200660D01*
X163920038Y-108200660D02*
X163872419Y-108105422D01*
X163872419Y-108105422D02*
X163872419Y-107867327D01*
X163872419Y-107867327D02*
X163920038Y-107772089D01*
X163920038Y-107772089D02*
X163967657Y-107724470D01*
X163967657Y-107724470D02*
X164062895Y-107676851D01*
X164062895Y-107676851D02*
X164158133Y-107676851D01*
X164158133Y-107676851D02*
X164300990Y-107724470D01*
X164300990Y-107724470D02*
X164872419Y-108295898D01*
X164872419Y-108295898D02*
X164872419Y-107676851D01*
X163967657Y-107295898D02*
X163920038Y-107248279D01*
X163920038Y-107248279D02*
X163872419Y-107153041D01*
X163872419Y-107153041D02*
X163872419Y-106914946D01*
X163872419Y-106914946D02*
X163920038Y-106819708D01*
X163920038Y-106819708D02*
X163967657Y-106772089D01*
X163967657Y-106772089D02*
X164062895Y-106724470D01*
X164062895Y-106724470D02*
X164158133Y-106724470D01*
X164158133Y-106724470D02*
X164300990Y-106772089D01*
X164300990Y-106772089D02*
X164872419Y-107343517D01*
X164872419Y-107343517D02*
X164872419Y-106724470D01*
X163872419Y-106105422D02*
X163872419Y-106010184D01*
X163872419Y-106010184D02*
X163920038Y-105914946D01*
X163920038Y-105914946D02*
X163967657Y-105867327D01*
X163967657Y-105867327D02*
X164062895Y-105819708D01*
X164062895Y-105819708D02*
X164253371Y-105772089D01*
X164253371Y-105772089D02*
X164491466Y-105772089D01*
X164491466Y-105772089D02*
X164681942Y-105819708D01*
X164681942Y-105819708D02*
X164777180Y-105867327D01*
X164777180Y-105867327D02*
X164824800Y-105914946D01*
X164824800Y-105914946D02*
X164872419Y-106010184D01*
X164872419Y-106010184D02*
X164872419Y-106105422D01*
X164872419Y-106105422D02*
X164824800Y-106200660D01*
X164824800Y-106200660D02*
X164777180Y-106248279D01*
X164777180Y-106248279D02*
X164681942Y-106295898D01*
X164681942Y-106295898D02*
X164491466Y-106343517D01*
X164491466Y-106343517D02*
X164253371Y-106343517D01*
X164253371Y-106343517D02*
X164062895Y-106295898D01*
X164062895Y-106295898D02*
X163967657Y-106248279D01*
X163967657Y-106248279D02*
X163920038Y-106200660D01*
X163920038Y-106200660D02*
X163872419Y-106105422D01*
X164872419Y-105391136D02*
X164872419Y-105153041D01*
X164872419Y-105153041D02*
X164681942Y-105153041D01*
X164681942Y-105153041D02*
X164634323Y-105248279D01*
X164634323Y-105248279D02*
X164539085Y-105343517D01*
X164539085Y-105343517D02*
X164396228Y-105391136D01*
X164396228Y-105391136D02*
X164158133Y-105391136D01*
X164158133Y-105391136D02*
X164015276Y-105343517D01*
X164015276Y-105343517D02*
X163920038Y-105248279D01*
X163920038Y-105248279D02*
X163872419Y-105105422D01*
X163872419Y-105105422D02*
X163872419Y-104914946D01*
X163872419Y-104914946D02*
X163920038Y-104772089D01*
X163920038Y-104772089D02*
X164015276Y-104676851D01*
X164015276Y-104676851D02*
X164158133Y-104629232D01*
X164158133Y-104629232D02*
X164396228Y-104629232D01*
X164396228Y-104629232D02*
X164539085Y-104676851D01*
X164539085Y-104676851D02*
X164634323Y-104772089D01*
X164634323Y-104772089D02*
X164681942Y-104867327D01*
X164681942Y-104867327D02*
X164872419Y-104867327D01*
X164872419Y-104867327D02*
X164872419Y-104629232D01*
X159911919Y-107724470D02*
X159911919Y-108200660D01*
X159911919Y-108200660D02*
X160388109Y-108248279D01*
X160388109Y-108248279D02*
X160340490Y-108200660D01*
X160340490Y-108200660D02*
X160292871Y-108105422D01*
X160292871Y-108105422D02*
X160292871Y-107867327D01*
X160292871Y-107867327D02*
X160340490Y-107772089D01*
X160340490Y-107772089D02*
X160388109Y-107724470D01*
X160388109Y-107724470D02*
X160483347Y-107676851D01*
X160483347Y-107676851D02*
X160721442Y-107676851D01*
X160721442Y-107676851D02*
X160816680Y-107724470D01*
X160816680Y-107724470D02*
X160864300Y-107772089D01*
X160864300Y-107772089D02*
X160911919Y-107867327D01*
X160911919Y-107867327D02*
X160911919Y-108105422D01*
X160911919Y-108105422D02*
X160864300Y-108200660D01*
X160864300Y-108200660D02*
X160816680Y-108248279D01*
X159911919Y-106819708D02*
X159911919Y-107010184D01*
X159911919Y-107010184D02*
X159959538Y-107105422D01*
X159959538Y-107105422D02*
X160007157Y-107153041D01*
X160007157Y-107153041D02*
X160150014Y-107248279D01*
X160150014Y-107248279D02*
X160340490Y-107295898D01*
X160340490Y-107295898D02*
X160721442Y-107295898D01*
X160721442Y-107295898D02*
X160816680Y-107248279D01*
X160816680Y-107248279D02*
X160864300Y-107200660D01*
X160864300Y-107200660D02*
X160911919Y-107105422D01*
X160911919Y-107105422D02*
X160911919Y-106914946D01*
X160911919Y-106914946D02*
X160864300Y-106819708D01*
X160864300Y-106819708D02*
X160816680Y-106772089D01*
X160816680Y-106772089D02*
X160721442Y-106724470D01*
X160721442Y-106724470D02*
X160483347Y-106724470D01*
X160483347Y-106724470D02*
X160388109Y-106772089D01*
X160388109Y-106772089D02*
X160340490Y-106819708D01*
X160340490Y-106819708D02*
X160292871Y-106914946D01*
X160292871Y-106914946D02*
X160292871Y-107105422D01*
X160292871Y-107105422D02*
X160340490Y-107200660D01*
X160340490Y-107200660D02*
X160388109Y-107248279D01*
X160388109Y-107248279D02*
X160483347Y-107295898D01*
X159911919Y-106105422D02*
X159911919Y-106010184D01*
X159911919Y-106010184D02*
X159959538Y-105914946D01*
X159959538Y-105914946D02*
X160007157Y-105867327D01*
X160007157Y-105867327D02*
X160102395Y-105819708D01*
X160102395Y-105819708D02*
X160292871Y-105772089D01*
X160292871Y-105772089D02*
X160530966Y-105772089D01*
X160530966Y-105772089D02*
X160721442Y-105819708D01*
X160721442Y-105819708D02*
X160816680Y-105867327D01*
X160816680Y-105867327D02*
X160864300Y-105914946D01*
X160864300Y-105914946D02*
X160911919Y-106010184D01*
X160911919Y-106010184D02*
X160911919Y-106105422D01*
X160911919Y-106105422D02*
X160864300Y-106200660D01*
X160864300Y-106200660D02*
X160816680Y-106248279D01*
X160816680Y-106248279D02*
X160721442Y-106295898D01*
X160721442Y-106295898D02*
X160530966Y-106343517D01*
X160530966Y-106343517D02*
X160292871Y-106343517D01*
X160292871Y-106343517D02*
X160102395Y-106295898D01*
X160102395Y-106295898D02*
X160007157Y-106248279D01*
X160007157Y-106248279D02*
X159959538Y-106200660D01*
X159959538Y-106200660D02*
X159911919Y-106105422D01*
X160911919Y-105391136D02*
X160911919Y-105153041D01*
X160911919Y-105153041D02*
X160721442Y-105153041D01*
X160721442Y-105153041D02*
X160673823Y-105248279D01*
X160673823Y-105248279D02*
X160578585Y-105343517D01*
X160578585Y-105343517D02*
X160435728Y-105391136D01*
X160435728Y-105391136D02*
X160197633Y-105391136D01*
X160197633Y-105391136D02*
X160054776Y-105343517D01*
X160054776Y-105343517D02*
X159959538Y-105248279D01*
X159959538Y-105248279D02*
X159911919Y-105105422D01*
X159911919Y-105105422D02*
X159911919Y-104914946D01*
X159911919Y-104914946D02*
X159959538Y-104772089D01*
X159959538Y-104772089D02*
X160054776Y-104676851D01*
X160054776Y-104676851D02*
X160197633Y-104629232D01*
X160197633Y-104629232D02*
X160435728Y-104629232D01*
X160435728Y-104629232D02*
X160578585Y-104676851D01*
X160578585Y-104676851D02*
X160673823Y-104772089D01*
X160673823Y-104772089D02*
X160721442Y-104867327D01*
X160721442Y-104867327D02*
X160911919Y-104867327D01*
X160911919Y-104867327D02*
X160911919Y-104629232D01*
X155911919Y-107724470D02*
X155911919Y-108200660D01*
X155911919Y-108200660D02*
X156388109Y-108248279D01*
X156388109Y-108248279D02*
X156340490Y-108200660D01*
X156340490Y-108200660D02*
X156292871Y-108105422D01*
X156292871Y-108105422D02*
X156292871Y-107867327D01*
X156292871Y-107867327D02*
X156340490Y-107772089D01*
X156340490Y-107772089D02*
X156388109Y-107724470D01*
X156388109Y-107724470D02*
X156483347Y-107676851D01*
X156483347Y-107676851D02*
X156721442Y-107676851D01*
X156721442Y-107676851D02*
X156816680Y-107724470D01*
X156816680Y-107724470D02*
X156864300Y-107772089D01*
X156864300Y-107772089D02*
X156911919Y-107867327D01*
X156911919Y-107867327D02*
X156911919Y-108105422D01*
X156911919Y-108105422D02*
X156864300Y-108200660D01*
X156864300Y-108200660D02*
X156816680Y-108248279D01*
X155911919Y-106819708D02*
X155911919Y-107010184D01*
X155911919Y-107010184D02*
X155959538Y-107105422D01*
X155959538Y-107105422D02*
X156007157Y-107153041D01*
X156007157Y-107153041D02*
X156150014Y-107248279D01*
X156150014Y-107248279D02*
X156340490Y-107295898D01*
X156340490Y-107295898D02*
X156721442Y-107295898D01*
X156721442Y-107295898D02*
X156816680Y-107248279D01*
X156816680Y-107248279D02*
X156864300Y-107200660D01*
X156864300Y-107200660D02*
X156911919Y-107105422D01*
X156911919Y-107105422D02*
X156911919Y-106914946D01*
X156911919Y-106914946D02*
X156864300Y-106819708D01*
X156864300Y-106819708D02*
X156816680Y-106772089D01*
X156816680Y-106772089D02*
X156721442Y-106724470D01*
X156721442Y-106724470D02*
X156483347Y-106724470D01*
X156483347Y-106724470D02*
X156388109Y-106772089D01*
X156388109Y-106772089D02*
X156340490Y-106819708D01*
X156340490Y-106819708D02*
X156292871Y-106914946D01*
X156292871Y-106914946D02*
X156292871Y-107105422D01*
X156292871Y-107105422D02*
X156340490Y-107200660D01*
X156340490Y-107200660D02*
X156388109Y-107248279D01*
X156388109Y-107248279D02*
X156483347Y-107295898D01*
X155911919Y-106105422D02*
X155911919Y-106010184D01*
X155911919Y-106010184D02*
X155959538Y-105914946D01*
X155959538Y-105914946D02*
X156007157Y-105867327D01*
X156007157Y-105867327D02*
X156102395Y-105819708D01*
X156102395Y-105819708D02*
X156292871Y-105772089D01*
X156292871Y-105772089D02*
X156530966Y-105772089D01*
X156530966Y-105772089D02*
X156721442Y-105819708D01*
X156721442Y-105819708D02*
X156816680Y-105867327D01*
X156816680Y-105867327D02*
X156864300Y-105914946D01*
X156864300Y-105914946D02*
X156911919Y-106010184D01*
X156911919Y-106010184D02*
X156911919Y-106105422D01*
X156911919Y-106105422D02*
X156864300Y-106200660D01*
X156864300Y-106200660D02*
X156816680Y-106248279D01*
X156816680Y-106248279D02*
X156721442Y-106295898D01*
X156721442Y-106295898D02*
X156530966Y-106343517D01*
X156530966Y-106343517D02*
X156292871Y-106343517D01*
X156292871Y-106343517D02*
X156102395Y-106295898D01*
X156102395Y-106295898D02*
X156007157Y-106248279D01*
X156007157Y-106248279D02*
X155959538Y-106200660D01*
X155959538Y-106200660D02*
X155911919Y-106105422D01*
X156911919Y-105391136D02*
X156911919Y-105153041D01*
X156911919Y-105153041D02*
X156721442Y-105153041D01*
X156721442Y-105153041D02*
X156673823Y-105248279D01*
X156673823Y-105248279D02*
X156578585Y-105343517D01*
X156578585Y-105343517D02*
X156435728Y-105391136D01*
X156435728Y-105391136D02*
X156197633Y-105391136D01*
X156197633Y-105391136D02*
X156054776Y-105343517D01*
X156054776Y-105343517D02*
X155959538Y-105248279D01*
X155959538Y-105248279D02*
X155911919Y-105105422D01*
X155911919Y-105105422D02*
X155911919Y-104914946D01*
X155911919Y-104914946D02*
X155959538Y-104772089D01*
X155959538Y-104772089D02*
X156054776Y-104676851D01*
X156054776Y-104676851D02*
X156197633Y-104629232D01*
X156197633Y-104629232D02*
X156435728Y-104629232D01*
X156435728Y-104629232D02*
X156578585Y-104676851D01*
X156578585Y-104676851D02*
X156673823Y-104772089D01*
X156673823Y-104772089D02*
X156721442Y-104867327D01*
X156721442Y-104867327D02*
X156911919Y-104867327D01*
X156911919Y-104867327D02*
X156911919Y-104629232D01*
X151911919Y-107724470D02*
X151911919Y-108200660D01*
X151911919Y-108200660D02*
X152388109Y-108248279D01*
X152388109Y-108248279D02*
X152340490Y-108200660D01*
X152340490Y-108200660D02*
X152292871Y-108105422D01*
X152292871Y-108105422D02*
X152292871Y-107867327D01*
X152292871Y-107867327D02*
X152340490Y-107772089D01*
X152340490Y-107772089D02*
X152388109Y-107724470D01*
X152388109Y-107724470D02*
X152483347Y-107676851D01*
X152483347Y-107676851D02*
X152721442Y-107676851D01*
X152721442Y-107676851D02*
X152816680Y-107724470D01*
X152816680Y-107724470D02*
X152864300Y-107772089D01*
X152864300Y-107772089D02*
X152911919Y-107867327D01*
X152911919Y-107867327D02*
X152911919Y-108105422D01*
X152911919Y-108105422D02*
X152864300Y-108200660D01*
X152864300Y-108200660D02*
X152816680Y-108248279D01*
X151911919Y-106819708D02*
X151911919Y-107010184D01*
X151911919Y-107010184D02*
X151959538Y-107105422D01*
X151959538Y-107105422D02*
X152007157Y-107153041D01*
X152007157Y-107153041D02*
X152150014Y-107248279D01*
X152150014Y-107248279D02*
X152340490Y-107295898D01*
X152340490Y-107295898D02*
X152721442Y-107295898D01*
X152721442Y-107295898D02*
X152816680Y-107248279D01*
X152816680Y-107248279D02*
X152864300Y-107200660D01*
X152864300Y-107200660D02*
X152911919Y-107105422D01*
X152911919Y-107105422D02*
X152911919Y-106914946D01*
X152911919Y-106914946D02*
X152864300Y-106819708D01*
X152864300Y-106819708D02*
X152816680Y-106772089D01*
X152816680Y-106772089D02*
X152721442Y-106724470D01*
X152721442Y-106724470D02*
X152483347Y-106724470D01*
X152483347Y-106724470D02*
X152388109Y-106772089D01*
X152388109Y-106772089D02*
X152340490Y-106819708D01*
X152340490Y-106819708D02*
X152292871Y-106914946D01*
X152292871Y-106914946D02*
X152292871Y-107105422D01*
X152292871Y-107105422D02*
X152340490Y-107200660D01*
X152340490Y-107200660D02*
X152388109Y-107248279D01*
X152388109Y-107248279D02*
X152483347Y-107295898D01*
X151911919Y-106105422D02*
X151911919Y-106010184D01*
X151911919Y-106010184D02*
X151959538Y-105914946D01*
X151959538Y-105914946D02*
X152007157Y-105867327D01*
X152007157Y-105867327D02*
X152102395Y-105819708D01*
X152102395Y-105819708D02*
X152292871Y-105772089D01*
X152292871Y-105772089D02*
X152530966Y-105772089D01*
X152530966Y-105772089D02*
X152721442Y-105819708D01*
X152721442Y-105819708D02*
X152816680Y-105867327D01*
X152816680Y-105867327D02*
X152864300Y-105914946D01*
X152864300Y-105914946D02*
X152911919Y-106010184D01*
X152911919Y-106010184D02*
X152911919Y-106105422D01*
X152911919Y-106105422D02*
X152864300Y-106200660D01*
X152864300Y-106200660D02*
X152816680Y-106248279D01*
X152816680Y-106248279D02*
X152721442Y-106295898D01*
X152721442Y-106295898D02*
X152530966Y-106343517D01*
X152530966Y-106343517D02*
X152292871Y-106343517D01*
X152292871Y-106343517D02*
X152102395Y-106295898D01*
X152102395Y-106295898D02*
X152007157Y-106248279D01*
X152007157Y-106248279D02*
X151959538Y-106200660D01*
X151959538Y-106200660D02*
X151911919Y-106105422D01*
X152911919Y-105391136D02*
X152911919Y-105153041D01*
X152911919Y-105153041D02*
X152721442Y-105153041D01*
X152721442Y-105153041D02*
X152673823Y-105248279D01*
X152673823Y-105248279D02*
X152578585Y-105343517D01*
X152578585Y-105343517D02*
X152435728Y-105391136D01*
X152435728Y-105391136D02*
X152197633Y-105391136D01*
X152197633Y-105391136D02*
X152054776Y-105343517D01*
X152054776Y-105343517D02*
X151959538Y-105248279D01*
X151959538Y-105248279D02*
X151911919Y-105105422D01*
X151911919Y-105105422D02*
X151911919Y-104914946D01*
X151911919Y-104914946D02*
X151959538Y-104772089D01*
X151959538Y-104772089D02*
X152054776Y-104676851D01*
X152054776Y-104676851D02*
X152197633Y-104629232D01*
X152197633Y-104629232D02*
X152435728Y-104629232D01*
X152435728Y-104629232D02*
X152578585Y-104676851D01*
X152578585Y-104676851D02*
X152673823Y-104772089D01*
X152673823Y-104772089D02*
X152721442Y-104867327D01*
X152721442Y-104867327D02*
X152911919Y-104867327D01*
X152911919Y-104867327D02*
X152911919Y-104629232D01*
X151730074Y-90738665D02*
X151872931Y-90786284D01*
X151872931Y-90786284D02*
X151920550Y-90833903D01*
X151920550Y-90833903D02*
X151968169Y-90929141D01*
X151968169Y-90929141D02*
X151968169Y-91071998D01*
X151968169Y-91071998D02*
X151920550Y-91167236D01*
X151920550Y-91167236D02*
X151872931Y-91214856D01*
X151872931Y-91214856D02*
X151777693Y-91262475D01*
X151777693Y-91262475D02*
X151396741Y-91262475D01*
X151396741Y-91262475D02*
X151396741Y-90262475D01*
X151396741Y-90262475D02*
X151730074Y-90262475D01*
X151730074Y-90262475D02*
X151825312Y-90310094D01*
X151825312Y-90310094D02*
X151872931Y-90357713D01*
X151872931Y-90357713D02*
X151920550Y-90452951D01*
X151920550Y-90452951D02*
X151920550Y-90548189D01*
X151920550Y-90548189D02*
X151872931Y-90643427D01*
X151872931Y-90643427D02*
X151825312Y-90691046D01*
X151825312Y-90691046D02*
X151730074Y-90738665D01*
X151730074Y-90738665D02*
X151396741Y-90738665D01*
X152301503Y-90262475D02*
X152968169Y-90262475D01*
X152968169Y-90262475D02*
X152539598Y-91262475D01*
X151872931Y-92872419D02*
X151396741Y-92872419D01*
X151396741Y-92872419D02*
X151396741Y-91872419D01*
X152206265Y-92348609D02*
X152539598Y-92348609D01*
X152682455Y-92872419D02*
X152206265Y-92872419D01*
X152206265Y-92872419D02*
X152206265Y-91872419D01*
X152206265Y-91872419D02*
X152682455Y-91872419D01*
X153111027Y-92872419D02*
X153111027Y-91872419D01*
X153111027Y-91872419D02*
X153349122Y-91872419D01*
X153349122Y-91872419D02*
X153491979Y-91920038D01*
X153491979Y-91920038D02*
X153587217Y-92015276D01*
X153587217Y-92015276D02*
X153634836Y-92110514D01*
X153634836Y-92110514D02*
X153682455Y-92300990D01*
X153682455Y-92300990D02*
X153682455Y-92443847D01*
X153682455Y-92443847D02*
X153634836Y-92634323D01*
X153634836Y-92634323D02*
X153587217Y-92729561D01*
X153587217Y-92729561D02*
X153491979Y-92824800D01*
X153491979Y-92824800D02*
X153349122Y-92872419D01*
X153349122Y-92872419D02*
X153111027Y-92872419D01*
X155730074Y-90738665D02*
X155872931Y-90786284D01*
X155872931Y-90786284D02*
X155920550Y-90833903D01*
X155920550Y-90833903D02*
X155968169Y-90929141D01*
X155968169Y-90929141D02*
X155968169Y-91071998D01*
X155968169Y-91071998D02*
X155920550Y-91167236D01*
X155920550Y-91167236D02*
X155872931Y-91214856D01*
X155872931Y-91214856D02*
X155777693Y-91262475D01*
X155777693Y-91262475D02*
X155396741Y-91262475D01*
X155396741Y-91262475D02*
X155396741Y-90262475D01*
X155396741Y-90262475D02*
X155730074Y-90262475D01*
X155730074Y-90262475D02*
X155825312Y-90310094D01*
X155825312Y-90310094D02*
X155872931Y-90357713D01*
X155872931Y-90357713D02*
X155920550Y-90452951D01*
X155920550Y-90452951D02*
X155920550Y-90548189D01*
X155920550Y-90548189D02*
X155872931Y-90643427D01*
X155872931Y-90643427D02*
X155825312Y-90691046D01*
X155825312Y-90691046D02*
X155730074Y-90738665D01*
X155730074Y-90738665D02*
X155396741Y-90738665D01*
X156825312Y-90262475D02*
X156634836Y-90262475D01*
X156634836Y-90262475D02*
X156539598Y-90310094D01*
X156539598Y-90310094D02*
X156491979Y-90357713D01*
X156491979Y-90357713D02*
X156396741Y-90500570D01*
X156396741Y-90500570D02*
X156349122Y-90691046D01*
X156349122Y-90691046D02*
X156349122Y-91071998D01*
X156349122Y-91071998D02*
X156396741Y-91167236D01*
X156396741Y-91167236D02*
X156444360Y-91214856D01*
X156444360Y-91214856D02*
X156539598Y-91262475D01*
X156539598Y-91262475D02*
X156730074Y-91262475D01*
X156730074Y-91262475D02*
X156825312Y-91214856D01*
X156825312Y-91214856D02*
X156872931Y-91167236D01*
X156872931Y-91167236D02*
X156920550Y-91071998D01*
X156920550Y-91071998D02*
X156920550Y-90833903D01*
X156920550Y-90833903D02*
X156872931Y-90738665D01*
X156872931Y-90738665D02*
X156825312Y-90691046D01*
X156825312Y-90691046D02*
X156730074Y-90643427D01*
X156730074Y-90643427D02*
X156539598Y-90643427D01*
X156539598Y-90643427D02*
X156444360Y-90691046D01*
X156444360Y-90691046D02*
X156396741Y-90738665D01*
X156396741Y-90738665D02*
X156349122Y-90833903D01*
X155872931Y-92872419D02*
X155396741Y-92872419D01*
X155396741Y-92872419D02*
X155396741Y-91872419D01*
X156206265Y-92348609D02*
X156539598Y-92348609D01*
X156682455Y-92872419D02*
X156206265Y-92872419D01*
X156206265Y-92872419D02*
X156206265Y-91872419D01*
X156206265Y-91872419D02*
X156682455Y-91872419D01*
X157111027Y-92872419D02*
X157111027Y-91872419D01*
X157111027Y-91872419D02*
X157349122Y-91872419D01*
X157349122Y-91872419D02*
X157491979Y-91920038D01*
X157491979Y-91920038D02*
X157587217Y-92015276D01*
X157587217Y-92015276D02*
X157634836Y-92110514D01*
X157634836Y-92110514D02*
X157682455Y-92300990D01*
X157682455Y-92300990D02*
X157682455Y-92443847D01*
X157682455Y-92443847D02*
X157634836Y-92634323D01*
X157634836Y-92634323D02*
X157587217Y-92729561D01*
X157587217Y-92729561D02*
X157491979Y-92824800D01*
X157491979Y-92824800D02*
X157349122Y-92872419D01*
X157349122Y-92872419D02*
X157111027Y-92872419D01*
X159730074Y-90738665D02*
X159872931Y-90786284D01*
X159872931Y-90786284D02*
X159920550Y-90833903D01*
X159920550Y-90833903D02*
X159968169Y-90929141D01*
X159968169Y-90929141D02*
X159968169Y-91071998D01*
X159968169Y-91071998D02*
X159920550Y-91167236D01*
X159920550Y-91167236D02*
X159872931Y-91214856D01*
X159872931Y-91214856D02*
X159777693Y-91262475D01*
X159777693Y-91262475D02*
X159396741Y-91262475D01*
X159396741Y-91262475D02*
X159396741Y-90262475D01*
X159396741Y-90262475D02*
X159730074Y-90262475D01*
X159730074Y-90262475D02*
X159825312Y-90310094D01*
X159825312Y-90310094D02*
X159872931Y-90357713D01*
X159872931Y-90357713D02*
X159920550Y-90452951D01*
X159920550Y-90452951D02*
X159920550Y-90548189D01*
X159920550Y-90548189D02*
X159872931Y-90643427D01*
X159872931Y-90643427D02*
X159825312Y-90691046D01*
X159825312Y-90691046D02*
X159730074Y-90738665D01*
X159730074Y-90738665D02*
X159396741Y-90738665D01*
X160872931Y-90262475D02*
X160396741Y-90262475D01*
X160396741Y-90262475D02*
X160349122Y-90738665D01*
X160349122Y-90738665D02*
X160396741Y-90691046D01*
X160396741Y-90691046D02*
X160491979Y-90643427D01*
X160491979Y-90643427D02*
X160730074Y-90643427D01*
X160730074Y-90643427D02*
X160825312Y-90691046D01*
X160825312Y-90691046D02*
X160872931Y-90738665D01*
X160872931Y-90738665D02*
X160920550Y-90833903D01*
X160920550Y-90833903D02*
X160920550Y-91071998D01*
X160920550Y-91071998D02*
X160872931Y-91167236D01*
X160872931Y-91167236D02*
X160825312Y-91214856D01*
X160825312Y-91214856D02*
X160730074Y-91262475D01*
X160730074Y-91262475D02*
X160491979Y-91262475D01*
X160491979Y-91262475D02*
X160396741Y-91214856D01*
X160396741Y-91214856D02*
X160349122Y-91167236D01*
X159872931Y-92872419D02*
X159396741Y-92872419D01*
X159396741Y-92872419D02*
X159396741Y-91872419D01*
X160206265Y-92348609D02*
X160539598Y-92348609D01*
X160682455Y-92872419D02*
X160206265Y-92872419D01*
X160206265Y-92872419D02*
X160206265Y-91872419D01*
X160206265Y-91872419D02*
X160682455Y-91872419D01*
X161111027Y-92872419D02*
X161111027Y-91872419D01*
X161111027Y-91872419D02*
X161349122Y-91872419D01*
X161349122Y-91872419D02*
X161491979Y-91920038D01*
X161491979Y-91920038D02*
X161587217Y-92015276D01*
X161587217Y-92015276D02*
X161634836Y-92110514D01*
X161634836Y-92110514D02*
X161682455Y-92300990D01*
X161682455Y-92300990D02*
X161682455Y-92443847D01*
X161682455Y-92443847D02*
X161634836Y-92634323D01*
X161634836Y-92634323D02*
X161587217Y-92729561D01*
X161587217Y-92729561D02*
X161491979Y-92824800D01*
X161491979Y-92824800D02*
X161349122Y-92872419D01*
X161349122Y-92872419D02*
X161111027Y-92872419D01*
X163208646Y-90262475D02*
X163875312Y-90262475D01*
X163875312Y-90262475D02*
X163446741Y-91262475D01*
X163637217Y-92348609D02*
X163780074Y-92396228D01*
X163780074Y-92396228D02*
X163827693Y-92443847D01*
X163827693Y-92443847D02*
X163875312Y-92539085D01*
X163875312Y-92539085D02*
X163875312Y-92681942D01*
X163875312Y-92681942D02*
X163827693Y-92777180D01*
X163827693Y-92777180D02*
X163780074Y-92824800D01*
X163780074Y-92824800D02*
X163684836Y-92872419D01*
X163684836Y-92872419D02*
X163303884Y-92872419D01*
X163303884Y-92872419D02*
X163303884Y-91872419D01*
X163303884Y-91872419D02*
X163637217Y-91872419D01*
X163637217Y-91872419D02*
X163732455Y-91920038D01*
X163732455Y-91920038D02*
X163780074Y-91967657D01*
X163780074Y-91967657D02*
X163827693Y-92062895D01*
X163827693Y-92062895D02*
X163827693Y-92158133D01*
X163827693Y-92158133D02*
X163780074Y-92253371D01*
X163780074Y-92253371D02*
X163732455Y-92300990D01*
X163732455Y-92300990D02*
X163637217Y-92348609D01*
X163637217Y-92348609D02*
X163303884Y-92348609D01*
X164161027Y-91872419D02*
X164732455Y-91872419D01*
X164446741Y-92872419D02*
X164446741Y-91872419D01*
X165065789Y-92872419D02*
X165065789Y-91872419D01*
X165065789Y-91872419D02*
X165637217Y-92872419D01*
X165637217Y-92872419D02*
X165637217Y-91872419D01*
X167777693Y-90262475D02*
X167587217Y-90262475D01*
X167587217Y-90262475D02*
X167491979Y-90310094D01*
X167491979Y-90310094D02*
X167444360Y-90357713D01*
X167444360Y-90357713D02*
X167349122Y-90500570D01*
X167349122Y-90500570D02*
X167301503Y-90691046D01*
X167301503Y-90691046D02*
X167301503Y-91071998D01*
X167301503Y-91071998D02*
X167349122Y-91167236D01*
X167349122Y-91167236D02*
X167396741Y-91214856D01*
X167396741Y-91214856D02*
X167491979Y-91262475D01*
X167491979Y-91262475D02*
X167682455Y-91262475D01*
X167682455Y-91262475D02*
X167777693Y-91214856D01*
X167777693Y-91214856D02*
X167825312Y-91167236D01*
X167825312Y-91167236D02*
X167872931Y-91071998D01*
X167872931Y-91071998D02*
X167872931Y-90833903D01*
X167872931Y-90833903D02*
X167825312Y-90738665D01*
X167825312Y-90738665D02*
X167777693Y-90691046D01*
X167777693Y-90691046D02*
X167682455Y-90643427D01*
X167682455Y-90643427D02*
X167491979Y-90643427D01*
X167491979Y-90643427D02*
X167396741Y-90691046D01*
X167396741Y-90691046D02*
X167349122Y-90738665D01*
X167349122Y-90738665D02*
X167301503Y-90833903D01*
X167682455Y-92348609D02*
X167825312Y-92396228D01*
X167825312Y-92396228D02*
X167872931Y-92443847D01*
X167872931Y-92443847D02*
X167920550Y-92539085D01*
X167920550Y-92539085D02*
X167920550Y-92681942D01*
X167920550Y-92681942D02*
X167872931Y-92777180D01*
X167872931Y-92777180D02*
X167825312Y-92824800D01*
X167825312Y-92824800D02*
X167730074Y-92872419D01*
X167730074Y-92872419D02*
X167349122Y-92872419D01*
X167349122Y-92872419D02*
X167349122Y-91872419D01*
X167349122Y-91872419D02*
X167682455Y-91872419D01*
X167682455Y-91872419D02*
X167777693Y-91920038D01*
X167777693Y-91920038D02*
X167825312Y-91967657D01*
X167825312Y-91967657D02*
X167872931Y-92062895D01*
X167872931Y-92062895D02*
X167872931Y-92158133D01*
X167872931Y-92158133D02*
X167825312Y-92253371D01*
X167825312Y-92253371D02*
X167777693Y-92300990D01*
X167777693Y-92300990D02*
X167682455Y-92348609D01*
X167682455Y-92348609D02*
X167349122Y-92348609D01*
X168206265Y-91872419D02*
X168777693Y-91872419D01*
X168491979Y-92872419D02*
X168491979Y-91872419D01*
X169111027Y-92872419D02*
X169111027Y-91872419D01*
X169111027Y-91872419D02*
X169682455Y-92872419D01*
X169682455Y-92872419D02*
X169682455Y-91872419D01*
X171825312Y-90262475D02*
X171349122Y-90262475D01*
X171349122Y-90262475D02*
X171301503Y-90738665D01*
X171301503Y-90738665D02*
X171349122Y-90691046D01*
X171349122Y-90691046D02*
X171444360Y-90643427D01*
X171444360Y-90643427D02*
X171682455Y-90643427D01*
X171682455Y-90643427D02*
X171777693Y-90691046D01*
X171777693Y-90691046D02*
X171825312Y-90738665D01*
X171825312Y-90738665D02*
X171872931Y-90833903D01*
X171872931Y-90833903D02*
X171872931Y-91071998D01*
X171872931Y-91071998D02*
X171825312Y-91167236D01*
X171825312Y-91167236D02*
X171777693Y-91214856D01*
X171777693Y-91214856D02*
X171682455Y-91262475D01*
X171682455Y-91262475D02*
X171444360Y-91262475D01*
X171444360Y-91262475D02*
X171349122Y-91214856D01*
X171349122Y-91214856D02*
X171301503Y-91167236D01*
X171682455Y-92348609D02*
X171825312Y-92396228D01*
X171825312Y-92396228D02*
X171872931Y-92443847D01*
X171872931Y-92443847D02*
X171920550Y-92539085D01*
X171920550Y-92539085D02*
X171920550Y-92681942D01*
X171920550Y-92681942D02*
X171872931Y-92777180D01*
X171872931Y-92777180D02*
X171825312Y-92824800D01*
X171825312Y-92824800D02*
X171730074Y-92872419D01*
X171730074Y-92872419D02*
X171349122Y-92872419D01*
X171349122Y-92872419D02*
X171349122Y-91872419D01*
X171349122Y-91872419D02*
X171682455Y-91872419D01*
X171682455Y-91872419D02*
X171777693Y-91920038D01*
X171777693Y-91920038D02*
X171825312Y-91967657D01*
X171825312Y-91967657D02*
X171872931Y-92062895D01*
X171872931Y-92062895D02*
X171872931Y-92158133D01*
X171872931Y-92158133D02*
X171825312Y-92253371D01*
X171825312Y-92253371D02*
X171777693Y-92300990D01*
X171777693Y-92300990D02*
X171682455Y-92348609D01*
X171682455Y-92348609D02*
X171349122Y-92348609D01*
X172206265Y-91872419D02*
X172777693Y-91872419D01*
X172491979Y-92872419D02*
X172491979Y-91872419D01*
X173111027Y-92872419D02*
X173111027Y-91872419D01*
X173111027Y-91872419D02*
X173682455Y-92872419D01*
X173682455Y-92872419D02*
X173682455Y-91872419D01*
X114732455Y-114455752D02*
X114732455Y-115122419D01*
X114494360Y-114074800D02*
X114256265Y-114789085D01*
X114256265Y-114789085D02*
X114875312Y-114789085D01*
X115446741Y-114122419D02*
X115541979Y-114122419D01*
X115541979Y-114122419D02*
X115637217Y-114170038D01*
X115637217Y-114170038D02*
X115684836Y-114217657D01*
X115684836Y-114217657D02*
X115732455Y-114312895D01*
X115732455Y-114312895D02*
X115780074Y-114503371D01*
X115780074Y-114503371D02*
X115780074Y-114741466D01*
X115780074Y-114741466D02*
X115732455Y-114931942D01*
X115732455Y-114931942D02*
X115684836Y-115027180D01*
X115684836Y-115027180D02*
X115637217Y-115074800D01*
X115637217Y-115074800D02*
X115541979Y-115122419D01*
X115541979Y-115122419D02*
X115446741Y-115122419D01*
X115446741Y-115122419D02*
X115351503Y-115074800D01*
X115351503Y-115074800D02*
X115303884Y-115027180D01*
X115303884Y-115027180D02*
X115256265Y-114931942D01*
X115256265Y-114931942D02*
X115208646Y-114741466D01*
X115208646Y-114741466D02*
X115208646Y-114503371D01*
X115208646Y-114503371D02*
X115256265Y-114312895D01*
X115256265Y-114312895D02*
X115303884Y-114217657D01*
X115303884Y-114217657D02*
X115351503Y-114170038D01*
X115351503Y-114170038D02*
X115446741Y-114122419D01*
X138780074Y-128872419D02*
X138303884Y-128872419D01*
X138303884Y-128872419D02*
X138303884Y-127872419D01*
X139684836Y-128777180D02*
X139637217Y-128824800D01*
X139637217Y-128824800D02*
X139494360Y-128872419D01*
X139494360Y-128872419D02*
X139399122Y-128872419D01*
X139399122Y-128872419D02*
X139256265Y-128824800D01*
X139256265Y-128824800D02*
X139161027Y-128729561D01*
X139161027Y-128729561D02*
X139113408Y-128634323D01*
X139113408Y-128634323D02*
X139065789Y-128443847D01*
X139065789Y-128443847D02*
X139065789Y-128300990D01*
X139065789Y-128300990D02*
X139113408Y-128110514D01*
X139113408Y-128110514D02*
X139161027Y-128015276D01*
X139161027Y-128015276D02*
X139256265Y-127920038D01*
X139256265Y-127920038D02*
X139399122Y-127872419D01*
X139399122Y-127872419D02*
X139494360Y-127872419D01*
X139494360Y-127872419D02*
X139637217Y-127920038D01*
X139637217Y-127920038D02*
X139684836Y-127967657D01*
X140113408Y-128872419D02*
X140113408Y-127872419D01*
X140113408Y-127872419D02*
X140351503Y-127872419D01*
X140351503Y-127872419D02*
X140494360Y-127920038D01*
X140494360Y-127920038D02*
X140589598Y-128015276D01*
X140589598Y-128015276D02*
X140637217Y-128110514D01*
X140637217Y-128110514D02*
X140684836Y-128300990D01*
X140684836Y-128300990D02*
X140684836Y-128443847D01*
X140684836Y-128443847D02*
X140637217Y-128634323D01*
X140637217Y-128634323D02*
X140589598Y-128729561D01*
X140589598Y-128729561D02*
X140494360Y-128824800D01*
X140494360Y-128824800D02*
X140351503Y-128872419D01*
X140351503Y-128872419D02*
X140113408Y-128872419D01*
X136007157Y-108248279D02*
X135959538Y-108200660D01*
X135959538Y-108200660D02*
X135911919Y-108105422D01*
X135911919Y-108105422D02*
X135911919Y-107867327D01*
X135911919Y-107867327D02*
X135959538Y-107772089D01*
X135959538Y-107772089D02*
X136007157Y-107724470D01*
X136007157Y-107724470D02*
X136102395Y-107676851D01*
X136102395Y-107676851D02*
X136197633Y-107676851D01*
X136197633Y-107676851D02*
X136340490Y-107724470D01*
X136340490Y-107724470D02*
X136911919Y-108295898D01*
X136911919Y-108295898D02*
X136911919Y-107676851D01*
X136007157Y-107295898D02*
X135959538Y-107248279D01*
X135959538Y-107248279D02*
X135911919Y-107153041D01*
X135911919Y-107153041D02*
X135911919Y-106914946D01*
X135911919Y-106914946D02*
X135959538Y-106819708D01*
X135959538Y-106819708D02*
X136007157Y-106772089D01*
X136007157Y-106772089D02*
X136102395Y-106724470D01*
X136102395Y-106724470D02*
X136197633Y-106724470D01*
X136197633Y-106724470D02*
X136340490Y-106772089D01*
X136340490Y-106772089D02*
X136911919Y-107343517D01*
X136911919Y-107343517D02*
X136911919Y-106724470D01*
X135911919Y-106105422D02*
X135911919Y-106010184D01*
X135911919Y-106010184D02*
X135959538Y-105914946D01*
X135959538Y-105914946D02*
X136007157Y-105867327D01*
X136007157Y-105867327D02*
X136102395Y-105819708D01*
X136102395Y-105819708D02*
X136292871Y-105772089D01*
X136292871Y-105772089D02*
X136530966Y-105772089D01*
X136530966Y-105772089D02*
X136721442Y-105819708D01*
X136721442Y-105819708D02*
X136816680Y-105867327D01*
X136816680Y-105867327D02*
X136864300Y-105914946D01*
X136864300Y-105914946D02*
X136911919Y-106010184D01*
X136911919Y-106010184D02*
X136911919Y-106105422D01*
X136911919Y-106105422D02*
X136864300Y-106200660D01*
X136864300Y-106200660D02*
X136816680Y-106248279D01*
X136816680Y-106248279D02*
X136721442Y-106295898D01*
X136721442Y-106295898D02*
X136530966Y-106343517D01*
X136530966Y-106343517D02*
X136292871Y-106343517D01*
X136292871Y-106343517D02*
X136102395Y-106295898D01*
X136102395Y-106295898D02*
X136007157Y-106248279D01*
X136007157Y-106248279D02*
X135959538Y-106200660D01*
X135959538Y-106200660D02*
X135911919Y-106105422D01*
X136911919Y-105391136D02*
X136911919Y-105153041D01*
X136911919Y-105153041D02*
X136721442Y-105153041D01*
X136721442Y-105153041D02*
X136673823Y-105248279D01*
X136673823Y-105248279D02*
X136578585Y-105343517D01*
X136578585Y-105343517D02*
X136435728Y-105391136D01*
X136435728Y-105391136D02*
X136197633Y-105391136D01*
X136197633Y-105391136D02*
X136054776Y-105343517D01*
X136054776Y-105343517D02*
X135959538Y-105248279D01*
X135959538Y-105248279D02*
X135911919Y-105105422D01*
X135911919Y-105105422D02*
X135911919Y-104914946D01*
X135911919Y-104914946D02*
X135959538Y-104772089D01*
X135959538Y-104772089D02*
X136054776Y-104676851D01*
X136054776Y-104676851D02*
X136197633Y-104629232D01*
X136197633Y-104629232D02*
X136435728Y-104629232D01*
X136435728Y-104629232D02*
X136578585Y-104676851D01*
X136578585Y-104676851D02*
X136673823Y-104772089D01*
X136673823Y-104772089D02*
X136721442Y-104867327D01*
X136721442Y-104867327D02*
X136911919Y-104867327D01*
X136911919Y-104867327D02*
X136911919Y-104629232D01*
X115690574Y-90738665D02*
X115833431Y-90786284D01*
X115833431Y-90786284D02*
X115881050Y-90833903D01*
X115881050Y-90833903D02*
X115928669Y-90929141D01*
X115928669Y-90929141D02*
X115928669Y-91071998D01*
X115928669Y-91071998D02*
X115881050Y-91167236D01*
X115881050Y-91167236D02*
X115833431Y-91214856D01*
X115833431Y-91214856D02*
X115738193Y-91262475D01*
X115738193Y-91262475D02*
X115357241Y-91262475D01*
X115357241Y-91262475D02*
X115357241Y-90262475D01*
X115357241Y-90262475D02*
X115690574Y-90262475D01*
X115690574Y-90262475D02*
X115785812Y-90310094D01*
X115785812Y-90310094D02*
X115833431Y-90357713D01*
X115833431Y-90357713D02*
X115881050Y-90452951D01*
X115881050Y-90452951D02*
X115881050Y-90548189D01*
X115881050Y-90548189D02*
X115833431Y-90643427D01*
X115833431Y-90643427D02*
X115785812Y-90691046D01*
X115785812Y-90691046D02*
X115690574Y-90738665D01*
X115690574Y-90738665D02*
X115357241Y-90738665D01*
X116309622Y-90357713D02*
X116357241Y-90310094D01*
X116357241Y-90310094D02*
X116452479Y-90262475D01*
X116452479Y-90262475D02*
X116690574Y-90262475D01*
X116690574Y-90262475D02*
X116785812Y-90310094D01*
X116785812Y-90310094D02*
X116833431Y-90357713D01*
X116833431Y-90357713D02*
X116881050Y-90452951D01*
X116881050Y-90452951D02*
X116881050Y-90548189D01*
X116881050Y-90548189D02*
X116833431Y-90691046D01*
X116833431Y-90691046D02*
X116262003Y-91262475D01*
X116262003Y-91262475D02*
X116881050Y-91262475D01*
X115833431Y-92872419D02*
X115357241Y-92872419D01*
X115357241Y-92872419D02*
X115357241Y-91872419D01*
X116166765Y-92348609D02*
X116500098Y-92348609D01*
X116642955Y-92872419D02*
X116166765Y-92872419D01*
X116166765Y-92872419D02*
X116166765Y-91872419D01*
X116166765Y-91872419D02*
X116642955Y-91872419D01*
X117071527Y-92872419D02*
X117071527Y-91872419D01*
X117071527Y-91872419D02*
X117309622Y-91872419D01*
X117309622Y-91872419D02*
X117452479Y-91920038D01*
X117452479Y-91920038D02*
X117547717Y-92015276D01*
X117547717Y-92015276D02*
X117595336Y-92110514D01*
X117595336Y-92110514D02*
X117642955Y-92300990D01*
X117642955Y-92300990D02*
X117642955Y-92443847D01*
X117642955Y-92443847D02*
X117595336Y-92634323D01*
X117595336Y-92634323D02*
X117547717Y-92729561D01*
X117547717Y-92729561D02*
X117452479Y-92824800D01*
X117452479Y-92824800D02*
X117309622Y-92872419D01*
X117309622Y-92872419D02*
X117071527Y-92872419D01*
X132007157Y-108293734D02*
X131959538Y-108246115D01*
X131959538Y-108246115D02*
X131911919Y-108150877D01*
X131911919Y-108150877D02*
X131911919Y-107912782D01*
X131911919Y-107912782D02*
X131959538Y-107817544D01*
X131959538Y-107817544D02*
X132007157Y-107769925D01*
X132007157Y-107769925D02*
X132102395Y-107722306D01*
X132102395Y-107722306D02*
X132197633Y-107722306D01*
X132197633Y-107722306D02*
X132340490Y-107769925D01*
X132340490Y-107769925D02*
X132911919Y-108341353D01*
X132911919Y-108341353D02*
X132911919Y-107722306D01*
X132007157Y-107341353D02*
X131959538Y-107293734D01*
X131959538Y-107293734D02*
X131911919Y-107198496D01*
X131911919Y-107198496D02*
X131911919Y-106960401D01*
X131911919Y-106960401D02*
X131959538Y-106865163D01*
X131959538Y-106865163D02*
X132007157Y-106817544D01*
X132007157Y-106817544D02*
X132102395Y-106769925D01*
X132102395Y-106769925D02*
X132197633Y-106769925D01*
X132197633Y-106769925D02*
X132340490Y-106817544D01*
X132340490Y-106817544D02*
X132911919Y-107388972D01*
X132911919Y-107388972D02*
X132911919Y-106769925D01*
X131911919Y-106150877D02*
X131911919Y-106055639D01*
X131911919Y-106055639D02*
X131959538Y-105960401D01*
X131959538Y-105960401D02*
X132007157Y-105912782D01*
X132007157Y-105912782D02*
X132102395Y-105865163D01*
X132102395Y-105865163D02*
X132292871Y-105817544D01*
X132292871Y-105817544D02*
X132530966Y-105817544D01*
X132530966Y-105817544D02*
X132721442Y-105865163D01*
X132721442Y-105865163D02*
X132816680Y-105912782D01*
X132816680Y-105912782D02*
X132864300Y-105960401D01*
X132864300Y-105960401D02*
X132911919Y-106055639D01*
X132911919Y-106055639D02*
X132911919Y-106150877D01*
X132911919Y-106150877D02*
X132864300Y-106246115D01*
X132864300Y-106246115D02*
X132816680Y-106293734D01*
X132816680Y-106293734D02*
X132721442Y-106341353D01*
X132721442Y-106341353D02*
X132530966Y-106388972D01*
X132530966Y-106388972D02*
X132292871Y-106388972D01*
X132292871Y-106388972D02*
X132102395Y-106341353D01*
X132102395Y-106341353D02*
X132007157Y-106293734D01*
X132007157Y-106293734D02*
X131959538Y-106246115D01*
X131959538Y-106246115D02*
X131911919Y-106150877D01*
X132911919Y-105436591D02*
X132911919Y-105198496D01*
X132911919Y-105198496D02*
X132721442Y-105198496D01*
X132721442Y-105198496D02*
X132673823Y-105293734D01*
X132673823Y-105293734D02*
X132578585Y-105388972D01*
X132578585Y-105388972D02*
X132435728Y-105436591D01*
X132435728Y-105436591D02*
X132197633Y-105436591D01*
X132197633Y-105436591D02*
X132054776Y-105388972D01*
X132054776Y-105388972D02*
X131959538Y-105293734D01*
X131959538Y-105293734D02*
X131911919Y-105150877D01*
X131911919Y-105150877D02*
X131911919Y-104960401D01*
X131911919Y-104960401D02*
X131959538Y-104817544D01*
X131959538Y-104817544D02*
X132054776Y-104722306D01*
X132054776Y-104722306D02*
X132197633Y-104674687D01*
X132197633Y-104674687D02*
X132435728Y-104674687D01*
X132435728Y-104674687D02*
X132578585Y-104722306D01*
X132578585Y-104722306D02*
X132673823Y-104817544D01*
X132673823Y-104817544D02*
X132721442Y-104912782D01*
X132721442Y-104912782D02*
X132911919Y-104912782D01*
X132911919Y-104912782D02*
X132911919Y-104674687D01*
X119730074Y-90738665D02*
X119872931Y-90786284D01*
X119872931Y-90786284D02*
X119920550Y-90833903D01*
X119920550Y-90833903D02*
X119968169Y-90929141D01*
X119968169Y-90929141D02*
X119968169Y-91071998D01*
X119968169Y-91071998D02*
X119920550Y-91167236D01*
X119920550Y-91167236D02*
X119872931Y-91214856D01*
X119872931Y-91214856D02*
X119777693Y-91262475D01*
X119777693Y-91262475D02*
X119396741Y-91262475D01*
X119396741Y-91262475D02*
X119396741Y-90262475D01*
X119396741Y-90262475D02*
X119730074Y-90262475D01*
X119730074Y-90262475D02*
X119825312Y-90310094D01*
X119825312Y-90310094D02*
X119872931Y-90357713D01*
X119872931Y-90357713D02*
X119920550Y-90452951D01*
X119920550Y-90452951D02*
X119920550Y-90548189D01*
X119920550Y-90548189D02*
X119872931Y-90643427D01*
X119872931Y-90643427D02*
X119825312Y-90691046D01*
X119825312Y-90691046D02*
X119730074Y-90738665D01*
X119730074Y-90738665D02*
X119396741Y-90738665D01*
X120301503Y-90262475D02*
X120920550Y-90262475D01*
X120920550Y-90262475D02*
X120587217Y-90643427D01*
X120587217Y-90643427D02*
X120730074Y-90643427D01*
X120730074Y-90643427D02*
X120825312Y-90691046D01*
X120825312Y-90691046D02*
X120872931Y-90738665D01*
X120872931Y-90738665D02*
X120920550Y-90833903D01*
X120920550Y-90833903D02*
X120920550Y-91071998D01*
X120920550Y-91071998D02*
X120872931Y-91167236D01*
X120872931Y-91167236D02*
X120825312Y-91214856D01*
X120825312Y-91214856D02*
X120730074Y-91262475D01*
X120730074Y-91262475D02*
X120444360Y-91262475D01*
X120444360Y-91262475D02*
X120349122Y-91214856D01*
X120349122Y-91214856D02*
X120301503Y-91167236D01*
X119872931Y-92872419D02*
X119396741Y-92872419D01*
X119396741Y-92872419D02*
X119396741Y-91872419D01*
X120206265Y-92348609D02*
X120539598Y-92348609D01*
X120682455Y-92872419D02*
X120206265Y-92872419D01*
X120206265Y-92872419D02*
X120206265Y-91872419D01*
X120206265Y-91872419D02*
X120682455Y-91872419D01*
X121111027Y-92872419D02*
X121111027Y-91872419D01*
X121111027Y-91872419D02*
X121349122Y-91872419D01*
X121349122Y-91872419D02*
X121491979Y-91920038D01*
X121491979Y-91920038D02*
X121587217Y-92015276D01*
X121587217Y-92015276D02*
X121634836Y-92110514D01*
X121634836Y-92110514D02*
X121682455Y-92300990D01*
X121682455Y-92300990D02*
X121682455Y-92443847D01*
X121682455Y-92443847D02*
X121634836Y-92634323D01*
X121634836Y-92634323D02*
X121587217Y-92729561D01*
X121587217Y-92729561D02*
X121491979Y-92824800D01*
X121491979Y-92824800D02*
X121349122Y-92872419D01*
X121349122Y-92872419D02*
X121111027Y-92872419D01*
X115911919Y-107724470D02*
X115911919Y-108200660D01*
X115911919Y-108200660D02*
X116388109Y-108248279D01*
X116388109Y-108248279D02*
X116340490Y-108200660D01*
X116340490Y-108200660D02*
X116292871Y-108105422D01*
X116292871Y-108105422D02*
X116292871Y-107867327D01*
X116292871Y-107867327D02*
X116340490Y-107772089D01*
X116340490Y-107772089D02*
X116388109Y-107724470D01*
X116388109Y-107724470D02*
X116483347Y-107676851D01*
X116483347Y-107676851D02*
X116721442Y-107676851D01*
X116721442Y-107676851D02*
X116816680Y-107724470D01*
X116816680Y-107724470D02*
X116864300Y-107772089D01*
X116864300Y-107772089D02*
X116911919Y-107867327D01*
X116911919Y-107867327D02*
X116911919Y-108105422D01*
X116911919Y-108105422D02*
X116864300Y-108200660D01*
X116864300Y-108200660D02*
X116816680Y-108248279D01*
X115911919Y-106819708D02*
X115911919Y-107010184D01*
X115911919Y-107010184D02*
X115959538Y-107105422D01*
X115959538Y-107105422D02*
X116007157Y-107153041D01*
X116007157Y-107153041D02*
X116150014Y-107248279D01*
X116150014Y-107248279D02*
X116340490Y-107295898D01*
X116340490Y-107295898D02*
X116721442Y-107295898D01*
X116721442Y-107295898D02*
X116816680Y-107248279D01*
X116816680Y-107248279D02*
X116864300Y-107200660D01*
X116864300Y-107200660D02*
X116911919Y-107105422D01*
X116911919Y-107105422D02*
X116911919Y-106914946D01*
X116911919Y-106914946D02*
X116864300Y-106819708D01*
X116864300Y-106819708D02*
X116816680Y-106772089D01*
X116816680Y-106772089D02*
X116721442Y-106724470D01*
X116721442Y-106724470D02*
X116483347Y-106724470D01*
X116483347Y-106724470D02*
X116388109Y-106772089D01*
X116388109Y-106772089D02*
X116340490Y-106819708D01*
X116340490Y-106819708D02*
X116292871Y-106914946D01*
X116292871Y-106914946D02*
X116292871Y-107105422D01*
X116292871Y-107105422D02*
X116340490Y-107200660D01*
X116340490Y-107200660D02*
X116388109Y-107248279D01*
X116388109Y-107248279D02*
X116483347Y-107295898D01*
X115911919Y-106105422D02*
X115911919Y-106010184D01*
X115911919Y-106010184D02*
X115959538Y-105914946D01*
X115959538Y-105914946D02*
X116007157Y-105867327D01*
X116007157Y-105867327D02*
X116102395Y-105819708D01*
X116102395Y-105819708D02*
X116292871Y-105772089D01*
X116292871Y-105772089D02*
X116530966Y-105772089D01*
X116530966Y-105772089D02*
X116721442Y-105819708D01*
X116721442Y-105819708D02*
X116816680Y-105867327D01*
X116816680Y-105867327D02*
X116864300Y-105914946D01*
X116864300Y-105914946D02*
X116911919Y-106010184D01*
X116911919Y-106010184D02*
X116911919Y-106105422D01*
X116911919Y-106105422D02*
X116864300Y-106200660D01*
X116864300Y-106200660D02*
X116816680Y-106248279D01*
X116816680Y-106248279D02*
X116721442Y-106295898D01*
X116721442Y-106295898D02*
X116530966Y-106343517D01*
X116530966Y-106343517D02*
X116292871Y-106343517D01*
X116292871Y-106343517D02*
X116102395Y-106295898D01*
X116102395Y-106295898D02*
X116007157Y-106248279D01*
X116007157Y-106248279D02*
X115959538Y-106200660D01*
X115959538Y-106200660D02*
X115911919Y-106105422D01*
X116911919Y-105391136D02*
X116911919Y-105153041D01*
X116911919Y-105153041D02*
X116721442Y-105153041D01*
X116721442Y-105153041D02*
X116673823Y-105248279D01*
X116673823Y-105248279D02*
X116578585Y-105343517D01*
X116578585Y-105343517D02*
X116435728Y-105391136D01*
X116435728Y-105391136D02*
X116197633Y-105391136D01*
X116197633Y-105391136D02*
X116054776Y-105343517D01*
X116054776Y-105343517D02*
X115959538Y-105248279D01*
X115959538Y-105248279D02*
X115911919Y-105105422D01*
X115911919Y-105105422D02*
X115911919Y-104914946D01*
X115911919Y-104914946D02*
X115959538Y-104772089D01*
X115959538Y-104772089D02*
X116054776Y-104676851D01*
X116054776Y-104676851D02*
X116197633Y-104629232D01*
X116197633Y-104629232D02*
X116435728Y-104629232D01*
X116435728Y-104629232D02*
X116578585Y-104676851D01*
X116578585Y-104676851D02*
X116673823Y-104772089D01*
X116673823Y-104772089D02*
X116721442Y-104867327D01*
X116721442Y-104867327D02*
X116911919Y-104867327D01*
X116911919Y-104867327D02*
X116911919Y-104629232D01*
X147777693Y-90595808D02*
X147777693Y-91262475D01*
X147539598Y-90214856D02*
X147301503Y-90929141D01*
X147301503Y-90929141D02*
X147920550Y-90929141D01*
X147682455Y-92348609D02*
X147825312Y-92396228D01*
X147825312Y-92396228D02*
X147872931Y-92443847D01*
X147872931Y-92443847D02*
X147920550Y-92539085D01*
X147920550Y-92539085D02*
X147920550Y-92681942D01*
X147920550Y-92681942D02*
X147872931Y-92777180D01*
X147872931Y-92777180D02*
X147825312Y-92824800D01*
X147825312Y-92824800D02*
X147730074Y-92872419D01*
X147730074Y-92872419D02*
X147349122Y-92872419D01*
X147349122Y-92872419D02*
X147349122Y-91872419D01*
X147349122Y-91872419D02*
X147682455Y-91872419D01*
X147682455Y-91872419D02*
X147777693Y-91920038D01*
X147777693Y-91920038D02*
X147825312Y-91967657D01*
X147825312Y-91967657D02*
X147872931Y-92062895D01*
X147872931Y-92062895D02*
X147872931Y-92158133D01*
X147872931Y-92158133D02*
X147825312Y-92253371D01*
X147825312Y-92253371D02*
X147777693Y-92300990D01*
X147777693Y-92300990D02*
X147682455Y-92348609D01*
X147682455Y-92348609D02*
X147349122Y-92348609D01*
X148206265Y-91872419D02*
X148777693Y-91872419D01*
X148491979Y-92872419D02*
X148491979Y-91872419D01*
X149111027Y-92872419D02*
X149111027Y-91872419D01*
X149111027Y-91872419D02*
X149682455Y-92872419D01*
X149682455Y-92872419D02*
X149682455Y-91872419D01*
X111803884Y-120122419D02*
X111803884Y-119122419D01*
X111803884Y-119122419D02*
X112184836Y-119122419D01*
X112184836Y-119122419D02*
X112280074Y-119170038D01*
X112280074Y-119170038D02*
X112327693Y-119217657D01*
X112327693Y-119217657D02*
X112375312Y-119312895D01*
X112375312Y-119312895D02*
X112375312Y-119455752D01*
X112375312Y-119455752D02*
X112327693Y-119550990D01*
X112327693Y-119550990D02*
X112280074Y-119598609D01*
X112280074Y-119598609D02*
X112184836Y-119646228D01*
X112184836Y-119646228D02*
X111803884Y-119646228D01*
X112803884Y-120122419D02*
X112803884Y-119455752D01*
X112803884Y-119122419D02*
X112756265Y-119170038D01*
X112756265Y-119170038D02*
X112803884Y-119217657D01*
X112803884Y-119217657D02*
X112851503Y-119170038D01*
X112851503Y-119170038D02*
X112803884Y-119122419D01*
X112803884Y-119122419D02*
X112803884Y-119217657D01*
X131825312Y-91262475D02*
X131349122Y-91262475D01*
X131349122Y-91262475D02*
X131349122Y-90262475D01*
X131682455Y-92348609D02*
X131825312Y-92396228D01*
X131825312Y-92396228D02*
X131872931Y-92443847D01*
X131872931Y-92443847D02*
X131920550Y-92539085D01*
X131920550Y-92539085D02*
X131920550Y-92681942D01*
X131920550Y-92681942D02*
X131872931Y-92777180D01*
X131872931Y-92777180D02*
X131825312Y-92824800D01*
X131825312Y-92824800D02*
X131730074Y-92872419D01*
X131730074Y-92872419D02*
X131349122Y-92872419D01*
X131349122Y-92872419D02*
X131349122Y-91872419D01*
X131349122Y-91872419D02*
X131682455Y-91872419D01*
X131682455Y-91872419D02*
X131777693Y-91920038D01*
X131777693Y-91920038D02*
X131825312Y-91967657D01*
X131825312Y-91967657D02*
X131872931Y-92062895D01*
X131872931Y-92062895D02*
X131872931Y-92158133D01*
X131872931Y-92158133D02*
X131825312Y-92253371D01*
X131825312Y-92253371D02*
X131777693Y-92300990D01*
X131777693Y-92300990D02*
X131682455Y-92348609D01*
X131682455Y-92348609D02*
X131349122Y-92348609D01*
X132206265Y-91872419D02*
X132777693Y-91872419D01*
X132491979Y-92872419D02*
X132491979Y-91872419D01*
X133111027Y-92872419D02*
X133111027Y-91872419D01*
X133111027Y-91872419D02*
X133682455Y-92872419D01*
X133682455Y-92872419D02*
X133682455Y-91872419D01*
X148007157Y-108248279D02*
X147959538Y-108200660D01*
X147959538Y-108200660D02*
X147911919Y-108105422D01*
X147911919Y-108105422D02*
X147911919Y-107867327D01*
X147911919Y-107867327D02*
X147959538Y-107772089D01*
X147959538Y-107772089D02*
X148007157Y-107724470D01*
X148007157Y-107724470D02*
X148102395Y-107676851D01*
X148102395Y-107676851D02*
X148197633Y-107676851D01*
X148197633Y-107676851D02*
X148340490Y-107724470D01*
X148340490Y-107724470D02*
X148911919Y-108295898D01*
X148911919Y-108295898D02*
X148911919Y-107676851D01*
X148007157Y-107295898D02*
X147959538Y-107248279D01*
X147959538Y-107248279D02*
X147911919Y-107153041D01*
X147911919Y-107153041D02*
X147911919Y-106914946D01*
X147911919Y-106914946D02*
X147959538Y-106819708D01*
X147959538Y-106819708D02*
X148007157Y-106772089D01*
X148007157Y-106772089D02*
X148102395Y-106724470D01*
X148102395Y-106724470D02*
X148197633Y-106724470D01*
X148197633Y-106724470D02*
X148340490Y-106772089D01*
X148340490Y-106772089D02*
X148911919Y-107343517D01*
X148911919Y-107343517D02*
X148911919Y-106724470D01*
X147911919Y-106105422D02*
X147911919Y-106010184D01*
X147911919Y-106010184D02*
X147959538Y-105914946D01*
X147959538Y-105914946D02*
X148007157Y-105867327D01*
X148007157Y-105867327D02*
X148102395Y-105819708D01*
X148102395Y-105819708D02*
X148292871Y-105772089D01*
X148292871Y-105772089D02*
X148530966Y-105772089D01*
X148530966Y-105772089D02*
X148721442Y-105819708D01*
X148721442Y-105819708D02*
X148816680Y-105867327D01*
X148816680Y-105867327D02*
X148864300Y-105914946D01*
X148864300Y-105914946D02*
X148911919Y-106010184D01*
X148911919Y-106010184D02*
X148911919Y-106105422D01*
X148911919Y-106105422D02*
X148864300Y-106200660D01*
X148864300Y-106200660D02*
X148816680Y-106248279D01*
X148816680Y-106248279D02*
X148721442Y-106295898D01*
X148721442Y-106295898D02*
X148530966Y-106343517D01*
X148530966Y-106343517D02*
X148292871Y-106343517D01*
X148292871Y-106343517D02*
X148102395Y-106295898D01*
X148102395Y-106295898D02*
X148007157Y-106248279D01*
X148007157Y-106248279D02*
X147959538Y-106200660D01*
X147959538Y-106200660D02*
X147911919Y-106105422D01*
X148911919Y-105391136D02*
X148911919Y-105153041D01*
X148911919Y-105153041D02*
X148721442Y-105153041D01*
X148721442Y-105153041D02*
X148673823Y-105248279D01*
X148673823Y-105248279D02*
X148578585Y-105343517D01*
X148578585Y-105343517D02*
X148435728Y-105391136D01*
X148435728Y-105391136D02*
X148197633Y-105391136D01*
X148197633Y-105391136D02*
X148054776Y-105343517D01*
X148054776Y-105343517D02*
X147959538Y-105248279D01*
X147959538Y-105248279D02*
X147911919Y-105105422D01*
X147911919Y-105105422D02*
X147911919Y-104914946D01*
X147911919Y-104914946D02*
X147959538Y-104772089D01*
X147959538Y-104772089D02*
X148054776Y-104676851D01*
X148054776Y-104676851D02*
X148197633Y-104629232D01*
X148197633Y-104629232D02*
X148435728Y-104629232D01*
X148435728Y-104629232D02*
X148578585Y-104676851D01*
X148578585Y-104676851D02*
X148673823Y-104772089D01*
X148673823Y-104772089D02*
X148721442Y-104867327D01*
X148721442Y-104867327D02*
X148911919Y-104867327D01*
X148911919Y-104867327D02*
X148911919Y-104629232D01*
X123911919Y-107724470D02*
X123911919Y-108200660D01*
X123911919Y-108200660D02*
X124388109Y-108248279D01*
X124388109Y-108248279D02*
X124340490Y-108200660D01*
X124340490Y-108200660D02*
X124292871Y-108105422D01*
X124292871Y-108105422D02*
X124292871Y-107867327D01*
X124292871Y-107867327D02*
X124340490Y-107772089D01*
X124340490Y-107772089D02*
X124388109Y-107724470D01*
X124388109Y-107724470D02*
X124483347Y-107676851D01*
X124483347Y-107676851D02*
X124721442Y-107676851D01*
X124721442Y-107676851D02*
X124816680Y-107724470D01*
X124816680Y-107724470D02*
X124864300Y-107772089D01*
X124864300Y-107772089D02*
X124911919Y-107867327D01*
X124911919Y-107867327D02*
X124911919Y-108105422D01*
X124911919Y-108105422D02*
X124864300Y-108200660D01*
X124864300Y-108200660D02*
X124816680Y-108248279D01*
X123911919Y-106819708D02*
X123911919Y-107010184D01*
X123911919Y-107010184D02*
X123959538Y-107105422D01*
X123959538Y-107105422D02*
X124007157Y-107153041D01*
X124007157Y-107153041D02*
X124150014Y-107248279D01*
X124150014Y-107248279D02*
X124340490Y-107295898D01*
X124340490Y-107295898D02*
X124721442Y-107295898D01*
X124721442Y-107295898D02*
X124816680Y-107248279D01*
X124816680Y-107248279D02*
X124864300Y-107200660D01*
X124864300Y-107200660D02*
X124911919Y-107105422D01*
X124911919Y-107105422D02*
X124911919Y-106914946D01*
X124911919Y-106914946D02*
X124864300Y-106819708D01*
X124864300Y-106819708D02*
X124816680Y-106772089D01*
X124816680Y-106772089D02*
X124721442Y-106724470D01*
X124721442Y-106724470D02*
X124483347Y-106724470D01*
X124483347Y-106724470D02*
X124388109Y-106772089D01*
X124388109Y-106772089D02*
X124340490Y-106819708D01*
X124340490Y-106819708D02*
X124292871Y-106914946D01*
X124292871Y-106914946D02*
X124292871Y-107105422D01*
X124292871Y-107105422D02*
X124340490Y-107200660D01*
X124340490Y-107200660D02*
X124388109Y-107248279D01*
X124388109Y-107248279D02*
X124483347Y-107295898D01*
X123911919Y-106105422D02*
X123911919Y-106010184D01*
X123911919Y-106010184D02*
X123959538Y-105914946D01*
X123959538Y-105914946D02*
X124007157Y-105867327D01*
X124007157Y-105867327D02*
X124102395Y-105819708D01*
X124102395Y-105819708D02*
X124292871Y-105772089D01*
X124292871Y-105772089D02*
X124530966Y-105772089D01*
X124530966Y-105772089D02*
X124721442Y-105819708D01*
X124721442Y-105819708D02*
X124816680Y-105867327D01*
X124816680Y-105867327D02*
X124864300Y-105914946D01*
X124864300Y-105914946D02*
X124911919Y-106010184D01*
X124911919Y-106010184D02*
X124911919Y-106105422D01*
X124911919Y-106105422D02*
X124864300Y-106200660D01*
X124864300Y-106200660D02*
X124816680Y-106248279D01*
X124816680Y-106248279D02*
X124721442Y-106295898D01*
X124721442Y-106295898D02*
X124530966Y-106343517D01*
X124530966Y-106343517D02*
X124292871Y-106343517D01*
X124292871Y-106343517D02*
X124102395Y-106295898D01*
X124102395Y-106295898D02*
X124007157Y-106248279D01*
X124007157Y-106248279D02*
X123959538Y-106200660D01*
X123959538Y-106200660D02*
X123911919Y-106105422D01*
X124911919Y-105391136D02*
X124911919Y-105153041D01*
X124911919Y-105153041D02*
X124721442Y-105153041D01*
X124721442Y-105153041D02*
X124673823Y-105248279D01*
X124673823Y-105248279D02*
X124578585Y-105343517D01*
X124578585Y-105343517D02*
X124435728Y-105391136D01*
X124435728Y-105391136D02*
X124197633Y-105391136D01*
X124197633Y-105391136D02*
X124054776Y-105343517D01*
X124054776Y-105343517D02*
X123959538Y-105248279D01*
X123959538Y-105248279D02*
X123911919Y-105105422D01*
X123911919Y-105105422D02*
X123911919Y-104914946D01*
X123911919Y-104914946D02*
X123959538Y-104772089D01*
X123959538Y-104772089D02*
X124054776Y-104676851D01*
X124054776Y-104676851D02*
X124197633Y-104629232D01*
X124197633Y-104629232D02*
X124435728Y-104629232D01*
X124435728Y-104629232D02*
X124578585Y-104676851D01*
X124578585Y-104676851D02*
X124673823Y-104772089D01*
X124673823Y-104772089D02*
X124721442Y-104867327D01*
X124721442Y-104867327D02*
X124911919Y-104867327D01*
X124911919Y-104867327D02*
X124911919Y-104629232D01*
X115957693Y-123372419D02*
X115386265Y-123372419D01*
X115671979Y-123372419D02*
X115671979Y-122372419D01*
X115671979Y-122372419D02*
X115576741Y-122515276D01*
X115576741Y-122515276D02*
X115481503Y-122610514D01*
X115481503Y-122610514D02*
X115386265Y-122658133D01*
X127920550Y-91262475D02*
X127587217Y-90786284D01*
X127349122Y-91262475D02*
X127349122Y-90262475D01*
X127349122Y-90262475D02*
X127730074Y-90262475D01*
X127730074Y-90262475D02*
X127825312Y-90310094D01*
X127825312Y-90310094D02*
X127872931Y-90357713D01*
X127872931Y-90357713D02*
X127920550Y-90452951D01*
X127920550Y-90452951D02*
X127920550Y-90595808D01*
X127920550Y-90595808D02*
X127872931Y-90691046D01*
X127872931Y-90691046D02*
X127825312Y-90738665D01*
X127825312Y-90738665D02*
X127730074Y-90786284D01*
X127730074Y-90786284D02*
X127349122Y-90786284D01*
X127682455Y-92348609D02*
X127825312Y-92396228D01*
X127825312Y-92396228D02*
X127872931Y-92443847D01*
X127872931Y-92443847D02*
X127920550Y-92539085D01*
X127920550Y-92539085D02*
X127920550Y-92681942D01*
X127920550Y-92681942D02*
X127872931Y-92777180D01*
X127872931Y-92777180D02*
X127825312Y-92824800D01*
X127825312Y-92824800D02*
X127730074Y-92872419D01*
X127730074Y-92872419D02*
X127349122Y-92872419D01*
X127349122Y-92872419D02*
X127349122Y-91872419D01*
X127349122Y-91872419D02*
X127682455Y-91872419D01*
X127682455Y-91872419D02*
X127777693Y-91920038D01*
X127777693Y-91920038D02*
X127825312Y-91967657D01*
X127825312Y-91967657D02*
X127872931Y-92062895D01*
X127872931Y-92062895D02*
X127872931Y-92158133D01*
X127872931Y-92158133D02*
X127825312Y-92253371D01*
X127825312Y-92253371D02*
X127777693Y-92300990D01*
X127777693Y-92300990D02*
X127682455Y-92348609D01*
X127682455Y-92348609D02*
X127349122Y-92348609D01*
X128206265Y-91872419D02*
X128777693Y-91872419D01*
X128491979Y-92872419D02*
X128491979Y-91872419D01*
X129111027Y-92872419D02*
X129111027Y-91872419D01*
X129111027Y-91872419D02*
X129682455Y-92872419D01*
X129682455Y-92872419D02*
X129682455Y-91872419D01*
X128007157Y-108248279D02*
X127959538Y-108200660D01*
X127959538Y-108200660D02*
X127911919Y-108105422D01*
X127911919Y-108105422D02*
X127911919Y-107867327D01*
X127911919Y-107867327D02*
X127959538Y-107772089D01*
X127959538Y-107772089D02*
X128007157Y-107724470D01*
X128007157Y-107724470D02*
X128102395Y-107676851D01*
X128102395Y-107676851D02*
X128197633Y-107676851D01*
X128197633Y-107676851D02*
X128340490Y-107724470D01*
X128340490Y-107724470D02*
X128911919Y-108295898D01*
X128911919Y-108295898D02*
X128911919Y-107676851D01*
X128007157Y-107295898D02*
X127959538Y-107248279D01*
X127959538Y-107248279D02*
X127911919Y-107153041D01*
X127911919Y-107153041D02*
X127911919Y-106914946D01*
X127911919Y-106914946D02*
X127959538Y-106819708D01*
X127959538Y-106819708D02*
X128007157Y-106772089D01*
X128007157Y-106772089D02*
X128102395Y-106724470D01*
X128102395Y-106724470D02*
X128197633Y-106724470D01*
X128197633Y-106724470D02*
X128340490Y-106772089D01*
X128340490Y-106772089D02*
X128911919Y-107343517D01*
X128911919Y-107343517D02*
X128911919Y-106724470D01*
X127911919Y-106105422D02*
X127911919Y-106010184D01*
X127911919Y-106010184D02*
X127959538Y-105914946D01*
X127959538Y-105914946D02*
X128007157Y-105867327D01*
X128007157Y-105867327D02*
X128102395Y-105819708D01*
X128102395Y-105819708D02*
X128292871Y-105772089D01*
X128292871Y-105772089D02*
X128530966Y-105772089D01*
X128530966Y-105772089D02*
X128721442Y-105819708D01*
X128721442Y-105819708D02*
X128816680Y-105867327D01*
X128816680Y-105867327D02*
X128864300Y-105914946D01*
X128864300Y-105914946D02*
X128911919Y-106010184D01*
X128911919Y-106010184D02*
X128911919Y-106105422D01*
X128911919Y-106105422D02*
X128864300Y-106200660D01*
X128864300Y-106200660D02*
X128816680Y-106248279D01*
X128816680Y-106248279D02*
X128721442Y-106295898D01*
X128721442Y-106295898D02*
X128530966Y-106343517D01*
X128530966Y-106343517D02*
X128292871Y-106343517D01*
X128292871Y-106343517D02*
X128102395Y-106295898D01*
X128102395Y-106295898D02*
X128007157Y-106248279D01*
X128007157Y-106248279D02*
X127959538Y-106200660D01*
X127959538Y-106200660D02*
X127911919Y-106105422D01*
X128911919Y-105391136D02*
X128911919Y-105153041D01*
X128911919Y-105153041D02*
X128721442Y-105153041D01*
X128721442Y-105153041D02*
X128673823Y-105248279D01*
X128673823Y-105248279D02*
X128578585Y-105343517D01*
X128578585Y-105343517D02*
X128435728Y-105391136D01*
X128435728Y-105391136D02*
X128197633Y-105391136D01*
X128197633Y-105391136D02*
X128054776Y-105343517D01*
X128054776Y-105343517D02*
X127959538Y-105248279D01*
X127959538Y-105248279D02*
X127911919Y-105105422D01*
X127911919Y-105105422D02*
X127911919Y-104914946D01*
X127911919Y-104914946D02*
X127959538Y-104772089D01*
X127959538Y-104772089D02*
X128054776Y-104676851D01*
X128054776Y-104676851D02*
X128197633Y-104629232D01*
X128197633Y-104629232D02*
X128435728Y-104629232D01*
X128435728Y-104629232D02*
X128578585Y-104676851D01*
X128578585Y-104676851D02*
X128673823Y-104772089D01*
X128673823Y-104772089D02*
X128721442Y-104867327D01*
X128721442Y-104867327D02*
X128911919Y-104867327D01*
X128911919Y-104867327D02*
X128911919Y-104629232D01*
X135872931Y-91262475D02*
X135301503Y-91262475D01*
X135587217Y-91262475D02*
X135587217Y-90262475D01*
X135587217Y-90262475D02*
X135491979Y-90405332D01*
X135491979Y-90405332D02*
X135396741Y-90500570D01*
X135396741Y-90500570D02*
X135301503Y-90548189D01*
X135682455Y-92348609D02*
X135825312Y-92396228D01*
X135825312Y-92396228D02*
X135872931Y-92443847D01*
X135872931Y-92443847D02*
X135920550Y-92539085D01*
X135920550Y-92539085D02*
X135920550Y-92681942D01*
X135920550Y-92681942D02*
X135872931Y-92777180D01*
X135872931Y-92777180D02*
X135825312Y-92824800D01*
X135825312Y-92824800D02*
X135730074Y-92872419D01*
X135730074Y-92872419D02*
X135349122Y-92872419D01*
X135349122Y-92872419D02*
X135349122Y-91872419D01*
X135349122Y-91872419D02*
X135682455Y-91872419D01*
X135682455Y-91872419D02*
X135777693Y-91920038D01*
X135777693Y-91920038D02*
X135825312Y-91967657D01*
X135825312Y-91967657D02*
X135872931Y-92062895D01*
X135872931Y-92062895D02*
X135872931Y-92158133D01*
X135872931Y-92158133D02*
X135825312Y-92253371D01*
X135825312Y-92253371D02*
X135777693Y-92300990D01*
X135777693Y-92300990D02*
X135682455Y-92348609D01*
X135682455Y-92348609D02*
X135349122Y-92348609D01*
X136206265Y-91872419D02*
X136777693Y-91872419D01*
X136491979Y-92872419D02*
X136491979Y-91872419D01*
X137111027Y-92872419D02*
X137111027Y-91872419D01*
X137111027Y-91872419D02*
X137682455Y-92872419D01*
X137682455Y-92872419D02*
X137682455Y-91872419D01*
X153803884Y-124372419D02*
X153803884Y-123372419D01*
X153803884Y-123372419D02*
X154184836Y-123372419D01*
X154184836Y-123372419D02*
X154280074Y-123420038D01*
X154280074Y-123420038D02*
X154327693Y-123467657D01*
X154327693Y-123467657D02*
X154375312Y-123562895D01*
X154375312Y-123562895D02*
X154375312Y-123705752D01*
X154375312Y-123705752D02*
X154327693Y-123800990D01*
X154327693Y-123800990D02*
X154280074Y-123848609D01*
X154280074Y-123848609D02*
X154184836Y-123896228D01*
X154184836Y-123896228D02*
X153803884Y-123896228D01*
X154803884Y-124372419D02*
X154803884Y-123372419D01*
X155851502Y-124372419D02*
X155518169Y-123896228D01*
X155280074Y-124372419D02*
X155280074Y-123372419D01*
X155280074Y-123372419D02*
X155661026Y-123372419D01*
X155661026Y-123372419D02*
X155756264Y-123420038D01*
X155756264Y-123420038D02*
X155803883Y-123467657D01*
X155803883Y-123467657D02*
X155851502Y-123562895D01*
X155851502Y-123562895D02*
X155851502Y-123705752D01*
X155851502Y-123705752D02*
X155803883Y-123800990D01*
X155803883Y-123800990D02*
X155756264Y-123848609D01*
X155756264Y-123848609D02*
X155661026Y-123896228D01*
X155661026Y-123896228D02*
X155280074Y-123896228D01*
X107803884Y-94991466D02*
X108565789Y-94991466D01*
X108946741Y-94705752D02*
X109184836Y-95372419D01*
X109184836Y-95372419D02*
X109422931Y-94705752D01*
X110184836Y-95324800D02*
X110089598Y-95372419D01*
X110089598Y-95372419D02*
X109899122Y-95372419D01*
X109899122Y-95372419D02*
X109803884Y-95324800D01*
X109803884Y-95324800D02*
X109756265Y-95229561D01*
X109756265Y-95229561D02*
X109756265Y-94848609D01*
X109756265Y-94848609D02*
X109803884Y-94753371D01*
X109803884Y-94753371D02*
X109899122Y-94705752D01*
X109899122Y-94705752D02*
X110089598Y-94705752D01*
X110089598Y-94705752D02*
X110184836Y-94753371D01*
X110184836Y-94753371D02*
X110232455Y-94848609D01*
X110232455Y-94848609D02*
X110232455Y-94943847D01*
X110232455Y-94943847D02*
X109756265Y-95039085D01*
X111375312Y-130277180D02*
X111327693Y-130324800D01*
X111327693Y-130324800D02*
X111184836Y-130372419D01*
X111184836Y-130372419D02*
X111089598Y-130372419D01*
X111089598Y-130372419D02*
X110946741Y-130324800D01*
X110946741Y-130324800D02*
X110851503Y-130229561D01*
X110851503Y-130229561D02*
X110803884Y-130134323D01*
X110803884Y-130134323D02*
X110756265Y-129943847D01*
X110756265Y-129943847D02*
X110756265Y-129800990D01*
X110756265Y-129800990D02*
X110803884Y-129610514D01*
X110803884Y-129610514D02*
X110851503Y-129515276D01*
X110851503Y-129515276D02*
X110946741Y-129420038D01*
X110946741Y-129420038D02*
X111089598Y-129372419D01*
X111089598Y-129372419D02*
X111184836Y-129372419D01*
X111184836Y-129372419D02*
X111327693Y-129420038D01*
X111327693Y-129420038D02*
X111375312Y-129467657D01*
X111946741Y-130372419D02*
X111851503Y-130324800D01*
X111851503Y-130324800D02*
X111803884Y-130277180D01*
X111803884Y-130277180D02*
X111756265Y-130181942D01*
X111756265Y-130181942D02*
X111756265Y-129896228D01*
X111756265Y-129896228D02*
X111803884Y-129800990D01*
X111803884Y-129800990D02*
X111851503Y-129753371D01*
X111851503Y-129753371D02*
X111946741Y-129705752D01*
X111946741Y-129705752D02*
X112089598Y-129705752D01*
X112089598Y-129705752D02*
X112184836Y-129753371D01*
X112184836Y-129753371D02*
X112232455Y-129800990D01*
X112232455Y-129800990D02*
X112280074Y-129896228D01*
X112280074Y-129896228D02*
X112280074Y-130181942D01*
X112280074Y-130181942D02*
X112232455Y-130277180D01*
X112232455Y-130277180D02*
X112184836Y-130324800D01*
X112184836Y-130324800D02*
X112089598Y-130372419D01*
X112089598Y-130372419D02*
X111946741Y-130372419D01*
X112708646Y-129705752D02*
X112708646Y-130372419D01*
X112708646Y-129800990D02*
X112756265Y-129753371D01*
X112756265Y-129753371D02*
X112851503Y-129705752D01*
X112851503Y-129705752D02*
X112994360Y-129705752D01*
X112994360Y-129705752D02*
X113089598Y-129753371D01*
X113089598Y-129753371D02*
X113137217Y-129848609D01*
X113137217Y-129848609D02*
X113137217Y-130372419D01*
X113470551Y-129705752D02*
X113851503Y-129705752D01*
X113613408Y-129372419D02*
X113613408Y-130229561D01*
X113613408Y-130229561D02*
X113661027Y-130324800D01*
X113661027Y-130324800D02*
X113756265Y-130372419D01*
X113756265Y-130372419D02*
X113851503Y-130372419D01*
X114184837Y-130372419D02*
X114184837Y-129705752D01*
X114184837Y-129896228D02*
X114232456Y-129800990D01*
X114232456Y-129800990D02*
X114280075Y-129753371D01*
X114280075Y-129753371D02*
X114375313Y-129705752D01*
X114375313Y-129705752D02*
X114470551Y-129705752D01*
X115232456Y-130372419D02*
X115232456Y-129848609D01*
X115232456Y-129848609D02*
X115184837Y-129753371D01*
X115184837Y-129753371D02*
X115089599Y-129705752D01*
X115089599Y-129705752D02*
X114899123Y-129705752D01*
X114899123Y-129705752D02*
X114803885Y-129753371D01*
X115232456Y-130324800D02*
X115137218Y-130372419D01*
X115137218Y-130372419D02*
X114899123Y-130372419D01*
X114899123Y-130372419D02*
X114803885Y-130324800D01*
X114803885Y-130324800D02*
X114756266Y-130229561D01*
X114756266Y-130229561D02*
X114756266Y-130134323D01*
X114756266Y-130134323D02*
X114803885Y-130039085D01*
X114803885Y-130039085D02*
X114899123Y-129991466D01*
X114899123Y-129991466D02*
X115137218Y-129991466D01*
X115137218Y-129991466D02*
X115232456Y-129943847D01*
X115661028Y-130324800D02*
X115756266Y-130372419D01*
X115756266Y-130372419D02*
X115946742Y-130372419D01*
X115946742Y-130372419D02*
X116041980Y-130324800D01*
X116041980Y-130324800D02*
X116089599Y-130229561D01*
X116089599Y-130229561D02*
X116089599Y-130181942D01*
X116089599Y-130181942D02*
X116041980Y-130086704D01*
X116041980Y-130086704D02*
X115946742Y-130039085D01*
X115946742Y-130039085D02*
X115803885Y-130039085D01*
X115803885Y-130039085D02*
X115708647Y-129991466D01*
X115708647Y-129991466D02*
X115661028Y-129896228D01*
X115661028Y-129896228D02*
X115661028Y-129848609D01*
X115661028Y-129848609D02*
X115708647Y-129753371D01*
X115708647Y-129753371D02*
X115803885Y-129705752D01*
X115803885Y-129705752D02*
X115946742Y-129705752D01*
X115946742Y-129705752D02*
X116041980Y-129753371D01*
X116375314Y-129705752D02*
X116756266Y-129705752D01*
X116518171Y-129372419D02*
X116518171Y-130229561D01*
X116518171Y-130229561D02*
X116565790Y-130324800D01*
X116565790Y-130324800D02*
X116661028Y-130372419D01*
X116661028Y-130372419D02*
X116756266Y-130372419D01*
X171230075Y-126872419D02*
X171849122Y-126872419D01*
X171849122Y-126872419D02*
X171515789Y-127253371D01*
X171515789Y-127253371D02*
X171658646Y-127253371D01*
X171658646Y-127253371D02*
X171753884Y-127300990D01*
X171753884Y-127300990D02*
X171801503Y-127348609D01*
X171801503Y-127348609D02*
X171849122Y-127443847D01*
X171849122Y-127443847D02*
X171849122Y-127681942D01*
X171849122Y-127681942D02*
X171801503Y-127777180D01*
X171801503Y-127777180D02*
X171753884Y-127824800D01*
X171753884Y-127824800D02*
X171658646Y-127872419D01*
X171658646Y-127872419D02*
X171372932Y-127872419D01*
X171372932Y-127872419D02*
X171277694Y-127824800D01*
X171277694Y-127824800D02*
X171230075Y-127777180D01*
X172182456Y-126872419D02*
X172801503Y-126872419D01*
X172801503Y-126872419D02*
X172468170Y-127253371D01*
X172468170Y-127253371D02*
X172611027Y-127253371D01*
X172611027Y-127253371D02*
X172706265Y-127300990D01*
X172706265Y-127300990D02*
X172753884Y-127348609D01*
X172753884Y-127348609D02*
X172801503Y-127443847D01*
X172801503Y-127443847D02*
X172801503Y-127681942D01*
X172801503Y-127681942D02*
X172753884Y-127777180D01*
X172753884Y-127777180D02*
X172706265Y-127824800D01*
X172706265Y-127824800D02*
X172611027Y-127872419D01*
X172611027Y-127872419D02*
X172325313Y-127872419D01*
X172325313Y-127872419D02*
X172230075Y-127824800D01*
X172230075Y-127824800D02*
X172182456Y-127777180D01*
X173230075Y-127872419D02*
X173230075Y-126872419D01*
X173325313Y-127491466D02*
X173611027Y-127872419D01*
X173611027Y-127205752D02*
X173230075Y-127586704D01*
X173991980Y-127872419D02*
X174230075Y-127872419D01*
X174230075Y-127872419D02*
X174230075Y-127681942D01*
X174230075Y-127681942D02*
X174134837Y-127634323D01*
X174134837Y-127634323D02*
X174039599Y-127539085D01*
X174039599Y-127539085D02*
X173991980Y-127396228D01*
X173991980Y-127396228D02*
X173991980Y-127158133D01*
X173991980Y-127158133D02*
X174039599Y-127015276D01*
X174039599Y-127015276D02*
X174134837Y-126920038D01*
X174134837Y-126920038D02*
X174277694Y-126872419D01*
X174277694Y-126872419D02*
X174468170Y-126872419D01*
X174468170Y-126872419D02*
X174611027Y-126920038D01*
X174611027Y-126920038D02*
X174706265Y-127015276D01*
X174706265Y-127015276D02*
X174753884Y-127158133D01*
X174753884Y-127158133D02*
X174753884Y-127396228D01*
X174753884Y-127396228D02*
X174706265Y-127539085D01*
X174706265Y-127539085D02*
X174611027Y-127634323D01*
X174611027Y-127634323D02*
X174515789Y-127681942D01*
X174515789Y-127681942D02*
X174515789Y-127872419D01*
X174515789Y-127872419D02*
X174753884Y-127872419D01*
X107803884Y-97491466D02*
X108565789Y-97491466D01*
X108184836Y-97872419D02*
X108184836Y-97110514D01*
X108946741Y-97205752D02*
X109184836Y-97872419D01*
X109184836Y-97872419D02*
X109422931Y-97205752D01*
X110184836Y-97824800D02*
X110089598Y-97872419D01*
X110089598Y-97872419D02*
X109899122Y-97872419D01*
X109899122Y-97872419D02*
X109803884Y-97824800D01*
X109803884Y-97824800D02*
X109756265Y-97729561D01*
X109756265Y-97729561D02*
X109756265Y-97348609D01*
X109756265Y-97348609D02*
X109803884Y-97253371D01*
X109803884Y-97253371D02*
X109899122Y-97205752D01*
X109899122Y-97205752D02*
X110089598Y-97205752D01*
X110089598Y-97205752D02*
X110184836Y-97253371D01*
X110184836Y-97253371D02*
X110232455Y-97348609D01*
X110232455Y-97348609D02*
X110232455Y-97443847D01*
X110232455Y-97443847D02*
X109756265Y-97539085D01*
X123637217Y-90738665D02*
X123780074Y-90786284D01*
X123780074Y-90786284D02*
X123827693Y-90833903D01*
X123827693Y-90833903D02*
X123875312Y-90929141D01*
X123875312Y-90929141D02*
X123875312Y-91071998D01*
X123875312Y-91071998D02*
X123827693Y-91167236D01*
X123827693Y-91167236D02*
X123780074Y-91214856D01*
X123780074Y-91214856D02*
X123684836Y-91262475D01*
X123684836Y-91262475D02*
X123303884Y-91262475D01*
X123303884Y-91262475D02*
X123303884Y-90262475D01*
X123303884Y-90262475D02*
X123637217Y-90262475D01*
X123637217Y-90262475D02*
X123732455Y-90310094D01*
X123732455Y-90310094D02*
X123780074Y-90357713D01*
X123780074Y-90357713D02*
X123827693Y-90452951D01*
X123827693Y-90452951D02*
X123827693Y-90548189D01*
X123827693Y-90548189D02*
X123780074Y-90643427D01*
X123780074Y-90643427D02*
X123732455Y-90691046D01*
X123732455Y-90691046D02*
X123637217Y-90738665D01*
X123637217Y-90738665D02*
X123303884Y-90738665D01*
X124732455Y-90595808D02*
X124732455Y-91262475D01*
X124494360Y-90214856D02*
X124256265Y-90929141D01*
X124256265Y-90929141D02*
X124875312Y-90929141D01*
X123780074Y-92872419D02*
X123303884Y-92872419D01*
X123303884Y-92872419D02*
X123303884Y-91872419D01*
X124113408Y-92348609D02*
X124446741Y-92348609D01*
X124589598Y-92872419D02*
X124113408Y-92872419D01*
X124113408Y-92872419D02*
X124113408Y-91872419D01*
X124113408Y-91872419D02*
X124589598Y-91872419D01*
X125018170Y-92872419D02*
X125018170Y-91872419D01*
X125018170Y-91872419D02*
X125256265Y-91872419D01*
X125256265Y-91872419D02*
X125399122Y-91920038D01*
X125399122Y-91920038D02*
X125494360Y-92015276D01*
X125494360Y-92015276D02*
X125541979Y-92110514D01*
X125541979Y-92110514D02*
X125589598Y-92300990D01*
X125589598Y-92300990D02*
X125589598Y-92443847D01*
X125589598Y-92443847D02*
X125541979Y-92634323D01*
X125541979Y-92634323D02*
X125494360Y-92729561D01*
X125494360Y-92729561D02*
X125399122Y-92824800D01*
X125399122Y-92824800D02*
X125256265Y-92872419D01*
X125256265Y-92872419D02*
X125018170Y-92872419D01*
X119911919Y-107724470D02*
X119911919Y-108200660D01*
X119911919Y-108200660D02*
X120388109Y-108248279D01*
X120388109Y-108248279D02*
X120340490Y-108200660D01*
X120340490Y-108200660D02*
X120292871Y-108105422D01*
X120292871Y-108105422D02*
X120292871Y-107867327D01*
X120292871Y-107867327D02*
X120340490Y-107772089D01*
X120340490Y-107772089D02*
X120388109Y-107724470D01*
X120388109Y-107724470D02*
X120483347Y-107676851D01*
X120483347Y-107676851D02*
X120721442Y-107676851D01*
X120721442Y-107676851D02*
X120816680Y-107724470D01*
X120816680Y-107724470D02*
X120864300Y-107772089D01*
X120864300Y-107772089D02*
X120911919Y-107867327D01*
X120911919Y-107867327D02*
X120911919Y-108105422D01*
X120911919Y-108105422D02*
X120864300Y-108200660D01*
X120864300Y-108200660D02*
X120816680Y-108248279D01*
X119911919Y-106819708D02*
X119911919Y-107010184D01*
X119911919Y-107010184D02*
X119959538Y-107105422D01*
X119959538Y-107105422D02*
X120007157Y-107153041D01*
X120007157Y-107153041D02*
X120150014Y-107248279D01*
X120150014Y-107248279D02*
X120340490Y-107295898D01*
X120340490Y-107295898D02*
X120721442Y-107295898D01*
X120721442Y-107295898D02*
X120816680Y-107248279D01*
X120816680Y-107248279D02*
X120864300Y-107200660D01*
X120864300Y-107200660D02*
X120911919Y-107105422D01*
X120911919Y-107105422D02*
X120911919Y-106914946D01*
X120911919Y-106914946D02*
X120864300Y-106819708D01*
X120864300Y-106819708D02*
X120816680Y-106772089D01*
X120816680Y-106772089D02*
X120721442Y-106724470D01*
X120721442Y-106724470D02*
X120483347Y-106724470D01*
X120483347Y-106724470D02*
X120388109Y-106772089D01*
X120388109Y-106772089D02*
X120340490Y-106819708D01*
X120340490Y-106819708D02*
X120292871Y-106914946D01*
X120292871Y-106914946D02*
X120292871Y-107105422D01*
X120292871Y-107105422D02*
X120340490Y-107200660D01*
X120340490Y-107200660D02*
X120388109Y-107248279D01*
X120388109Y-107248279D02*
X120483347Y-107295898D01*
X119911919Y-106105422D02*
X119911919Y-106010184D01*
X119911919Y-106010184D02*
X119959538Y-105914946D01*
X119959538Y-105914946D02*
X120007157Y-105867327D01*
X120007157Y-105867327D02*
X120102395Y-105819708D01*
X120102395Y-105819708D02*
X120292871Y-105772089D01*
X120292871Y-105772089D02*
X120530966Y-105772089D01*
X120530966Y-105772089D02*
X120721442Y-105819708D01*
X120721442Y-105819708D02*
X120816680Y-105867327D01*
X120816680Y-105867327D02*
X120864300Y-105914946D01*
X120864300Y-105914946D02*
X120911919Y-106010184D01*
X120911919Y-106010184D02*
X120911919Y-106105422D01*
X120911919Y-106105422D02*
X120864300Y-106200660D01*
X120864300Y-106200660D02*
X120816680Y-106248279D01*
X120816680Y-106248279D02*
X120721442Y-106295898D01*
X120721442Y-106295898D02*
X120530966Y-106343517D01*
X120530966Y-106343517D02*
X120292871Y-106343517D01*
X120292871Y-106343517D02*
X120102395Y-106295898D01*
X120102395Y-106295898D02*
X120007157Y-106248279D01*
X120007157Y-106248279D02*
X119959538Y-106200660D01*
X119959538Y-106200660D02*
X119911919Y-106105422D01*
X120911919Y-105391136D02*
X120911919Y-105153041D01*
X120911919Y-105153041D02*
X120721442Y-105153041D01*
X120721442Y-105153041D02*
X120673823Y-105248279D01*
X120673823Y-105248279D02*
X120578585Y-105343517D01*
X120578585Y-105343517D02*
X120435728Y-105391136D01*
X120435728Y-105391136D02*
X120197633Y-105391136D01*
X120197633Y-105391136D02*
X120054776Y-105343517D01*
X120054776Y-105343517D02*
X119959538Y-105248279D01*
X119959538Y-105248279D02*
X119911919Y-105105422D01*
X119911919Y-105105422D02*
X119911919Y-104914946D01*
X119911919Y-104914946D02*
X119959538Y-104772089D01*
X119959538Y-104772089D02*
X120054776Y-104676851D01*
X120054776Y-104676851D02*
X120197633Y-104629232D01*
X120197633Y-104629232D02*
X120435728Y-104629232D01*
X120435728Y-104629232D02*
X120578585Y-104676851D01*
X120578585Y-104676851D02*
X120673823Y-104772089D01*
X120673823Y-104772089D02*
X120721442Y-104867327D01*
X120721442Y-104867327D02*
X120911919Y-104867327D01*
X120911919Y-104867327D02*
X120911919Y-104629232D01*
X140007157Y-108248279D02*
X139959538Y-108200660D01*
X139959538Y-108200660D02*
X139911919Y-108105422D01*
X139911919Y-108105422D02*
X139911919Y-107867327D01*
X139911919Y-107867327D02*
X139959538Y-107772089D01*
X139959538Y-107772089D02*
X140007157Y-107724470D01*
X140007157Y-107724470D02*
X140102395Y-107676851D01*
X140102395Y-107676851D02*
X140197633Y-107676851D01*
X140197633Y-107676851D02*
X140340490Y-107724470D01*
X140340490Y-107724470D02*
X140911919Y-108295898D01*
X140911919Y-108295898D02*
X140911919Y-107676851D01*
X140007157Y-107295898D02*
X139959538Y-107248279D01*
X139959538Y-107248279D02*
X139911919Y-107153041D01*
X139911919Y-107153041D02*
X139911919Y-106914946D01*
X139911919Y-106914946D02*
X139959538Y-106819708D01*
X139959538Y-106819708D02*
X140007157Y-106772089D01*
X140007157Y-106772089D02*
X140102395Y-106724470D01*
X140102395Y-106724470D02*
X140197633Y-106724470D01*
X140197633Y-106724470D02*
X140340490Y-106772089D01*
X140340490Y-106772089D02*
X140911919Y-107343517D01*
X140911919Y-107343517D02*
X140911919Y-106724470D01*
X139911919Y-106105422D02*
X139911919Y-106010184D01*
X139911919Y-106010184D02*
X139959538Y-105914946D01*
X139959538Y-105914946D02*
X140007157Y-105867327D01*
X140007157Y-105867327D02*
X140102395Y-105819708D01*
X140102395Y-105819708D02*
X140292871Y-105772089D01*
X140292871Y-105772089D02*
X140530966Y-105772089D01*
X140530966Y-105772089D02*
X140721442Y-105819708D01*
X140721442Y-105819708D02*
X140816680Y-105867327D01*
X140816680Y-105867327D02*
X140864300Y-105914946D01*
X140864300Y-105914946D02*
X140911919Y-106010184D01*
X140911919Y-106010184D02*
X140911919Y-106105422D01*
X140911919Y-106105422D02*
X140864300Y-106200660D01*
X140864300Y-106200660D02*
X140816680Y-106248279D01*
X140816680Y-106248279D02*
X140721442Y-106295898D01*
X140721442Y-106295898D02*
X140530966Y-106343517D01*
X140530966Y-106343517D02*
X140292871Y-106343517D01*
X140292871Y-106343517D02*
X140102395Y-106295898D01*
X140102395Y-106295898D02*
X140007157Y-106248279D01*
X140007157Y-106248279D02*
X139959538Y-106200660D01*
X139959538Y-106200660D02*
X139911919Y-106105422D01*
X140911919Y-105391136D02*
X140911919Y-105153041D01*
X140911919Y-105153041D02*
X140721442Y-105153041D01*
X140721442Y-105153041D02*
X140673823Y-105248279D01*
X140673823Y-105248279D02*
X140578585Y-105343517D01*
X140578585Y-105343517D02*
X140435728Y-105391136D01*
X140435728Y-105391136D02*
X140197633Y-105391136D01*
X140197633Y-105391136D02*
X140054776Y-105343517D01*
X140054776Y-105343517D02*
X139959538Y-105248279D01*
X139959538Y-105248279D02*
X139911919Y-105105422D01*
X139911919Y-105105422D02*
X139911919Y-104914946D01*
X139911919Y-104914946D02*
X139959538Y-104772089D01*
X139959538Y-104772089D02*
X140054776Y-104676851D01*
X140054776Y-104676851D02*
X140197633Y-104629232D01*
X140197633Y-104629232D02*
X140435728Y-104629232D01*
X140435728Y-104629232D02*
X140578585Y-104676851D01*
X140578585Y-104676851D02*
X140673823Y-104772089D01*
X140673823Y-104772089D02*
X140721442Y-104867327D01*
X140721442Y-104867327D02*
X140911919Y-104867327D01*
X140911919Y-104867327D02*
X140911919Y-104629232D01*
X112887217Y-90738665D02*
X113030074Y-90786284D01*
X113030074Y-90786284D02*
X113077693Y-90833903D01*
X113077693Y-90833903D02*
X113125312Y-90929141D01*
X113125312Y-90929141D02*
X113125312Y-91071998D01*
X113125312Y-91071998D02*
X113077693Y-91167236D01*
X113077693Y-91167236D02*
X113030074Y-91214856D01*
X113030074Y-91214856D02*
X112934836Y-91262475D01*
X112934836Y-91262475D02*
X112553884Y-91262475D01*
X112553884Y-91262475D02*
X112553884Y-90262475D01*
X112553884Y-90262475D02*
X112887217Y-90262475D01*
X112887217Y-90262475D02*
X112982455Y-90310094D01*
X112982455Y-90310094D02*
X113030074Y-90357713D01*
X113030074Y-90357713D02*
X113077693Y-90452951D01*
X113077693Y-90452951D02*
X113077693Y-90548189D01*
X113077693Y-90548189D02*
X113030074Y-90643427D01*
X113030074Y-90643427D02*
X112982455Y-90691046D01*
X112982455Y-90691046D02*
X112887217Y-90738665D01*
X112887217Y-90738665D02*
X112553884Y-90738665D01*
X114077693Y-91262475D02*
X113506265Y-91262475D01*
X113791979Y-91262475D02*
X113791979Y-90262475D01*
X113791979Y-90262475D02*
X113696741Y-90405332D01*
X113696741Y-90405332D02*
X113601503Y-90500570D01*
X113601503Y-90500570D02*
X113506265Y-90548189D01*
X113030074Y-92872419D02*
X112553884Y-92872419D01*
X112553884Y-92872419D02*
X112553884Y-91872419D01*
X113363408Y-92348609D02*
X113696741Y-92348609D01*
X113839598Y-92872419D02*
X113363408Y-92872419D01*
X113363408Y-92872419D02*
X113363408Y-91872419D01*
X113363408Y-91872419D02*
X113839598Y-91872419D01*
X114268170Y-92872419D02*
X114268170Y-91872419D01*
X114268170Y-91872419D02*
X114506265Y-91872419D01*
X114506265Y-91872419D02*
X114649122Y-91920038D01*
X114649122Y-91920038D02*
X114744360Y-92015276D01*
X114744360Y-92015276D02*
X114791979Y-92110514D01*
X114791979Y-92110514D02*
X114839598Y-92300990D01*
X114839598Y-92300990D02*
X114839598Y-92443847D01*
X114839598Y-92443847D02*
X114791979Y-92634323D01*
X114791979Y-92634323D02*
X114744360Y-92729561D01*
X114744360Y-92729561D02*
X114649122Y-92824800D01*
X114649122Y-92824800D02*
X114506265Y-92872419D01*
X114506265Y-92872419D02*
X114268170Y-92872419D01*
X150303884Y-126491466D02*
X151065789Y-126491466D01*
X151446741Y-126205752D02*
X151684836Y-126872419D01*
X151684836Y-126872419D02*
X151922931Y-126205752D01*
X152684836Y-126824800D02*
X152589598Y-126872419D01*
X152589598Y-126872419D02*
X152399122Y-126872419D01*
X152399122Y-126872419D02*
X152303884Y-126824800D01*
X152303884Y-126824800D02*
X152256265Y-126729561D01*
X152256265Y-126729561D02*
X152256265Y-126348609D01*
X152256265Y-126348609D02*
X152303884Y-126253371D01*
X152303884Y-126253371D02*
X152399122Y-126205752D01*
X152399122Y-126205752D02*
X152589598Y-126205752D01*
X152589598Y-126205752D02*
X152684836Y-126253371D01*
X152684836Y-126253371D02*
X152732455Y-126348609D01*
X152732455Y-126348609D02*
X152732455Y-126443847D01*
X152732455Y-126443847D02*
X152256265Y-126539085D01*
X111872419Y-107719925D02*
X111872419Y-108196115D01*
X111872419Y-108196115D02*
X112348609Y-108243734D01*
X112348609Y-108243734D02*
X112300990Y-108196115D01*
X112300990Y-108196115D02*
X112253371Y-108100877D01*
X112253371Y-108100877D02*
X112253371Y-107862782D01*
X112253371Y-107862782D02*
X112300990Y-107767544D01*
X112300990Y-107767544D02*
X112348609Y-107719925D01*
X112348609Y-107719925D02*
X112443847Y-107672306D01*
X112443847Y-107672306D02*
X112681942Y-107672306D01*
X112681942Y-107672306D02*
X112777180Y-107719925D01*
X112777180Y-107719925D02*
X112824800Y-107767544D01*
X112824800Y-107767544D02*
X112872419Y-107862782D01*
X112872419Y-107862782D02*
X112872419Y-108100877D01*
X112872419Y-108100877D02*
X112824800Y-108196115D01*
X112824800Y-108196115D02*
X112777180Y-108243734D01*
X111872419Y-106815163D02*
X111872419Y-107005639D01*
X111872419Y-107005639D02*
X111920038Y-107100877D01*
X111920038Y-107100877D02*
X111967657Y-107148496D01*
X111967657Y-107148496D02*
X112110514Y-107243734D01*
X112110514Y-107243734D02*
X112300990Y-107291353D01*
X112300990Y-107291353D02*
X112681942Y-107291353D01*
X112681942Y-107291353D02*
X112777180Y-107243734D01*
X112777180Y-107243734D02*
X112824800Y-107196115D01*
X112824800Y-107196115D02*
X112872419Y-107100877D01*
X112872419Y-107100877D02*
X112872419Y-106910401D01*
X112872419Y-106910401D02*
X112824800Y-106815163D01*
X112824800Y-106815163D02*
X112777180Y-106767544D01*
X112777180Y-106767544D02*
X112681942Y-106719925D01*
X112681942Y-106719925D02*
X112443847Y-106719925D01*
X112443847Y-106719925D02*
X112348609Y-106767544D01*
X112348609Y-106767544D02*
X112300990Y-106815163D01*
X112300990Y-106815163D02*
X112253371Y-106910401D01*
X112253371Y-106910401D02*
X112253371Y-107100877D01*
X112253371Y-107100877D02*
X112300990Y-107196115D01*
X112300990Y-107196115D02*
X112348609Y-107243734D01*
X112348609Y-107243734D02*
X112443847Y-107291353D01*
X111872419Y-106100877D02*
X111872419Y-106005639D01*
X111872419Y-106005639D02*
X111920038Y-105910401D01*
X111920038Y-105910401D02*
X111967657Y-105862782D01*
X111967657Y-105862782D02*
X112062895Y-105815163D01*
X112062895Y-105815163D02*
X112253371Y-105767544D01*
X112253371Y-105767544D02*
X112491466Y-105767544D01*
X112491466Y-105767544D02*
X112681942Y-105815163D01*
X112681942Y-105815163D02*
X112777180Y-105862782D01*
X112777180Y-105862782D02*
X112824800Y-105910401D01*
X112824800Y-105910401D02*
X112872419Y-106005639D01*
X112872419Y-106005639D02*
X112872419Y-106100877D01*
X112872419Y-106100877D02*
X112824800Y-106196115D01*
X112824800Y-106196115D02*
X112777180Y-106243734D01*
X112777180Y-106243734D02*
X112681942Y-106291353D01*
X112681942Y-106291353D02*
X112491466Y-106338972D01*
X112491466Y-106338972D02*
X112253371Y-106338972D01*
X112253371Y-106338972D02*
X112062895Y-106291353D01*
X112062895Y-106291353D02*
X111967657Y-106243734D01*
X111967657Y-106243734D02*
X111920038Y-106196115D01*
X111920038Y-106196115D02*
X111872419Y-106100877D01*
X112872419Y-105386591D02*
X112872419Y-105148496D01*
X112872419Y-105148496D02*
X112681942Y-105148496D01*
X112681942Y-105148496D02*
X112634323Y-105243734D01*
X112634323Y-105243734D02*
X112539085Y-105338972D01*
X112539085Y-105338972D02*
X112396228Y-105386591D01*
X112396228Y-105386591D02*
X112158133Y-105386591D01*
X112158133Y-105386591D02*
X112015276Y-105338972D01*
X112015276Y-105338972D02*
X111920038Y-105243734D01*
X111920038Y-105243734D02*
X111872419Y-105100877D01*
X111872419Y-105100877D02*
X111872419Y-104910401D01*
X111872419Y-104910401D02*
X111920038Y-104767544D01*
X111920038Y-104767544D02*
X112015276Y-104672306D01*
X112015276Y-104672306D02*
X112158133Y-104624687D01*
X112158133Y-104624687D02*
X112396228Y-104624687D01*
X112396228Y-104624687D02*
X112539085Y-104672306D01*
X112539085Y-104672306D02*
X112634323Y-104767544D01*
X112634323Y-104767544D02*
X112681942Y-104862782D01*
X112681942Y-104862782D02*
X112872419Y-104862782D01*
X112872419Y-104862782D02*
X112872419Y-104624687D01*
X161303884Y-126491466D02*
X162065789Y-126491466D01*
X161684836Y-126872419D02*
X161684836Y-126110514D01*
X162446741Y-126205752D02*
X162684836Y-126872419D01*
X162684836Y-126872419D02*
X162922931Y-126205752D01*
X163684836Y-126824800D02*
X163589598Y-126872419D01*
X163589598Y-126872419D02*
X163399122Y-126872419D01*
X163399122Y-126872419D02*
X163303884Y-126824800D01*
X163303884Y-126824800D02*
X163256265Y-126729561D01*
X163256265Y-126729561D02*
X163256265Y-126348609D01*
X163256265Y-126348609D02*
X163303884Y-126253371D01*
X163303884Y-126253371D02*
X163399122Y-126205752D01*
X163399122Y-126205752D02*
X163589598Y-126205752D01*
X163589598Y-126205752D02*
X163684836Y-126253371D01*
X163684836Y-126253371D02*
X163732455Y-126348609D01*
X163732455Y-126348609D02*
X163732455Y-126443847D01*
X163732455Y-126443847D02*
X163256265Y-126539085D01*
X143253884Y-90262475D02*
X143872931Y-90262475D01*
X143872931Y-90262475D02*
X143539598Y-90643427D01*
X143539598Y-90643427D02*
X143682455Y-90643427D01*
X143682455Y-90643427D02*
X143777693Y-90691046D01*
X143777693Y-90691046D02*
X143825312Y-90738665D01*
X143825312Y-90738665D02*
X143872931Y-90833903D01*
X143872931Y-90833903D02*
X143872931Y-91071998D01*
X143872931Y-91071998D02*
X143825312Y-91167236D01*
X143825312Y-91167236D02*
X143777693Y-91214856D01*
X143777693Y-91214856D02*
X143682455Y-91262475D01*
X143682455Y-91262475D02*
X143396741Y-91262475D01*
X143396741Y-91262475D02*
X143301503Y-91214856D01*
X143301503Y-91214856D02*
X143253884Y-91167236D01*
X143682455Y-92348609D02*
X143825312Y-92396228D01*
X143825312Y-92396228D02*
X143872931Y-92443847D01*
X143872931Y-92443847D02*
X143920550Y-92539085D01*
X143920550Y-92539085D02*
X143920550Y-92681942D01*
X143920550Y-92681942D02*
X143872931Y-92777180D01*
X143872931Y-92777180D02*
X143825312Y-92824800D01*
X143825312Y-92824800D02*
X143730074Y-92872419D01*
X143730074Y-92872419D02*
X143349122Y-92872419D01*
X143349122Y-92872419D02*
X143349122Y-91872419D01*
X143349122Y-91872419D02*
X143682455Y-91872419D01*
X143682455Y-91872419D02*
X143777693Y-91920038D01*
X143777693Y-91920038D02*
X143825312Y-91967657D01*
X143825312Y-91967657D02*
X143872931Y-92062895D01*
X143872931Y-92062895D02*
X143872931Y-92158133D01*
X143872931Y-92158133D02*
X143825312Y-92253371D01*
X143825312Y-92253371D02*
X143777693Y-92300990D01*
X143777693Y-92300990D02*
X143682455Y-92348609D01*
X143682455Y-92348609D02*
X143349122Y-92348609D01*
X144206265Y-91872419D02*
X144777693Y-91872419D01*
X144491979Y-92872419D02*
X144491979Y-91872419D01*
X145111027Y-92872419D02*
X145111027Y-91872419D01*
X145111027Y-91872419D02*
X145682455Y-92872419D01*
X145682455Y-92872419D02*
X145682455Y-91872419D01*
X144007157Y-108248279D02*
X143959538Y-108200660D01*
X143959538Y-108200660D02*
X143911919Y-108105422D01*
X143911919Y-108105422D02*
X143911919Y-107867327D01*
X143911919Y-107867327D02*
X143959538Y-107772089D01*
X143959538Y-107772089D02*
X144007157Y-107724470D01*
X144007157Y-107724470D02*
X144102395Y-107676851D01*
X144102395Y-107676851D02*
X144197633Y-107676851D01*
X144197633Y-107676851D02*
X144340490Y-107724470D01*
X144340490Y-107724470D02*
X144911919Y-108295898D01*
X144911919Y-108295898D02*
X144911919Y-107676851D01*
X144007157Y-107295898D02*
X143959538Y-107248279D01*
X143959538Y-107248279D02*
X143911919Y-107153041D01*
X143911919Y-107153041D02*
X143911919Y-106914946D01*
X143911919Y-106914946D02*
X143959538Y-106819708D01*
X143959538Y-106819708D02*
X144007157Y-106772089D01*
X144007157Y-106772089D02*
X144102395Y-106724470D01*
X144102395Y-106724470D02*
X144197633Y-106724470D01*
X144197633Y-106724470D02*
X144340490Y-106772089D01*
X144340490Y-106772089D02*
X144911919Y-107343517D01*
X144911919Y-107343517D02*
X144911919Y-106724470D01*
X143911919Y-106105422D02*
X143911919Y-106010184D01*
X143911919Y-106010184D02*
X143959538Y-105914946D01*
X143959538Y-105914946D02*
X144007157Y-105867327D01*
X144007157Y-105867327D02*
X144102395Y-105819708D01*
X144102395Y-105819708D02*
X144292871Y-105772089D01*
X144292871Y-105772089D02*
X144530966Y-105772089D01*
X144530966Y-105772089D02*
X144721442Y-105819708D01*
X144721442Y-105819708D02*
X144816680Y-105867327D01*
X144816680Y-105867327D02*
X144864300Y-105914946D01*
X144864300Y-105914946D02*
X144911919Y-106010184D01*
X144911919Y-106010184D02*
X144911919Y-106105422D01*
X144911919Y-106105422D02*
X144864300Y-106200660D01*
X144864300Y-106200660D02*
X144816680Y-106248279D01*
X144816680Y-106248279D02*
X144721442Y-106295898D01*
X144721442Y-106295898D02*
X144530966Y-106343517D01*
X144530966Y-106343517D02*
X144292871Y-106343517D01*
X144292871Y-106343517D02*
X144102395Y-106295898D01*
X144102395Y-106295898D02*
X144007157Y-106248279D01*
X144007157Y-106248279D02*
X143959538Y-106200660D01*
X143959538Y-106200660D02*
X143911919Y-106105422D01*
X144911919Y-105391136D02*
X144911919Y-105153041D01*
X144911919Y-105153041D02*
X144721442Y-105153041D01*
X144721442Y-105153041D02*
X144673823Y-105248279D01*
X144673823Y-105248279D02*
X144578585Y-105343517D01*
X144578585Y-105343517D02*
X144435728Y-105391136D01*
X144435728Y-105391136D02*
X144197633Y-105391136D01*
X144197633Y-105391136D02*
X144054776Y-105343517D01*
X144054776Y-105343517D02*
X143959538Y-105248279D01*
X143959538Y-105248279D02*
X143911919Y-105105422D01*
X143911919Y-105105422D02*
X143911919Y-104914946D01*
X143911919Y-104914946D02*
X143959538Y-104772089D01*
X143959538Y-104772089D02*
X144054776Y-104676851D01*
X144054776Y-104676851D02*
X144197633Y-104629232D01*
X144197633Y-104629232D02*
X144435728Y-104629232D01*
X144435728Y-104629232D02*
X144578585Y-104676851D01*
X144578585Y-104676851D02*
X144673823Y-104772089D01*
X144673823Y-104772089D02*
X144721442Y-104867327D01*
X144721442Y-104867327D02*
X144911919Y-104867327D01*
X144911919Y-104867327D02*
X144911919Y-104629232D01*
X176848609Y-139362782D02*
X176896228Y-139219925D01*
X176896228Y-139219925D02*
X176943847Y-139172306D01*
X176943847Y-139172306D02*
X177039085Y-139124687D01*
X177039085Y-139124687D02*
X177181942Y-139124687D01*
X177181942Y-139124687D02*
X177277180Y-139172306D01*
X177277180Y-139172306D02*
X177324800Y-139219925D01*
X177324800Y-139219925D02*
X177372419Y-139315163D01*
X177372419Y-139315163D02*
X177372419Y-139696115D01*
X177372419Y-139696115D02*
X176372419Y-139696115D01*
X176372419Y-139696115D02*
X176372419Y-139362782D01*
X176372419Y-139362782D02*
X176420038Y-139267544D01*
X176420038Y-139267544D02*
X176467657Y-139219925D01*
X176467657Y-139219925D02*
X176562895Y-139172306D01*
X176562895Y-139172306D02*
X176658133Y-139172306D01*
X176658133Y-139172306D02*
X176753371Y-139219925D01*
X176753371Y-139219925D02*
X176800990Y-139267544D01*
X176800990Y-139267544D02*
X176848609Y-139362782D01*
X176848609Y-139362782D02*
X176848609Y-139696115D01*
X177372419Y-138696115D02*
X176705752Y-138696115D01*
X176896228Y-138696115D02*
X176800990Y-138648496D01*
X176800990Y-138648496D02*
X176753371Y-138600877D01*
X176753371Y-138600877D02*
X176705752Y-138505639D01*
X176705752Y-138505639D02*
X176705752Y-138410401D01*
X177372419Y-138077067D02*
X176705752Y-138077067D01*
X176372419Y-138077067D02*
X176420038Y-138124686D01*
X176420038Y-138124686D02*
X176467657Y-138077067D01*
X176467657Y-138077067D02*
X176420038Y-138029448D01*
X176420038Y-138029448D02*
X176372419Y-138077067D01*
X176372419Y-138077067D02*
X176467657Y-138077067D01*
X176705752Y-137172306D02*
X177515276Y-137172306D01*
X177515276Y-137172306D02*
X177610514Y-137219925D01*
X177610514Y-137219925D02*
X177658133Y-137267544D01*
X177658133Y-137267544D02*
X177705752Y-137362782D01*
X177705752Y-137362782D02*
X177705752Y-137505639D01*
X177705752Y-137505639D02*
X177658133Y-137600877D01*
X177324800Y-137172306D02*
X177372419Y-137267544D01*
X177372419Y-137267544D02*
X177372419Y-137458020D01*
X177372419Y-137458020D02*
X177324800Y-137553258D01*
X177324800Y-137553258D02*
X177277180Y-137600877D01*
X177277180Y-137600877D02*
X177181942Y-137648496D01*
X177181942Y-137648496D02*
X176896228Y-137648496D01*
X176896228Y-137648496D02*
X176800990Y-137600877D01*
X176800990Y-137600877D02*
X176753371Y-137553258D01*
X176753371Y-137553258D02*
X176705752Y-137458020D01*
X176705752Y-137458020D02*
X176705752Y-137267544D01*
X176705752Y-137267544D02*
X176753371Y-137172306D01*
X177372419Y-136696115D02*
X176372419Y-136696115D01*
X177372419Y-136267544D02*
X176848609Y-136267544D01*
X176848609Y-136267544D02*
X176753371Y-136315163D01*
X176753371Y-136315163D02*
X176705752Y-136410401D01*
X176705752Y-136410401D02*
X176705752Y-136553258D01*
X176705752Y-136553258D02*
X176753371Y-136648496D01*
X176753371Y-136648496D02*
X176800990Y-136696115D01*
X176705752Y-135934210D02*
X176705752Y-135553258D01*
X176372419Y-135791353D02*
X177229561Y-135791353D01*
X177229561Y-135791353D02*
X177324800Y-135743734D01*
X177324800Y-135743734D02*
X177372419Y-135648496D01*
X177372419Y-135648496D02*
X177372419Y-135553258D01*
X176705752Y-135219924D02*
X177372419Y-135219924D01*
X176800990Y-135219924D02*
X176753371Y-135172305D01*
X176753371Y-135172305D02*
X176705752Y-135077067D01*
X176705752Y-135077067D02*
X176705752Y-134934210D01*
X176705752Y-134934210D02*
X176753371Y-134838972D01*
X176753371Y-134838972D02*
X176848609Y-134791353D01*
X176848609Y-134791353D02*
X177372419Y-134791353D01*
X177324800Y-133934210D02*
X177372419Y-134029448D01*
X177372419Y-134029448D02*
X177372419Y-134219924D01*
X177372419Y-134219924D02*
X177324800Y-134315162D01*
X177324800Y-134315162D02*
X177229561Y-134362781D01*
X177229561Y-134362781D02*
X176848609Y-134362781D01*
X176848609Y-134362781D02*
X176753371Y-134315162D01*
X176753371Y-134315162D02*
X176705752Y-134219924D01*
X176705752Y-134219924D02*
X176705752Y-134029448D01*
X176705752Y-134029448D02*
X176753371Y-133934210D01*
X176753371Y-133934210D02*
X176848609Y-133886591D01*
X176848609Y-133886591D02*
X176943847Y-133886591D01*
X176943847Y-133886591D02*
X177039085Y-134362781D01*
X177324800Y-133505638D02*
X177372419Y-133410400D01*
X177372419Y-133410400D02*
X177372419Y-133219924D01*
X177372419Y-133219924D02*
X177324800Y-133124686D01*
X177324800Y-133124686D02*
X177229561Y-133077067D01*
X177229561Y-133077067D02*
X177181942Y-133077067D01*
X177181942Y-133077067D02*
X177086704Y-133124686D01*
X177086704Y-133124686D02*
X177039085Y-133219924D01*
X177039085Y-133219924D02*
X177039085Y-133362781D01*
X177039085Y-133362781D02*
X176991466Y-133458019D01*
X176991466Y-133458019D02*
X176896228Y-133505638D01*
X176896228Y-133505638D02*
X176848609Y-133505638D01*
X176848609Y-133505638D02*
X176753371Y-133458019D01*
X176753371Y-133458019D02*
X176705752Y-133362781D01*
X176705752Y-133362781D02*
X176705752Y-133219924D01*
X176705752Y-133219924D02*
X176753371Y-133124686D01*
X177324800Y-132696114D02*
X177372419Y-132600876D01*
X177372419Y-132600876D02*
X177372419Y-132410400D01*
X177372419Y-132410400D02*
X177324800Y-132315162D01*
X177324800Y-132315162D02*
X177229561Y-132267543D01*
X177229561Y-132267543D02*
X177181942Y-132267543D01*
X177181942Y-132267543D02*
X177086704Y-132315162D01*
X177086704Y-132315162D02*
X177039085Y-132410400D01*
X177039085Y-132410400D02*
X177039085Y-132553257D01*
X177039085Y-132553257D02*
X176991466Y-132648495D01*
X176991466Y-132648495D02*
X176896228Y-132696114D01*
X176896228Y-132696114D02*
X176848609Y-132696114D01*
X176848609Y-132696114D02*
X176753371Y-132648495D01*
X176753371Y-132648495D02*
X176705752Y-132553257D01*
X176705752Y-132553257D02*
X176705752Y-132410400D01*
X176705752Y-132410400D02*
X176753371Y-132315162D01*
X139301503Y-90357713D02*
X139349122Y-90310094D01*
X139349122Y-90310094D02*
X139444360Y-90262475D01*
X139444360Y-90262475D02*
X139682455Y-90262475D01*
X139682455Y-90262475D02*
X139777693Y-90310094D01*
X139777693Y-90310094D02*
X139825312Y-90357713D01*
X139825312Y-90357713D02*
X139872931Y-90452951D01*
X139872931Y-90452951D02*
X139872931Y-90548189D01*
X139872931Y-90548189D02*
X139825312Y-90691046D01*
X139825312Y-90691046D02*
X139253884Y-91262475D01*
X139253884Y-91262475D02*
X139872931Y-91262475D01*
X139682455Y-92348609D02*
X139825312Y-92396228D01*
X139825312Y-92396228D02*
X139872931Y-92443847D01*
X139872931Y-92443847D02*
X139920550Y-92539085D01*
X139920550Y-92539085D02*
X139920550Y-92681942D01*
X139920550Y-92681942D02*
X139872931Y-92777180D01*
X139872931Y-92777180D02*
X139825312Y-92824800D01*
X139825312Y-92824800D02*
X139730074Y-92872419D01*
X139730074Y-92872419D02*
X139349122Y-92872419D01*
X139349122Y-92872419D02*
X139349122Y-91872419D01*
X139349122Y-91872419D02*
X139682455Y-91872419D01*
X139682455Y-91872419D02*
X139777693Y-91920038D01*
X139777693Y-91920038D02*
X139825312Y-91967657D01*
X139825312Y-91967657D02*
X139872931Y-92062895D01*
X139872931Y-92062895D02*
X139872931Y-92158133D01*
X139872931Y-92158133D02*
X139825312Y-92253371D01*
X139825312Y-92253371D02*
X139777693Y-92300990D01*
X139777693Y-92300990D02*
X139682455Y-92348609D01*
X139682455Y-92348609D02*
X139349122Y-92348609D01*
X140206265Y-91872419D02*
X140777693Y-91872419D01*
X140491979Y-92872419D02*
X140491979Y-91872419D01*
X141111027Y-92872419D02*
X141111027Y-91872419D01*
X141111027Y-91872419D02*
X141682455Y-92872419D01*
X141682455Y-92872419D02*
X141682455Y-91872419D01*
X171730074Y-129872419D02*
X171253884Y-129872419D01*
X171253884Y-129872419D02*
X171206265Y-130348609D01*
X171206265Y-130348609D02*
X171253884Y-130300990D01*
X171253884Y-130300990D02*
X171349122Y-130253371D01*
X171349122Y-130253371D02*
X171587217Y-130253371D01*
X171587217Y-130253371D02*
X171682455Y-130300990D01*
X171682455Y-130300990D02*
X171730074Y-130348609D01*
X171730074Y-130348609D02*
X171777693Y-130443847D01*
X171777693Y-130443847D02*
X171777693Y-130681942D01*
X171777693Y-130681942D02*
X171730074Y-130777180D01*
X171730074Y-130777180D02*
X171682455Y-130824800D01*
X171682455Y-130824800D02*
X171587217Y-130872419D01*
X171587217Y-130872419D02*
X171349122Y-130872419D01*
X171349122Y-130872419D02*
X171253884Y-130824800D01*
X171253884Y-130824800D02*
X171206265Y-130777180D01*
X172634836Y-129872419D02*
X172444360Y-129872419D01*
X172444360Y-129872419D02*
X172349122Y-129920038D01*
X172349122Y-129920038D02*
X172301503Y-129967657D01*
X172301503Y-129967657D02*
X172206265Y-130110514D01*
X172206265Y-130110514D02*
X172158646Y-130300990D01*
X172158646Y-130300990D02*
X172158646Y-130681942D01*
X172158646Y-130681942D02*
X172206265Y-130777180D01*
X172206265Y-130777180D02*
X172253884Y-130824800D01*
X172253884Y-130824800D02*
X172349122Y-130872419D01*
X172349122Y-130872419D02*
X172539598Y-130872419D01*
X172539598Y-130872419D02*
X172634836Y-130824800D01*
X172634836Y-130824800D02*
X172682455Y-130777180D01*
X172682455Y-130777180D02*
X172730074Y-130681942D01*
X172730074Y-130681942D02*
X172730074Y-130443847D01*
X172730074Y-130443847D02*
X172682455Y-130348609D01*
X172682455Y-130348609D02*
X172634836Y-130300990D01*
X172634836Y-130300990D02*
X172539598Y-130253371D01*
X172539598Y-130253371D02*
X172349122Y-130253371D01*
X172349122Y-130253371D02*
X172253884Y-130300990D01*
X172253884Y-130300990D02*
X172206265Y-130348609D01*
X172206265Y-130348609D02*
X172158646Y-130443847D01*
X173349122Y-129872419D02*
X173444360Y-129872419D01*
X173444360Y-129872419D02*
X173539598Y-129920038D01*
X173539598Y-129920038D02*
X173587217Y-129967657D01*
X173587217Y-129967657D02*
X173634836Y-130062895D01*
X173634836Y-130062895D02*
X173682455Y-130253371D01*
X173682455Y-130253371D02*
X173682455Y-130491466D01*
X173682455Y-130491466D02*
X173634836Y-130681942D01*
X173634836Y-130681942D02*
X173587217Y-130777180D01*
X173587217Y-130777180D02*
X173539598Y-130824800D01*
X173539598Y-130824800D02*
X173444360Y-130872419D01*
X173444360Y-130872419D02*
X173349122Y-130872419D01*
X173349122Y-130872419D02*
X173253884Y-130824800D01*
X173253884Y-130824800D02*
X173206265Y-130777180D01*
X173206265Y-130777180D02*
X173158646Y-130681942D01*
X173158646Y-130681942D02*
X173111027Y-130491466D01*
X173111027Y-130491466D02*
X173111027Y-130253371D01*
X173111027Y-130253371D02*
X173158646Y-130062895D01*
X173158646Y-130062895D02*
X173206265Y-129967657D01*
X173206265Y-129967657D02*
X173253884Y-129920038D01*
X173253884Y-129920038D02*
X173349122Y-129872419D01*
X174063408Y-130872419D02*
X174301503Y-130872419D01*
X174301503Y-130872419D02*
X174301503Y-130681942D01*
X174301503Y-130681942D02*
X174206265Y-130634323D01*
X174206265Y-130634323D02*
X174111027Y-130539085D01*
X174111027Y-130539085D02*
X174063408Y-130396228D01*
X174063408Y-130396228D02*
X174063408Y-130158133D01*
X174063408Y-130158133D02*
X174111027Y-130015276D01*
X174111027Y-130015276D02*
X174206265Y-129920038D01*
X174206265Y-129920038D02*
X174349122Y-129872419D01*
X174349122Y-129872419D02*
X174539598Y-129872419D01*
X174539598Y-129872419D02*
X174682455Y-129920038D01*
X174682455Y-129920038D02*
X174777693Y-130015276D01*
X174777693Y-130015276D02*
X174825312Y-130158133D01*
X174825312Y-130158133D02*
X174825312Y-130396228D01*
X174825312Y-130396228D02*
X174777693Y-130539085D01*
X174777693Y-130539085D02*
X174682455Y-130634323D01*
X174682455Y-130634323D02*
X174587217Y-130681942D01*
X174587217Y-130681942D02*
X174587217Y-130872419D01*
X174587217Y-130872419D02*
X174825312Y-130872419D01*
D11*
X172454819Y-136595238D02*
X171978628Y-136928571D01*
X172454819Y-137166666D02*
X171454819Y-137166666D01*
X171454819Y-137166666D02*
X171454819Y-136785714D01*
X171454819Y-136785714D02*
X171502438Y-136690476D01*
X171502438Y-136690476D02*
X171550057Y-136642857D01*
X171550057Y-136642857D02*
X171645295Y-136595238D01*
X171645295Y-136595238D02*
X171788152Y-136595238D01*
X171788152Y-136595238D02*
X171883390Y-136642857D01*
X171883390Y-136642857D02*
X171931009Y-136690476D01*
X171931009Y-136690476D02*
X171978628Y-136785714D01*
X171978628Y-136785714D02*
X171978628Y-137166666D01*
X171454819Y-136309523D02*
X172454819Y-135976190D01*
X172454819Y-135976190D02*
X171454819Y-135642857D01*
X172454819Y-134785714D02*
X172454819Y-135357142D01*
X172454819Y-135071428D02*
X171454819Y-135071428D01*
X171454819Y-135071428D02*
X171597676Y-135166666D01*
X171597676Y-135166666D02*
X171692914Y-135261904D01*
X171692914Y-135261904D02*
X171740533Y-135357142D01*
X113004761Y-135954819D02*
X112671428Y-135478628D01*
X112433333Y-135954819D02*
X112433333Y-134954819D01*
X112433333Y-134954819D02*
X112814285Y-134954819D01*
X112814285Y-134954819D02*
X112909523Y-135002438D01*
X112909523Y-135002438D02*
X112957142Y-135050057D01*
X112957142Y-135050057D02*
X113004761Y-135145295D01*
X113004761Y-135145295D02*
X113004761Y-135288152D01*
X113004761Y-135288152D02*
X112957142Y-135383390D01*
X112957142Y-135383390D02*
X112909523Y-135431009D01*
X112909523Y-135431009D02*
X112814285Y-135478628D01*
X112814285Y-135478628D02*
X112433333Y-135478628D01*
X113290476Y-134954819D02*
X113623809Y-135954819D01*
X113623809Y-135954819D02*
X113957142Y-134954819D01*
X114242857Y-135050057D02*
X114290476Y-135002438D01*
X114290476Y-135002438D02*
X114385714Y-134954819D01*
X114385714Y-134954819D02*
X114623809Y-134954819D01*
X114623809Y-134954819D02*
X114719047Y-135002438D01*
X114719047Y-135002438D02*
X114766666Y-135050057D01*
X114766666Y-135050057D02*
X114814285Y-135145295D01*
X114814285Y-135145295D02*
X114814285Y-135240533D01*
X114814285Y-135240533D02*
X114766666Y-135383390D01*
X114766666Y-135383390D02*
X114195238Y-135954819D01*
X114195238Y-135954819D02*
X114814285Y-135954819D01*
X160990057Y-136825238D02*
X160942438Y-136920476D01*
X160942438Y-136920476D02*
X160847200Y-137015714D01*
X160847200Y-137015714D02*
X160704342Y-137158571D01*
X160704342Y-137158571D02*
X160656723Y-137253809D01*
X160656723Y-137253809D02*
X160656723Y-137349047D01*
X160894819Y-137301428D02*
X160847200Y-137396666D01*
X160847200Y-137396666D02*
X160751961Y-137491904D01*
X160751961Y-137491904D02*
X160561485Y-137539523D01*
X160561485Y-137539523D02*
X160228152Y-137539523D01*
X160228152Y-137539523D02*
X160037676Y-137491904D01*
X160037676Y-137491904D02*
X159942438Y-137396666D01*
X159942438Y-137396666D02*
X159894819Y-137301428D01*
X159894819Y-137301428D02*
X159894819Y-137110952D01*
X159894819Y-137110952D02*
X159942438Y-137015714D01*
X159942438Y-137015714D02*
X160037676Y-136920476D01*
X160037676Y-136920476D02*
X160228152Y-136872857D01*
X160228152Y-136872857D02*
X160561485Y-136872857D01*
X160561485Y-136872857D02*
X160751961Y-136920476D01*
X160751961Y-136920476D02*
X160847200Y-137015714D01*
X160847200Y-137015714D02*
X160894819Y-137110952D01*
X160894819Y-137110952D02*
X160894819Y-137301428D01*
X160894819Y-135920476D02*
X160894819Y-136491904D01*
X160894819Y-136206190D02*
X159894819Y-136206190D01*
X159894819Y-136206190D02*
X160037676Y-136301428D01*
X160037676Y-136301428D02*
X160132914Y-136396666D01*
X160132914Y-136396666D02*
X160180533Y-136491904D01*
D12*
X152500000Y-110494545D02*
X152500000Y-109724545D01*
X151130000Y-109724545D02*
X153870000Y-109724545D01*
X153870000Y-109724545D02*
X153870000Y-103184545D01*
X151130000Y-103184545D02*
X151130000Y-109724545D01*
X153870000Y-103184545D02*
X151130000Y-103184545D01*
X152500000Y-102414545D02*
X152500000Y-103184545D01*
X156500000Y-110494545D02*
X156500000Y-109724545D01*
X155130000Y-109724545D02*
X157870000Y-109724545D01*
X157870000Y-109724545D02*
X157870000Y-103184545D01*
X155130000Y-103184545D02*
X155130000Y-109724545D01*
X157870000Y-103184545D02*
X155130000Y-103184545D01*
X156500000Y-102414545D02*
X156500000Y-103184545D01*
X160500000Y-110494545D02*
X160500000Y-109724545D01*
X159130000Y-109724545D02*
X161870000Y-109724545D01*
X161870000Y-109724545D02*
X161870000Y-103184545D01*
X159130000Y-103184545D02*
X159130000Y-109724545D01*
X161870000Y-103184545D02*
X159130000Y-103184545D01*
X160500000Y-102414545D02*
X160500000Y-103184545D01*
X164460500Y-102414545D02*
X164460500Y-103184545D01*
X165830500Y-103184545D02*
X163090500Y-103184545D01*
X163090500Y-103184545D02*
X163090500Y-109724545D01*
X165830500Y-109724545D02*
X165830500Y-103184545D01*
X163090500Y-109724545D02*
X165830500Y-109724545D01*
X164460500Y-110494545D02*
X164460500Y-109724545D01*
X168500000Y-102460000D02*
X168500000Y-103230000D01*
X169870000Y-103230000D02*
X167130000Y-103230000D01*
X167130000Y-103230000D02*
X167130000Y-109770000D01*
X169870000Y-109770000D02*
X169870000Y-103230000D01*
X167130000Y-109770000D02*
X169870000Y-109770000D01*
X168500000Y-110540000D02*
X168500000Y-109770000D01*
X172500000Y-102460000D02*
X172500000Y-103230000D01*
X173870000Y-103230000D02*
X171130000Y-103230000D01*
X171130000Y-103230000D02*
X171130000Y-109770000D01*
X173870000Y-109770000D02*
X173870000Y-103230000D01*
X171130000Y-109770000D02*
X173870000Y-109770000D01*
X172500000Y-110540000D02*
X172500000Y-109770000D01*
X153830000Y-96270000D02*
X153830000Y-98870000D01*
X151170000Y-98870000D02*
X153830000Y-98870000D01*
X151170000Y-96270000D02*
X153830000Y-96270000D01*
X151170000Y-96270000D02*
X151170000Y-98870000D01*
X151170000Y-95000000D02*
X151170000Y-93670000D01*
X151170000Y-93670000D02*
X152500000Y-93670000D01*
X155170000Y-93670000D02*
X156500000Y-93670000D01*
X155170000Y-95000000D02*
X155170000Y-93670000D01*
X155170000Y-96270000D02*
X155170000Y-98870000D01*
X155170000Y-96270000D02*
X157830000Y-96270000D01*
X155170000Y-98870000D02*
X157830000Y-98870000D01*
X157830000Y-96270000D02*
X157830000Y-98870000D01*
X161830000Y-96270000D02*
X161830000Y-98870000D01*
X159170000Y-98870000D02*
X161830000Y-98870000D01*
X159170000Y-96270000D02*
X161830000Y-96270000D01*
X159170000Y-96270000D02*
X159170000Y-98870000D01*
X159170000Y-95000000D02*
X159170000Y-93670000D01*
X159170000Y-93670000D02*
X160500000Y-93670000D01*
X165784762Y-96270000D02*
X165784762Y-98870000D01*
X163124762Y-98870000D02*
X165784762Y-98870000D01*
X163124762Y-96270000D02*
X165784762Y-96270000D01*
X163124762Y-96270000D02*
X163124762Y-98870000D01*
X163124762Y-95000000D02*
X163124762Y-93670000D01*
X163124762Y-93670000D02*
X164454762Y-93670000D01*
X169830000Y-96270000D02*
X169830000Y-98870000D01*
X167170000Y-98870000D02*
X169830000Y-98870000D01*
X167170000Y-96270000D02*
X169830000Y-96270000D01*
X167170000Y-96270000D02*
X167170000Y-98870000D01*
X167170000Y-95000000D02*
X167170000Y-93670000D01*
X167170000Y-93670000D02*
X168500000Y-93670000D01*
X173830000Y-96270000D02*
X173830000Y-98870000D01*
X171170000Y-98870000D02*
X173830000Y-98870000D01*
X171170000Y-96270000D02*
X173830000Y-96270000D01*
X171170000Y-96270000D02*
X171170000Y-98870000D01*
X171170000Y-95000000D02*
X171170000Y-93670000D01*
X171170000Y-93670000D02*
X172500000Y-93670000D01*
X129870000Y-109724545D02*
X129870000Y-103184545D01*
X129870000Y-103184545D02*
X127130000Y-103184545D01*
X128500000Y-110494545D02*
X128500000Y-109724545D01*
X128500000Y-102414545D02*
X128500000Y-103184545D01*
X127130000Y-109724545D02*
X129870000Y-109724545D01*
X127130000Y-103184545D02*
X127130000Y-109724545D01*
X111170000Y-93670000D02*
X112500000Y-93670000D01*
X111170000Y-95000000D02*
X111170000Y-93670000D01*
X111170000Y-96270000D02*
X111170000Y-98870000D01*
X111170000Y-96270000D02*
X113830000Y-96270000D01*
X111170000Y-98870000D02*
X113830000Y-98870000D01*
X113830000Y-96270000D02*
X113830000Y-98870000D01*
X135130000Y-103184545D02*
X135130000Y-109724545D01*
X135130000Y-109724545D02*
X137870000Y-109724545D01*
X136500000Y-102414545D02*
X136500000Y-103184545D01*
X136500000Y-110494545D02*
X136500000Y-109724545D01*
X137870000Y-103184545D02*
X135130000Y-103184545D01*
X137870000Y-109724545D02*
X137870000Y-103184545D01*
X168590000Y-132790000D02*
X168790000Y-132790000D01*
X168590000Y-134210000D02*
X168590000Y-132790000D01*
X168590000Y-139210000D02*
X168590000Y-137790000D01*
X168590000Y-139210000D02*
X168790000Y-139210000D01*
X168790000Y-132690000D02*
X169480000Y-132690000D01*
X168790000Y-132790000D02*
X168790000Y-132690000D01*
X168790000Y-134210000D02*
X168590000Y-134210000D01*
X168790000Y-137790000D02*
X168590000Y-137790000D01*
X168790000Y-137790000D02*
X168790000Y-134210000D01*
X168790000Y-139210000D02*
X168790000Y-139310000D01*
X168790000Y-139310000D02*
X169040000Y-139310000D01*
X170520000Y-132690000D02*
X174500000Y-132690000D01*
X174500000Y-139310000D02*
X170960000Y-139310000D01*
X175810000Y-134000000D02*
X175810000Y-135490000D01*
X175810000Y-136510000D02*
X175810000Y-138000000D01*
X174500000Y-132690000D02*
G75*
G02*
X175810000Y-134000000I0J-1310000D01*
G01*
X175810000Y-138000000D02*
G75*
G02*
X174500000Y-139310000I-1310000J0D01*
G01*
X168960000Y-127460500D02*
X169730000Y-127460500D01*
X169730000Y-126090500D02*
X169730000Y-128830500D01*
X169730000Y-128830500D02*
X176270000Y-128830500D01*
X176270000Y-126090500D02*
X169730000Y-126090500D01*
X176270000Y-128830500D02*
X176270000Y-126090500D01*
X177040000Y-127460500D02*
X176270000Y-127460500D01*
X133830000Y-96270000D02*
X133830000Y-98870000D01*
X131170000Y-98870000D02*
X133830000Y-98870000D01*
X131170000Y-96270000D02*
X133830000Y-96270000D01*
X131170000Y-96270000D02*
X131170000Y-98870000D01*
X131170000Y-95000000D02*
X131170000Y-93670000D01*
X131170000Y-93670000D02*
X132500000Y-93670000D01*
X166050000Y-121870000D02*
X166050000Y-116670000D01*
X117730000Y-121870000D02*
X166050000Y-121870000D01*
X117730000Y-121870000D02*
X117730000Y-119270000D01*
X117730000Y-119270000D02*
X115130000Y-119270000D01*
X116460000Y-121870000D02*
X115130000Y-121870000D01*
X115130000Y-121870000D02*
X115130000Y-120540000D01*
X115130000Y-119270000D02*
X115130000Y-116670000D01*
X115130000Y-116670000D02*
X166050000Y-116670000D01*
X119170000Y-93670000D02*
X120500000Y-93670000D01*
X119170000Y-95000000D02*
X119170000Y-93670000D01*
X119170000Y-96270000D02*
X119170000Y-98870000D01*
X119170000Y-96270000D02*
X121830000Y-96270000D01*
X119170000Y-98870000D02*
X121830000Y-98870000D01*
X121830000Y-96270000D02*
X121830000Y-98870000D01*
X131130000Y-103230000D02*
X131130000Y-109770000D01*
X131130000Y-109770000D02*
X133870000Y-109770000D01*
X132500000Y-102460000D02*
X132500000Y-103230000D01*
X132500000Y-110540000D02*
X132500000Y-109770000D01*
X133870000Y-103230000D02*
X131130000Y-103230000D01*
X133870000Y-109770000D02*
X133870000Y-103230000D01*
X129830000Y-96270000D02*
X129830000Y-98870000D01*
X127170000Y-98870000D02*
X129830000Y-98870000D01*
X127170000Y-96270000D02*
X129830000Y-96270000D01*
X127170000Y-96270000D02*
X127170000Y-98870000D01*
X127170000Y-95000000D02*
X127170000Y-93670000D01*
X127170000Y-93670000D02*
X128500000Y-93670000D01*
X110190000Y-131790000D02*
X110190000Y-132040000D01*
X110190000Y-137500000D02*
X110190000Y-133960000D01*
X110290000Y-131590000D02*
X110290000Y-131790000D01*
X110290000Y-131590000D02*
X111710000Y-131590000D01*
X110290000Y-131790000D02*
X110190000Y-131790000D01*
X111710000Y-131790000D02*
X111710000Y-131590000D01*
X111710000Y-131790000D02*
X115290000Y-131790000D01*
X112990000Y-138810000D02*
X111500000Y-138810000D01*
X115290000Y-131590000D02*
X116710000Y-131590000D01*
X115290000Y-131790000D02*
X115290000Y-131590000D01*
X115500000Y-138810000D02*
X114010000Y-138810000D01*
X116710000Y-131590000D02*
X116710000Y-131790000D01*
X116710000Y-131790000D02*
X116810000Y-131790000D01*
X116810000Y-131790000D02*
X116810000Y-132480000D01*
X116810000Y-133520000D02*
X116810000Y-137500000D01*
X111500000Y-138810000D02*
G75*
G02*
X110190000Y-137500000I0J1310000D01*
G01*
X116810000Y-137500000D02*
G75*
G02*
X115500000Y-138810000I-1310000J0D01*
G01*
X149830000Y-96270000D02*
X149830000Y-98870000D01*
X147170000Y-98870000D02*
X149830000Y-98870000D01*
X147170000Y-96270000D02*
X149830000Y-96270000D01*
X147170000Y-96270000D02*
X147170000Y-98870000D01*
X147170000Y-95000000D02*
X147170000Y-93670000D01*
X147170000Y-93670000D02*
X148500000Y-93670000D01*
X115130500Y-93670000D02*
X116460500Y-93670000D01*
X115130500Y-95000000D02*
X115130500Y-93670000D01*
X115130500Y-96270000D02*
X115130500Y-98870000D01*
X115130500Y-96270000D02*
X117790500Y-96270000D01*
X115130500Y-98870000D02*
X117790500Y-98870000D01*
X117790500Y-96270000D02*
X117790500Y-98870000D01*
X123077143Y-93670000D02*
X124407143Y-93670000D01*
X123077143Y-95000000D02*
X123077143Y-93670000D01*
X123077143Y-96270000D02*
X123077143Y-98870000D01*
X123077143Y-96270000D02*
X125737143Y-96270000D01*
X123077143Y-98870000D02*
X125737143Y-98870000D01*
X125737143Y-96270000D02*
X125737143Y-98870000D01*
X153130000Y-127830000D02*
X153130000Y-126500000D01*
X154460000Y-127830000D02*
X153130000Y-127830000D01*
X155730000Y-127830000D02*
X160870000Y-127830000D01*
X155730000Y-127830000D02*
X155730000Y-125170000D01*
X160870000Y-127830000D02*
X160870000Y-125170000D01*
X155730000Y-125170000D02*
X160870000Y-125170000D01*
X125870000Y-109724545D02*
X125870000Y-103184545D01*
X125870000Y-103184545D02*
X123130000Y-103184545D01*
X124500000Y-110494545D02*
X124500000Y-109724545D01*
X124500000Y-102414545D02*
X124500000Y-103184545D01*
X123130000Y-109724545D02*
X125870000Y-109724545D01*
X123130000Y-103184545D02*
X123130000Y-109724545D01*
X147130000Y-103184545D02*
X147130000Y-109724545D01*
X147130000Y-109724545D02*
X149870000Y-109724545D01*
X148500000Y-102414545D02*
X148500000Y-103184545D01*
X148500000Y-110494545D02*
X148500000Y-109724545D01*
X149870000Y-103184545D02*
X147130000Y-103184545D01*
X149870000Y-109724545D02*
X149870000Y-103184545D01*
X117870000Y-109724545D02*
X117870000Y-103184545D01*
X117870000Y-103184545D02*
X115130000Y-103184545D01*
X116500000Y-110494545D02*
X116500000Y-109724545D01*
X116500000Y-102414545D02*
X116500000Y-103184545D01*
X115130000Y-109724545D02*
X117870000Y-109724545D01*
X115130000Y-103184545D02*
X115130000Y-109724545D01*
X111090500Y-103180000D02*
X111090500Y-109720000D01*
X111090500Y-109720000D02*
X113830500Y-109720000D01*
X112460500Y-102410000D02*
X112460500Y-103180000D01*
X112460500Y-110490000D02*
X112460500Y-109720000D01*
X113830500Y-103180000D02*
X111090500Y-103180000D01*
X113830500Y-109720000D02*
X113830500Y-103180000D01*
X141830000Y-96270000D02*
X141830000Y-98870000D01*
X139170000Y-98870000D02*
X141830000Y-98870000D01*
X139170000Y-96270000D02*
X141830000Y-96270000D01*
X139170000Y-96270000D02*
X139170000Y-98870000D01*
X139170000Y-95000000D02*
X139170000Y-93670000D01*
X139170000Y-93670000D02*
X140500000Y-93670000D01*
X119130000Y-103184545D02*
X119130000Y-109724545D01*
X119130000Y-109724545D02*
X121870000Y-109724545D01*
X120500000Y-102414545D02*
X120500000Y-103184545D01*
X120500000Y-110494545D02*
X120500000Y-109724545D01*
X121870000Y-103184545D02*
X119130000Y-103184545D01*
X121870000Y-109724545D02*
X121870000Y-103184545D01*
X143130000Y-103184545D02*
X143130000Y-109724545D01*
X143130000Y-109724545D02*
X145870000Y-109724545D01*
X144500000Y-102414545D02*
X144500000Y-103184545D01*
X144500000Y-110494545D02*
X144500000Y-109724545D01*
X145870000Y-103184545D02*
X143130000Y-103184545D01*
X145870000Y-109724545D02*
X145870000Y-103184545D01*
X145830000Y-96270000D02*
X145830000Y-98870000D01*
X143170000Y-98870000D02*
X145830000Y-98870000D01*
X143170000Y-96270000D02*
X145830000Y-96270000D01*
X143170000Y-96270000D02*
X143170000Y-98870000D01*
X143170000Y-95000000D02*
X143170000Y-93670000D01*
X143170000Y-93670000D02*
X144500000Y-93670000D01*
X139130000Y-103184545D02*
X139130000Y-109724545D01*
X139130000Y-109724545D02*
X141870000Y-109724545D01*
X140500000Y-102414545D02*
X140500000Y-103184545D01*
X140500000Y-110494545D02*
X140500000Y-109724545D01*
X141870000Y-103184545D02*
X139130000Y-103184545D01*
X141870000Y-109724545D02*
X141870000Y-103184545D01*
X165850000Y-138530000D02*
X165850000Y-134930000D01*
X161400000Y-136730000D02*
G75*
G02*
X165838478Y-134891522I2600000J0D01*
G01*
X165838478Y-138568478D02*
G75*
G02*
X161399999Y-136730000I-1838478J1838478D01*
G01*
X137830000Y-96270000D02*
X137830000Y-98870000D01*
X135170000Y-98870000D02*
X137830000Y-98870000D01*
X135170000Y-96270000D02*
X137830000Y-96270000D01*
X135170000Y-96270000D02*
X135170000Y-98870000D01*
X135170000Y-95000000D02*
X135170000Y-93670000D01*
X135170000Y-93670000D02*
X136500000Y-93670000D01*
X168960000Y-130460500D02*
X169730000Y-130460500D01*
X169730000Y-129090500D02*
X169730000Y-131830500D01*
X169730000Y-131830500D02*
X176270000Y-131830500D01*
X176270000Y-129090500D02*
X169730000Y-129090500D01*
X176270000Y-131830500D02*
X176270000Y-129090500D01*
X177040000Y-130460500D02*
X176270000Y-130460500D01*
X159030000Y-141090000D02*
X159030000Y-132460000D01*
X158060000Y-132460000D02*
X158060000Y-132050000D01*
X157340000Y-132460000D02*
X157340000Y-132050000D01*
X156430000Y-141090000D02*
X156430000Y-132460000D01*
X155520000Y-132460000D02*
X155520000Y-132050000D01*
X154800000Y-132460000D02*
X154800000Y-132050000D01*
X153890000Y-141090000D02*
X153890000Y-132460000D01*
X152980000Y-132460000D02*
X152980000Y-132050000D01*
X152260000Y-132460000D02*
X152260000Y-132050000D01*
X151350000Y-141090000D02*
X151350000Y-132460000D01*
X150440000Y-132460000D02*
X150440000Y-132050000D01*
X149720000Y-132460000D02*
X149720000Y-132050000D01*
X148810000Y-141090000D02*
X148810000Y-132460000D01*
X147900000Y-132460000D02*
X147900000Y-132050000D01*
X147180000Y-132460000D02*
X147180000Y-132050000D01*
X146270000Y-141090000D02*
X146270000Y-132460000D01*
X145360000Y-132460000D02*
X145360000Y-132050000D01*
X144640000Y-132460000D02*
X144640000Y-132050000D01*
X143730000Y-141090000D02*
X143730000Y-132460000D01*
X142820000Y-132460000D02*
X142820000Y-132050000D01*
X142100000Y-132460000D02*
X142100000Y-132050000D01*
X141190000Y-141090000D02*
X141190000Y-132460000D01*
X140280000Y-132460000D02*
X140280000Y-132050000D01*
X139560000Y-132460000D02*
X139560000Y-132050000D01*
X138650000Y-141090000D02*
X138650000Y-132460000D01*
X137740000Y-132460000D02*
X137740000Y-132050000D01*
X137020000Y-132460000D02*
X137020000Y-132050000D01*
X136110000Y-141090000D02*
X136110000Y-132460000D01*
X135200000Y-132460000D02*
X135200000Y-132050000D01*
X134480000Y-132460000D02*
X134480000Y-132050000D01*
X133570000Y-141090000D02*
X133570000Y-132460000D01*
X132660000Y-132460000D02*
X132660000Y-132050000D01*
X131940000Y-132460000D02*
X131940000Y-132050000D01*
X131030000Y-141090000D02*
X131030000Y-132460000D01*
X130120000Y-132460000D02*
X130120000Y-132050000D01*
X129400000Y-132460000D02*
X129400000Y-132050000D01*
X128490000Y-141090000D02*
X128490000Y-132460000D01*
X127580000Y-132460000D02*
X127580000Y-132050000D01*
X126860000Y-132460000D02*
X126860000Y-132050000D01*
X125950000Y-141090000D02*
X125950000Y-132460000D01*
X125040000Y-132460000D02*
X125040000Y-132050000D01*
X124320000Y-132460000D02*
X124320000Y-132050000D01*
X123410000Y-141090000D02*
X123410000Y-132460000D01*
X122500000Y-132460000D02*
X122500000Y-132050000D01*
X121780000Y-132460000D02*
X121780000Y-132050000D01*
X120870000Y-141090000D02*
X120870000Y-132460000D01*
X120751900Y-141090000D02*
X120751900Y-132460000D01*
X120633805Y-141090000D02*
X120633805Y-132460000D01*
X120515710Y-141090000D02*
X120515710Y-132460000D01*
X120397615Y-141090000D02*
X120397615Y-132460000D01*
X120279520Y-141090000D02*
X120279520Y-132460000D01*
X120161425Y-141090000D02*
X120161425Y-132460000D01*
X120043330Y-141090000D02*
X120043330Y-132460000D01*
X119960000Y-132460000D02*
X119960000Y-132110000D01*
X119925235Y-141090000D02*
X119925235Y-132460000D01*
X119807140Y-141090000D02*
X119807140Y-132460000D01*
X119689045Y-141090000D02*
X119689045Y-132460000D01*
X119570950Y-141090000D02*
X119570950Y-132460000D01*
X119452855Y-141090000D02*
X119452855Y-132460000D01*
X119334760Y-141090000D02*
X119334760Y-132460000D01*
X119240000Y-132460000D02*
X119240000Y-132110000D01*
X119216665Y-141090000D02*
X119216665Y-132460000D01*
X119098570Y-141090000D02*
X119098570Y-132460000D01*
X118980475Y-141090000D02*
X118980475Y-132460000D01*
X118862380Y-141090000D02*
X118862380Y-132460000D01*
X118744285Y-141090000D02*
X118744285Y-132460000D01*
X118626190Y-141090000D02*
X118626190Y-132460000D01*
X118508095Y-141090000D02*
X118508095Y-132460000D01*
X118390000Y-141090000D02*
X118390000Y-132460000D01*
X118270000Y-141090000D02*
X159030000Y-141090000D01*
X118270000Y-141090000D02*
X118270000Y-132460000D01*
X118270000Y-132460000D02*
X159030000Y-132460000D01*
X118270000Y-131000000D02*
X118270000Y-129890000D01*
X118270000Y-129890000D02*
X119600000Y-129890000D01*
%LPC*%
D13*
X109750000Y-89500000D03*
D14*
X109750000Y-89500000D03*
D13*
X176250000Y-89500000D03*
D14*
X176250000Y-89500000D03*
D13*
X109750000Y-122250000D03*
D14*
X109750000Y-122250000D03*
D13*
X176250000Y-122250000D03*
D14*
X176250000Y-122250000D03*
D15*
X152500000Y-111534545D03*
D16*
X152500000Y-101374545D03*
D15*
X156500000Y-111534545D03*
D16*
X156500000Y-101374545D03*
D15*
X160500000Y-111534545D03*
D16*
X160500000Y-101374545D03*
D15*
X164460500Y-101374545D03*
D16*
X164460500Y-111534545D03*
D15*
X168500000Y-101420000D03*
D16*
X168500000Y-111580000D03*
D15*
X172500000Y-101420000D03*
D16*
X172500000Y-111580000D03*
D17*
X152500000Y-97540000D03*
D18*
X152500000Y-95000000D03*
X156500000Y-95000000D03*
D17*
X156500000Y-97540000D03*
X160500000Y-97540000D03*
D18*
X160500000Y-95000000D03*
D17*
X164454762Y-97540000D03*
D18*
X164454762Y-95000000D03*
D17*
X168500000Y-97540000D03*
D18*
X168500000Y-95000000D03*
D17*
X172500000Y-97540000D03*
D18*
X172500000Y-95000000D03*
D15*
X128500000Y-101374545D03*
D16*
X128500000Y-111534545D03*
D18*
X112500000Y-95000000D03*
D17*
X112500000Y-97540000D03*
D16*
X136500000Y-111534545D03*
D15*
X136500000Y-101374545D03*
D19*
X170000000Y-138500000D03*
D20*
X175000000Y-136000000D03*
X170000000Y-133500000D03*
D15*
X167920000Y-127460500D03*
D16*
X178080000Y-127460500D03*
D17*
X132500000Y-97540000D03*
D18*
X132500000Y-95000000D03*
D17*
X116460000Y-118000000D03*
X119000000Y-118000000D03*
X121540000Y-118000000D03*
X124080000Y-118000000D03*
X126620000Y-118000000D03*
X129160000Y-118000000D03*
X131700000Y-118000000D03*
X134240000Y-118000000D03*
X136780000Y-118000000D03*
X139320000Y-118000000D03*
X141860000Y-118000000D03*
X144400000Y-118000000D03*
X146940000Y-118000000D03*
X149480000Y-118000000D03*
X152020000Y-118000000D03*
X154560000Y-118000000D03*
X157100000Y-118000000D03*
X159640000Y-118000000D03*
X162180000Y-118000000D03*
X164720000Y-118000000D03*
X164720000Y-120540000D03*
X162180000Y-120540000D03*
X159640000Y-120540000D03*
X157100000Y-120540000D03*
X154560000Y-120540000D03*
X152020000Y-120540000D03*
X149480000Y-120540000D03*
X146940000Y-120540000D03*
X144400000Y-120540000D03*
X141860000Y-120540000D03*
X139320000Y-120540000D03*
X136780000Y-120540000D03*
X134240000Y-120540000D03*
X131700000Y-120540000D03*
X129160000Y-120540000D03*
X126620000Y-120540000D03*
X124080000Y-120540000D03*
X121540000Y-120540000D03*
X119000000Y-120540000D03*
D18*
X116460000Y-120540000D03*
X120500000Y-95000000D03*
D17*
X120500000Y-97540000D03*
D16*
X132500000Y-111580000D03*
D15*
X132500000Y-101420000D03*
D17*
X128500000Y-97540000D03*
D18*
X128500000Y-95000000D03*
D19*
X111000000Y-133000000D03*
D20*
X113500000Y-138000000D03*
X116000000Y-133000000D03*
D17*
X148500000Y-97540000D03*
D18*
X148500000Y-95000000D03*
X116460500Y-95000000D03*
D17*
X116460500Y-97540000D03*
D18*
X124407143Y-95000000D03*
D17*
X124407143Y-97540000D03*
D18*
X154460000Y-126500000D03*
D17*
X157000000Y-126500000D03*
X159540000Y-126500000D03*
D15*
X124500000Y-101374545D03*
D16*
X124500000Y-111534545D03*
X148500000Y-111534545D03*
D15*
X148500000Y-101374545D03*
X116500000Y-101374545D03*
D16*
X116500000Y-111534545D03*
X112460500Y-111530000D03*
D15*
X112460500Y-101370000D03*
D17*
X140500000Y-97540000D03*
D18*
X140500000Y-95000000D03*
D16*
X120500000Y-111534545D03*
D15*
X120500000Y-101374545D03*
D16*
X144500000Y-111534545D03*
D15*
X144500000Y-101374545D03*
D17*
X144500000Y-97540000D03*
D18*
X144500000Y-95000000D03*
D16*
X140500000Y-111534545D03*
D15*
X140500000Y-101374545D03*
D21*
X164000000Y-138000000D03*
D22*
X164000000Y-136730000D03*
X164000000Y-135460000D03*
D17*
X136500000Y-97540000D03*
D18*
X136500000Y-95000000D03*
D16*
X178080000Y-130460500D03*
D15*
X167920000Y-130460500D03*
D17*
X157700000Y-131000000D03*
X155160000Y-131000000D03*
X152620000Y-131000000D03*
X150080000Y-131000000D03*
X147540000Y-131000000D03*
X145000000Y-131000000D03*
X142460000Y-131000000D03*
X139920000Y-131000000D03*
X137380000Y-131000000D03*
X134840000Y-131000000D03*
X132300000Y-131000000D03*
X129760000Y-131000000D03*
X127220000Y-131000000D03*
X124680000Y-131000000D03*
X122140000Y-131000000D03*
D18*
X119600000Y-131000000D03*
%LPD*%
M02*
